<svg id="Zain-01" xmlns="http://www.w3.org/2000/svg" width="108.397" height="129.37" viewBox="0 0 108.397 129.37">
  <path id="Path" d="M.778,1.491h.1c.146-.162.519-.6.648-.745h0v-.1C1.361.5.924.13.762,0h-.1C.535.162.146.6,0,.762v.1c.178.113.616.5.778.632" transform="translate(60.614 127.879)" fill="#453d66"/>
  <g id="UOPBxE.tif" transform="translate(0 0)">
    <g id="Group">
      <path id="Path-2" data-name="Path" d="M35.861,20.568c-.194-.713-.356-1.442-.567-2.139a14.618,14.618,0,0,0-2.917-5.574A10.26,10.26,0,0,0,25.945,9.4a13.022,13.022,0,0,0-8.037,1.215,12.756,12.756,0,0,0-6.627,8.41A18.942,18.942,0,0,0,11.783,31a13.732,13.732,0,0,0,10.208,8.863,16.667,16.667,0,0,0,10.954-.972,14.724,14.724,0,0,0,7.373-7.405,23.351,23.351,0,0,0,1.944-7.616,55.9,55.9,0,0,0,.194-5.7c.032-3.225-.1-6.465.065-9.69a7.989,7.989,0,0,1,3.468-6.627A10.238,10.238,0,0,1,52.243.265c.211,0,.292.081.292.292-.016.194,0,.389,0,.583q0,11.253-.032,22.523c0,.324.113.405.405.405,5.169-.016,10.338.032,15.507-.016a10.252,10.252,0,0,0,9.852-8.977c.227-1.88.049-3.775.1-5.671a11.968,11.968,0,0,1,.486-3.387A7.816,7.816,0,0,1,84.926.573,12.981,12.981,0,0,1,87.891.265c.421,0,.551.113.551.551-.016,4.132-.016,8.248-.016,12.38a24.248,24.248,0,0,1-.324,4.051A20.342,20.342,0,0,1,74.718,33a18.619,18.619,0,0,1-6.028,1.1c-5.833.016-11.683.016-17.516,0a.834.834,0,0,0-.907.616A23.754,23.754,0,0,1,34.484,48.763a29.414,29.414,0,0,1-10.419,1.118A25.419,25.419,0,0,1,9.093,44.193,24.71,24.71,0,0,1,1.251,32.332,28.137,28.137,0,0,1,.019,22.9,25.042,25.042,0,0,1,3.827,10.052,21.182,21.182,0,0,1,17.762.508,22.908,22.908,0,0,1,24.325.071,16.588,16.588,0,0,1,34.063,3.7a11.475,11.475,0,0,1,4.262,10.37,14.275,14.275,0,0,1-2.236,6.206c-.049.081-.1.146-.146.227C35.942,20.52,35.91,20.536,35.861,20.568Z" transform="translate(0.448 15.371)" fill="#453d66"/>
      <path id="Path-3" data-name="Path" d="M23.452,11.294c0,3.225.032,6.465,0,9.69A29.9,29.9,0,0,1,16.5,40.1a29.978,29.978,0,0,1-14.94,9.836c-.324.1-.47.016-.632-.275A9.381,9.381,0,0,1,3.781,38.078a25.336,25.336,0,0,0,4.245-3.532,20.021,20.021,0,0,0,5.282-11.8c.065-.745.081-1.491.081-2.236V9.252a10.094,10.094,0,0,1,1.086-4.958A8.185,8.185,0,0,1,20.406.211,15.351,15.351,0,0,1,22.982,0c.373,0,.47.113.47.486Z" transform="translate(84.93 15.604)" fill="#453d66"/>
      <path id="Path-4" data-name="Path" d="M5.824,18.587V28.731c0,.356-.1.519-.47.5a5.513,5.513,0,0,1-4.148-1.766,5.581,5.581,0,0,1-1.2-3.743c-.016-4.812,0-9.625,0-14.437,0-1.394-.016-2.8,0-4.2A6.486,6.486,0,0,1,.591,2.4,3.919,3.919,0,0,1,3.75.066,5.015,5.015,0,0,1,8.077,1.379a25.787,25.787,0,0,1,2.884,3.468c3.516,4.569,7,9.139,10.516,13.708l1.7,2.236c.146.194.259.551.519.47.292-.081.146-.437.146-.681.016-6.611,0-13.222,0-19.833,0-.778,0-.762.762-.729A5.255,5.255,0,0,1,28.023,1.33a5.2,5.2,0,0,1,1.6,4.018c.016,5.623.016,11.229,0,16.852a21.818,21.818,0,0,1-.065,2.722,4.4,4.4,0,0,1-2.576,3.889,4.8,4.8,0,0,1-4.942-.6,12.537,12.537,0,0,1-2.479-2.674Q12.93,16.886,6.31,8.249a1.865,1.865,0,0,0-.227-.275c-.146-.13-.259-.065-.292.1a1.317,1.317,0,0,0-.016.356C5.824,11.814,5.824,15.2,5.824,18.587Z" transform="translate(78.269 92.181)" fill="#453d66"/>
      <path id="Path-5" data-name="Path" d="M21.343,17.435A8.232,8.232,0,0,1,22.8,21.34c.373,4.116-2.414,7-5.979,7.859A12.938,12.938,0,0,1,3.73,25.553a13.388,13.388,0,0,1-3.516-7.47,16.252,16.252,0,0,1,.843-8.474A14.2,14.2,0,0,1,11.945.4a16.649,16.649,0,0,1,11.1,1.329,14.106,14.106,0,0,1,7.632,9.755,20.279,20.279,0,0,1,.551,5.039V29.036c0,.275.016.551-.389.535a6.371,6.371,0,0,1-3.581-1.037A4.564,4.564,0,0,1,25.33,25c-.178-2.317-.065-4.65-.065-6.968a19.556,19.556,0,0,0-.567-5.039,8.922,8.922,0,0,0-4.861-6.287,9.469,9.469,0,0,0-10.095.875,8.251,8.251,0,0,0-3.208,5.493,10.7,10.7,0,0,0,1.021,7.275A7.58,7.58,0,0,0,17.73,23.3a7.1,7.1,0,0,0,3.127-4.1C21.019,18.634,21.165,18.083,21.343,17.435Z" transform="translate(30.084 91.859)" fill="#453d66"/>
      <path id="Path-6" data-name="Path" d="M16.589,28.454c-3.451,0-6.9.016-10.37,0a10.041,10.041,0,0,1-3.468-.486A4.106,4.106,0,0,1,.661,21.81a12.056,12.056,0,0,1,2.722-2.868q5.663-4.594,11.359-9.171c1.6-1.3,3.225-2.593,4.829-3.889.162-.13.47-.243.373-.486-.081-.259-.389-.146-.6-.146H6.17a7.64,7.64,0,0,1-2.755-.47A3.913,3.913,0,0,1,.807,1.167C.71,0,.71,0,1.876,0H21.531a11.064,11.064,0,0,1,2.917.356,4.169,4.169,0,0,1,2.106,6.806,24.063,24.063,0,0,1-3.84,3.532c-3.37,2.738-6.757,5.461-10.143,8.2-1.475,1.183-2.949,2.366-4.407,3.549-.194.162-.551.292-.454.6.1.324.47.178.713.178,4.521.016,9.058,0,13.579.016a9.771,9.771,0,0,1,2.382.275c2.447.616,3.354,2.414,3.387,4.667,0,.227-.1.292-.292.292h-.81c-3.354-.016-6.724-.016-10.079-.016Z" transform="translate(0 92.506)" fill="#453d66"/>
      <path id="Path-7" data-name="Path" d="M0,12.551V.577C0-.006,0-.023.6.01A5.467,5.467,0,0,1,5.01,2.068a4.949,4.949,0,0,1,.907,2.674c.049.567.032,1.134.032,1.7V28.69c0,.648,0,.648-.648.632a5.255,5.255,0,0,1-4.164-1.8,4.713,4.713,0,0,1-1.1-2.917C-.014,23.246,0,21.868,0,20.491Z" transform="translate(66.721 92.043)" fill="#453d66"/>
      <path id="Path-8" data-name="Path" d="M11.975,6A5.988,5.988,0,1,1,0,5.914,5.987,5.987,0,0,1,11.975,6Z" transform="translate(20.721 32.812)" fill="#453d66"/>
      <path id="Path-9" data-name="Path" d="M0,6a5.987,5.987,0,1,1,6.125,5.979A5.929,5.929,0,0,1,0,6Z" transform="translate(68.36 53.618)" fill="#453d66"/>
      <path id="Path-10" data-name="Path" d="M5.963,11.975A5.987,5.987,0,0,1,6,0a5.987,5.987,0,1,1-.032,11.974Z" transform="translate(96.408 0)" fill="#453d66"/>
      <path id="Path-11" data-name="Path" d="M5.963,11.958A5.92,5.92,0,0,1,0,5.979a5.987,5.987,0,1,1,5.963,5.979Z" transform="translate(54.327 53.634)" fill="#453d66"/>
      <path id="Path-12" data-name="Path" d="M3.376.012A3.53,3.53,0,0,1,7.07,3.35,3.57,3.57,0,0,1,3.781,7.06a3.532,3.532,0,0,1-3.775-3.4A3.476,3.476,0,0,1,3.376.012Z" transform="translate(66.167 82.789)" fill="#453d66"/>
    </g>
  </g>
</svg>
