<svg id="General-Authority-of-civil-Aviation-01" xmlns="http://www.w3.org/2000/svg" width="210.488" height="73.21" viewBox="0 0 210.488 73.21">
  <path id="Shape" d="M3.451,6.9A3.463,3.463,0,0,1,0,3.451,3.429,3.429,0,0,1,3.451,0,3.415,3.415,0,0,1,6.9,3.451,3.456,3.456,0,0,1,3.451,6.9Zm0-6.244A2.737,2.737,0,0,0,.685,3.425a2.753,2.753,0,1,0,5.506,0,2.767,2.767,0,0,0-.8-1.976A2.724,2.724,0,0,0,3.451.658Z" transform="translate(203.586 0.896)" fill="#453d66"/>
  <path id="Shape-2" data-name="Shape" d="M2.976,3.688H2.239l-.71-1.422H.658v1.4H0V.5C0,.178.2,0,.554,0H1.686A1.062,1.062,0,0,1,2.819,1.106a1.072,1.072,0,0,1-.632,1.027l.789,1.553ZM.658.58V1.66h.922a.524.524,0,0,0,.553-.554.477.477,0,0,0-.5-.527H.658Z" transform="translate(205.693 2.45)" fill="#453d66"/>
  <path id="Path" d="M18.2,7.666c7.245,0,8.14,7.455,8.14,7.455l8.614-2.028C34.906,12.882,33.4,0,18.2,0,8.8,0,0,5.743,0,20.417,0,34.985,9.247,40.57,18.836,40.57A26.642,26.642,0,0,0,31.56,37.487c2.081-1.212,3.24-2.4,3.24-4.9V23.6c0-2.345-1.554-3.767-4.083-3.767h-11.8v6.639h7.4v5.163A13.637,13.637,0,0,1,19.126,33.4c-4.847,0-9.905-2.924-9.905-12.988,0-9.826,4.4-12.75,8.983-12.75" transform="translate(58.826 0.053)" fill="#453d66"/>
  <path id="Path-2" data-name="Path" d="M18.546,0c-3.609,0-5.8,1.554-6.849,4.742L0,40.122H9.247a2.928,2.928,0,0,0,1.87-.843L22.261,28.267c.237-.237.158-.342-.105-.342h-1.5a3.478,3.478,0,0,0-1.765.474l-7.482,4.294L18.52,8.667S26.976,37.751,27.661,40.1h9.51L25.633,4.663C24.658,1.712,22.208,0,18.546,0" transform="translate(96.788)" fill="#453d66"/>
  <path id="Path-3" data-name="Path" d="M18.2,7.561c7.245,0,8.193,7.982,8.193,7.982l8.614-1.818S33.72,0,18.2,0C8.8,0,0,5.585,0,20.258,0,34.827,8.72,40.622,18.151,40.622c15.2,0,16.86-13.409,16.86-13.409L26.4,25.343s-.685,7.719-8.088,7.719c-4.584,0-9.036-2.924-9.036-12.829C9.247,10.432,13.62,7.561,18.2,7.561" transform="translate(135.381 0.053)" fill="#453d66"/>
  <path id="Path-4" data-name="Path" d="M18.572,0c-3.609,0-5.8,1.554-6.876,4.742L0,40.122H9.247a2.928,2.928,0,0,0,1.87-.843L22.261,28.267c.237-.237.158-.342-.105-.342h-1.5a3.409,3.409,0,0,0-1.765.474l-7.482,4.294L18.52,8.667S26.976,37.751,27.661,40.1H37.2L25.659,4.663C24.684,1.712,22.261,0,18.572,0" transform="translate(172.553)" fill="#453d66"/>
  <path id="Combined_Shape" data-name="Combined Shape" d="M55.929,39.753H24a12.3,12.3,0,0,1-8.229-3.517,14.125,14.125,0,0,1-2.814-3.863,16.125,16.125,0,0,1-1.522-4.949L9.247,11.855a14.3,14.3,0,0,0-3.115-7.3A13.083,13.083,0,0,0,.132.5C.05.5,0,.364,0,.237A.237.237,0,0,1,.237,0H32.166A12.238,12.238,0,0,1,40.4,3.484a14.044,14.044,0,0,1,2.814,3.859,16.15,16.15,0,0,1,1.523,4.96l2.187,15.57a14.183,14.183,0,0,0,3.115,7.261,13.121,13.121,0,0,0,6,4.04.342.342,0,0,1,.133.29A.268.268,0,0,1,55.929,39.753ZM33.115,29.479l-2.24,1.185,3.9,2.055a3.376,3.376,0,0,0,1.845.369h5.69c.073,0,.115-.011.118-.03s-.04-.049-.118-.076l-9.194-3.5ZM35.2,26.238a1.642,1.642,0,0,0-.606.106L17.15,32.982c-.065.026-.1.053-.1.074s.048.032.122.032h5.691a3.374,3.374,0,0,0,1.844-.369l11.96-6.349c.068-.042.1-.075.095-.1s-.049-.034-.121-.034ZM28.373,13.91h0c.131,6.411.732,11.432,1.37,11.432s1.235-4.915,1.423-11.434c.282.065.6.157.921.263a31.755,31.755,0,0,1,5.664,2.5.035.035,0,0,0,.028.011.126.126,0,0,0,.077-.038c.025-.026.026-.027.026-.052a2.067,2.067,0,0,0-.554-1.87,11.581,11.581,0,0,0-1.844-1.4,20.246,20.246,0,0,0-2.476-1.37c-.177-.1-.368-.182-.554-.262l-.016-.007-.122-.053-.046-.02A25.541,25.541,0,0,1,36.75,9.668c.052,0,.052-.053.052-.078l-.026-.027a1.816,1.816,0,0,0-1.3-.613c-.041,0-.087,0-.145.007a7.6,7.6,0,0,0-1.5.29c-.172.049-.342.095-.5.137l-.02.006c-.37.1-.752.2-1.114.331a6.374,6.374,0,0,0-.719.24l-.2.076a.368.368,0,0,0-.152.048l-.007,0c-.191-1.8-.73-3-1.344-3s-1.153,1.207-1.344,3a.379.379,0,0,0-.078-.026.4.4,0,0,1-.08-.027c-.131-.044-.257-.087-.383-.131l-.057-.02q-.234-.081-.482-.165c-.6-.2-1.119-.352-1.633-.474-.126-.026-.251-.054-.376-.082l-.031-.007a9.938,9.938,0,0,0-1.095-.2c-.04,0-.093-.007-.146-.007a1.812,1.812,0,0,0-1.3.613c-.026,0-.026,0-.026.027s.026.078.052.078a25.705,25.705,0,0,1,4.479,1.949c-.115.051-.238.109-.356.165l-.012.006-.048.023c-.107.051-.218.1-.321.149a20.4,20.4,0,0,0-2.477,1.37l-.095.063a11.448,11.448,0,0,0-1.749,1.334,2.131,2.131,0,0,0-.553,1.87.033.033,0,0,0,.013.026.035.035,0,0,1,.014.026.072.072,0,0,0,.063.045.061.061,0,0,0,.043-.017,31.694,31.694,0,0,1,5.664-2.5l.077-.023.05-.015c.235-.07.526-.158.794-.225Z" transform="translate(0 0.474)" fill="#453d66"/>
  <path id="Path-5" data-name="Path" d="M2.2.089l3.477,1.37-1.818.685L.1.142C-.036.063-.036.01.122.01H1.571A1.236,1.236,0,0,1,2.2.089" transform="translate(22.534 26.624)" fill="#453d66"/>
  <path id="Path-6" data-name="Path" d="M0,3.794C0,1.528,1.185,0,3.03,0A2.524,2.524,0,0,1,5.374,1.554L4.373,2A1.522,1.522,0,0,0,3.03,1.054c-1.054,0-1.765,1.054-1.765,2.713S1.976,6.481,3.03,6.481a1.7,1.7,0,0,0,1.238-.527V4.637H2.713V3.583H5.427v2.9a3.04,3.04,0,0,1-2.4,1.133C1.212,7.613,0,6.059,0,3.794" transform="translate(60.09 63.594)" fill="#453d66"/>
  <path id="Shape-3" data-name="Shape" d="M2.374,5.559A2.191,2.191,0,0,1,.644,4.791a3.039,3.039,0,0,1-.644-2A3.207,3.207,0,0,1,.612.823,2.063,2.063,0,0,1,2.292,0c1.36,0,2.239,1.106,2.239,2.819v.317h-3.4c.058.942.592,1.527,1.4,1.527a1.65,1.65,0,0,0,1.212-.58l.527.659a2.4,2.4,0,0,1-1.844.817ZM2.292.9C1.307.9,1.136,2.024,1.106,2.371H3.451a1.676,1.676,0,0,0-.41-1.181A1.018,1.018,0,0,0,2.292.9Z" transform="translate(66.65 65.596)" fill="#453d66"/>
  <path id="Path-7" data-name="Path" d="M2.951,5.4V1.791c0-.632-.29-.843-.764-.843a1.306,1.306,0,0,0-1.08.738V5.427H0V.132H1.106V.843A2.005,2.005,0,0,1,2.661,0c.975,0,1.4.527,1.4,1.449v4H2.951Z" transform="translate(72.419 65.649)" fill="#453d66"/>
  <path id="Shape-4" data-name="Shape" d="M2.373,5.559A2.192,2.192,0,0,1,.635,4.791a3.056,3.056,0,0,1-.635-2A3.207,3.207,0,0,1,.612.823,2.063,2.063,0,0,1,2.292,0c1.36,0,2.239,1.106,2.239,2.819v.317h-3.4c.058.942.592,1.527,1.4,1.527a1.65,1.65,0,0,0,1.212-.58l.527.659a2.4,2.4,0,0,1-1.844.817ZM2.292.9C1.307.9,1.136,2.024,1.106,2.371H3.451a1.748,1.748,0,0,0-.42-1.184A1,1,0,0,0,2.292.9Z" transform="translate(77.741 65.596)" fill="#453d66"/>
  <path id="Path-8" data-name="Path" d="M0,5.4V.105H1.106V.9A1.825,1.825,0,0,1,2.582,0V1.08a.988.988,0,0,0-.29-.026,1.5,1.5,0,0,0-1.185.738V5.427H0Z" transform="translate(83.484 65.649)" fill="#453d66"/>
  <path id="Shape-5" data-name="Shape" d="M1.633,5.532A1.627,1.627,0,0,1,0,3.767,1.584,1.584,0,0,1,1.633,2.055a1.763,1.763,0,0,1,1.423.632V1.923A.928.928,0,0,0,2,.922a1.848,1.848,0,0,0-1.344.606L.237.764A2.807,2.807,0,0,1,2.187,0,1.7,1.7,0,0,1,4.136,1.818V5.453H3.056v-.58A1.718,1.718,0,0,1,1.633,5.532Zm.422-2.713a.9.9,0,0,0-.922.975.9.9,0,0,0,.922,1,1.3,1.3,0,0,0,1-.606V3.4A1.156,1.156,0,0,0,2.055,2.819Z" transform="translate(86.856 65.649)" fill="#453d66"/>
  <rect id="Rectangle" width="1.106" height="7.324" transform="translate(92.52 63.726)" fill="#453d66"/>
  <path id="Shape-6" data-name="Shape" d="M1.343,7.324H0L2.213,0H3.688L5.9,7.322H4.557L4.162,5.875H1.738L1.344,7.324ZM2.95,1.291l-.975,3.5H3.9Z" transform="translate(97.104 63.726)" fill="#453d66"/>
  <path id="Path-9" data-name="Path" d="M2.951,5.3V4.584A1.894,1.894,0,0,1,1.4,5.427,1.249,1.249,0,0,1,0,4V0H1.106V3.635c0,.606.29.843.764.843a1.316,1.316,0,0,0,1.08-.711V.026H4.057v5.3H2.951Z" transform="translate(103.848 65.754)" fill="#453d66"/>
  <path id="Path-10" data-name="Path" d="M.711,5.559V2.4H0V1.449H.711V0H1.818V1.449h.9V2.4h-.9V5.321c0,.369.132.58.422.58a.531.531,0,0,0,.422-.184l.263.817a1.386,1.386,0,0,1-.975.316C1.106,6.876.711,6.428.711,5.559" transform="translate(108.932 64.306)" fill="#453d66"/>
  <path id="Path-11" data-name="Path" d="M2.977,7.324V3.688c0-.606-.29-.843-.79-.843a1.343,1.343,0,0,0-1.08.738V7.324H0V0H1.106V2.74A2.005,2.005,0,0,1,2.661,1.9a1.249,1.249,0,0,1,1.4,1.423v4Z" transform="translate(112.805 63.726)" fill="#453d66"/>
  <path id="Shape-7" data-name="Shape" d="M2.318,5.585A2.093,2.093,0,0,1,.6,4.752,3.224,3.224,0,0,1,0,2.793C0,1.4.717,0,2.318,0S4.637,1.4,4.637,2.793,3.92,5.585,2.318,5.585Zm0-4.61c-.874,0-1.186.939-1.186,1.818,0,.839.311,1.818,1.186,1.818S3.5,3.671,3.5,2.793C3.5,1.954,3.193.975,2.318.975Z" transform="translate(118.126 65.596)" fill="#453d66"/>
  <path id="Path-12" data-name="Path" d="M0,5.4V.105H1.106V.9A1.825,1.825,0,0,1,2.582,0V1.08a.988.988,0,0,0-.29-.026,1.5,1.5,0,0,0-1.185.738V5.427H0Z" transform="translate(124.027 65.649)" fill="#453d66"/>
  <path id="Shape-8" data-name="Shape" d="M1.238,7.35H.132V2.055H1.238V7.349ZM.711,1.37A.685.685,0,1,1,.711,0,.694.694,0,0,1,1.4.685.694.694,0,0,1,.711,1.37Z" transform="translate(127.531 63.7)" fill="#453d66"/>
  <path id="Path-13" data-name="Path" d="M.685,5.559V2.4H0V1.449H.711V0H1.818V1.449h.9V2.4h-.9V5.321c0,.369.132.58.422.58a.531.531,0,0,0,.422-.184l.263.817a1.386,1.386,0,0,1-.975.316C1.08,6.876.685,6.428.685,5.559" transform="translate(129.823 64.306)" fill="#453d66"/>
  <path id="Path-14" data-name="Path" d="M.632,6.4a.91.91,0,0,0,.342.079.563.563,0,0,0,.606-.448L1.791,5.4,0,0H1.185L2.371,3.978,3.583,0H4.768L2.661,6.3A1.462,1.462,0,0,1,1.08,7.455a2.392,2.392,0,0,1-.606-.079Z" transform="translate(133.01 65.754)" fill="#453d66"/>
  <path id="Shape-9" data-name="Shape" d="M2.318,5.585A2.093,2.093,0,0,1,.6,4.752,3.224,3.224,0,0,1,0,2.793C0,1.4.717,0,2.318,0S4.637,1.4,4.637,2.793,3.92,5.585,2.318,5.585Zm0-4.61c-.874,0-1.186.939-1.186,1.818,0,.839.311,1.818,1.186,1.818S3.5,3.671,3.5,2.793C3.5,1.954,3.193.975,2.318.975Z" transform="translate(140.966 65.596)" fill="#453d66"/>
  <path id="Path-15" data-name="Path" d="M.685,7.429V3.082H0V2.134H.685v-.5A1.45,1.45,0,0,1,2.187,0a1.585,1.585,0,0,1,1.08.369L2.9,1.133A.72.72,0,0,0,2.4.922c-.4,0-.606.263-.606.711v.5h.9v.948h-.9V7.429Z" transform="translate(146.42 63.621)" fill="#453d66"/>
  <path id="Path-16" data-name="Path" d="M0,3.794C0,1.581,1.159,0,3.03,0A2.494,2.494,0,0,1,5.374,1.607l-1.027.448A1.461,1.461,0,0,0,3.03,1.08c-1.08,0-1.765,1.133-1.765,2.713,0,1.554.685,2.713,1.765,2.713a1.452,1.452,0,0,0,1.317-1.08l1.027.448A2.516,2.516,0,0,1,3.03,7.587C1.159,7.587,0,6.006,0,3.794" transform="translate(152.505 63.594)" fill="#453d66"/>
  <path id="Shape-10" data-name="Shape" d="M1.264,7.35H.158V2.055H1.264V7.349ZM.711,1.37A.685.685,0,1,1,.711,0,.694.694,0,0,1,1.4.685.694.694,0,0,1,.711,1.37Z" transform="translate(158.854 63.7)" fill="#453d66"/>
  <path id="Path-17" data-name="Path" d="M1.765,5.3,0,0H1.185L2.371,4,3.556,0H4.742L2.951,5.3Z" transform="translate(161.014 65.754)" fill="#453d66"/>
  <path id="Shape-11" data-name="Shape" d="M1.238,7.35H.132V2.055H1.238V7.349ZM.711,1.37A.685.685,0,1,1,.711,0,.694.694,0,0,1,1.4.685.694.694,0,0,1,.711,1.37Z" transform="translate(166.494 63.7)" fill="#453d66"/>
  <rect id="Rectangle-2" data-name="Rectangle" width="1.106" height="7.324" transform="translate(169.286 63.726)" fill="#453d66"/>
  <path id="Shape-12" data-name="Shape" d="M1.317,7.324H0L2.213,0H3.688L5.9,7.322H4.531L4.136,5.875H1.712L1.317,7.324ZM2.9,1.291l-.975,3.5H3.847Z" transform="translate(173.896 63.726)" fill="#453d66"/>
  <path id="Path-18" data-name="Path" d="M1.765,5.3,0,0H1.185L2.371,4,3.556,0H4.742L2.977,5.3Z" transform="translate(179.85 65.754)" fill="#453d66"/>
  <path id="Shape-13" data-name="Shape" d="M1.264,7.35H.158V2.055H1.264V7.349ZM.711,1.37A.7.7,0,0,1,0,.685.683.683,0,0,1,.711,0,.694.694,0,0,1,1.4.685.694.694,0,0,1,.711,1.37Z" transform="translate(185.329 63.7)" fill="#453d66"/>
  <path id="Shape-14" data-name="Shape" d="M1.633,5.532A1.627,1.627,0,0,1,0,3.767,1.709,1.709,0,0,1,.5,2.486a1.634,1.634,0,0,1,1.133-.431,1.763,1.763,0,0,1,1.423.632V1.923A.928.928,0,0,0,2,.922a1.848,1.848,0,0,0-1.344.606L.237.764A2.84,2.84,0,0,1,2.213,0,1.7,1.7,0,0,1,4.162,1.818V5.453H3.056v-.58A1.718,1.718,0,0,1,1.633,5.532Zm.422-2.713a.9.9,0,0,0-.922.975.9.9,0,0,0,.922,1,1.252,1.252,0,0,0,1-.606V3.4A1.156,1.156,0,0,0,2.055,2.819Z" transform="translate(187.832 65.649)" fill="#453d66"/>
  <path id="Path-19" data-name="Path" d="M.685,5.559V2.4H0V1.449H.685V0H1.791V1.449h.9V2.4h-.9V5.321c0,.369.132.58.422.58a.531.531,0,0,0,.422-.184l.263.817a1.386,1.386,0,0,1-.975.316C1.08,6.876.685,6.428.685,5.559" transform="translate(193.048 64.306)" fill="#453d66"/>
  <path id="Shape-15" data-name="Shape" d="M1.264,7.35H.158V2.055H1.264V7.349ZM.685,1.37A.7.7,0,0,1,0,.685.678.678,0,0,1,.685,0,.694.694,0,0,1,1.37.685.694.694,0,0,1,.685,1.37Z" transform="translate(196.736 63.7)" fill="#453d66"/>
  <path id="Shape-16" data-name="Shape" d="M2.318,5.585C.717,5.585,0,4.183,0,2.793S.717,0,2.318,0,4.637,1.4,4.637,2.793,3.92,5.585,2.318,5.585ZM2.292.975c-.874,0-1.186.939-1.186,1.818,0,.839.311,1.818,1.186,1.818.742,0,1.186-.68,1.186-1.818C3.478,1.954,3.167.975,2.292.975Z" transform="translate(199.265 65.596)" fill="#453d66"/>
  <path id="Path-20" data-name="Path" d="M2.951,5.4V1.791c0-.632-.29-.843-.764-.843a1.306,1.306,0,0,0-1.08.738V5.427H0V.132H1.106V.843A2.005,2.005,0,0,1,2.661,0c.975,0,1.4.527,1.4,1.449v4H2.951Z" transform="translate(205.166 65.649)" fill="#453d66"/>
  <path id="Path-21" data-name="Path" d="M.659,1.317A.652.652,0,0,0,1.317.659.652.652,0,0,0,.659,0,.652.652,0,0,0,0,.659a.652.652,0,0,0,.659.659" transform="translate(138.2 49.395)" fill="#453d66"/>
  <path id="Path-22" data-name="Path" d="M.659,1.317A.652.652,0,0,0,1.317.659.652.652,0,0,0,.659,0,.652.652,0,0,0,0,.659a.652.652,0,0,0,.659.659" transform="translate(140.308 49.395)" fill="#453d66"/>
  <path id="Path-23" data-name="Path" d="M.659,1.317A.652.652,0,0,0,1.317.659.652.652,0,0,0,.659,0,.652.652,0,0,0,0,.659a.652.652,0,0,0,.659.659" transform="translate(175.898 49.395)" fill="#453d66"/>
  <path id="Path-24" data-name="Path" d="M.659,1.317A.652.652,0,0,0,1.317.659.652.652,0,0,0,.659,0,.652.652,0,0,0,0,.659a.669.669,0,0,0,.659.659" transform="translate(178.006 49.395)" fill="#453d66"/>
  <path id="Path-25" data-name="Path" d="M3.188,2.786l-.105-.843c-.474.079-1.528.4-1.633-.316a.749.749,0,0,1,.58-.817A1.654,1.654,0,0,1,2.9.969L3.161.152A1.951,1.951,0,0,0,1.37.284,1.41,1.41,0,0,0,.948,2.128C.422,2.154,0,2.154,0,2.154v.632c.632.026,1.238.053,1.87.053.105,0,.869-.026,1.317-.053" transform="translate(188.438 49.506)" fill="#453d66"/>
  <path id="Path-26" data-name="Path" d="M.659,0A.652.652,0,0,0,0,.659a.652.652,0,0,0,.659.659A.652.652,0,0,0,1.317.659.669.669,0,0,0,.659,0" transform="translate(111.883 59.089)" fill="#453d66"/>
  <path id="Path-27" data-name="Path" d="M.659,0A.652.652,0,0,0,0,.659a.652.652,0,0,0,.659.659A.652.652,0,0,0,1.317.659.669.669,0,0,0,.659,0" transform="translate(113.99 59.089)" fill="#453d66"/>
  <path id="Path-28" data-name="Path" d="M.659,0A.652.652,0,0,0,0,.659a.652.652,0,0,0,.659.659A.652.652,0,0,0,1.317.659.669.669,0,0,0,.659,0" transform="translate(192.074 59.089)" fill="#453d66"/>
  <path id="Path-29" data-name="Path" d="M.659,0A.652.652,0,0,0,0,.659a.652.652,0,0,0,.659.659A.652.652,0,0,0,1.317.659.669.669,0,0,0,.659,0" transform="translate(194.181 59.089)" fill="#453d66"/>
  <path id="Path-30" data-name="Path" d="M.659,0A.652.652,0,0,0,0,.659a.652.652,0,0,0,.659.659A.652.652,0,0,0,1.317.659.652.652,0,0,0,.659,0" transform="translate(62.224 60.67)" fill="#453d66"/>
  <path id="Path-31" data-name="Path" d="M.659,0A.652.652,0,0,0,0,.659a.652.652,0,0,0,.659.659A.652.652,0,0,0,1.317.659.652.652,0,0,0,.659,0" transform="translate(64.332 60.67)" fill="#453d66"/>
  <path id="Path-32" data-name="Path" d="M.659,1.317A.652.652,0,0,0,1.317.659.652.652,0,0,0,.659,0,.652.652,0,0,0,0,.659a.652.652,0,0,0,.659.659" transform="translate(99.343 51.977)" fill="#453d66"/>
  <path id="Path-33" data-name="Path" d="M.659,1.317A.652.652,0,0,0,1.317.659.652.652,0,0,0,.659,0,.652.652,0,0,0,0,.659a.652.652,0,0,0,.659.659" transform="translate(69.39 50.712)" fill="#453d66"/>
  <rect id="Rectangle-3" data-name="Rectangle" width="1.133" height="8.061" transform="translate(208.012 49.685)" fill="#453d66"/>
  <rect id="Rectangle-4" data-name="Rectangle" width="1.133" height="8.061" transform="translate(169.839 49.685)" fill="#453d66"/>
  <rect id="Rectangle-5" data-name="Rectangle" width="1.133" height="8.061" transform="translate(104.77 49.685)" fill="#453d66"/>
  <path id="Shape-17" data-name="Shape" d="M25.736,11.117a2.6,2.6,0,0,1-1-.184,2.627,2.627,0,0,1-1.555-2.609H20.047V7.8a1.97,1.97,0,0,1-1.317.527h-.685A1.886,1.886,0,0,1,16.7,7.772a1.887,1.887,0,0,1-1.344.553H5.715A1.912,1.912,0,0,1,3.977,7.166a12.581,12.581,0,0,1-1.291.078C.964,7.244.409,6.7.315,6.586a1.213,1.213,0,0,1-.289-1.08c.189-.841.951-1.568,2.265-2.16a12.909,12.909,0,0,1,1.4-.529l.005,0,.146-.048V2.239H4.978V6.428a.765.765,0,0,0,.764.764h9.642a.765.765,0,0,0,.765-.764V3.662H17.28V6.428a.765.765,0,0,0,.764.764h.685a.765.765,0,0,0,.764-.764V3.662h1.133V6.428a1.892,1.892,0,0,1-.158.764H23.26c.1-.5.222-.923.317-1.238.008-.026.83-2.609,2.239-2.609h.026c.75.018,1.333.738,1.686,2.081a1.89,1.89,0,0,1-.263,1.713c0,.025-.023.049-.053.078h3.161a.765.765,0,0,0,.765-.764V0H32.27V6.4a1.9,1.9,0,0,1-1.9,1.9H27.608a1.546,1.546,0,0,1,.237,1.686A2.315,2.315,0,0,1,25.736,11.117Zm.317-3.161a7.419,7.419,0,0,1-1.766.343,1.545,1.545,0,0,0,.87,1.607,1.566,1.566,0,0,0,.6.114,1.261,1.261,0,0,0,1.09-.483c.129-.283-.245-.727-1-1.186ZM25.816,4.5c-.187,0-.769.7-1.16,1.844-.076.281-.156.547-.236.791a3.19,3.19,0,0,0,1.949-.685.8.8,0,0,0,.078-.711C26.109,4.623,25.819,4.506,25.816,4.5ZM3.845,4.031c-1.2.383-2.559,1.1-2.687,1.766-.017.035-.012.047-.006.058a.042.042,0,0,1,.006.02,2.881,2.881,0,0,0,1.635.287c.343,0,.707-.017,1.052-.05V4.031Z" transform="translate(173.897 49.632)" fill="#453d66"/>
  <rect id="Rectangle-6" data-name="Rectangle" width="1.133" height="8.061" transform="translate(91.387 49.685)" fill="#453d66"/>
  <path id="Shape-18" data-name="Shape" d="M13.962,8.3H10.88V8.061c-.026.013-.059.026-.091.039s-.067.027-.093.04A2.949,2.949,0,0,1,9.642,8.3a4.036,4.036,0,0,1-2.133-.527A2.609,2.609,0,0,1,5.769,8.3H0V7.166H3.53A4.614,4.614,0,0,0,1.238,4.031l.527-1,.055.035A5.714,5.714,0,0,1,4.663,7.192h1.08c1.151,0,1.3-.454,1.633-1.449L7.428,5.6A9.026,9.026,0,0,1,7.85,4.557a2.182,2.182,0,0,1,1.9-1.37,2.114,2.114,0,0,1,1.87,1.344,3.4,3.4,0,0,1,.159,2.529.429.429,0,0,0-.028.067.452.452,0,0,1-.026.064h2.239a.765.765,0,0,0,.765-.764V0h1.133V6.4A1.9,1.9,0,0,1,13.962,8.3ZM9.721,4.32c-.326,0-.644.262-.9.738A8.331,8.331,0,0,0,8.43,6.086c-.076.253-.172.5-.289.79a3.653,3.653,0,0,0,1.546.317,1.717,1.717,0,0,0,.588-.08.686.686,0,0,0,.448-.447,2.325,2.325,0,0,0-.158-1.634C10.354,4.586,10.039,4.32,9.721,4.32Z" transform="translate(73.71 49.658)" fill="#453d66"/>
  <path id="Shape-19" data-name="Shape" d="M10.326,6.086H5.715a1.911,1.911,0,0,1-1.738-1.16,12.333,12.333,0,0,1-1.291.079C.967,5.005.409,4.457.315,4.347a1.215,1.215,0,0,1-.289-1.08C.215,2.426.977,1.7,2.291,1.106A13.012,13.012,0,0,1,3.7.574L3.845.527V0H4.978V4.188a.765.765,0,0,0,.764.765h4.61c1.15,0,1.3-.454,1.634-1.449a7.351,7.351,0,0,1,.447-1.16A2.17,2.17,0,0,1,14.356.975a2.029,2.029,0,0,1,1.818,1.317,3.4,3.4,0,0,1,.158,2.529,1.808,1.808,0,0,1-1.08,1.106,2.913,2.913,0,0,1-1.039.157,4.247,4.247,0,0,1-2.148-.525A2.608,2.608,0,0,1,10.326,6.086Zm4-4c-.326,0-.645.262-.9.738a8.331,8.331,0,0,0-.395,1.028c-.078.263-.186.531-.289.79a3.673,3.673,0,0,0,1.547.317,1.72,1.72,0,0,0,.586-.08.69.69,0,0,0,.448-.448,2.086,2.086,0,0,0-.158-1.633C14.963,2.347,14.648,2.081,14.33,2.081ZM3.845,1.765c-1.2.383-2.559,1.1-2.687,1.766a.069.069,0,0,0,0,.079A2.938,2.938,0,0,0,2.8,3.9c.339,0,.7-.017,1.043-.05V1.765Z" transform="translate(136.436 51.898)" fill="#453d66"/>
  <path id="Shape-20" data-name="Shape" d="M0,10.748H0V9.616A1.583,1.583,0,0,0,1.581,8.035v-4.4H2.766V6.4a.765.765,0,0,0,.764.765h2.4A.765.765,0,0,0,6.691,6.4V3.636H7.824V6.4a1.894,1.894,0,0,1-.158.765H12.3V0h1.133V5.532a9.989,9.989,0,0,1,1.686-1.344,4.435,4.435,0,0,1,2.249-.783,2.03,2.03,0,0,1,1.333.468,4.351,4.351,0,0,1,1.16,3.319H21.5a.765.765,0,0,0,.765-.764V.026h1.133v6.4a.765.765,0,0,0,.764.764h.685a.765.765,0,0,0,.764-.764H25.58V0h1.133V6.4a1.9,1.9,0,0,1-1.9,1.9h-.684a1.889,1.889,0,0,1-1.344-.553,1.89,1.89,0,0,1-1.344.553H6.9V7.982A1.71,1.71,0,0,1,5.875,8.3h-2.4a1.9,1.9,0,0,1-.765-.158A2.735,2.735,0,0,1,0,10.748ZM13.383,6.8v.421h5.295a5.058,5.058,0,0,0-.343-1.792,1.468,1.468,0,0,0-.474-.658.823.823,0,0,0-.574-.187,1.933,1.933,0,0,0-.321.03,4.911,4.911,0,0,0-2.029.949A11.628,11.628,0,0,0,13.409,6.8Z" transform="translate(106.377 49.658)" fill="#453d66"/>
  <path id="Path-34" data-name="Path" d="M11.016,2.959a.765.765,0,0,1-.764.764h-.5a.794.794,0,0,1-.817-.764v-1.5A1.377,1.377,0,0,0,8.408.324a1.723,1.723,0,0,0-1.5-.263A2.256,2.256,0,0,0,5.089,2.168V4.75c0,.316-.29.5-.527.606A2.751,2.751,0,0,1,1.769,4.8c-.738-.711-.843-1.844-.29-3.293l-1.054-.4c-.975,2.529-.053,3.9.553,4.5A3.9,3.9,0,0,0,3.64,6.647a3.731,3.731,0,0,0,1.37-.263A1.78,1.78,0,0,0,6.221,4.75V2.168a1.135,1.135,0,0,1,.948-1,.821.821,0,0,1,.553.053.3.3,0,0,1,.105.263v1.5a1.952,1.952,0,0,0,1.949,1.9h.5a1.889,1.889,0,0,0,1.9-1.9V.219H11.042v2.74Z" transform="translate(60.192 53.127)" fill="#453d66"/>
  <path id="Path-35" data-name="Path" d="M5.115,4.531c0,.316-.29.5-.527.606a2.807,2.807,0,0,1-2.819-.553c-.738-.711-.843-1.844-.29-3.293L.426.9c-.975,2.529-.053,3.9.553,4.5A3.9,3.9,0,0,0,3.64,6.428a3.731,3.731,0,0,0,1.37-.263A1.78,1.78,0,0,0,6.221,4.531V0H5.089V4.531Z" transform="translate(96.81 53.346)" fill="#453d66"/>
  <path id="Shape-21" data-name="Shape" d="M11.407,8.3h-.4a11.044,11.044,0,0,1-4.057-.606,7.435,7.435,0,0,1-3.4.606H1.9A1.9,1.9,0,0,1,0,6.4V0H1.133V6.4a.766.766,0,0,0,.765.765H3.556a8.55,8.55,0,0,0,2.107-.211,1.316,1.316,0,0,1-.21-.184c-.548-.548-1.438-1.606-1.238-2.529a1.266,1.266,0,0,1,.921-.949l.053-.026h.052a13.819,13.819,0,0,1,1.443-.076,12.422,12.422,0,0,1,1.613.1h.052l.053.026a1.475,1.475,0,0,1,1.08,1.133c.16.963-.724,1.915-1.265,2.4l-.039.04-.039.04a10.7,10.7,0,0,0,2.487.267c.109,0,.22,0,.331,0h.421a.765.765,0,0,0,.765-.764h.026V0H13.3V6.4A1.9,1.9,0,0,1,11.407,8.3ZM6.663,4.343c-.4,0-.807.019-1.237.057-.046.023-.132.077-.132.106-.048.22.258.811.922,1.475a2.473,2.473,0,0,0,.658.474,3.087,3.087,0,0,0,.633-.448c.546-.463.919-1.041.869-1.344-.023-.089-.12-.168-.29-.237A12.049,12.049,0,0,0,6.663,4.343Z" transform="translate(154.718 49.658)" fill="#453d66"/>
</svg>
