<svg id="General-Entertainment-Authority-01" xmlns="http://www.w3.org/2000/svg" width="145.349" height="171.187" viewBox="0 0 145.349 171.187">
  <g id="Group" transform="translate(0 143.916)">
    <path id="Path" d="M4.61,3.708H4.049a.134.134,0,0,0-.122.073.347.347,0,0,0-.049.146V6.854c-.122.024-.293.024-.512.049a7.353,7.353,0,0,1-.781.024,1.862,1.862,0,0,1-.659-.122,1.112,1.112,0,0,1-.537-.415,2.564,2.564,0,0,1-.366-.732A3.513,3.513,0,0,1,.9,4.586V3.22a3.854,3.854,0,0,1,.146-1.146,2.091,2.091,0,0,1,.39-.732A1.252,1.252,0,0,1,2.025.976a2.1,2.1,0,0,1,.683-.1H3.781A2.651,2.651,0,0,1,4.22.9c.146,0,.293.024.439.024h.049c.1,0,.122-.024.122-.1V.317A.186.186,0,0,0,4.781.2C4.757.171,4.708.171,4.659.146,4.464.122,4.22.073,3.9.049S3.2,0,2.732,0a3.38,3.38,0,0,0-.976.146A2.309,2.309,0,0,0,.878.659a2.606,2.606,0,0,0-.634.976A4.063,4.063,0,0,0,0,3.171V4.537A3.882,3.882,0,0,0,.244,6.025,2.571,2.571,0,0,0,.854,7a2.112,2.112,0,0,0,.854.537,2.616,2.616,0,0,0,.951.171c.488,0,.878-.024,1.2-.049s.585-.073.854-.1a.214.214,0,0,0,.2-.22V3.9a.347.347,0,0,0-.049-.146C4.708,3.732,4.659,3.708,4.61,3.708Z" transform="translate(0 17.636)" fill="#453d66"/>
    <path id="Shape" d="M2.293,5.781a3.239,3.239,0,0,1-.854-.122,1.769,1.769,0,0,1-.732-.39A2.152,2.152,0,0,1,.2,4.513a3.342,3.342,0,0,1-.2-1.2V2.391A2.5,2.5,0,0,1,.586.634,2.209,2.209,0,0,1,2.269,0a2.392,2.392,0,0,1,.976.17,1.846,1.846,0,0,1,.707.488,2.362,2.362,0,0,1,.415.732,3.045,3.045,0,0,1,.146.976v.561c0,.142-.069.22-.2.22H.9v.146a1.815,1.815,0,0,0,.366,1.293,1.461,1.461,0,0,0,1.073.366c.3,0,.61,0,.952-.025a5.431,5.431,0,0,0,.651-.05l.2-.023h.024a.182.182,0,0,1,.122.024A.189.189,0,0,1,4.342,5v.39a.333.333,0,0,1-.047.141l0,.005a.544.544,0,0,1-.166.072l-.042.008c-.276.046-.56.093-.84.116C2.936,5.758,2.63,5.781,2.293,5.781Zm-.024-5a1.3,1.3,0,0,0-1.025.391A1.868,1.868,0,0,0,.9,2.391v.1H3.61v-.1a1.847,1.847,0,0,0-.342-1.245A1.284,1.284,0,0,0,2.269.78Z" transform="translate(6.098 19.612)" fill="#453d66"/>
    <path id="Path-2" data-name="Path" d="M2.537,0a2.828,2.828,0,0,0-.829.122A3.79,3.79,0,0,0,.9.488v-.2A.347.347,0,0,0,.854.146.174.174,0,0,0,.707.073H.2A.211.211,0,0,0,.049.146.179.179,0,0,0,0,.293v5.2a.347.347,0,0,0,.049.146A.174.174,0,0,0,.2,5.708H.707a.211.211,0,0,0,.146-.073.211.211,0,0,0,.073-.146V1.2A4.341,4.341,0,0,1,1.634.9,2.24,2.24,0,0,1,2.317.781,1.622,1.622,0,0,1,2.83.854a.694.694,0,0,1,.341.22.735.735,0,0,1,.2.415,2.455,2.455,0,0,1,.073.659V5.488a.259.259,0,0,0,.22.22h.488a.259.259,0,0,0,.22-.22V2.122A2.587,2.587,0,0,0,3.952.561,1.836,1.836,0,0,0,2.537,0Z" transform="translate(11.83 19.612)" fill="#453d66"/>
    <path id="Shape-2" data-name="Shape" d="M2.293,5.781a3.239,3.239,0,0,1-.854-.122,1.769,1.769,0,0,1-.732-.39A2.152,2.152,0,0,1,.2,4.513a3.342,3.342,0,0,1-.2-1.2V2.391A2.5,2.5,0,0,1,.586.634,2.209,2.209,0,0,1,2.269,0a2.392,2.392,0,0,1,.976.17,1.846,1.846,0,0,1,.707.488,1.917,1.917,0,0,1,.391.732,3.071,3.071,0,0,1,.146.976v.561c0,.142-.069.22-.2.22H.878v.146a1.815,1.815,0,0,0,.366,1.293,1.461,1.461,0,0,0,1.073.366c.286,0,.61,0,.952-.025a5.445,5.445,0,0,0,.651-.05l.2-.023h.048a.182.182,0,0,1,.122.024A.189.189,0,0,1,4.342,5v.39a.333.333,0,0,1-.047.141l0,.005a.544.544,0,0,1-.166.072l-.042.008c-.276.046-.56.093-.84.116C2.936,5.758,2.63,5.781,2.293,5.781Zm-.024-5a1.27,1.27,0,0,0-1.025.391A1.868,1.868,0,0,0,.9,2.391v.1H3.61v-.1a1.847,1.847,0,0,0-.342-1.245A1.284,1.284,0,0,0,2.269.78Z" transform="translate(17.343 19.612)" fill="#453d66"/>
    <path id="Path-3" data-name="Path" d="M2.317,0A2.536,2.536,0,0,0,1.61.122a2.145,2.145,0,0,0-.732.39V.293A.347.347,0,0,0,.829.146.174.174,0,0,0,.683.073H.2A.211.211,0,0,0,.049.146.179.179,0,0,0,0,.293v5.2a.347.347,0,0,0,.049.146A.174.174,0,0,0,.2,5.708H.707a.211.211,0,0,0,.146-.073.211.211,0,0,0,.073-.146V1.22A3.883,3.883,0,0,1,1.659.878a2.1,2.1,0,0,1,.683-.1c.146,0,.22-.049.22-.171V.2A.222.222,0,0,0,2.317,0Z" transform="translate(23.075 19.612)" fill="#453d66"/>
    <path id="Shape-3" data-name="Shape" d="M1.683,5.781a2.672,2.672,0,0,1-.634-.073A1.4,1.4,0,0,1,.512,5.44a1.4,1.4,0,0,1-.366-.513A1.978,1.978,0,0,1,0,4.123V4a2.184,2.184,0,0,1,.122-.732,1.175,1.175,0,0,1,.414-.512,1.967,1.967,0,0,1,.757-.317,5.026,5.026,0,0,1,1.146-.1H3.2V1.927a1.248,1.248,0,0,0-.244-.9A1.179,1.179,0,0,0,2.1.78c-.34,0-.634,0-.878.025A5.6,5.6,0,0,0,.536.854H.488A.22.22,0,0,1,.366.83C.343.83.317.783.317.708V.342c0-.115.061-.169.219-.2a5.14,5.14,0,0,1,.66-.1l.023,0C1.491.024,1.784,0,2.122,0A2.22,2.22,0,0,1,3.707.512a1.985,1.985,0,0,1,.464,1.415V5.488a.258.258,0,0,1-.22.22H3.489a.258.258,0,0,1-.22-.22v-.22a4.329,4.329,0,0,1-.756.366A2.389,2.389,0,0,1,1.683,5.781ZM2.488,3a3.51,3.51,0,0,0-.756.048,1.143,1.143,0,0,0-.488.17A.755.755,0,0,0,1,3.537,1.24,1.24,0,0,0,.927,4v.122c0,.381.078.613.244.732a1.09,1.09,0,0,0,.682.195,2.1,2.1,0,0,0,.683-.1,4.2,4.2,0,0,0,.682-.317h.025V3Z" transform="translate(26.1 19.612)" fill="#453d66"/>
    <path id="Path-4" data-name="Path" d="M.707,0H.171A.186.186,0,0,0,.049.049.262.262,0,0,0,0,.2V7.464a.347.347,0,0,0,.049.146.134.134,0,0,0,.122.073H.707A.134.134,0,0,0,.829,7.61a.347.347,0,0,0,.049-.146V.171A.347.347,0,0,0,.829.024C.8,0,.781,0,.707,0Z" transform="translate(31.71 17.636)" fill="#453d66"/>
    <path id="Path-5" data-name="Path" d="M4.171.049c-.1,0-.244-.024-.415-.024S3.415,0,3.244,0H2.171A2.563,2.563,0,0,0,.537.439,1.764,1.764,0,0,0,0,1.9V5.83A1.764,1.764,0,0,0,.537,7.293a2.563,2.563,0,0,0,1.634.439H3.244a3.952,3.952,0,0,0,.537-.024,1.736,1.736,0,0,0,.39-.024c.024,0,.049-.024.073-.049s.024-.049.024-.1V7.025A.115.115,0,0,0,4.147,6.9H2.171a4.562,4.562,0,0,1-.659-.049.653.653,0,0,1-.366-.2.583.583,0,0,1-.171-.317,2.516,2.516,0,0,1-.049-.488V4.122H4.074a.347.347,0,0,0,.146-.049.211.211,0,0,0,.073-.146v-.39a.211.211,0,0,0-.073-.146.179.179,0,0,0-.146-.049H.927V1.927a2.516,2.516,0,0,1,.049-.488A.753.753,0,0,1,1.146,1.1,1.293,1.293,0,0,1,1.512.9,2.584,2.584,0,0,1,2.171.854H4.147A.115.115,0,0,0,4.269.732V.22a.147.147,0,0,0-.024-.1Q4.208.049,4.171.049Z" transform="translate(36.735 17.66)" fill="#453d66"/>
    <path id="Path-6" data-name="Path" d="M2.537,0a2.828,2.828,0,0,0-.829.122A3.79,3.79,0,0,0,.9.488v-.2A.347.347,0,0,0,.854.146.174.174,0,0,0,.707.073H.2A.211.211,0,0,0,.049.146.179.179,0,0,0,0,.293v5.2a.347.347,0,0,0,.049.146A.174.174,0,0,0,.2,5.708H.707a.211.211,0,0,0,.146-.073.211.211,0,0,0,.073-.146V1.2A4.341,4.341,0,0,1,1.634.9,2.24,2.24,0,0,1,2.317.781,1.622,1.622,0,0,1,2.83.854a.694.694,0,0,1,.341.22.735.735,0,0,1,.2.415,2.455,2.455,0,0,1,.073.659V5.488a.259.259,0,0,0,.22.22h.488a.259.259,0,0,0,.22-.22V2.122A2.587,2.587,0,0,0,3.952.561,1.836,1.836,0,0,0,2.537,0Z" transform="translate(42.248 19.612)" fill="#453d66"/>
    <path id="Path-7" data-name="Path" d="M3.22,6.293H2.659a.724.724,0,0,1-.439-.122A.806.806,0,0,1,2.1,5.635V2.073H3.2A.211.211,0,0,0,3.342,2a.211.211,0,0,0,.073-.146V1.512a.211.211,0,0,0-.073-.146A.211.211,0,0,0,3.2,1.293H2.1V.171A.186.186,0,0,0,2.049.049.185.185,0,0,0,1.951,0H1.927L1.39.073c-.122.024-.2.1-.2.2v1H.2a.18.18,0,0,0-.2.2v.268c0,.1.073.171.2.2l1,.122V5.61a1.84,1.84,0,0,0,.1.683.986.986,0,0,0,.244.415,1.062,1.062,0,0,0,.439.22,2.378,2.378,0,0,0,.61.049A1.5,1.5,0,0,0,2.9,6.952c.122,0,.244-.024.341-.024.122-.024.2-.073.2-.171V6.391C3.415,6.342,3.366,6.293,3.22,6.293Z" transform="translate(47.297 18.343)" fill="#453d66"/>
    <path id="Shape-4" data-name="Shape" d="M2.293,5.781a3.239,3.239,0,0,1-.854-.122,1.769,1.769,0,0,1-.732-.39A2.152,2.152,0,0,1,.2,4.513a3.342,3.342,0,0,1-.2-1.2V2.391A2.478,2.478,0,0,1,.586.634,2.209,2.209,0,0,1,2.269,0a2.392,2.392,0,0,1,.976.17,1.846,1.846,0,0,1,.707.488,1.7,1.7,0,0,1,.415.732,3.045,3.045,0,0,1,.146.976v.561c0,.142-.069.22-.2.22H.9v.146a1.815,1.815,0,0,0,.366,1.293,1.461,1.461,0,0,0,1.073.366c.3,0,.61,0,.952-.025a5.431,5.431,0,0,0,.651-.05l.2-.023h.024a.182.182,0,0,1,.122.024A.189.189,0,0,1,4.342,5v.39a.333.333,0,0,1-.047.141l0,.005a.544.544,0,0,1-.166.072l-.042.008c-.276.046-.56.093-.84.116C2.936,5.758,2.63,5.781,2.293,5.781Zm0-5a1.27,1.27,0,0,0-1.025.391,1.874,1.874,0,0,0-.341,1.22v.1H3.635v-.1a1.847,1.847,0,0,0-.342-1.245A1.284,1.284,0,0,0,2.293.78Z" transform="translate(51.468 19.612)" fill="#453d66"/>
    <path id="Path-8" data-name="Path" d="M2.317,0A2.536,2.536,0,0,0,1.61.122a2.145,2.145,0,0,0-.732.39V.293A.347.347,0,0,0,.829.146.174.174,0,0,0,.683.073H.2A.211.211,0,0,0,.049.146.179.179,0,0,0,0,.293v5.2a.347.347,0,0,0,.049.146A.174.174,0,0,0,.2,5.708H.707a.211.211,0,0,0,.146-.073.211.211,0,0,0,.073-.146V1.22A3.883,3.883,0,0,1,1.659.878a2.1,2.1,0,0,1,.683-.1c.146,0,.22-.049.22-.171V.2A.222.222,0,0,0,2.317,0Z" transform="translate(57.225 19.612)" fill="#453d66"/>
    <path id="Path-9" data-name="Path" d="M3.22,6.293H2.659a.724.724,0,0,1-.439-.122A.806.806,0,0,1,2.1,5.635V2.073H3.2A.211.211,0,0,0,3.342,2a.211.211,0,0,0,.073-.146V1.512a.211.211,0,0,0-.073-.146A.211.211,0,0,0,3.2,1.293H2.1V.171A.186.186,0,0,0,2.049.049.185.185,0,0,0,1.951,0H1.927L1.39.073c-.122.024-.2.1-.2.2v1H.2a.18.18,0,0,0-.2.2v.268c0,.1.073.171.2.2l1,.122V5.61a1.84,1.84,0,0,0,.1.683.986.986,0,0,0,.244.415,1.062,1.062,0,0,0,.439.22,2.378,2.378,0,0,0,.61.049A1.5,1.5,0,0,0,2.9,6.952c.122,0,.244-.024.341-.024.122-.024.2-.073.2-.171V6.391C3.439,6.342,3.366,6.293,3.22,6.293Z" transform="translate(60.274 18.343)" fill="#453d66"/>
    <path id="Shape-5" data-name="Shape" d="M1.683,5.781a2.672,2.672,0,0,1-.634-.073A1.4,1.4,0,0,1,.512,5.44a1.4,1.4,0,0,1-.366-.513A1.978,1.978,0,0,1,0,4.123V4a2.184,2.184,0,0,1,.122-.732,1.175,1.175,0,0,1,.414-.512,1.967,1.967,0,0,1,.757-.317,5.026,5.026,0,0,1,1.146-.1H3.2V1.927a1.248,1.248,0,0,0-.244-.9A1.179,1.179,0,0,0,2.1.78c-.34,0-.634,0-.878.025A5.6,5.6,0,0,0,.536.854H.488A.22.22,0,0,1,.366.83C.343.83.317.783.317.708V.342c0-.115.061-.169.219-.2a5.14,5.14,0,0,1,.66-.1l.023,0C1.491.024,1.784,0,2.122,0A2.106,2.106,0,0,1,3.683.512a1.985,1.985,0,0,1,.464,1.415V5.488a.209.209,0,0,1-.074.146.206.206,0,0,1-.146.074H3.463a.258.258,0,0,1-.219-.22v-.22a4.308,4.308,0,0,1-.757.366A2.154,2.154,0,0,1,1.683,5.781ZM2.488,3a3.51,3.51,0,0,0-.756.048,1.143,1.143,0,0,0-.488.17A.755.755,0,0,0,1,3.537,1.24,1.24,0,0,0,.927,4v.122a.941.941,0,0,0,.244.732,1.09,1.09,0,0,0,.682.195,2.1,2.1,0,0,0,.683-.1,4.2,4.2,0,0,0,.682-.317h.025V3Z" transform="translate(64.445 19.612)" fill="#453d66"/>
    <path id="Path-10" data-name="Path" d="M.707,0H.22A.211.211,0,0,0,.073.073.211.211,0,0,0,0,.22v5.2a.211.211,0,0,0,.073.146.211.211,0,0,0,.146.073H.707a.211.211,0,0,0,.146-.073.211.211,0,0,0,.073-.146V.2A.211.211,0,0,0,.854.049.347.347,0,0,0,.707,0Z" transform="translate(70.055 19.685)" fill="#453d66"/>
    <path id="Path-11" data-name="Path" d="M.732,0H.22A.211.211,0,0,0,.073.073.211.211,0,0,0,0,.22v.8a.211.211,0,0,0,.073.146.211.211,0,0,0,.146.073H.732a.211.211,0,0,0,.146-.073.211.211,0,0,0,.073-.146V.22A.211.211,0,0,0,.878.073.211.211,0,0,0,.732,0Z" transform="translate(70.055 17.563)" fill="#453d66"/>
    <path id="Path-12" data-name="Path" d="M2.537,0a2.828,2.828,0,0,0-.829.122A3.79,3.79,0,0,0,.9.488v-.2A.347.347,0,0,0,.854.146.174.174,0,0,0,.707.073H.2A.211.211,0,0,0,.049.146.179.179,0,0,0,0,.293v5.2a.347.347,0,0,0,.049.146A.174.174,0,0,0,.2,5.708H.707a.211.211,0,0,0,.146-.073.211.211,0,0,0,.073-.146V1.2A4.341,4.341,0,0,1,1.634.9,2.24,2.24,0,0,1,2.317.781,1.622,1.622,0,0,1,2.83.854a.694.694,0,0,1,.341.22.735.735,0,0,1,.2.415,2.455,2.455,0,0,1,.073.659V5.488a.259.259,0,0,0,.22.22h.488a.259.259,0,0,0,.22-.22V2.122A2.587,2.587,0,0,0,3.952.561,1.836,1.836,0,0,0,2.537,0Z" transform="translate(72.47 19.612)" fill="#453d66"/>
    <path id="Path-13" data-name="Path" d="M6.293.415A1.31,1.31,0,0,0,5.757.1,1.869,1.869,0,0,0,5.1,0a3.339,3.339,0,0,0-.829.1,3.6,3.6,0,0,0-.854.317A.928.928,0,0,0,2.976.1,1.476,1.476,0,0,0,2.39,0a2.149,2.149,0,0,0-.8.146A4.458,4.458,0,0,0,.9.488v-.2A.347.347,0,0,0,.854.146.174.174,0,0,0,.707.073H.2A.211.211,0,0,0,.049.146.179.179,0,0,0,0,.293v5.22a.347.347,0,0,0,.049.146.134.134,0,0,0,.122.073H.707a.134.134,0,0,0,.122-.073.347.347,0,0,0,.049-.146V1.2L1.537.9a1.933,1.933,0,0,1,.61-.122,1.44,1.44,0,0,1,.341.049.506.506,0,0,1,.244.146.639.639,0,0,1,.146.317,3.106,3.106,0,0,1,.049.537V5.513a.347.347,0,0,0,.049.146.134.134,0,0,0,.122.073h.537a.134.134,0,0,0,.122-.073.347.347,0,0,0,.049-.146V1.878a2.7,2.7,0,0,0-.1-.8,4.46,4.46,0,0,1,.61-.2A2.734,2.734,0,0,1,4.9.8a1.883,1.883,0,0,1,.366.049.585.585,0,0,1,.293.171.9.9,0,0,1,.2.341A1.676,1.676,0,0,1,5.83,1.9v3.61a.259.259,0,0,0,.22.22h.488a.259.259,0,0,0,.22-.22V1.9A3.1,3.1,0,0,0,6.635,1,1.38,1.38,0,0,0,6.293.415Z" transform="translate(78.154 19.587)" fill="#453d66"/>
    <path id="Shape-6" data-name="Shape" d="M2.293,5.781a3.239,3.239,0,0,1-.854-.122,1.769,1.769,0,0,1-.732-.39A2.152,2.152,0,0,1,.2,4.513a3.342,3.342,0,0,1-.2-1.2V2.391A2.5,2.5,0,0,1,.586.634,2.209,2.209,0,0,1,2.269,0a2.392,2.392,0,0,1,.976.17,1.846,1.846,0,0,1,.707.488,1.625,1.625,0,0,1,.391.732,3.071,3.071,0,0,1,.146.976v.561c0,.142-.069.22-.2.22H.878v.146a1.815,1.815,0,0,0,.366,1.293,1.461,1.461,0,0,0,1.073.366c.286,0,.61,0,.952-.025a5.445,5.445,0,0,0,.651-.05l.2-.023h.048a.182.182,0,0,1,.122.024A.189.189,0,0,1,4.342,5v.39a.333.333,0,0,1-.047.141l0,.005a.544.544,0,0,1-.166.072l-.042.008c-.276.046-.56.093-.84.116C2.936,5.758,2.63,5.781,2.293,5.781Zm-.024-5a1.3,1.3,0,0,0-1.025.391A1.868,1.868,0,0,0,.9,2.391v.1H3.61v-.1a1.847,1.847,0,0,0-.342-1.245A1.284,1.284,0,0,0,2.269.78Z" transform="translate(86.13 19.612)" fill="#453d66"/>
    <path id="Path-14" data-name="Path" d="M2.537,0a2.828,2.828,0,0,0-.829.122A3.79,3.79,0,0,0,.9.488v-.2A.347.347,0,0,0,.854.146.174.174,0,0,0,.707.073H.2A.211.211,0,0,0,.049.146.179.179,0,0,0,0,.293v5.2a.347.347,0,0,0,.049.146A.174.174,0,0,0,.2,5.708H.707a.211.211,0,0,0,.146-.073.211.211,0,0,0,.073-.146V1.2A4.341,4.341,0,0,1,1.634.9,2.24,2.24,0,0,1,2.317.781,1.622,1.622,0,0,1,2.83.854a.694.694,0,0,1,.341.22.735.735,0,0,1,.2.415,2.455,2.455,0,0,1,.073.659V5.488a.259.259,0,0,0,.22.22h.488a.259.259,0,0,0,.22-.22V2.122A2.587,2.587,0,0,0,3.952.561,1.8,1.8,0,0,0,2.537,0Z" transform="translate(91.862 19.612)" fill="#453d66"/>
    <path id="Path-15" data-name="Path" d="M3.22,6.293H2.659a.724.724,0,0,1-.439-.122A.806.806,0,0,1,2.1,5.635V2.073H3.2A.211.211,0,0,0,3.342,2a.211.211,0,0,0,.073-.146V1.512a.211.211,0,0,0-.073-.146A.211.211,0,0,0,3.2,1.293H2.1V.171A.186.186,0,0,0,2.049.049.185.185,0,0,0,1.951,0H1.927L1.39.073c-.122.024-.2.1-.2.2v1H.2a.18.18,0,0,0-.2.2v.268c0,.1.073.171.2.2l1,.122V5.61a1.84,1.84,0,0,0,.1.683.986.986,0,0,0,.244.415,1.062,1.062,0,0,0,.439.22,2.378,2.378,0,0,0,.61.049A1.5,1.5,0,0,0,2.9,6.952c.122,0,.244-.024.341-.024.122-.024.2-.073.2-.171V6.391C3.439,6.342,3.366,6.293,3.22,6.293Z" transform="translate(96.911 18.343)" fill="#453d66"/>
    <path id="Shape-7" data-name="Shape" d="M5.732,7.684h-.61A.188.188,0,0,1,5,7.635a.113.113,0,0,1-.059-.068l-.014-.03L4.269,5.2H1.634L.976,7.537a.337.337,0,0,0-.036.048.347.347,0,0,1-.038.05l-.034.019a.161.161,0,0,1-.088.03H.17A.154.154,0,0,1,0,7.513V7.44L1.878.78A.832.832,0,0,1,2.049.39C2.074.365,2.1.34,2.121.315a.749.749,0,0,1,.2-.169L2.328.141A1.469,1.469,0,0,1,2.61.024,1.208,1.208,0,0,1,2.9,0,1.2,1.2,0,0,1,3.2.024a1.454,1.454,0,0,1,.282.117l.011.005L3.5.154A1.268,1.268,0,0,1,3.757.39a1.471,1.471,0,0,1,.17.39L5.9,7.44v.074C5.9,7.636,5.855,7.684,5.732,7.684ZM2.879.805c-.1,0-.171.073-.2.195L1.756,4.366H4L3.073,1C3.049.878,2.976.805,2.879.805Z" transform="translate(103.473 17.636)" fill="#453d66"/>
    <path id="Path-16" data-name="Path" d="M4.171.024H3.659A.211.211,0,0,0,3.513.1a.211.211,0,0,0-.073.146V4.537a4.341,4.341,0,0,1-.707.293,2.24,2.24,0,0,1-.683.122,1.622,1.622,0,0,1-.512-.073.827.827,0,0,1-.341-.22A.735.735,0,0,1,1,4.244a4.139,4.139,0,0,1-.073-.659V.22A.211.211,0,0,0,.854.073.211.211,0,0,0,.707,0H.22A.211.211,0,0,0,.073.073.211.211,0,0,0,0,.22V3.586A2.587,2.587,0,0,0,.415,5.147a1.611,1.611,0,0,0,1.342.561,2.828,2.828,0,0,0,.829-.122,3.79,3.79,0,0,0,.8-.366v.2a.347.347,0,0,0,.049.146.174.174,0,0,0,.146.073H4.1a.211.211,0,0,0,.146-.073.179.179,0,0,0,.049-.146V.2A.347.347,0,0,0,4.244.049C4.269.049,4.22.024,4.171.024Z" transform="translate(110.132 19.66)" fill="#453d66"/>
    <path id="Path-17" data-name="Path" d="M3.22,6.293H2.659a.724.724,0,0,1-.439-.122A.806.806,0,0,1,2.1,5.635V2.073H3.2A.211.211,0,0,0,3.342,2a.211.211,0,0,0,.073-.146V1.512a.211.211,0,0,0-.073-.146A.211.211,0,0,0,3.2,1.293H2.1V.171A.186.186,0,0,0,2.049.049.185.185,0,0,0,1.951,0H1.9L1.366.073c-.122.024-.2.1-.2.2v1H.2a.18.18,0,0,0-.2.2v.268c0,.1.073.171.2.2l1,.122V5.61a1.84,1.84,0,0,0,.1.683.986.986,0,0,0,.244.415,1.062,1.062,0,0,0,.439.22,2.378,2.378,0,0,0,.61.049A1.5,1.5,0,0,0,2.9,6.952c.122,0,.244-.024.341-.024.122-.024.2-.073.2-.171V6.391C3.439,6.342,3.366,6.293,3.22,6.293Z" transform="translate(115.425 18.343)" fill="#453d66"/>
    <path id="Path-18" data-name="Path" d="M3.781,2.512a1.893,1.893,0,0,0-.585-.39A2.339,2.339,0,0,0,2.439,2a4.615,4.615,0,0,0-.756.073,2.816,2.816,0,0,0-.8.244V.22A.347.347,0,0,0,.829.073.174.174,0,0,0,.683,0H.2A.211.211,0,0,0,.049.073.179.179,0,0,0,0,.22V7.489a.347.347,0,0,0,.049.146A.174.174,0,0,0,.2,7.708H.707a.211.211,0,0,0,.146-.073.211.211,0,0,0,.073-.146V3.073a1.286,1.286,0,0,1,.366-.122,2.284,2.284,0,0,1,.39-.1,1.883,1.883,0,0,1,.366-.049c.122,0,.22-.024.293-.024a1.088,1.088,0,0,1,.8.293,1.457,1.457,0,0,1,.293,1.049V7.489a.259.259,0,0,0,.22.22h.488a.259.259,0,0,0,.22-.22V4.122a3.8,3.8,0,0,0-.122-.976A4.756,4.756,0,0,0,3.781,2.512Z" transform="translate(119.816 17.611)" fill="#453d66"/>
    <path id="Shape-8" data-name="Shape" d="M2.269,5.756a2.47,2.47,0,0,1-.976-.17,2.092,2.092,0,0,1-.708-.512,2.038,2.038,0,0,1-.439-.781A3.47,3.47,0,0,1,0,3.269V2.488A3.479,3.479,0,0,1,.146,1.464,2.212,2.212,0,0,1,.586.683,1.884,1.884,0,0,1,1.293.17,2.387,2.387,0,0,1,2.269,0a2.512,2.512,0,0,1,1,.17,2.1,2.1,0,0,1,.708.513,2.224,2.224,0,0,1,.438.78,3.479,3.479,0,0,1,.146,1.024v.781a3.47,3.47,0,0,1-.146,1.024,2.231,2.231,0,0,1-.438.781,1.908,1.908,0,0,1-.708.512A2.582,2.582,0,0,1,2.269,5.756Zm0-4.976a1.234,1.234,0,0,0-1.049.464A2.036,2.036,0,0,0,.9,2.488v.781A2.134,2.134,0,0,0,1.22,4.513a1.175,1.175,0,0,0,1.049.464,1.233,1.233,0,0,0,1.048-.464,2.036,2.036,0,0,0,.342-1.244H3.635V2.488a2.134,2.134,0,0,0-.317-1.244A1.175,1.175,0,0,0,2.269.78Z" transform="translate(125.304 19.612)" fill="#453d66"/>
    <path id="Path-19" data-name="Path" d="M2.317,0A2.536,2.536,0,0,0,1.61.122a2.145,2.145,0,0,0-.732.39V.293A.347.347,0,0,0,.829.146.174.174,0,0,0,.683.073H.2A.211.211,0,0,0,.049.146.179.179,0,0,0,0,.293v5.2a.347.347,0,0,0,.049.146A.174.174,0,0,0,.2,5.708H.707a.211.211,0,0,0,.146-.073.211.211,0,0,0,.073-.146V1.22A3.883,3.883,0,0,1,1.659.878a2.1,2.1,0,0,1,.683-.1c.146,0,.22-.049.22-.171V.2A.222.222,0,0,0,2.317,0Z" transform="translate(131.061 19.612)" fill="#453d66"/>
    <path id="Path-20" data-name="Path" d="M.707,0H.22A.211.211,0,0,0,.073.073.211.211,0,0,0,0,.22v5.2a.211.211,0,0,0,.073.146.211.211,0,0,0,.146.073H.707a.211.211,0,0,0,.146-.073.211.211,0,0,0,.073-.146V.2A.211.211,0,0,0,.854.049.347.347,0,0,0,.707,0Z" transform="translate(134.671 19.685)" fill="#453d66"/>
    <path id="Path-21" data-name="Path" d="M.732,0H.22A.211.211,0,0,0,.073.073.211.211,0,0,0,0,.22v.8a.211.211,0,0,0,.073.146.211.211,0,0,0,.146.073H.732a.211.211,0,0,0,.146-.073.211.211,0,0,0,.073-.146V.22A.211.211,0,0,0,.878.073.147.147,0,0,0,.732,0Z" transform="translate(134.647 17.563)" fill="#453d66"/>
    <path id="Path-22" data-name="Path" d="M3.2,6.293H2.634A.724.724,0,0,1,2.2,6.171a.806.806,0,0,1-.122-.537V2.073h1.1A.211.211,0,0,0,3.317,2a.211.211,0,0,0,.073-.146V1.512a.211.211,0,0,0-.073-.146.211.211,0,0,0-.146-.073h-1.1V.171A.186.186,0,0,0,2.025.049.185.185,0,0,0,1.927,0H1.9L1.366.073c-.122.024-.2.1-.2.2v1H.2a.18.18,0,0,0-.2.2v.268c0,.1.073.171.2.2l1,.122V5.61a1.84,1.84,0,0,0,.1.683.986.986,0,0,0,.244.415,1.062,1.062,0,0,0,.439.22,2.378,2.378,0,0,0,.61.049A1.5,1.5,0,0,0,2.9,6.952c.122,0,.244-.024.341-.024.122-.024.2-.073.2-.171V6.391C3.415,6.342,3.342,6.293,3.2,6.293Z" transform="translate(136.647 18.343)" fill="#453d66"/>
    <path id="Path-23" data-name="Path" d="M4.513.024H3.952A.186.186,0,0,0,3.83.073c-.024.024-.049.073-.073.1L2.512,4.83H2.342a.147.147,0,0,1-.1-.024.467.467,0,0,1-.1-.2L.951.171A.325.325,0,0,0,.878.049.185.185,0,0,0,.781,0H.22C.1,0,.024.049.024.171V.244L1.39,4.9a1.878,1.878,0,0,0,.146.366.857.857,0,0,0,.171.22.73.73,0,0,0,.2.1.675.675,0,0,0,.22.024h.146l-.1.415a4.6,4.6,0,0,1-.146.439.764.764,0,0,1-.2.268.535.535,0,0,1-.293.122,1.851,1.851,0,0,1-.39.024,3.453,3.453,0,0,1-.463-.024C.488,6.83.341,6.83.22,6.806H.2c-.122,0-.2.049-.2.171v.366a.134.134,0,0,0,.073.122.347.347,0,0,0,.146.049c.1.024.244.049.415.073A3.11,3.11,0,0,0,1.1,7.61a3.079,3.079,0,0,0,.732-.073,1.291,1.291,0,0,0,.512-.268,1.1,1.1,0,0,0,.341-.463A5.475,5.475,0,0,0,2.951,6.1L4.635.22V.146C4.683.1,4.635.024,4.513.024Z" transform="translate(140.696 19.66)" fill="#453d66"/>
    <path id="Path-24" data-name="Path" d="M.9,0H.341A.313.313,0,0,0,.1.1a.265.265,0,0,0-.1.22V1.1a.3.3,0,0,0,.1.22.313.313,0,0,0,.244.1H.9a.238.238,0,0,0,.22-.1.265.265,0,0,0,.1-.22V.317a.238.238,0,0,0-.1-.22A.3.3,0,0,0,.9,0Z" transform="translate(15.977 12.221)" fill="#453d66"/>
    <path id="Path-25" data-name="Path" d="M.927,1.415a.238.238,0,0,0,.22-.1.265.265,0,0,0,.1-.22V.317a.238.238,0,0,0-.1-.22A.433.433,0,0,0,.9,0H.341A.313.313,0,0,0,.1.1a.265.265,0,0,0-.1.22V1.1a.3.3,0,0,0,.1.22.313.313,0,0,0,.244.1Z" transform="translate(13.587 12.196)" fill="#453d66"/>
    <path id="Path-26" data-name="Path" d="M.317,1.415h.61a.313.313,0,0,0,.244-.1.238.238,0,0,0,.1-.22V.317a.238.238,0,0,0-.1-.22A.438.438,0,0,0,.951,0H.317A.238.238,0,0,0,.1.1a.265.265,0,0,0-.1.22V1.1a.265.265,0,0,0,.1.22A.238.238,0,0,0,.317,1.415Z" transform="translate(21.051 1.171)" fill="#453d66"/>
    <path id="Shape-9" data-name="Shape" d="M22.563,6.708H17.173a4.469,4.469,0,0,1-.952-.1,1.818,1.818,0,0,1-.854-.39,1.966,1.966,0,0,1-.854.39,4.179,4.179,0,0,1-.9.1H6.538a2.85,2.85,0,0,1-1.1-.2,1.32,1.32,0,0,1-.659-.658,1.381,1.381,0,0,1-.756.464A4.031,4.031,0,0,1,2.9,6.464H2.781A2.782,2.782,0,0,1,.732,5.732,2.886,2.886,0,0,1,0,3.61V3.245A3.731,3.731,0,0,1,.268,1.781,2.563,2.563,0,0,1,1.049.805,3.26,3.26,0,0,1,2.22.244,5.929,5.929,0,0,1,3.732.074c.056,0,.118.005.183.011S4.078.1,4.171.1s.166.018.244.024.159.012.244.024c.145.02.272.042.394.062L5.122.22c.146.024.269.049.366.073s.148.052.17.1c.025.024.025.1.025.171V4.61a.861.861,0,0,0,.268.732,1.236,1.236,0,0,0,.732.17h7.1a1.219,1.219,0,0,0,.141-.011,1.467,1.467,0,0,1,.177-.013c.12-.024.244-.048.341-.074a1,1,0,0,0,.269-.17.387.387,0,0,0,.1-.292V1.171a.28.28,0,0,1,.074-.2.28.28,0,0,1,.2-.074h.658a.28.28,0,0,1,.2.074.276.276,0,0,1,.073.2V5.122a.291.291,0,0,0,.171.17.79.79,0,0,0,.292.1l.059.012a1.328,1.328,0,0,0,.283.037,1.2,1.2,0,0,0,.292.024H19a2.549,2.549,0,0,1-.464-.805,3.464,3.464,0,0,1-.17-1.22V3.1A2.971,2.971,0,0,1,19.246.83,3.354,3.354,0,0,1,21.685,0c.39,0,.786.025,1.17.048a7.184,7.184,0,0,1,.976.171c.106.026.173.051.2.1a.284.284,0,0,1,.048.17V5.366c0,.1-.006.2-.013.287s-.011.167-.011.25-.007.171-.013.25-.011.143-.011.213a.291.291,0,0,1-.292.268A9.988,9.988,0,0,1,22.563,6.708Zm-.976-5.586a2.059,2.059,0,0,0-1.512.512,2,2,0,0,0-.513,1.489v.317a2.3,2.3,0,0,0,.464,1.513,1.717,1.717,0,0,0,1.415.536h.732a6.017,6.017,0,0,0,.682-.024V1.2l-.019,0a4.618,4.618,0,0,0-.565-.047A6.181,6.181,0,0,0,21.587,1.122ZM3.561,1.2a5.637,5.637,0,0,0-.952.1,2.179,2.179,0,0,0-.732.317,1.745,1.745,0,0,0-.488.61,2.116,2.116,0,0,0-.17.952v.292A2.034,2.034,0,0,0,1.61,4.8a1.573,1.573,0,0,0,1.317.488H3.2a2.689,2.689,0,0,0,.439-.024,1.983,1.983,0,0,0,.414-.122A.957.957,0,0,0,4.342,4.9a.675.675,0,0,0,.122-.39h.024V1.268l-.075-.009a3.679,3.679,0,0,0-.437-.039A2.555,2.555,0,0,0,3.561,1.2Z" transform="translate(0.22 4.171)" fill="#453d66"/>
    <path id="Path-27" data-name="Path" d="M.366,1.415H.927a.238.238,0,0,0,.22-.1.238.238,0,0,0,.1-.22V.317a.238.238,0,0,0-.1-.22A.433.433,0,0,0,.9,0H.341A.313.313,0,0,0,.1.1a.265.265,0,0,0-.1.22V1.1a.265.265,0,0,0,.1.22A.6.6,0,0,0,.366,1.415Z" transform="translate(33.027 1.781)" fill="#453d66"/>
    <path id="Path-28" data-name="Path" d="M.341,1.415H.9a.238.238,0,0,0,.22-.1.238.238,0,0,0,.1-.22V.317a.238.238,0,0,0-.1-.22A.438.438,0,0,0,.9,0H.341A.313.313,0,0,0,.1.1a.265.265,0,0,0-.1.22V1.1a.265.265,0,0,0,.1.22A.515.515,0,0,0,.341,1.415Z" transform="translate(35.418 1.781)" fill="#453d66"/>
    <path id="Path-29" data-name="Path" d="M17.9,10.781c.171-.024.341-.024.463-.049a1.19,1.19,0,0,0,.341-.073c.122-.049.2-.1.22-.171a.73.73,0,0,0,.1-.244c.024-.122.024-.244.049-.39,0-.146.024-.293.024-.439V.268a.277.277,0,0,0-.073-.2.277.277,0,0,0-.2-.073h-.707a.277.277,0,0,0-.2.073.277.277,0,0,0-.073.2V9.05c0,.244-.024.39-.1.439a1.164,1.164,0,0,1-.537.073H15.928a1.188,1.188,0,0,1-.293-.024,1.647,1.647,0,0,1-.341-.049.823.823,0,0,1-.293-.1.292.292,0,0,1-.171-.171V.268a.277.277,0,0,0-.073-.2.277.277,0,0,0-.2-.073h-.707a.277.277,0,0,0-.2.073.277.277,0,0,0-.073.2V9.05a.389.389,0,0,1-.1.293,1.007,1.007,0,0,1-.268.171c-.1.024-.22.049-.341.073-.122,0-.22.024-.317.024h-.878a1.188,1.188,0,0,1-.293-.024,1.647,1.647,0,0,1-.341-.049.823.823,0,0,1-.293-.1.292.292,0,0,1-.171-.171v-4A.252.252,0,0,0,10.318,5H9.659a.252.252,0,0,0-.268.268V9.05a.389.389,0,0,1-.1.293,1.007,1.007,0,0,1-.268.171c-.1.024-.22.049-.341.073-.122,0-.22.024-.317.024h-5V5.269a.277.277,0,0,0-.073-.2A.221.221,0,0,0,3.122,5H2.415a.252.252,0,0,0-.268.268V11.66a3.159,3.159,0,0,1-.073.756.729.729,0,0,1-.268.415.982.982,0,0,1-.488.2,6.3,6.3,0,0,1-.781.049H.244c-.171,0-.244.073-.244.2v.61a.206.206,0,0,0,.049.146.535.535,0,0,0,.2.073c.1.024.22.024.39.049.146,0,.268.024.317.024a4,4,0,0,0,1.342-.2,1.619,1.619,0,0,0,.8-.707,2.5,2.5,0,0,0,.22-.683,4.736,4.736,0,0,0,.049-.854v-.927H8.2a4.227,4.227,0,0,0,.9-.1,1.966,1.966,0,0,0,.854-.39,1.844,1.844,0,0,0,.854.39,4.5,4.5,0,0,0,.951.1h.732a4.227,4.227,0,0,0,.9-.1,1.966,1.966,0,0,0,.854-.39,1.523,1.523,0,0,0,.39.244,1.472,1.472,0,0,0,.463.146c.171.024.317.049.488.073a3.11,3.11,0,0,0,.463.024h1.415C17.563,10.806,17.733,10.781,17.9,10.781Z" transform="translate(24.929 0.073)" fill="#453d66"/>
    <path id="Path-30" data-name="Path" d="M.341,1.415H.9a.238.238,0,0,0,.22-.1.238.238,0,0,0,.1-.22V.317a.238.238,0,0,0-.1-.22A.438.438,0,0,0,.9,0H.341A.313.313,0,0,0,.1.1a.265.265,0,0,0-.1.22V1.1a.265.265,0,0,0,.1.22A.433.433,0,0,0,.341,1.415Z" transform="translate(53.249 1.22)" fill="#453d66"/>
    <path id="Path-31" data-name="Path" d="M.341,1.415H.9a.238.238,0,0,0,.22-.1.238.238,0,0,0,.1-.22V.317a.238.238,0,0,0-.1-.22A.433.433,0,0,0,.878,0H.341A.313.313,0,0,0,.1.1a.265.265,0,0,0-.1.22V1.1a.265.265,0,0,0,.1.22A.433.433,0,0,0,.341,1.415Z" transform="translate(50.883 1.22)" fill="#453d66"/>
    <path id="Shape-10" data-name="Shape" d="M20.866,6.856h0l-.132,0a4.186,4.186,0,0,1-1.415-.22,2.044,2.044,0,0,1-.976-.682,1.353,1.353,0,0,1-.756.536,3.745,3.745,0,0,1-1.1.146H6.538a2.851,2.851,0,0,1-1.1-.195,1.321,1.321,0,0,1-.659-.659,1.381,1.381,0,0,1-.756.464A4.031,4.031,0,0,1,2.9,6.39H2.781A2.782,2.782,0,0,1,.732,5.659,2.886,2.886,0,0,1,0,3.537V3.171A3.731,3.731,0,0,1,.268,1.707,2.569,2.569,0,0,1,1.049.732,3.26,3.26,0,0,1,2.22.17,5.929,5.929,0,0,1,3.732,0c.056,0,.118.005.183.011s.163.014.256.014.162.017.24.023.171.013.248.026c.172.024.32.049.464.073s.261.048.366.074.147.051.17.1c.025.024.025.1.025.17V4.537a.861.861,0,0,0,.268.732,1.235,1.235,0,0,0,.732.171h10a.888.888,0,0,0,.114-.011,1.119,1.119,0,0,1,.154-.014.761.761,0,0,0,.317-.073.562.562,0,0,0,.292-.146.4.4,0,0,0,.17-.269,1.892,1.892,0,0,0,.049-.414V3.123a3.166,3.166,0,0,1,.78-2.269,2.938,2.938,0,0,1,2.22-.805A2.872,2.872,0,0,1,22.953.83,3.184,3.184,0,0,1,23.685,3.1v.732A3.261,3.261,0,0,1,23,6.1,2.69,2.69,0,0,1,20.866,6.856Zm-.059-5.684a1.663,1.663,0,0,0-1.367.536,2.447,2.447,0,0,0-.414,1.512v.635a3.993,3.993,0,0,0,.048.8,1.147,1.147,0,0,0,.61.854,2.322,2.322,0,0,0,1.1.22,1.744,1.744,0,0,0,1.342-.464,2.224,2.224,0,0,0,.391-1.512V3.219a2.652,2.652,0,0,0-.391-1.512A1.455,1.455,0,0,0,20.807,1.171ZM3.61,1.146a5.707,5.707,0,0,0-.952.1,2.164,2.164,0,0,0-.732.317,1.737,1.737,0,0,0-.488.61,2.142,2.142,0,0,0-.171.952v.292a2.032,2.032,0,0,0,.391,1.342,1.572,1.572,0,0,0,1.316.488h.269a2.68,2.68,0,0,0,.438-.024A2.063,2.063,0,0,0,4.1,5.1a.973.973,0,0,0,.292-.244.669.669,0,0,0,.122-.39h.024V1.22l-.07-.009a3.713,3.713,0,0,0-.442-.04A2.441,2.441,0,0,0,3.61,1.146Z" transform="translate(49.614 4.22)" fill="#453d66"/>
    <path id="Shape-11" data-name="Shape" d="M15.1,10.855H1.878a3.754,3.754,0,0,1-.8-.074,1.329,1.329,0,0,1-.586-.292,1.263,1.263,0,0,1-.366-.561A3.09,3.09,0,0,1,0,9.025V.292A.272.272,0,0,1,.074.1.221.221,0,0,1,.268,0H.976a.307.307,0,0,1,.2.1.275.275,0,0,1,.073.195V8.757a1.219,1.219,0,0,0,.074.464.673.673,0,0,0,.195.244.544.544,0,0,0,.293.122,2.26,2.26,0,0,0,.414.024H7.928L6.562,6.147a.172.172,0,0,0-.009-.04.3.3,0,0,1-.015-.082V5.9l.024-.414c0-.109.08-.229.244-.366a3.405,3.405,0,0,1,.586-.39,3.279,3.279,0,0,1,.732-.293l.024-.006a8.1,8.1,0,0,1,.8-.188,4.819,4.819,0,0,1,.854-.074,5.278,5.278,0,0,1,1.293.171,2.83,2.83,0,0,1,1.024.488,2.666,2.666,0,0,1,.659.878,2.961,2.961,0,0,1,.244,1.268v.268a3.436,3.436,0,0,1-.074.708,3.188,3.188,0,0,1-.195.683,3.383,3.383,0,0,1-.317.586,1.635,1.635,0,0,1-.39.414h2.9a1.15,1.15,0,0,0,.536-.074c.069-.045.1-.176.1-.438V.342a.279.279,0,0,1,.073-.2.279.279,0,0,1,.2-.073h.708a.275.275,0,0,1,.195.073.276.276,0,0,1,.074.2V9.489c0,.073-.006.147-.012.219s-.012.146-.012.219-.017.131-.023.191a1.859,1.859,0,0,1-.026.2.748.748,0,0,1-.1.244.36.36,0,0,1-.22.146.711.711,0,0,1-.233.057l-.108.016a2,2,0,0,1-.235.027c-.075.006-.151.012-.229.023s-.164.006-.25.011S15.2,10.855,15.1,10.855ZM9.805,5.293a5.32,5.32,0,0,0-.976.1,2.987,2.987,0,0,0-1.122.464L9.171,9.635h1.073a1.823,1.823,0,0,0,1.171-.83,2.9,2.9,0,0,0,.414-1.536v-.2a1.61,1.61,0,0,0-.536-1.366A2.471,2.471,0,0,0,9.805,5.293Z" transform="translate(75.544 0)" fill="#453d66"/>
    <path id="Path-32" data-name="Path" d="M.268,10.855H.976a.222.222,0,0,0,.2-.1.277.277,0,0,0,.073-.2V.293A.277.277,0,0,0,1.171.1a.3.3,0,0,0-.2-.1H.268a.222.222,0,0,0-.2.1A.277.277,0,0,0,0,.293V10.562a.277.277,0,0,0,.073.2A.222.222,0,0,0,.268,10.855Z" transform="translate(94.814 0.024)" fill="#453d66"/>
    <path id="Path-33" data-name="Path" d="M.341,1.415H.9a.238.238,0,0,0,.22-.1.238.238,0,0,0,.1-.22V.317a.238.238,0,0,0-.1-.22A.438.438,0,0,0,.9,0H.341A.313.313,0,0,0,.1.1a.265.265,0,0,0-.1.22V1.1a.265.265,0,0,0,.1.22A.515.515,0,0,0,.341,1.415Z" transform="translate(105.4 1.22)" fill="#453d66"/>
    <path id="Path-34" data-name="Path" d="M.366,1.415H.927a.238.238,0,0,0,.22-.1.238.238,0,0,0,.1-.22V.317a.238.238,0,0,0-.1-.22A.433.433,0,0,0,.9,0H.341A.313.313,0,0,0,.1.1a.265.265,0,0,0-.1.22V1.1a.265.265,0,0,0,.1.22A.6.6,0,0,0,.366,1.415Z" transform="translate(103.01 1.22)" fill="#453d66"/>
    <path id="Path-35" data-name="Path" d="M.293,2.561H2.244c.073,0,.146,0,.171-.024a.147.147,0,0,0,.073-.146v-.22c0-.122-.073-.171-.244-.171H1.268a.731.731,0,0,1-.22-.244.967.967,0,0,1-.1-.488C.951.829,1.2.61,1.707.61h.439c.122,0,.2-.049.2-.146V.244c0-.073-.049-.146-.171-.171-.1-.024-.2-.024-.293-.049C1.781.024,1.707,0,1.61,0a1.528,1.528,0,0,0-1,.293,1.044,1.044,0,0,0-.341.878,2.688,2.688,0,0,0,.049.439,1.174,1.174,0,0,0,.2.39H.268C.1,2,0,2.049,0,2.147V2.39C.049,2.512.122,2.561.293,2.561Z" transform="translate(115.816 0.707)" fill="#453d66"/>
    <path id="Path-36" data-name="Path" d="M.927,1.415a.238.238,0,0,0,.22-.1.265.265,0,0,0,.1-.22V.317a.238.238,0,0,0-.1-.22A.433.433,0,0,0,.9,0H.341A.313.313,0,0,0,.1.1a.265.265,0,0,0-.1.22V1.1a.3.3,0,0,0,.1.22.313.313,0,0,0,.244.1Z" transform="translate(122.402 12.196)" fill="#453d66"/>
    <path id="Path-37" data-name="Path" d="M1.146,1.317a.265.265,0,0,0,.1-.22V.317a.238.238,0,0,0-.1-.22A.438.438,0,0,0,.927,0H.341A.313.313,0,0,0,.1.1a.265.265,0,0,0-.1.22V1.1a.3.3,0,0,0,.1.22.313.313,0,0,0,.244.1H.9A.73.73,0,0,0,1.146,1.317Z" transform="translate(124.792 12.221)" fill="#453d66"/>
    <path id="Shape-12" data-name="Shape" d="M32.174,14.44a3.8,3.8,0,0,1-1.391-.219,2.151,2.151,0,0,1-.878-.635,2.506,2.506,0,0,1-.464-1,5.5,5.5,0,0,1-.146-1.317v-.463H24.441a4.508,4.508,0,0,1-.951-.1,1.831,1.831,0,0,1-.854-.39,1.991,1.991,0,0,1-.854.39,4.3,4.3,0,0,1-.9.1H17.2a4.524,4.524,0,0,1-.952-.1,1.837,1.837,0,0,1-.854-.39,1.988,1.988,0,0,1-.854.39,4.294,4.294,0,0,1-.9.1h-7.1a2.85,2.85,0,0,1-1.1-.2,1.322,1.322,0,0,1-.659-.658,1.378,1.378,0,0,1-.756.463,4.029,4.029,0,0,1-1.122.147H2.781A2.782,2.782,0,0,1,.732,9.831,2.887,2.887,0,0,1,0,7.708V7.342A3.738,3.738,0,0,1,.268,5.878,2.569,2.569,0,0,1,1.049,4.9a3.26,3.26,0,0,1,1.17-.56,5.924,5.924,0,0,1,1.513-.171c.056,0,.118.005.183.011s.163.014.256.014.168.019.249.025.164.012.239.025c.172.024.32.049.464.073s.271.05.366.074.147.051.17.1a.271.271,0,0,0,.008.044.6.6,0,0,1,.018.127V8.708a.861.861,0,0,0,.268.732,1.235,1.235,0,0,0,.732.171h7.1a1.219,1.219,0,0,0,.141-.011,1.467,1.467,0,0,1,.177-.013l.058-.012c.1-.021.2-.041.283-.062a1.026,1.026,0,0,0,.269-.17.388.388,0,0,0,.1-.293V5.269a.279.279,0,0,1,.074-.195.273.273,0,0,1,.2-.074h.658A.252.252,0,0,1,16,5.269v4a.291.291,0,0,0,.171.17.79.79,0,0,0,.292.1l.059.012a1.328,1.328,0,0,0,.283.037,1.2,1.2,0,0,0,.292.024h3.879a1.219,1.219,0,0,0,.141-.011,1.467,1.467,0,0,1,.177-.013l.058-.012c.1-.021.2-.041.283-.062a1.026,1.026,0,0,0,.269-.17.388.388,0,0,0,.1-.293V5.269a.279.279,0,0,1,.074-.195.273.273,0,0,1,.2-.074h.658a.252.252,0,0,1,.268.268V9.2a.292.292,0,0,0,.171.171.842.842,0,0,0,.292.1l.052.01a1.376,1.376,0,0,0,.29.038,1.2,1.2,0,0,0,.292.024h4.879v-4.8c0-.19.118-.317.342-.366a5.7,5.7,0,0,1,.976-.171c.36-.026.713-.048,1.073-.048a3.943,3.943,0,0,1,2.415.683,2.641,2.641,0,0,1,.878,2.2v.219a4.275,4.275,0,0,1-.512,2.171,2.588,2.588,0,0,1-1.586,1.2,2.807,2.807,0,0,1-.513.1c-.11.012-.215.018-.317.024s-.207.012-.317.024-.221.006-.328.012-.22.012-.33.012h-.61v.366a3.038,3.038,0,0,0,.342,1.611A1.456,1.456,0,0,0,32,13.294a1.449,1.449,0,0,0,1.269-.488,3.109,3.109,0,0,0,.366-1.561v-.17a.842.842,0,0,0,.024-.244.884.884,0,0,1,.013-.14.691.691,0,0,0,.011-.1.4.4,0,0,1,.017-.11.163.163,0,0,0,.007-.036,1.043,1.043,0,0,1,.561-.732,2.089,2.089,0,0,1,.464-.122,4.719,4.719,0,0,1,.61-.025h1.683a1.185,1.185,0,0,0,.536-.073c.069-.046.1-.177.1-.439V.268a.275.275,0,0,1,.073-.195A.276.276,0,0,1,37.93,0h.708a.272.272,0,0,1,.195.074.272.272,0,0,1,.074.195V9.415a.42.42,0,0,0,.146.439c-.011.069-.017.133-.023.194a1.931,1.931,0,0,1-.025.2.736.736,0,0,1-.1.244c-.022.068-.086.117-.22.17a.7.7,0,0,1-.235.058l-.106.015a2.067,2.067,0,0,1-.23.025c-.075.006-.153.012-.233.023s-.164.006-.25.012-.186.013-.287.013H35.321a2.256,2.256,0,0,0-.266.017c-.033,0-.059.007-.076.007l-.024.536a3.791,3.791,0,0,1-.683,2.293A2.6,2.6,0,0,1,32.174,14.44Zm-.61-9.147c-.149,0-.284.008-.4.015-.1.006-.181.01-.257.01a3.76,3.76,0,0,0-.469.04l-.067.008v4.2h1.146A1.994,1.994,0,0,0,33.15,9a2.474,2.474,0,0,0,.488-1.635V7.1a2.173,2.173,0,0,0-.146-.854,1.39,1.39,0,0,0-.415-.56,1.611,1.611,0,0,0-.658-.293A3.04,3.04,0,0,0,31.564,5.293Zm-28.051,0a5.707,5.707,0,0,0-.952.1,2.173,2.173,0,0,0-.732.317,1.737,1.737,0,0,0-.488.61,2.116,2.116,0,0,0-.17.952v.292A2.037,2.037,0,0,0,1.561,8.9a1.573,1.573,0,0,0,1.317.488h.268a2.68,2.68,0,0,0,.438-.024A2.026,2.026,0,0,0,4,9.245.991.991,0,0,0,4.293,9a.669.669,0,0,0,.122-.39h.024V5.366l-.07-.009a3.712,3.712,0,0,0-.442-.04A2.441,2.441,0,0,0,3.513,5.293Z" transform="translate(101.888 0.073)" fill="#453d66"/>
    <path id="Path-38" data-name="Path" d="M.268,10.855H.976a.222.222,0,0,0,.2-.1.277.277,0,0,0,.073-.2V.293A.277.277,0,0,0,1.171.1a.3.3,0,0,0-.2-.1H.268a.222.222,0,0,0-.2.1A.277.277,0,0,0,0,.293V10.562a.277.277,0,0,0,.073.2A.2.2,0,0,0,.268,10.855Z" transform="translate(143.257 0.024)" fill="#453d66"/>
  </g>
  <g id="Group-2" data-name="Group" transform="translate(3.659)">
    <g id="Group-3" data-name="Group" transform="translate(50.2 47.2)">
      <path id="Path-39" data-name="Path" d="M28.344,12.294h0l-4.317-2.025.268-.537-.537-.268-.341.512-2.9-1.342-1.488-.707-.439-.22-.463-.22h-.049l-1.537-.732-.146-.073-.317-.146-.463-.22-.39-.171-.537-.268-3.1-1.464-.8-.366-.439-.22L6.586,2.073,5.537,1.586,3.9.829,2.464.146,2.171,0,.561.146,0,.171,2.561,1.439l2.049,1,1.415.683,2.83,1.39.927.463,1.805.878,2.439,1.2h.024l.439.22.439.22,1.61.781.439.22.439.22h0l3.366,1.634.049.049.634.122.878.171.39.39-.439.683.781.39.244-.488,4.317,2.122.707-1.488Z" transform="translate(0 22.539)" fill="#453d66"/>
      <g id="Group-4" data-name="Group" transform="translate(0.39 0)">
        <path id="Path-40" data-name="Path" d="M.488,3.976,2.269,2.317,2.951.683,3.171.2,2.951.146,2.561.1,1.781,0,0,3.976l.073.39Z" transform="translate(17.172 0.732)" fill="#453d66"/>
        <path id="Path-41" data-name="Path" d="M1.805,16.05l.8-.366V1.024L1.439,0H1.22L0,1.146V15.684l1.317.61Z" transform="translate(14.831 12.123)" fill="#453d66"/>
        <path id="Path-42" data-name="Path" d="M3.854,5.074l.2-.2L5.561,3.464l1.22-1.146L8.1,1.073,9.2.024V0L8.025.024,5.976.049H5.049L2.366,2.537,1.2,3.61.9,4.879.049,8.537,0,8.708l.122-.122Z" transform="translate(5.635 12.147)" fill="#453d66"/>
        <path id="Path-43" data-name="Path" d="M2.708,3.537,2,4.171l-.707.659L0,6.025l.073.415.659-.268.512-.22.512-.22.976-.39L6.269,3.878,9.562.756,6.513,0,2.732,3.488Z" transform="translate(17.392)" fill="#453d66"/>
        <path id="Path-44" data-name="Path" d="M5.683,1.829l-1.024.415-1.927.8-1.415.585L.8,3.854l-.512.22L0,4.2l.171.146.171.146h.2l.439-.024H2.317l.415-.024h.756l3.561-.049h.512l1.683-.659,4.244-1.659L11.074.634,10.952.561,10.05,0,6.708,1.39Z" transform="translate(17.392 3.147)" fill="#453d66"/>
        <path id="Path-45" data-name="Path" d="M2.878,4.171l.1-.561L1.366,0,0,.2.976,2.537Z" transform="translate(12.099 1.098)" fill="#453d66"/>
        <path id="Path-46" data-name="Path" d="M10.757,0,7.22.049,6.464.073H5.342L4.952.1H4.2L1.488.146H.22L0,.171.122.244.415.512.707.781l.561.463.22.2.122.1.341.293.585.512L3.317,3l2.342-.049L9.83,2.9l3.878-.073L11.83,1.024Z" transform="translate(18.636 8.245)" fill="#453d66"/>
        <path id="Path-47" data-name="Path" d="M9.9,2.854h1.122l.366-.024,2.488-.024-1.732-.659L11.733,2l-.415-.171-.293-.1L6.488,0,4.317.049H3.342L0,3.025l6-.1Z" transform="translate(0.171 8.562)" fill="#453d66"/>
        <path id="Path-48" data-name="Path" d="M6.806,4.635l1,.39,1,.366,2.39.9.951.366.39.146.415.146,1.488.561.293.122-.244-.2L13.44,6.513l-.293-.268-.293-.268-.732-.634-.439-.39-.439-.39L11.2,4.537,8.367,2.073,3.415,0,1.878.927,0,2.073l3.244,1.22Z" transform="translate(0 3.147)" fill="#453d66"/>
        <path id="Path-49" data-name="Path" d="M.366,2.2.39,2.22l.171.146.1.073.024.024H.976l-.024-.22L.927,2.2.9,2.025.854,1.732.781,1.317.683.61.585,0H.293L.22.585.1,1.317,0,1.878l.073.073Z" transform="translate(15.684 4)" fill="#453d66"/>
        <path id="Path-50" data-name="Path" d="M4.757,5l.927.8.537.463L7.44,7.342l.439.39.439.39.122.122.293.268.293.268.8.707.024.024h0l.512.439h.024v.024l.2.171.146.122.341.293.073.049.146.122.049.024.122.1.024.024.1.073.171.146.073.049.2.171.439.39h0l1.1.951,1.61,1.415,1.659,1.439.341.293.463.415.463.415,2.049,1.781,1.488,1.317.415.366-.122-.488-.1-.366-.707-2.61-.439-1.586-.659-.585-.268-.244L18.221,12.9l-1.512-1.293-.463-.39-.463-.39-.171-.146-.463-.39-.39-.341-.317-.2L14.1,9.464l-.293-.244-.293-.268-.293-.268-.293-.268-.317-.268-.122-.1-.2-.171-.244-.22L11.9,7.513l-.244-.22h-.024l-.024-.024h0l-.293-.244L11.294,7h0l-.146-.122h0l-.171-.146-.122-.122h0l-.146-.122-.146-.122-.049-.024-.244-.2-.341-.293L8.854,4.927l-.683-.585-.683-.585L7.2,3.513l-.927-.8L3.025,0,0,.854,3.805,4.2Z" transform="translate(4.976 0.341)" fill="#453d66"/>
        <path id="Path-51" data-name="Path" d="M9.294,0,8.708.268l-1.854.878-1.951.9-.317-.512-.537.268.268.537L0,4.366.683,5.854,5,3.732l.244.488.8-.39L5.61,3.147l.366-.39.878-.171.634-.122.073-.049L10.9.781Z" transform="translate(4.342 30.466)" fill="#453d66"/>
        <path id="Path-52" data-name="Path" d="M1.561,7.049l1.488-.732L5.61,5.074l3.1-1.537L15.587.171,15.05.146,13.416,0l-.268.146L8.123,2.488,4.171,4.342l-1.122.537L.366,6.147,0,6.318l.366.171Z" transform="translate(17.075 22.539)" fill="#453d66"/>
      </g>
    </g>
    <g id="Group-5" data-name="Group">
      <path id="Path-53" data-name="Path" d="M8.562,0H.073Q0,1.207,0,2.415A33.432,33.432,0,0,0,.463,8.074H9.1a25.47,25.47,0,0,1-.634-5.659A19.99,19.99,0,0,1,8.562,0Z" transform="translate(32.442 62.981)" fill="#453d66"/>
      <path id="Path-54" data-name="Path" d="M.439,2.439A36.385,36.385,0,0,1,0,8.1H11.367a47.211,47.211,0,0,0,.39-6.2c0-.634-.024-1.268-.049-1.9H.341C.415.829.439,1.634.439,2.439Z" transform="translate(102.131 62.957)" fill="#453d66"/>
      <path id="Path-55" data-name="Path" d="M.049,0C.024.634,0,1.268,0,1.9A52.485,52.485,0,0,0,.39,8.1H12.513a36.385,36.385,0,0,1-.439-5.659q0-1.207.073-2.415H.049Z" transform="translate(18.587 62.981)" fill="#453d66"/>
      <path id="Path-56" data-name="Path" d="M0,8.074H8.342a33.432,33.432,0,0,0,.463-5.659q0-1.207-.073-2.415H.537C.61.8.659,1.61.659,2.415A26.814,26.814,0,0,1,0,8.074Z" transform="translate(92.033 62.981)" fill="#453d66"/>
      <path id="Path-57" data-name="Path" d="M13.562,8.074V0H.317C.341.634.366,1.268.366,1.9A52.468,52.468,0,0,1,0,8.1H13.562Z" transform="translate(118.328 62.981)" fill="#453d66"/>
      <path id="Path-58" data-name="Path" d="M13.831,1.9c0-.634.024-1.268.049-1.9H0V8.074H14.2A51.752,51.752,0,0,1,13.831,1.9Z" transform="translate(0 62.981)" fill="#453d66"/>
      <path id="Path-59" data-name="Path" d="M11.123,16.1A35.891,35.891,0,0,1,15.977,5.464L4.854,0A47.59,47.59,0,0,0,0,10.635Z" transform="translate(20.782 39.931)" fill="#453d66"/>
      <path id="Path-60" data-name="Path" d="M4.83,0A33.581,33.581,0,0,0,0,10.635l7.83,3.854A25.7,25.7,0,0,1,12.513,3.781Z" transform="translate(33.491 46.151)" fill="#453d66"/>
      <path id="Path-61" data-name="Path" d="M5.464,0A35.857,35.857,0,0,1,0,10.318L10.1,15.27A48.082,48.082,0,0,0,15.562,4.952Z" transform="translate(95.277 76.812)" fill="#453d66"/>
      <path id="Path-62" data-name="Path" d="M4.854,1.39A52.819,52.819,0,0,1,0,10.342L22.9,21.587,28.051,11.1,5.415,0C5.244.463,5.049.927,4.854,1.39Z" transform="translate(109.693 83.886)" fill="#453d66"/>
      <path id="Path-63" data-name="Path" d="M16.075,13.709a50.223,50.223,0,0,1,3.391-6.659L5.147,0,0,10.489,14.611,17.66Q15.233,15.684,16.075,13.709Z" transform="translate(1.878 30.759)" fill="#453d66"/>
      <path id="Path-64" data-name="Path" d="M7.562,13.977A33.935,33.935,0,0,0,13.05,3.659L5.61,0A25.834,25.834,0,0,1,0,10.245Z" transform="translate(86.106 72.373)" fill="#453d66"/>
      <path id="Path-65" data-name="Path" d="M0,5.269l5.391,8.757,8.733-5.366L8.806,0A35.586,35.586,0,0,1,0,5.269Z" transform="translate(80.447 93.326)" fill="#453d66"/>
      <path id="Path-66" data-name="Path" d="M4.415,12.343A34.351,34.351,0,0,0,13.221,7.1L8.854,0A26.208,26.208,0,0,1,0,5.171Z" transform="translate(75.129 84.74)" fill="#453d66"/>
      <path id="Path-67" data-name="Path" d="M14.684,9.659,8.733,0,0,5.366l6.025,9.806A35.216,35.216,0,0,1,14.684,9.659Z" transform="translate(37.247 22.905)" fill="#453d66"/>
      <path id="Path-68" data-name="Path" d="M8.635,0A33.861,33.861,0,0,0,0,5.488l4.513,7.318A25.791,25.791,0,0,1,13.1,7.245Z" transform="translate(44.199 34.052)" fill="#453d66"/>
      <path id="Path-69" data-name="Path" d="M0,0V12.83H10.2V.049C8.611.2,7.025.268,5.415.268A44.242,44.242,0,0,1,0,0Z" transform="translate(60.859 117.011)" fill="#453d66"/>
      <path id="Path-70" data-name="Path" d="M10.2,8.684V.293A33.278,33.278,0,0,0,5.781,0,35.111,35.111,0,0,0,0,.488V9a26.281,26.281,0,0,1,5.927-.683A27.236,27.236,0,0,1,10.2,8.684Z" transform="translate(60.835 31.174)" fill="#453d66"/>
      <path id="Path-71" data-name="Path" d="M0,0V11.343a49.56,49.56,0,0,0,5.391.293,44.5,44.5,0,0,0,4.781-.244V.2A37.967,37.967,0,0,1,5.757.463,34.592,34.592,0,0,1,0,0Z" transform="translate(60.859 100.887)" fill="#453d66"/>
      <path id="Path-72" data-name="Path" d="M0,0V8.537a34.888,34.888,0,0,0,5.781.488A33.278,33.278,0,0,0,10.2,8.733V.341A27.236,27.236,0,0,1,5.927.707,27.758,27.758,0,0,1,0,0Z" transform="translate(60.859 90.618)" fill="#453d66"/>
      <path id="Path-73" data-name="Path" d="M10.172,12.489V.244C8.586.1,7,0,5.391,0A49.227,49.227,0,0,0,0,.293V12.684a37.974,37.974,0,0,1,5.781-.463A32.9,32.9,0,0,1,10.172,12.489Z" transform="translate(60.859 17.246)" fill="#453d66"/>
      <path id="Path-74" data-name="Path" d="M10.2,12.684V0H0V12.733c1.781-.171,3.586-.268,5.391-.268C7.025,12.465,8.611,12.538,10.2,12.684Z" transform="translate(60.835)" fill="#453d66"/>
      <path id="Path-75" data-name="Path" d="M13.245,4.879A34.349,34.349,0,0,0,4.293,0L0,7.245a26.068,26.068,0,0,1,9.05,4.708Z" transform="translate(73.983 33.271)" fill="#453d66"/>
      <path id="Path-76" data-name="Path" d="M4.439,0,0,7.489a33.643,33.643,0,0,0,8.562,5.537L12.9,5.708A26.179,26.179,0,0,1,4.439,0Z" transform="translate(43.955 83.618)" fill="#453d66"/>
      <path id="Path-77" data-name="Path" d="M0,10.025a47.477,47.477,0,0,0,8.684,5.342l5.83-9.83A35.48,35.48,0,0,1,5.952,0Z" transform="translate(37.101 92.594)" fill="#453d66"/>
      <path id="Path-78" data-name="Path" d="M8.83,15.782,15.1,5.2,6.342,0,0,10.708c.293.122.585.268.878.39A52.746,52.746,0,0,1,8.83,15.782Z" transform="translate(87.837 6.44)" fill="#453d66"/>
      <path id="Path-79" data-name="Path" d="M0,11.367l8.757,5.2L15.44,5.318A51.746,51.746,0,0,1,6.757,0Z" transform="translate(27.905 106.742)" fill="#453d66"/>
      <path id="Path-80" data-name="Path" d="M15.075,5.074A46.782,46.782,0,0,0,6.244,0L0,10.513a36.279,36.279,0,0,1,8.952,4.879Z" transform="translate(79.154 21.246)" fill="#453d66"/>
      <path id="Path-81" data-name="Path" d="M3.878,10,10.2,4.683A33.221,33.221,0,0,0,7.708,1.561C7.22,1.024,6.732.512,6.22,0L0,5.244A25.849,25.849,0,0,1,3.878,10Z" transform="translate(84.788 41.565)" fill="#453d66"/>
      <path id="Path-82" data-name="Path" d="M0,6.659c.488.488.976,1,1.439,1.512a38.681,38.681,0,0,1,2.537,3.147l7.9-6.635L7.928,0Z" transform="translate(92.326 33.808)" fill="#453d66"/>
      <path id="Path-83" data-name="Path" d="M2.61,11.416,13.27,6.757A58.028,58.028,0,0,0,10.611,0L0,4.635A44.809,44.809,0,0,1,2.61,11.416Z" transform="translate(98.79 44.516)" fill="#453d66"/>
      <path id="Path-84" data-name="Path" d="M0,3.391A53.587,53.587,0,0,0,3.293,9.9L11,6.513A25.232,25.232,0,0,1,7.684,0Z" transform="translate(34.564 73.836)" fill="#453d66"/>
      <path id="Path-85" data-name="Path" d="M10.22,6.781A42.079,42.079,0,0,0,7.635,0L0,3.342a25.322,25.322,0,0,1,2.512,6.806Z" transform="translate(89.569 49.858)" fill="#453d66"/>
      <path id="Path-86" data-name="Path" d="M0,7.318,2.83,14.05l17.1-7.489C18.88,4.537,17.9,2.708,16.733,0Z" transform="translate(1.073 84.593)" fill="#453d66"/>
      <path id="Path-87" data-name="Path" d="M2.659,15.831,23.71,6.659,20.636,0,0,9.05a5.661,5.661,0,0,1,.439.927C1.073,11.489,1.756,13.294,2.659,15.831Z" transform="translate(113.767 33.54)" fill="#453d66"/>
      <path id="Path-88" data-name="Path" d="M10.83,0,0,4.757C1.171,7.44,2.147,9.294,3.244,11.294L14.123,6.537A54.069,54.069,0,0,1,10.83,0Z" transform="translate(22.148 77.91)" fill="#453d66"/>
    </g>
  </g>
</svg>
