<svg id="General-Sports-Authority-01" xmlns="http://www.w3.org/2000/svg" width="167.388" height="129.65" viewBox="0 0 167.388 129.65">
  <path id="Path" d="M5.327,7.414A1.414,1.414,0,0,0,6.393,8.522v.042L7,11.387H6.142L7,15.359H6.142L7,19.332H8.693l.857-3.972H8.693l.857-3.972H8.693L9.32,8.5a1.414,1.414,0,0,0,1.066-1.108,7.207,7.207,0,0,1,4.767,5.018s2.154-5.52-1.986-8.635a7.091,7.091,0,0,0-2.2-1.129,6.309,6.309,0,0,1,4.244.418A5.6,5.6,0,0,0,8.9.2,4.743,4.743,0,0,0,7.857.619,3.643,3.643,0,0,0,6.811.2C2.483-.928.5,3.065.5,3.065a6.309,6.309,0,0,1,4.244-.418,7.091,7.091,0,0,0-2.2,1.129C-1.594,6.892.56,12.411.56,12.411a7.212,7.212,0,0,1,4.767-5" transform="translate(75.796 30.178)" fill="#453d66"/>
  <g id="Group" transform="translate(41.733 0)">
    <path id="Path-2" data-name="Path" d="M9.262,19.235c.042.5.063,1.024.063,1.547v.335c.063-.021.1-.042.167-.063.544-.167,1.087-.335,1.61-.46,6.628-1.589,13.13.188,16.684,4.307A8.581,8.581,0,0,1,30.8,23.229a11.209,11.209,0,0,1,1.129-.293C27.6,18.106,19.4,16.2,11.123,18.608,10.893,9.931,6.544,2.634.585,0A10.639,10.639,0,0,1,.669,1.171,8.657,8.657,0,0,1,0,4.558C5.06,6.691,8.781,12.377,9.262,19.235Z" transform="translate(46.289 4.265)" fill="#453d66"/>
    <path id="Path-3" data-name="Path" d="M3.659,10.872c2.028,0,3.659-2.425,3.659-5.436C7.318,2.446,5.687,0,3.659,0S0,2.425,0,5.436,1.652,10.872,3.659,10.872Z" transform="translate(38.303)" fill="#453d66"/>
    <path id="Path-4" data-name="Path" d="M12.712.857c-.439,5.415-4.642,10.684-10.956,13.3-.523.209-1.045.418-1.589.585A.492.492,0,0,1,0,14.782a.635.635,0,0,1,.1.146c.335.46.648.941.941,1.4C4.6,22.141,4.913,28.874,2.091,33.515a8.671,8.671,0,0,1,2.53,2.363c.23.335.439.648.627.983,3.262-5.6,2.53-14.008-2.321-21.138C11.039,12.8,16.559,6.44,17.228,0a9.842,9.842,0,0,1-1.087.439A8.314,8.314,0,0,1,12.712.857Z" transform="translate(64.04 36.547)" fill="#453d66"/>
    <path id="Path-5" data-name="Path" d="M10.452,2.19C9.825.266,7-.549,4.159.392,1.316,1.311-.5,3.632.124,5.556s3.45,2.739,6.293,1.8C9.281,6.434,11.08,4.113,10.452,2.19Z" transform="translate(73.346 28.378)" fill="#453d66"/>
    <path id="Path-6" data-name="Path" d="M36.568,7.861C31.257,9.116,24.922,6.711,20.49,1.484c-.335-.4-.669-.815-.983-1.254A1.406,1.406,0,0,1,19.361,0c-.021.021-.042.042-.042.063-.355.481-.732.941-1.108,1.4C13.757,6.607,7.485,8.949,2.216,7.694A9.049,9.049,0,0,1,.753,10.83a6.349,6.349,0,0,1-.753.9c6.314,1.359,14.029-1.9,19.319-8.656,5.29,6.858,13.067,10.182,19.444,8.823a7.79,7.79,0,0,1-.753-.9A8.622,8.622,0,0,1,36.568,7.861Z" transform="translate(22.58 67.302)" fill="#453d66"/>
    <path id="Path-7" data-name="Path" d="M1.158.5c-1.631,1.192-1.526,4.119.23,6.544S5.9,10.475,7.535,9.283s1.526-4.119-.23-6.544S2.789-.69,1.158.5Z" transform="translate(60.289 70.459)" fill="#453d66"/>
    <path id="Path-8" data-name="Path" d="M15.116,33.39c-2.8-4.6-2.53-11.269.962-17.061A17.99,17.99,0,0,1,17.1,14.782a.02.02,0,0,1,.021-.021c-.021,0-.042-.021-.084-.021-.565-.188-1.129-.4-1.673-.627C9.116,11.5,4.955,6.251,4.516.857A9.08,9.08,0,0,1,1.087.439,9.842,9.842,0,0,1,0,0C.648,6.44,6.147,12.754,14.217,15.7,9.45,22.81,8.739,31.132,11.98,36.714a9.751,9.751,0,0,1,.627-.983A8.3,8.3,0,0,1,15.116,33.39Z" transform="translate(2.696 36.526)" fill="#453d66"/>
    <path id="Path-9" data-name="Path" d="M7.535.5C5.9-.69,3.145.314,1.388,2.739s-1.861,5.352-.23,6.544,4.391.188,6.147-2.237C9.082,4.621,9.166,1.694,7.535.5Z" transform="translate(14.961 70.313)" fill="#453d66"/>
    <path id="Path-10" data-name="Path" d="M4.14,24.88c3.533-4.119,10.036-5.917,16.684-4.307a14.159,14.159,0,0,1,1.61.46c.063.021.1.042.167.063v-.335c0-.523.021-1.024.063-1.547.481-6.858,4.223-12.566,9.262-14.656a8.734,8.734,0,0,1-.669-3.387A7.181,7.181,0,0,1,31.341,0C25.361,2.634,21.012,9.931,20.8,18.608c-8.28-2.4-16.5-.5-20.8,4.328a7.479,7.479,0,0,1,1.129.293A8.229,8.229,0,0,1,4.14,24.88Z" transform="translate(5.728 4.307)" fill="#453d66"/>
    <path id="Path-11" data-name="Path" d="M10.453,5.547C11.08,3.623,9.282,1.3,6.418.382,3.575-.538.752.257.125,2.18S1.3,6.4,4.16,7.345C7.024,8.265,9.847,7.47,10.453,5.547Z" transform="translate(0 28.387)" fill="#453d66"/>
  </g>
  <path id="Path-12" data-name="Path" d="M1.861,19.214c.481-6.858,4.223-12.566,9.262-14.656a8.734,8.734,0,0,1-.669-3.387A7.182,7.182,0,0,1,10.538,0C4.558,2.634.209,9.931,0,18.608c.272.084.565.167.836.251C1.192,18.984,1.526,19.11,1.861,19.214Z" transform="translate(68.243 4.286)" fill="#453d66"/>
  <path id="Path-13" data-name="Path" d="M11.123,18.608C10.893,9.931,6.544,2.634.585,0A10.639,10.639,0,0,1,.669,1.171,8.657,8.657,0,0,1,0,4.558c5.039,2.112,8.781,7.8,9.262,14.656.335-.125.669-.251,1.024-.355C10.558,18.775,10.83,18.692,11.123,18.608Z" transform="translate(88.043 4.286)" fill="#453d66"/>
  <path id="Path-14" data-name="Path" d="M3.659,10.872c2.028,0,3.659-2.425,3.659-5.436C7.318,2.446,5.687,0,3.659,0S0,2.425,0,5.436,1.652,10.872,3.659,10.872Z" transform="translate(80.035 0)" fill="#453d66"/>
  <path id="Path-15" data-name="Path" d="M10.956.836C10.517,6.251,6.314,11.52,0,14.134c.23.293.439.565.669.878.167.23.335.481.5.711C9.283,12.8,14.8,6.44,15.472,0a9.842,9.842,0,0,1-1.087.439A8.648,8.648,0,0,1,10.956.836Z" transform="translate(107.529 36.568)" fill="#453d66"/>
  <path id="Path-16" data-name="Path" d="M0,3.025c6.628-1.589,13.13.188,16.684,4.307A8.581,8.581,0,0,1,19.7,5.66a11.21,11.21,0,0,1,1.129-.293C16.5.537,8.3-1.365.021,1.039c0,.23.021.481.021.732C.021,2.189.021,2.607,0,3.025Z" transform="translate(99.145 21.855)" fill="#453d66"/>
  <path id="Path-17" data-name="Path" d="M.063,2.509c.063-.021.1-.042.167-.063.544-.167,1.087-.335,1.61-.46.021-.418.042-.836.042-1.254,0-.251,0-.481-.021-.732C1.589.084,1.3.167,1.024.251.69.355.335.481,0,.606c.042.5.063,1.024.063,1.547Z" transform="translate(97.284 22.873)" fill="#453d66"/>
  <path id="Path-18" data-name="Path" d="M10.452,2.19C9.825.266,7-.549,4.159.392,1.316,1.311-.5,3.632.124,5.556s3.45,2.739,6.293,1.8C9.281,6.434,11.08,4.113,10.452,2.19Z" transform="translate(115.079 28.378)" fill="#453d66"/>
  <path id="Path-19" data-name="Path" d="M0,.606C3.554,6.419,3.868,13.151,1.045,17.793a8.671,8.671,0,0,1,2.53,2.363c.23.335.439.648.627.983C7.464,15.535,6.732,7.13,1.882,0c-.272.1-.544.188-.836.293C.711.4.355.5,0,.606Z" transform="translate(106.818 52.291)" fill="#453d66"/>
  <path id="Path-20" data-name="Path" d="M0,1.589c5.29,6.858,13.067,10.182,19.444,8.823a7.791,7.791,0,0,1-.753-.9,8.879,8.879,0,0,1-1.464-3.136C11.917,7.631,5.582,5.227,1.15,0L.585.815C.376,1.066.188,1.338,0,1.589Z" transform="translate(83.652 68.787)" fill="#453d66"/>
  <path id="Path-21" data-name="Path" d="M1.756,0C1.234.209.711.418.167.585A.492.492,0,0,1,0,.627.635.635,0,0,1,.1.774c.335.46.648.941.941,1.4.355-.1.69-.209,1.045-.314.272-.084.565-.188.836-.293-.167-.251-.335-.481-.5-.711C2.216.565,1.986.272,1.756,0Z" transform="translate(105.773 50.702)" fill="#453d66"/>
  <path id="Path-22" data-name="Path" d="M1.158.5c-1.631,1.192-1.526,4.119.23,6.544S5.9,10.475,7.535,9.283s1.526-4.119-.23-6.544S2.789-.69,1.158.5Z" transform="translate(102.022 70.459)" fill="#453d66"/>
  <path id="Path-23" data-name="Path" d="M4.223,0C-.544,7.109-1.255,15.43,1.986,21.012a9.752,9.752,0,0,1,.627-.983,8.962,8.962,0,0,1,2.53-2.363c-2.8-4.6-2.53-11.269.962-17.061C5.791.523,5.457.418,5.143.314A6.806,6.806,0,0,1,4.223,0Z" transform="translate(54.402 52.249)" fill="#453d66"/>
  <path id="Path-24" data-name="Path" d="M18.19,0C13.757,5.143,7.485,7.485,2.216,6.231A9.049,9.049,0,0,1,.753,9.367a6.348,6.348,0,0,1-.753.9c6.314,1.359,14.029-1.9,19.319-8.656-.167-.209-.314-.418-.46-.627C18.629.648,18.4.335,18.19,0Z" transform="translate(64.313 68.766)" fill="#453d66"/>
  <path id="Path-25" data-name="Path" d="M1.15,0c-.021.021-.042.042-.042.063C.753.544.376,1,0,1.464a10.4,10.4,0,0,0,.69.983c.146.209.314.418.46.627.209-.251.4-.5.585-.774L2.3,1.484c-.335-.4-.669-.815-.983-1.254C1.254.146,1.192.063,1.15,0Z" transform="translate(82.502 67.302)" fill="#453d66"/>
  <path id="Path-26" data-name="Path" d="M7.535.5C5.9-.69,3.145.314,1.388,2.739s-1.861,5.352-.23,6.544,4.391.188,6.147-2.237C9.082,4.621,9.166,1.694,7.535.5Z" transform="translate(56.694 70.313)" fill="#453d66"/>
  <path id="Path-27" data-name="Path" d="M20.8,1.039c-8.28-2.4-16.5-.5-20.8,4.328a7.479,7.479,0,0,1,1.129.293A8.225,8.225,0,0,1,4.14,7.332C7.673,3.213,14.176,1.415,20.824,3.025c-.021-.418-.042-.836-.042-1.254C20.8,1.52,20.8,1.29,20.8,1.039Z" transform="translate(47.44 21.855)" fill="#453d66"/>
  <path id="Path-28" data-name="Path" d="M15.367,14.113C9.116,11.5,4.955,6.251,4.516.857A9.08,9.08,0,0,1,1.087.439,9.842,9.842,0,0,1,0,0C.648,6.44,6.147,12.754,14.217,15.7c.188-.293.376-.565.585-.836Z" transform="translate(44.408 36.547)" fill="#453d66"/>
  <path id="Path-29" data-name="Path" d="M1.819,2.488V2.154c0-.523.021-1.024.063-1.547C1.547.481,1.213.355.857.251.585.167.293.084.021,0,.021.23,0,.481,0,.732c0,.418.021.836.042,1.254a14.159,14.159,0,0,1,1.61.46A.492.492,0,0,1,1.819,2.488Z" transform="translate(68.243 22.894)" fill="#453d66"/>
  <path id="Path-30" data-name="Path" d="M2.906.648c-.021,0-.042-.021-.084-.021C2.258.439,1.694.23,1.15,0L.585.753c-.209.272-.4.565-.585.836.293.1.606.209.92.314s.648.209.962.293c.314-.5.648-1.024,1.024-1.547Z" transform="translate(58.626 50.66)" fill="#453d66"/>
  <path id="Path-31" data-name="Path" d="M10.453,5.547C11.08,3.623,9.282,1.3,6.418.382,3.575-.538.752.257.125,2.18S1.3,6.4,4.16,7.345C7.024,8.265,9.847,7.47,10.453,5.547Z" transform="translate(41.733 28.387)" fill="#453d66"/>
  <path id="Shape" d="M43.84,59.69h0a13.263,13.263,0,0,1-6.323-1.713,16.921,16.921,0,0,1-5.49-4.892,20.148,20.148,0,0,1-1.254-2.007,15.818,15.818,0,0,1-1.17,1.84,16.931,16.931,0,0,1-5.486,4.892A13.245,13.245,0,0,1,17.8,59.523a9.7,9.7,0,0,1-5.738-1.8,9.3,9.3,0,0,1-2.609-2.909,10.946,10.946,0,0,1-1.305-3.765,15.684,15.684,0,0,1,3.058-11.5,20.2,20.2,0,0,1,1.338-1.61A17.945,17.945,0,0,1,10.45,37.4a16.09,16.09,0,0,1-8.518-6.275A10.271,10.271,0,0,1,.456,22.2,9.766,9.766,0,0,1,4.8,16.868a14.094,14.094,0,0,1,7.35-1.942,17.171,17.171,0,0,1,5.325.86,18.717,18.717,0,0,1,2.132.858A18.607,18.607,0,0,1,19.44,14.2c0-7.828,5.1-14.2,11.373-14.2S42.188,6.368,42.188,14.2a18.6,18.6,0,0,1-.167,2.447,16.02,16.02,0,0,1,2.132-.858,17.162,17.162,0,0,1,5.322-.86,14.077,14.077,0,0,1,7.344,1.942A9.821,9.821,0,0,1,61.173,22.2a9.331,9.331,0,0,1,.4,3.9A10.964,10.964,0,0,1,60.4,29.928,15.649,15.649,0,0,1,51.179,37.4a18.365,18.365,0,0,1-2.217.565,16.984,16.984,0,0,1,1.464,1.756,15.683,15.683,0,0,1,3.057,11.5,10.946,10.946,0,0,1-1.305,3.765,9.293,9.293,0,0,1-2.608,2.908A9.656,9.656,0,0,1,43.84,59.69ZM30.772,50.514v0a1.273,1.273,0,0,0,.072.144,1.254,1.254,0,0,1,.073.146,16.449,16.449,0,0,0,1.317,2.132,16.7,16.7,0,0,0,5.391,4.808,12.97,12.97,0,0,0,6.2,1.686A9.415,9.415,0,0,0,49.4,57.684a10.034,10.034,0,0,0,3.949-7.916A15.78,15.78,0,0,0,50.2,39.892a20.271,20.271,0,0,0-1.568-1.861L48.4,37.8l.332-.066a19.286,19.286,0,0,0,2.425-.564,15.446,15.446,0,0,0,9.093-7.386,9.323,9.323,0,0,0-3.526-12.683,13.816,13.816,0,0,0-7.19-1.9,16.842,16.842,0,0,0-5.235.847,15.647,15.647,0,0,0-2.279.92l-.085.045a2.07,2.07,0,0,1-.208.1,1.579,1.579,0,0,1,.042-.334,17.625,17.625,0,0,0,.188-2.593c0-7.678-4.98-13.924-11.1-13.924s-11.1,6.246-11.1,13.924a17.381,17.381,0,0,0,.188,2.593,1.6,1.6,0,0,0,.043.334l-.088-.046a2.094,2.094,0,0,0-.206-.1,16.68,16.68,0,0,0-2.279-.92,16.913,16.913,0,0,0-5.244-.847,13.8,13.8,0,0,0-7.187,1.9,9.586,9.586,0,0,0-4.255,5.2A10.058,10.058,0,0,0,2.2,31.035a15.854,15.854,0,0,0,8.355,6.139,17.19,17.19,0,0,0,2.217.564l.157.031.157.031a1.12,1.12,0,0,0-.151.146c-.025.028-.051.055-.079.083a16.254,16.254,0,0,0-1.422,1.715,15.78,15.78,0,0,0-3.154,9.876,10.034,10.034,0,0,0,3.949,7.916,9.417,9.417,0,0,0,5.579,1.748A12.97,12.97,0,0,0,24,57.6a16.7,16.7,0,0,0,5.391-4.808,18.31,18.31,0,0,0,1.233-1.986,1.255,1.255,0,0,1,.073-.146,1.272,1.272,0,0,0,.072-.144Z" transform="translate(52.901 12.085)" fill="#453d66"/>
  <path id="Path-32" data-name="Path" d="M1.756,0C1.234.209.711.418.167.585A.492.492,0,0,1,0,.627.635.635,0,0,1,.1.774c.335.46.648.941.941,1.4.355-.1.69-.209,1.045-.314.272-.084.565-.188.836-.293-.167-.251-.335-.481-.5-.711C2.216.565,1.986.272,1.756,0Z" transform="translate(105.773 50.702)" fill="#453d66"/>
  <path id="Path-33" data-name="Path" d="M1.15,0c-.021.021-.042.042-.042.063C.753.544.376,1,0,1.464a10.4,10.4,0,0,0,.69.983c.146.209.314.418.46.627.209-.251.4-.5.585-.774L2.3,1.484c-.335-.4-.669-.815-.983-1.254C1.254.146,1.192.063,1.15,0Z" transform="translate(82.502 67.302)" fill="#453d66"/>
  <path id="Path-34" data-name="Path" d="M2.906.648c-.021,0-.042-.021-.084-.021C2.258.439,1.694.23,1.15,0L.585.753c-.209.272-.4.565-.585.836.293.1.606.209.92.314s.648.209.962.293c.314-.5.648-1.024,1.024-1.547Z" transform="translate(58.626 50.66)" fill="#453d66"/>
  <g id="Group-2" data-name="Group" transform="translate(0 91.43)">
    <g id="Group-3" data-name="Group" transform="translate(0 0)">
      <g id="Group-4" data-name="Group" transform="translate(2.028 0.878)">
        <path id="Path-35" data-name="Path" d="M1.024,2.133A1.027,1.027,0,0,0,2.07,1.066a1.035,1.035,0,1,0-2.07,0A1.049,1.049,0,0,0,1.024,2.133Z" transform="translate(0)" fill="#453d66"/>
        <path id="Path-36" data-name="Path" d="M1.045,2.133A1.015,1.015,0,0,0,2.091,1.066,1.011,1.011,0,0,0,1.066,0,1.057,1.057,0,0,0,0,1.066,1.053,1.053,0,0,0,1.045,2.133Z" transform="translate(2.843)" fill="#453d66"/>
      </g>
      <path id="Path-37" data-name="Path" d="M1.045,2.174h.021A1.045,1.045,0,0,0,2.112,1.087,1.029,1.029,0,0,0,1.087,0,1.067,1.067,0,0,0,0,1.087,1.071,1.071,0,0,0,1.045,2.174Z" transform="translate(21.284 0.857)" fill="#453d66"/>
      <path id="Path-38" data-name="Path" d="M.23,0H0L.669,1.505C1.505,1.422.23,0,.23,0Z" transform="translate(11.688 14.364)" fill="#453d66"/>
      <path id="Path-39" data-name="Path" d="M3.931,14.238c-1.505,0-2.07-1.171-2.07-3.157V0H0V11.311c0,3.554,2.154,4.453,3.513,4.453H5.018l-.69-1.526Z" transform="translate(30.86 0.125)" fill="#453d66"/>
      <path id="Path-40" data-name="Path" d="M1.045,0A1.04,1.04,0,0,0,0,1.066,1.028,1.028,0,0,0,1.024,2.154h.021A1.016,1.016,0,0,0,2.07,1.066,1.023,1.023,0,0,0,1.045,0Z" transform="translate(32.554 18.127)" fill="#453d66"/>
      <path id="Path-41" data-name="Path" d="M1.066,0A1.045,1.045,0,0,0,0,1.066,1.028,1.028,0,0,0,1.024,2.154h.021A1.033,1.033,0,0,0,2.091,1.066,1.023,1.023,0,0,0,1.066,0Z" transform="translate(35.418 18.127)" fill="#453d66"/>
      <path id="Path-42" data-name="Path" d="M2.216.021v5.1C2.216,7.109,1.484,8.28,0,8.28H.314S1.652,9.806.69,9.806c1.38,0,3.387-.9,3.387-4.453V0H2.216Z" transform="translate(35.167 6.063)" fill="#453d66"/>
      <path id="Path-43" data-name="Path" d="M.314,0H0L.69,1.526C1.652,1.505.314,0,.314,0Z" transform="translate(35.167 14.364)" fill="#453d66"/>
      <path id="Path-44" data-name="Path" d="M.272,0H0L.648,1.526C1.589,1.505.272,0,.272,0Z" transform="translate(74.077 14.364)" fill="#453d66"/>
      <path id="Path-45" data-name="Path" d="M4.349,14.238H3.931c-1.505,0-2.07-1.171-2.07-3.157V0H0V11.311c0,3.554,2.154,4.453,3.513,4.453H5.018l-.669-1.526Z" transform="translate(86.6 0.125)" fill="#453d66"/>
      <path id="Path-46" data-name="Path" d="M7.109,9.158C5.143,9.158,3.7,7.652,3.7,5.352A3.545,3.545,0,0,1,7.318,1.484a4.7,4.7,0,0,1,2.174.481L9.91.544A5.928,5.928,0,0,0,7.318,0,5.235,5.235,0,0,0,1.8,5.478,5.415,5.415,0,0,0,3.115,9.2H0s1.338,1.526.376,1.526H12.984L12.294,9.2H7.109Z" transform="translate(91.221 5.206)" fill="#453d66"/>
      <path id="Path-47" data-name="Path" d="M.272,0H0L.648,1.526C1.61,1.505.272,0,.272,0Z" transform="translate(90.949 14.364)" fill="#453d66"/>
      <path id="Path-48" data-name="Path" d="M2.216,11.081c0,1.986-.732,3.157-2.216,3.157H.314s1.338,1.526.376,1.526c1.38,0,3.387-.9,3.387-4.453V0H2.216Z" transform="translate(103.494 0.105)" fill="#453d66"/>
      <path id="Path-49" data-name="Path" d="M.314,0H0L.69,1.526C1.652,1.505.314,0,.314,0Z" transform="translate(103.515 14.364)" fill="#453d66"/>
      <rect id="Rectangle" width="1.861" height="15.765" transform="translate(109.432 0.105)" fill="#453d66"/>
      <path id="Path-50" data-name="Path" d="M.355,3.722H3.533c.1-.251.251-.565.355-.836H2.655a.96.96,0,0,1-1-1.024.971.971,0,0,1,1-1.066A1.872,1.872,0,0,1,3.471,1c.084-.251.146-.5.209-.753A2.117,2.117,0,0,0,2.655,0a1.811,1.811,0,0,0-1.9,1.9,2.245,2.245,0,0,0,.293.983H0Z" transform="translate(129.022)" fill="#453d66"/>
      <path id="Path-51" data-name="Path" d="M.314,0H0L.69,1.526C1.652,1.505.314,0,.314,0Z" transform="translate(128.353 14.364)" fill="#453d66"/>
      <path id="Path-52" data-name="Path" d="M1.066,0A1.045,1.045,0,0,0,0,1.066,1.041,1.041,0,0,0,1.024,2.154h.021A1.021,1.021,0,0,0,2.091,1.066,1.049,1.049,0,0,0,1.066,0Z" transform="translate(135.567 18.127)" fill="#453d66"/>
      <path id="Path-53" data-name="Path" d="M1.045,0A1.053,1.053,0,0,0,0,1.066,1.041,1.041,0,0,0,1.024,2.154h.021A1.016,1.016,0,0,0,2.07,1.066,1.049,1.049,0,0,0,1.045,0Z" transform="translate(132.702 18.127)" fill="#453d66"/>
      <path id="Path-54" data-name="Path" d="M.272,0H0L.69,1.526C1.547,1.464.272,0,.272,0Z" transform="translate(134.73 14.364)" fill="#453d66"/>
      <path id="Path-55" data-name="Path" d="M.272,0H0L.648,1.526C1.61,1.505.272,0,.272,0Z" transform="translate(141.086 14.364)" fill="#453d66"/>
      <path id="Path-56" data-name="Path" d="M2.216,11.081c0,1.986-.732,3.157-2.216,3.157H.314s1.338,1.526.376,1.526c1.38,0,3.387-.9,3.387-4.453V0H2.216Z" transform="translate(159.59 0.105)" fill="#453d66"/>
      <path id="Path-57" data-name="Path" d="M.335,0H0L.69,1.526C1.652,1.505.335,0,.335,0Z" transform="translate(159.59 14.364)" fill="#453d66"/>
      <rect id="Rectangle-2" data-name="Rectangle" width="1.861" height="15.765" transform="translate(165.528 0.105)" fill="#453d66"/>
      <g id="Group-5" data-name="Group" transform="translate(128.353 6.084)">
        <path id="Path-58" data-name="Path" d="M.272,0H0L.69,1.526C1.547,1.464.272,0,.272,0Z" transform="translate(6.377 8.28)" fill="#453d66"/>
        <path id="Path-59" data-name="Path" d="M3.993,5.666V0H2.133V5.478c0,1.61-.711,2.8-2.133,2.8H.314S1.652,9.806.69,9.806A3.037,3.037,0,0,0,3.575,7.757,3.745,3.745,0,0,0,7,9.806h.042L6.356,8.28A2.524,2.524,0,0,1,3.993,5.666Z" transform="translate(0 0)" fill="#453d66"/>
        <path id="Path-60" data-name="Path" d="M6.377,8.28A2.514,2.514,0,0,1,3.993,5.666V0H2.133V5.478c0,1.61-.711,2.8-2.133,2.8H.272s1.3,1.464.418,1.526h0A3.057,3.057,0,0,0,3.575,7.757,3.745,3.745,0,0,0,7,9.806Z" transform="translate(6.356 0)" fill="#453d66"/>
      </g>
      <path id="Shape-2" data-name="Shape" d="M18.922,11.186H.4c.159,0,.261-.053.3-.146.172-.378-.693-1.37-.7-1.38H2.363a8.276,8.276,0,0,1-.209-1.945A6.214,6.214,0,0,1,4.14,2.781,6.805,6.805,0,0,1,8.2,1.233V0H9.973V1.233c2.911.123,6.022,1.875,6.022,6.419a9.3,9.3,0,0,1-.23,2.007h2.467l.689,1.525ZM9.973,2.53V9.659H13.8l.045-.156a6.463,6.463,0,0,0,.332-1.85C14.176,6.2,13.766,2.8,9.973,2.53ZM8.2,2.53A4.349,4.349,0,0,0,5.389,3.738a5.308,5.308,0,0,0-1.4,3.935,5.573,5.573,0,0,0,.355,1.986H8.2Z" transform="translate(141.358 4.704)" fill="#453d66"/>
      <path id="Shape-3" data-name="Shape" d="M11.144,10.328H.439A.269.269,0,0,0,.7,10.182C.85,9.807.009,8.833,0,8.823H1.422V4.976H3.178L2.844,8.531A11.834,11.834,0,0,1,5.632,2.736,7.867,7.867,0,0,1,11.541,0c2.727,0,5.5,1.609,5.52,4.683A5.662,5.662,0,0,1,15.5,8.509,5.9,5.9,0,0,1,11.144,10.328Zm.377-8.823A6.734,6.734,0,0,0,6.578,3.661,11.3,11.3,0,0,0,3.91,8.844h7.109A4.042,4.042,0,0,0,15.1,4.976a3.881,3.881,0,0,0-.666-2.112A3.324,3.324,0,0,0,11.521,1.505Z" transform="translate(11.938 5.52)" fill="#453d66"/>
      <path id="Shape-4" data-name="Shape" d="M5.436,10.454H0V8.927H1.736a5.069,5.069,0,0,1-1.548-3.7,5.068,5.068,0,0,1,1.548-3.7A5.128,5.128,0,0,1,5.436,0a5.128,5.128,0,0,1,3.7,1.526,5.068,5.068,0,0,1,1.548,3.7,5,5,0,0,1-1.548,3.7A5.061,5.061,0,0,1,5.436,10.454Zm.021-8.927A3.553,3.553,0,0,0,2.844,2.613,3.468,3.468,0,0,0,1.756,5.227,3.5,3.5,0,0,0,2.844,7.862,3.65,3.65,0,0,0,5.457,8.949,3.557,3.557,0,0,0,8.091,7.862,3.533,3.533,0,0,0,9.178,5.248,3.558,3.558,0,0,0,8.091,2.613,3.621,3.621,0,0,0,5.457,1.526Z" transform="translate(74.097 5.415)" fill="#453d66"/>
      <path id="Shape-5" data-name="Shape" d="M12.419,10.58h-1.8c-.719,0-2.451-.155-3.011-1.589a3.036,3.036,0,0,1-.02-.732v-.1A4.578,4.578,0,0,1,4.6,9.241,4.468,4.468,0,0,1,1.338,7.882,4.5,4.5,0,0,1,0,4.85V4.621A4.468,4.468,0,0,1,1.359,1.359,4.4,4.4,0,0,1,4.621,0,4.328,4.328,0,0,1,5.9.167,4.536,4.536,0,0,1,7.9,1.359,4.4,4.4,0,0,1,9.262,4.621V6.085c0,2.011.622,2.989,1.9,2.989h.607l.773,1.464-.126.043ZM4.641,1.631a2.851,2.851,0,0,0-2.111.878,2.855,2.855,0,0,0-.879,2.112A2.983,2.983,0,0,0,4.077,7.548l.022,0a5.081,5.081,0,0,0,.542.039,2.756,2.756,0,0,0,2.091-.858,2.583,2.583,0,0,0,.377-.46,2.832,2.832,0,0,0,.5-1.651,2.863,2.863,0,0,0-.5-1.673,3.483,3.483,0,0,0-.377-.439A2.582,2.582,0,0,0,5.9,1.9,2.739,2.739,0,0,0,4.641,1.631Z" transform="translate(0 5.269)" fill="#453d66"/>
      <path id="Path-61" data-name="Path" d="M1.024,2.133A1.027,1.027,0,0,0,2.07,1.066a1.035,1.035,0,1,0-2.07,0A1.049,1.049,0,0,0,1.024,2.133Z" transform="translate(64.375 0.878)" fill="#453d66"/>
      <path id="Path-62" data-name="Path" d="M1.045,2.133A1.015,1.015,0,0,0,2.091,1.066,1.011,1.011,0,0,0,1.066,0,1.057,1.057,0,0,0,0,1.066,1.053,1.053,0,0,0,1.045,2.133Z" transform="translate(67.219 0.878)" fill="#453d66"/>
      <path id="Shape-6" data-name="Shape" d="M12.419,10.58h-1.8c-.719,0-2.451-.155-3.011-1.589a3.036,3.036,0,0,1-.02-.732v-.1A4.578,4.578,0,0,1,4.6,9.241,4.468,4.468,0,0,1,1.338,7.882,4.5,4.5,0,0,1,0,4.85V4.621A4.468,4.468,0,0,1,1.359,1.359,4.4,4.4,0,0,1,4.621,0,4.328,4.328,0,0,1,5.9.167,4.536,4.536,0,0,1,7.9,1.359,4.4,4.4,0,0,1,9.262,4.621V6.085c0,2.011.622,2.989,1.9,2.989h.607l.773,1.464-.126.043ZM4.641,1.631a2.851,2.851,0,0,0-2.111.878,2.855,2.855,0,0,0-.879,2.112A2.983,2.983,0,0,0,4.077,7.548l.022,0a5.081,5.081,0,0,0,.542.039,2.756,2.756,0,0,0,2.091-.858,2.583,2.583,0,0,0,.377-.46,2.832,2.832,0,0,0,.5-1.651,2.863,2.863,0,0,0-.5-1.673,3.483,3.483,0,0,0-.377-.439A2.582,2.582,0,0,0,5.9,1.9,2.739,2.739,0,0,0,4.641,1.631Z" transform="translate(62.347 5.269)" fill="#453d66"/>
      <path id="Path-63" data-name="Path" d="M1.024,2.133A1.027,1.027,0,0,0,2.07,1.066a1.035,1.035,0,1,0-2.07,0A1.035,1.035,0,0,0,1.024,2.133Z" transform="translate(118.569 0.878)" fill="#453d66"/>
      <path id="Path-64" data-name="Path" d="M1.045,2.133A1.015,1.015,0,0,0,2.091,1.066,1.011,1.011,0,0,0,1.066,0,1.057,1.057,0,0,0,0,1.066,1.053,1.053,0,0,0,1.045,2.133Z" transform="translate(121.412 0.878)" fill="#453d66"/>
      <path id="Shape-7" data-name="Shape" d="M12.419,10.58h-1.8c-.719,0-2.451-.155-3.011-1.589a3.036,3.036,0,0,1-.02-.732v-.1A4.578,4.578,0,0,1,4.6,9.241,4.468,4.468,0,0,1,1.338,7.882,4.5,4.5,0,0,1,0,4.85V4.621A4.468,4.468,0,0,1,1.359,1.359,4.4,4.4,0,0,1,4.621,0,4.328,4.328,0,0,1,5.9.167,4.536,4.536,0,0,1,7.9,1.359,4.4,4.4,0,0,1,9.262,4.621V6.085c0,2.011.622,2.989,1.9,2.989h.607l.773,1.464-.126.043ZM4.641,1.631a2.851,2.851,0,0,0-2.111.878,2.855,2.855,0,0,0-.879,2.112A2.983,2.983,0,0,0,4.077,7.548l.022,0a5.081,5.081,0,0,0,.542.039,2.756,2.756,0,0,0,2.091-.858,2.583,2.583,0,0,0,.377-.46,2.832,2.832,0,0,0,.5-1.651,2.863,2.863,0,0,0-.5-1.673,3.483,3.483,0,0,0-.377-.439A2.582,2.582,0,0,0,5.9,1.9,2.739,2.739,0,0,0,4.641,1.631Z" transform="translate(116.54 5.269)" fill="#453d66"/>
      <path id="Path-65" data-name="Path" d="M18.148,0H16.287V11.458c0,1.61-.711,3.136-2.112,3.136h-.063c-1.422-.042-2.383-1.652-2.363-2.948V0H9.889V11.458c0,1.61-.711,3.136-2.133,3.136H7.736a2.81,2.81,0,0,1-2.383-2.676V8.091H3.513v6.251h0v1.9a2.384,2.384,0,0,1-.69,1.714,2.321,2.321,0,0,1-1.714.711H0v1.84H1.108A4.125,4.125,0,0,0,4.14,19.235a4.088,4.088,0,0,0,1.234-2.99v-.962a3.707,3.707,0,0,0,2.383.857,3.68,3.68,0,0,0,2.739-1.15.209.209,0,0,0,.084-.1,4.411,4.411,0,0,0,.4-.481,3.121,3.121,0,0,0,.481.565,3.736,3.736,0,0,0,2.7,1.15,3.68,3.68,0,0,0,2.739-1.15.209.209,0,0,0,.084-.1,4.411,4.411,0,0,0,.4-.481h0a1.909,1.909,0,0,0,.167-.272c.021-.063.063-.1.084-.167,0-.021.021-.042.021-.063a4.578,4.578,0,0,0,.251-.69,8.706,8.706,0,0,0,.251-1.589C18.378,8.739,18.148,0,18.148,0Z" transform="translate(38.91 0.105)" fill="#453d66"/>
    </g>
    <g id="Group-6" data-name="Group" transform="translate(0.021 23.333)">
      <path id="Path-66" data-name="Path" d="M6,0A5.859,5.859,0,0,1,9.367,1.024a5.968,5.968,0,0,1,2.216,2.7H10.517A5.122,5.122,0,0,0,8.656,1.694,4.9,4.9,0,0,0,6,.941,5,5,0,0,0,.962,5.98,4.879,4.879,0,0,0,2.425,9.534,4.859,4.859,0,0,0,6,11,4.759,4.759,0,0,0,9.3,9.764a4.877,4.877,0,0,0,1.652-3.136c.021-.1-.021-.167-.146-.167H6.021V5.52h6V6a5.733,5.733,0,0,1-1.777,4.244A5.794,5.794,0,0,1,6,12a5.794,5.794,0,0,1-4.244-1.756A5.794,5.794,0,0,1,0,6,5.794,5.794,0,0,1,1.756,1.756,5.794,5.794,0,0,1,6,0Z" transform="translate(0 0.042)" fill="#453d66"/>
      <path id="Shape-8" data-name="Shape" d="M4.558,9.116a4.353,4.353,0,0,1-3.22-1.339A4.408,4.408,0,0,1,0,4.558a4.356,4.356,0,0,1,1.338-3.22A4.412,4.412,0,0,1,4.558,0,4.436,4.436,0,0,1,7.8,1.338a4.412,4.412,0,0,1,1.338,3.22v.481H1.213a.159.159,0,0,0-.128.044.143.143,0,0,0-.018.122A3.469,3.469,0,0,0,2.3,7.3a3.586,3.586,0,0,0,4.265.252A3.447,3.447,0,0,0,7.882,5.98H8.907A4.365,4.365,0,0,1,7.235,8.259,4.412,4.412,0,0,1,4.558,9.116Zm0-8.134a3.451,3.451,0,0,0-2.28.836A3.548,3.548,0,0,0,1.045,3.91a.233.233,0,0,0,.035.143.13.13,0,0,0,.111.045H7.924a.151.151,0,0,0,.12-.046.173.173,0,0,0,.027-.142A3.475,3.475,0,0,0,6.837,1.819,3.446,3.446,0,0,0,4.558.982Z" transform="translate(13.256 2.906)" fill="#453d66"/>
      <path id="Path-67" data-name="Path" d="M3.554,0A3.4,3.4,0,0,1,6.021,1.045,3.347,3.347,0,0,1,7.046,3.513V8.99H6.084V3.513a2.465,2.465,0,0,0-.753-1.8,2.465,2.465,0,0,0-1.8-.753,2.478,2.478,0,0,0-1.819.753,2.4,2.4,0,0,0-.753,1.8V8.99H0V3.513A3.282,3.282,0,0,1,1.024,1.045,3.578,3.578,0,0,1,3.554,0Z" transform="translate(23.584 2.906)" fill="#453d66"/>
      <path id="Shape-9" data-name="Shape" d="M4.558,9.116a4.353,4.353,0,0,1-3.22-1.339A4.408,4.408,0,0,1,0,4.558a4.356,4.356,0,0,1,1.338-3.22A4.517,4.517,0,0,1,4.578,0,4.433,4.433,0,0,1,7.819,1.338a4.409,4.409,0,0,1,1.339,3.22v.481H1.213a.159.159,0,0,0-.128.044.143.143,0,0,0-.018.122A3.469,3.469,0,0,0,2.3,7.3a3.586,3.586,0,0,0,4.265.252A3.447,3.447,0,0,0,7.882,5.98H8.907A4.365,4.365,0,0,1,7.235,8.259,4.412,4.412,0,0,1,4.558,9.116ZM4.578.982A3.446,3.446,0,0,0,2.3,1.819,3.542,3.542,0,0,0,1.067,3.91a.233.233,0,0,0,.035.143.13.13,0,0,0,.111.045H7.945a.15.15,0,0,0,.12-.046.171.171,0,0,0,.026-.142A3.469,3.469,0,0,0,6.858,1.819,3.4,3.4,0,0,0,4.578.982Z" transform="translate(31.885 2.906)" fill="#453d66"/>
      <path id="Path-68" data-name="Path" d="M3.659.962H3.032a2.057,2.057,0,0,0-1.464.606A1.956,1.956,0,0,0,.983,3.011V8.99H0V3.011A2.857,2.857,0,0,1,.878.9,2.922,2.922,0,0,1,3.032,0h.627Z" transform="translate(42.297 2.927)" fill="#453d66"/>
      <path id="Shape-10" data-name="Shape" d="M4.558,9.116a4.353,4.353,0,0,1-3.22-1.339A4.408,4.408,0,0,1,0,4.558a4.356,4.356,0,0,1,1.338-3.22A4.387,4.387,0,0,1,4.537,0,4.436,4.436,0,0,1,7.778,1.338a4.413,4.413,0,0,1,1.339,3.22V8.99H8.154V7.548a.28.28,0,0,1-.042-.063H8.1a.084.084,0,0,0-.068.02A4.475,4.475,0,0,1,4.558,9.116ZM4.537.982a3.57,3.57,0,0,0-3.6,3.6,3.483,3.483,0,0,0,1.045,2.53A3.485,3.485,0,0,0,4.537,8.154a3.393,3.393,0,0,0,2.53-1.045,3.427,3.427,0,0,0,1.066-2.53A3.5,3.5,0,0,0,7.067,2.028,3.4,3.4,0,0,0,4.537.982Z" transform="translate(47.231 2.906)" fill="#453d66"/>
      <path id="Path-69" data-name="Path" d="M.962,11.792H0V0H.962Z" transform="translate(57.768 0.125)" fill="#453d66"/>
      <path id="Path-70" data-name="Path" d="M3.032,0A2.99,2.99,0,0,1,5.185.9a2.91,2.91,0,0,1,.9,2.112v.732H5.122V3.011A1.983,1.983,0,0,0,4.5,1.568,1.975,1.975,0,0,0,3.053.962a2.093,2.093,0,0,0-1.464.606A2.023,2.023,0,0,0,1,3.011,2.28,2.28,0,0,0,1.38,4.286a2.556,2.556,0,0,0,1,.878l1.756.794A3.336,3.336,0,0,1,5.561,7.171a3.224,3.224,0,0,1,.523,1.8,2.844,2.844,0,0,1-.9,2.133,2.97,2.97,0,0,1-2.154.9,2.889,2.889,0,0,1-2.154-.9A2.9,2.9,0,0,1,0,8.969V8.238H.962v.732a2,2,0,0,0,2.049,2.049,1.892,1.892,0,0,0,1.443-.585,1.929,1.929,0,0,0,.627-1.464A2.28,2.28,0,0,0,4.7,7.694a2.354,2.354,0,0,0-1-.857L1.924,6.042a3.329,3.329,0,0,1-1.4-1.234A3.224,3.224,0,0,1,0,3.011,2.857,2.857,0,0,1,.878.9,2.922,2.922,0,0,1,3.032,0Z" transform="translate(63.058 0.042)" fill="#453d66"/>
      <path id="Shape-11" data-name="Shape" d="M.962,11.959H0V4.474A4.217,4.217,0,0,1,1.338,1.317,4.54,4.54,0,0,1,4.558,0,4.436,4.436,0,0,1,7.8,1.338a4.412,4.412,0,0,1,1.338,3.22A4.352,4.352,0,0,1,7.8,7.778,4.377,4.377,0,0,1,4.558,9.116a4.454,4.454,0,0,1-3.45-1.611c-.013-.025-.025-.034-.045-.034A.208.208,0,0,0,1,7.485c-.021.02-.042.041-.042.063v4.41ZM4.558.982a3.57,3.57,0,0,0-3.6,3.6,3.483,3.483,0,0,0,1.045,2.53A3.482,3.482,0,0,0,4.558,8.154,3.485,3.485,0,0,0,7.109,7.109a3.428,3.428,0,0,0,1.067-2.53A3.5,3.5,0,0,0,7.109,2.028,3.379,3.379,0,0,0,4.558.982Z" transform="translate(70.376 2.906)" fill="#453d66"/>
      <path id="Shape-12" data-name="Shape" d="M4.558,9.116a4.353,4.353,0,0,1-3.22-1.339A4.408,4.408,0,0,1,0,4.558a4.356,4.356,0,0,1,1.338-3.22A4.412,4.412,0,0,1,4.558,0,4.436,4.436,0,0,1,7.8,1.338a4.412,4.412,0,0,1,1.338,3.22A4.352,4.352,0,0,1,7.8,7.778,4.377,4.377,0,0,1,4.558,9.116Zm0-8.134a3.57,3.57,0,0,0-3.6,3.6,3.483,3.483,0,0,0,1.045,2.53A3.482,3.482,0,0,0,4.558,8.154,3.485,3.485,0,0,0,7.109,7.109a3.428,3.428,0,0,0,1.067-2.53A3.5,3.5,0,0,0,7.109,2.028,3.441,3.441,0,0,0,4.558.982Z" transform="translate(80.767 2.906)" fill="#453d66"/>
      <path id="Path-71" data-name="Path" d="M3.638.962H3.011a2.022,2.022,0,0,0-1.464.606A1.956,1.956,0,0,0,.962,3.011V8.99H0V3.011A2.857,2.857,0,0,1,.878.9,2.922,2.922,0,0,1,3.032,0h.627V.962Z" transform="translate(91.158 2.927)" fill="#453d66"/>
      <path id="Path-72" data-name="Path" d="M.962,0V2.781a.166.166,0,0,0,.188.188H2.593v.962H1.15a.166.166,0,0,0-.188.188V9.45a1.218,1.218,0,0,0,.4.941,1.294,1.294,0,0,0,.962.4h.272v.962H2.321a2.271,2.271,0,0,1-1.652-.669A2.306,2.306,0,0,1,0,9.429V0Z" transform="translate(96.072 0.125)" fill="#453d66"/>
      <path id="Path-73" data-name="Path" d="M2.488,0A2.386,2.386,0,0,1,4.265.753a2.341,2.341,0,0,1,.753,1.756v.627H4.035V2.509A1.5,1.5,0,0,0,3.6,1.422,1.483,1.483,0,0,0,2.509.962,1.534,1.534,0,0,0,1.422,1.4a1.382,1.382,0,0,0-.46,1.045,1.331,1.331,0,0,0,.92,1.338l1.568.606A2.391,2.391,0,0,1,4.976,6.628a2.517,2.517,0,0,1-.314,1.234A2.369,2.369,0,0,1,2.509,9.095,2.447,2.447,0,0,1,.732,8.363,2.447,2.447,0,0,1,0,6.586V5.959H.962v.627a1.471,1.471,0,0,0,.46,1.087,1.507,1.507,0,0,0,1.066.46,1.534,1.534,0,0,0,1.087-.439,1.382,1.382,0,0,0,.46-1.045,1.359,1.359,0,0,0-.941-1.338L1.526,4.683A2.323,2.323,0,0,1,.418,3.805a2.357,2.357,0,0,1-.4-1.359A2.517,2.517,0,0,1,.335,1.213,2.39,2.39,0,0,1,2.488,0Z" transform="translate(99.94 2.906)" fill="#453d66"/>
      <path id="Shape-13" data-name="Shape" d="M.982,11.9H0L2.635,1.045a1.216,1.216,0,0,1,.48-.753A1.474,1.474,0,0,1,3.994,0,1.325,1.325,0,0,1,4.83.292a1.306,1.306,0,0,1,.48.753L7.966,11.895h-1L6.1,8.468a.2.2,0,0,0-.229-.188H2.069a.2.2,0,0,0-.229.188L.982,11.9ZM3.994.982a.385.385,0,0,0-.4.293L2.154,7.109a.175.175,0,0,0,.021.145A.155.155,0,0,0,2.3,7.3H5.645a.155.155,0,0,0,.125-.043.175.175,0,0,0,.021-.145L4.349,1.276A.317.317,0,0,0,3.994.982Z" transform="translate(109.097 0)" fill="#453d66"/>
      <path id="Path-74" data-name="Path" d="M7.025.021V5.394A3.361,3.361,0,0,1,6,7.882,3.328,3.328,0,0,1,3.513,8.907,3.361,3.361,0,0,1,1.024,7.882,3.328,3.328,0,0,1,0,5.394V0H.962V5.394a2.543,2.543,0,0,0,.732,1.819,2.474,2.474,0,0,0,1.819.732,2.543,2.543,0,0,0,1.819-.732,2.478,2.478,0,0,0,.753-1.819V0h.941Z" transform="translate(118.297 3.094)" fill="#453d66"/>
      <path id="Path-75" data-name="Path" d="M.962,0V2.781a.166.166,0,0,0,.188.188H2.593v.962H1.15a.166.166,0,0,0-.188.188V9.45a1.218,1.218,0,0,0,.4.941,1.294,1.294,0,0,0,.962.4h.272v.962H2.321a2.271,2.271,0,0,1-1.652-.669A2.306,2.306,0,0,1,0,9.429V0Z" transform="translate(126.597 0.125)" fill="#453d66"/>
      <path id="Path-76" data-name="Path" d="M.983,0V3.7c0,.1.042.125.146.042a3.361,3.361,0,0,1,2.425-.962A3.4,3.4,0,0,1,6.021,3.826,3.347,3.347,0,0,1,7.046,6.293v5.478H6.084V6.293a2.465,2.465,0,0,0-.753-1.8,2.465,2.465,0,0,0-1.8-.753A2.478,2.478,0,0,0,1.714,4.5a2.4,2.4,0,0,0-.753,1.8v5.478H0V0Z" transform="translate(130.423 0.125)" fill="#453d66"/>
      <path id="Shape-14" data-name="Shape" d="M4.558,9.116a4.353,4.353,0,0,1-3.22-1.339A4.408,4.408,0,0,1,0,4.558a4.356,4.356,0,0,1,1.338-3.22A4.412,4.412,0,0,1,4.558,0,4.436,4.436,0,0,1,7.8,1.338a4.412,4.412,0,0,1,1.338,3.22A4.352,4.352,0,0,1,7.8,7.778,4.377,4.377,0,0,1,4.558,9.116Zm0-8.134a3.57,3.57,0,0,0-3.6,3.6,3.483,3.483,0,0,0,1.045,2.53A3.482,3.482,0,0,0,4.558,8.154,3.485,3.485,0,0,0,7.109,7.109a3.428,3.428,0,0,0,1.067-2.53A3.5,3.5,0,0,0,7.109,2.028,3.441,3.441,0,0,0,4.558.982Z" transform="translate(138.745 2.906)" fill="#453d66"/>
      <path id="Path-77" data-name="Path" d="M3.638.962H3.011a2.057,2.057,0,0,0-1.464.606A1.956,1.956,0,0,0,.962,3.011V8.99H0V3.011A2.857,2.857,0,0,1,.878.9,2.922,2.922,0,0,1,3.032,0h.627V.962Z" transform="translate(149.136 2.927)" fill="#453d66"/>
      <path id="Shape-15" data-name="Shape" d="M.962,11.792H0V2.99H.962v8.8Zm0-10.328H0V0H.962V1.462Z" transform="translate(154.216 0.125)" fill="#453d66"/>
      <path id="Path-78" data-name="Path" d="M.962,0V2.781a.166.166,0,0,0,.188.188H2.593v.962H1.15a.166.166,0,0,0-.188.188V9.45a1.218,1.218,0,0,0,.4.941,1.294,1.294,0,0,0,.962.4h.272v.962H2.321a2.271,2.271,0,0,1-1.652-.669A2.306,2.306,0,0,1,0,9.429V0Z" transform="translate(156.6 0.125)" fill="#453d66"/>
      <path id="Path-79" data-name="Path" d="M4.223,11.792H3.241l.606-2.76a.157.157,0,0,0-.021-.1.16.16,0,0,0-.1-.042.552.552,0,0,0-.146.021.673.673,0,0,1-.167.021,1.769,1.769,0,0,1-1.15-.418A1.807,1.807,0,0,1,1.61,7.485L0,.021H.983L2.551,7.276a.778.778,0,0,0,.857.669.8.8,0,0,0,.857-.69L5.875,0h1Z" transform="translate(160.489 3.094)" fill="#453d66"/>
    </g>
  </g>
  <path id="Path-80" data-name="Path" d="M30.588.335c-.125,0-.23.021-.335.021A26.388,26.388,0,0,0,22.81,1.673,18.076,18.076,0,0,0,18.19,3.993,13.541,13.541,0,0,0,16.5,5.373c-.084.063-.1.1,0,.188.962.878,1.9,1.756,2.843,2.655.1.1.125.063.188-.042a2.784,2.784,0,0,0,.209-.585,1.833,1.833,0,0,1,.46-.836,1.584,1.584,0,0,1,1.359-.481,1.16,1.16,0,0,1,.92,1.066A1.1,1.1,0,0,1,21.619,8.4a1.526,1.526,0,0,1-1.045-.188c-.125-.084-.188-.063-.251.084a.566.566,0,0,0,.021.648,2.968,2.968,0,0,0,1.045.774.376.376,0,0,0,.523-.084,1.043,1.043,0,0,1,1.254-.167,1.087,1.087,0,0,1,.627.983.942.942,0,0,1-.648.878,2.682,2.682,0,0,1-2.049-.146,7.731,7.731,0,0,1-1.673-1.045c-.084-.063-.1-.063-.188.021a3.009,3.009,0,0,1-1.756,1.234,1.426,1.426,0,0,1-1.338-.293,1.043,1.043,0,0,1-.1-1.589,1.185,1.185,0,0,1,1.547-.146.59.59,0,0,1,.272.544c0,.23.042.272.251.188a.7.7,0,0,0,.376-.314.159.159,0,0,0,0-.167,5.142,5.142,0,0,0-.941-1.192c-.523-.5-1.129-.941-1.673-1.4-.167-.125-.314-.272-.481-.418-.063-.042-.084-.063-.146,0-.606.565-1.275,1.045-1.882,1.589a7.279,7.279,0,0,0-1.192,1.338.241.241,0,0,0,.021.355.836.836,0,0,0,.376.209.189.189,0,0,0,.23-.125,1.742,1.742,0,0,0,.084-.314.491.491,0,0,1,.376-.4,1.223,1.223,0,0,1,.4-.084,1.062,1.062,0,0,1,1.192.815,1.01,1.01,0,0,1-.585,1.254,1.774,1.774,0,0,1-1.526.021,2.866,2.866,0,0,1-1.359-1.129c-.063-.084-.084-.084-.167-.021a8.326,8.326,0,0,1-1.631,1.045A3.315,3.315,0,0,1,7.84,11.5a1.07,1.07,0,0,1-.9-1.484,1.083,1.083,0,0,1,1.8-.376.329.329,0,0,0,.439.084,2.9,2.9,0,0,0,1.129-.815.533.533,0,0,0,0-.648.185.185,0,0,0-.272-.084,4.067,4.067,0,0,1-.46.167.948.948,0,0,1-1.3-.648,1.028,1.028,0,0,1,.272-1.171,1.051,1.051,0,0,1,1.171-.209l.125.063a1.665,1.665,0,0,1,1.024,1.15,2.731,2.731,0,0,0,.251.69c.042.063.063.084.125.021.962-.9,1.924-1.8,2.906-2.7.084-.063.042-.1-.021-.146a15.526,15.526,0,0,0-2.279-1.777A19.592,19.592,0,0,0,5.122.941a27.2,27.2,0,0,0-4.1-.565C.732.355.46.355.167.335A.184.184,0,0,1,0,.293C.293.251.565.188.836.167A18.017,18.017,0,0,1,4.516.042,20.918,20.918,0,0,1,7.945.585a16.522,16.522,0,0,1,4.7,1.924,26.875,26.875,0,0,1,2.593,1.756c.125.084.167.021.251-.042a17,17,0,0,1,4.349-2.7A18.713,18.713,0,0,1,24.211.251,19.19,19.19,0,0,1,28.853.084c.544.042,1.066.125,1.589.209A.176.176,0,0,1,30.588.335Z" transform="translate(68.348 47.858)" fill="#453d66"/>
</svg>
