<svg id="Minisrty-of-Health-01-1" xmlns="http://www.w3.org/2000/svg" width="143.928" height="131.261" viewBox="0 0 143.928 131.261">
  <path id="Shape" d="M56.067,18.223a1.685,1.685,0,0,1-1.039-.294.9.9,0,0,1-.316-.338.929.929,0,0,1-.113-.43,1.048,1.048,0,0,1,.068-.383,1.607,1.607,0,0,1,.226-.317.874.874,0,0,1,.339-.226,1,1,0,0,1,.452-.09,1.252,1.252,0,0,1,.451.068,1.075,1.075,0,0,1,.22.1l.075.038c.088.045.18.091.293.136a1.134,1.134,0,0,0,.429.068.813.813,0,0,0,.5-.158,1.718,1.718,0,0,0,.407-.407,3.037,3.037,0,0,0,.317-.542c.041-.093.082-.18.121-.263.047-.1.09-.193.127-.279l.61-1.377L54.51,4.742h2.077l3.568,6.638,2.89-6.593h.971L59.319,15.6a5.4,5.4,0,0,1-.678,1.174,4.7,4.7,0,0,1-.813.813,3.746,3.746,0,0,1-.881.473A2.4,2.4,0,0,1,56.067,18.223Zm76.5-4.088a1.8,1.8,0,0,1-.813-.158,1.486,1.486,0,0,1-.564-.429,1.6,1.6,0,0,1-.339-.678,3.593,3.593,0,0,1-.113-.881v-6.5h-1.6V5.035h.005a2.656,2.656,0,0,0,1.259-.27,2.155,2.155,0,0,0,.813-.745,3.792,3.792,0,0,0,.5-1.106c.111-.421.226-.857.317-1.332h.542V4.742h2.077V5.51H132.57v6.5a1.044,1.044,0,0,0,.068.384.931.931,0,0,0,.2.317.954.954,0,0,0,.316.2,1.077,1.077,0,0,0,.384.068,1.02,1.02,0,0,0,.564-.159,3.316,3.316,0,0,0,.474-.361l.451.316a2.893,2.893,0,0,1-.971.993A2.718,2.718,0,0,1,132.57,14.135Zm-21.948,0a4.57,4.57,0,0,1-1.762-.361,4.5,4.5,0,0,1-2.393-2.371,4.139,4.139,0,0,1-.362-1.739,6.046,6.046,0,0,1,.317-2.054,5.181,5.181,0,0,1,.925-1.626,3.924,3.924,0,0,1,1.423-1.061,4.468,4.468,0,0,1,1.852-.384,4.387,4.387,0,0,1,1.671.317,4.29,4.29,0,0,1,1.287.858,3.887,3.887,0,0,1,.835,1.242,3.556,3.556,0,0,1,.293,1.467h-6.864a5.979,5.979,0,0,0,.248,1.716,4.111,4.111,0,0,0,.678,1.377,3.3,3.3,0,0,0,1.039.9,2.869,2.869,0,0,0,1.31.317,3.266,3.266,0,0,0,1.152-.2,3.7,3.7,0,0,0,.993-.5,3.332,3.332,0,0,0,.768-.723,2.91,2.91,0,0,0,.452-.812l.52.226a4.25,4.25,0,0,1-.633,1.332,5.894,5.894,0,0,1-1.039,1.084,5.11,5.11,0,0,1-1.286.722A3.984,3.984,0,0,1,110.622,14.135Zm-.542-8.9a1.608,1.608,0,0,0-.79.181,2.439,2.439,0,0,0-.678.519,2.6,2.6,0,0,0-.5.768,4.028,4.028,0,0,0-.27.994h4.583a2.723,2.723,0,0,0-.181-.971,2.046,2.046,0,0,0-.5-.791,2.178,2.178,0,0,0-.745-.519A2.5,2.5,0,0,0,110.08,5.239Zm-65.212,8.9a1.8,1.8,0,0,1-.813-.158,1.486,1.486,0,0,1-.564-.429,1.6,1.6,0,0,1-.339-.678,3.593,3.593,0,0,1-.113-.881v-6.5h-1.6V5.035h.006a2.62,2.62,0,0,0,1.259-.27,2.156,2.156,0,0,0,.813-.745,3.793,3.793,0,0,0,.5-1.106c.111-.422.226-.857.317-1.332h.519V4.742h2.078V5.51H44.844v6.5a1.077,1.077,0,0,0,.068.384.962.962,0,0,0,.2.317.783.783,0,0,0,.317.2,1.077,1.077,0,0,0,.384.068.965.965,0,0,0,.564-.159,3.022,3.022,0,0,0,.281-.192c.075-.055.152-.112.238-.169l.452.317a2.9,2.9,0,0,1-.971.993A2.874,2.874,0,0,1,44.868,14.135Zm29.964-.022a4.972,4.972,0,0,1-1.942-.361,4.388,4.388,0,0,1-1.536-.994,4.86,4.86,0,0,1-1.015-1.49,4.453,4.453,0,0,1-.362-1.829,4.987,4.987,0,0,1,.362-1.919,5.169,5.169,0,0,1,1.015-1.557A4.358,4.358,0,0,1,72.89,4.9a4.961,4.961,0,0,1,1.942-.383,5.391,5.391,0,0,1,1.942.361,5.035,5.035,0,0,1,1.536.971,4.38,4.38,0,0,1,1.015,1.445,4.137,4.137,0,0,1,.362,1.762,5.124,5.124,0,0,1-1.377,3.567,4.982,4.982,0,0,1-1.536,1.084A4.594,4.594,0,0,1,74.832,14.113Zm-.452-8.9a1.688,1.688,0,0,0-.9.271,2.57,2.57,0,0,0-.768.722,4.841,4.841,0,0,0-.519,1.084,4.078,4.078,0,0,0-.2,1.31,8.354,8.354,0,0,0,.226,1.9,4.957,4.957,0,0,0,.61,1.535,3.394,3.394,0,0,0,.993,1.039,2.41,2.41,0,0,0,1.333.383,1.868,1.868,0,0,0,.993-.27,2.474,2.474,0,0,0,.79-.745,3.329,3.329,0,0,0,.52-1.106A5.1,5.1,0,0,0,77.632,10a9.789,9.789,0,0,0-.181-1.874,5.038,5.038,0,0,0-.564-1.513A2.866,2.866,0,0,0,75.893,5.6,2.621,2.621,0,0,0,74.38,5.216Zm44.146,8.874a2.648,2.648,0,0,1-.971-.181,2.527,2.527,0,0,1-.745-.5,2.227,2.227,0,0,1-.474-.723,2.633,2.633,0,0,1,.068-1.964,3,3,0,0,1,.654-.859,5.145,5.145,0,0,1,.949-.678c.449-.224.8-.384,1.152-.519a11.94,11.94,0,0,1,1.264-.407c.263-.083.527-.149.782-.213.169-.042.326-.082.483-.126V7.361a3.571,3.571,0,0,0-.113-1.061,1.858,1.858,0,0,0-.361-.7,1.216,1.216,0,0,0-.564-.383A2.568,2.568,0,0,0,119.9,5.1a1.924,1.924,0,0,0-.768.113,1.1,1.1,0,0,0-.452.316,1.2,1.2,0,0,0-.226.452,2.024,2.024,0,0,0-.068.519,2.728,2.728,0,0,1-.037.417l-.008.057a1.1,1.1,0,0,1-.136.384.778.778,0,0,1-.271.271.885.885,0,0,1-.451.113,1.064,1.064,0,0,1-.384-.091.8.8,0,0,1-.311-.22l-.006-.006a.859.859,0,0,1-.2-.339,1.334,1.334,0,0,1-.068-.429,1.37,1.37,0,0,1,.294-.859,3.113,3.113,0,0,1,.813-.678,4.732,4.732,0,0,1,1.174-.451,5.8,5.8,0,0,1,1.422-.158,5.919,5.919,0,0,1,1.536.18,2.689,2.689,0,0,1,1.015.5,1.752,1.752,0,0,1,.542.769,2.784,2.784,0,0,1,.181.993V13.91h-1.829V12.645l-.316.248-.316.248a3.631,3.631,0,0,1-.678.474,4.418,4.418,0,0,1-.813.339A3.48,3.48,0,0,1,118.525,14.091Zm3.138-5.51c-.084.03-.173.061-.264.092-.181.062-.369.126-.549.2-.349.135-.6.243-.835.361a8.513,8.513,0,0,0-.768.429,3.856,3.856,0,0,0-.654.5,2.061,2.061,0,0,0-.452.564,1.248,1.248,0,0,0-.158.632,1.52,1.52,0,0,0,.112.632,1.859,1.859,0,0,0,.339.542,1.485,1.485,0,0,0,.474.361,1.213,1.213,0,0,0,.564.136,2.434,2.434,0,0,0,.588-.09,5.583,5.583,0,0,0,.542-.226,4.061,4.061,0,0,0,.378-.226l.141-.09c.187-.117.376-.259.542-.384V8.581Zm-84.7,5.51a5.53,5.53,0,0,1-.835-.068,4.152,4.152,0,0,1-.859-.249,3.931,3.931,0,0,1-.858-.519,5.28,5.28,0,0,1-.835-.881l.745-.678a6.5,6.5,0,0,0,.632.813,4.222,4.222,0,0,0,.632.542,2.5,2.5,0,0,0,.654.316,2.7,2.7,0,0,0,.745.09,2.272,2.272,0,0,0,.7-.112,1.56,1.56,0,0,0,.542-.293,1.334,1.334,0,0,0,.362-.43.966.966,0,0,0,.136-.5,1.319,1.319,0,0,0-.2-.745,2.235,2.235,0,0,0-.565-.564,5.218,5.218,0,0,0-.79-.451c-.119-.055-.234-.112-.356-.172-.176-.087-.358-.177-.547-.258-.313-.156-.606-.313-.9-.474a4.225,4.225,0,0,1-.791-.587,2.355,2.355,0,0,1-.564-.768,2.273,2.273,0,0,1-.2-1.016,2.272,2.272,0,0,1,.226-1.039,2.541,2.541,0,0,1,.655-.813,3.224,3.224,0,0,1,.993-.542,4.508,4.508,0,0,1,1.265-.18,5.279,5.279,0,0,1,.858.068,3.2,3.2,0,0,1,.791.248,3.1,3.1,0,0,1,.768.52,6.281,6.281,0,0,1,.79.881l-.678.609A3.852,3.852,0,0,0,38.3,5.555a2.361,2.361,0,0,0-1.377-.43,2.4,2.4,0,0,0-.722.091,1.876,1.876,0,0,0-.564.271,1.163,1.163,0,0,0-.362.383.96.96,0,0,0-.136.474,1.144,1.144,0,0,0,.227.723,2.414,2.414,0,0,0,.61.564,6.077,6.077,0,0,0,.858.451L37.1,8.2c.238.1.481.2.724.316.334.156.678.316.994.474a4.706,4.706,0,0,1,.858.587,2.971,2.971,0,0,1,.61.723,2.1,2.1,0,0,1,.226,1.015,2.888,2.888,0,0,1-.226,1.084,2.26,2.26,0,0,1-.654.881,3.077,3.077,0,0,1-1.106.587A4.683,4.683,0,0,1,36.964,14.091Zm100.957-.136h-1.828V.542l1.31-.52h.519v6.39a6.5,6.5,0,0,1,1.739-1.4,3.818,3.818,0,0,1,1.828-.474,2.121,2.121,0,0,1,.9.226,2.093,2.093,0,0,1,.745.588,2.766,2.766,0,0,1,.5.881,2.186,2.186,0,0,1,.135,1.083v6.616h-1.828v-6.3a2.04,2.04,0,0,0-.407-1.377,1.336,1.336,0,0,0-1.062-.474,2.087,2.087,0,0,0-.609.09,5.153,5.153,0,0,0-.655.271c-.079.053-.162.106-.246.16-.133.085-.27.173-.408.269a6.826,6.826,0,0,0-.633.542v6.841Zm-116.018,0H20.074V4.742H21.9V6.413a6.494,6.494,0,0,1,1.738-1.4,3.825,3.825,0,0,1,1.829-.474,2.121,2.121,0,0,1,.9.226,2.1,2.1,0,0,1,.745.588,2.4,2.4,0,0,1,.5.881A3.4,3.4,0,0,1,27.8,7.316v6.616H25.967v-6.3a2.04,2.04,0,0,0-.407-1.377A1.335,1.335,0,0,0,24.5,5.781a2.09,2.09,0,0,0-.61.09,5.149,5.149,0,0,0-.654.271c-.21.125-.447.267-.678.429a4.928,4.928,0,0,0-.655.542v6.841Zm74.042-.022h-2.01V1.987h2.01V7.429h6.006V1.987h2.009V13.931h-2.009V8.2H95.945v5.735Zm-95.064,0H0V1.987H2.055l4.651,9.168H6.8l4.561-9.168h2.009V13.931H11.358v-9.8H11.29l-4.9,9.8H5.984L1.016,4.2H.881v9.732Zm126.97,0h-1.828V.52l1.31-.52h.519V13.931Zm-77.632,0H48.39V4.72h1.828V6.458a4.581,4.581,0,0,1,.565-.745,5.4,5.4,0,0,1,.632-.61,3.251,3.251,0,0,1,.7-.429,1.6,1.6,0,0,1,.723-.158,1.55,1.55,0,0,1,.564.09,2.11,2.11,0,0,1,.451.249,2.373,2.373,0,0,1,.317.361.928.928,0,0,1,.113.429.856.856,0,0,1-.271.678,1.115,1.115,0,0,1-.769.226,1.446,1.446,0,0,1-.5-.068,1.78,1.78,0,0,1-.263-.119l-.076-.039c-.055-.022-.106-.045-.156-.067s-.1-.046-.16-.069a.9.9,0,0,0-.384-.068.751.751,0,0,0-.361.113,1.353,1.353,0,0,0-.361.293,4.02,4.02,0,0,0-.384.451,3.334,3.334,0,0,0-.265.38c-.039.061-.078.123-.119.185v6.388Zm-18.381,0H30.01V5.058L31.3,4.539h.541v9.392Zm-13.977,0H16.032V5.058l1.287-.519h.541v9.392Zm66.545-.022H82.576V5.464H80.658V4.7h1.918V3.612a3.818,3.818,0,0,1,.271-1.422,3.435,3.435,0,0,1,.723-1.152A3.131,3.131,0,0,1,84.655.271,3.252,3.252,0,0,1,85.987,0a4.033,4.033,0,0,1,1.084.113,3.037,3.037,0,0,1,.813.339,1.827,1.827,0,0,1,.519.5,1.132,1.132,0,0,1,.181.61.944.944,0,0,1-.068.361.623.623,0,0,1-.2.271.647.647,0,0,1-.293.18.941.941,0,0,1-.362.068.833.833,0,0,1-.519-.136.741.741,0,0,1-.271-.316,2.327,2.327,0,0,1-.158-.429,2.452,2.452,0,0,0-.159-.43.953.953,0,0,0-.293-.316,1,1,0,0,0-.564-.136.875.875,0,0,0-.52.158,1.171,1.171,0,0,0-.407.407,2.006,2.006,0,0,0-.271.588,2.265,2.265,0,0,0-.09.677V4.7h2.462v.768H84.406v8.444ZM30.89,1.852a1.276,1.276,0,0,1-.407-.068.859.859,0,0,1-.339-.2,1.455,1.455,0,0,1-.226-.293.668.668,0,0,1-.091-.362A.658.658,0,0,1,29.92.564a.932.932,0,0,1,.225-.293,1.05,1.05,0,0,1,.339-.2,1.254,1.254,0,0,1,.813,0,.868.868,0,0,1,.339.2.94.94,0,0,1,.226.293.658.658,0,0,1,.09.361.66.66,0,0,1-.09.362,1.455,1.455,0,0,1-.226.293.868.868,0,0,1-.339.2A1.276,1.276,0,0,1,30.89,1.852Zm-13.955,0a1.276,1.276,0,0,1-.407-.068.859.859,0,0,1-.339-.2,1.455,1.455,0,0,1-.226-.293.66.66,0,0,1-.09-.362.658.658,0,0,1,.09-.361A1.455,1.455,0,0,1,16.19.271a1.05,1.05,0,0,1,.339-.2,1.254,1.254,0,0,1,.813,0,.859.859,0,0,1,.339.2,1.455,1.455,0,0,1,.226.293A.658.658,0,0,1,18,.925a.66.66,0,0,1-.09.362.94.94,0,0,1-.225.293.859.859,0,0,1-.339.2A1.276,1.276,0,0,1,16.935,1.852Z" transform="translate(0 113.038)" fill="#453d66"/>
  <path id="Path" d="M45.138,7.494c-1.106.677-2.235,1.423-2.823,1.829-1.806,1.265-3.658,2.6-5.487,3.974A159.272,159.272,0,0,0,14.61,33.484H0S35.745,2.639,52.138.268c14.61-2.1,20.3,8.468,19.081,19.848A14.754,14.754,0,0,0,67.538,8.533a14.377,14.377,0,0,0-5.623-3.884,14.7,14.7,0,0,0-6.706-.9c.023.023-4.2.2-10.071,3.748" transform="translate(53.764 34.144)" fill="#453d66"/>
  <path id="Path-2" data-name="Path" d="M26.241,7.494c1.106.677,2.235,1.423,2.823,1.829,1.806,1.265,3.658,2.6,5.487,3.974A159.273,159.273,0,0,1,56.769,33.484h14.61S35.634,2.639,19.241.268C4.631-1.832-1.059,8.736.16,20.117A14.754,14.754,0,0,1,3.841,8.533,14.377,14.377,0,0,1,9.463,4.649a14.654,14.654,0,0,1,6.706-.9c-.023.023,4.177.2,10.071,3.748" transform="translate(18.604 34.144)" fill="#453d66"/>
  <path id="Shape-2" data-name="Shape" d="M123.515,29.671a10.981,10.981,0,0,1-1.806-.136l.249-1.6a5.353,5.353,0,0,0,.993.112c2.6,0,3.658-1.079,3.658-3.726h.022V10.658h2.01V24.907a4.3,4.3,0,0,1-1.987,3.991A6.317,6.317,0,0,1,123.515,29.671Zm-17.048,0a10.987,10.987,0,0,1-1.807-.136l.249-1.6a5.354,5.354,0,0,0,.993.112c2.6,0,3.658-1.079,3.658-3.726V10.658h2.01V24.907a4.309,4.309,0,0,1-1.976,3.991A6.268,6.268,0,0,1,106.468,29.671Zm32.222-.09a9.124,9.124,0,0,1-1.807-.159l.249-1.535A6.475,6.475,0,0,0,138.17,28c3.274,0,3.726-2.236,3.726-4.652v-12.6h-.339a6.435,6.435,0,0,0-6.255,6.119c0,3.229,2.563,4.674,5.1,4.674h1.332l-.429.451-.994,1.04a6.657,6.657,0,0,1-.768.022c-2.569,0-6.39-1.581-6.39-5.938,0-4.571,4.106-8.152,9.349-8.152a12.172,12.172,0,0,1,1.4.113V24.207C143.905,29.057,140.258,29.581,138.69,29.581ZM7.293,23.055H6.661a7.093,7.093,0,0,1-4.674-1.626A5.9,5.9,0,0,1,0,16.8c0-5.669,5.43-8.31,9.1-8.31.445,0,1.51.045,2.1.113V21.542H36.038V21.2c-.022-6.122-3.39-9.777-9.009-9.777-.356,0-6.915.023-7.475.068V9.777H27.3c5.031,0,10.906,2.88,10.906,11v.768h5.871V13.864h2.009v7.678H46.2c.046-.093.1-.192.15-.289s.1-.187.143-.275c.281-.537.56-1.093.83-1.63a42.258,42.258,0,0,1,2.241-4.083,15.28,15.28,0,0,1,4-4.02,8.6,8.6,0,0,1,4.7-1.716c4.967,0,6.729,4.647,6.729,8.626a18.89,18.89,0,0,1-.293,3l-.068.407h6.458V0h2.009V23.054H9.168V10.162h-.7a6.782,6.782,0,0,0-3.907,1.445,6.245,6.245,0,0,0-2.371,5.1,4.684,4.684,0,0,0,5.035,4.854H8.693l-.112.113L7.294,23.055ZM58.032,11.2c-3.492,0-8.534,4.35-9.8,9.957l-.091.407H62.548l.068-.248a12.531,12.531,0,0,0,.226-2.778c0-2.915-.667-5.01-1.982-6.226A4.161,4.161,0,0,0,58.032,11.2Zm61.712,11.855h-2.009V0h2.009V23.054Zm-17.025,0H98.2c-3.8,0-6.66-2.611-6.66-6.074,0-4.748,4.047-8.468,9.213-8.468a17.182,17.182,0,0,1,1.964.112V23.054ZM99.964,10.162a6.283,6.283,0,0,0-6.255,6.548,4.705,4.705,0,0,0,5.081,4.854h1.919v-11.4ZM81.516,23.055H79.506V0h2.009V23.054Zm46.11-17.726a1.535,1.535,0,0,1,0-3.07,1.567,1.567,0,0,1,1.535,1.535A1.537,1.537,0,0,1,127.625,5.329Zm-26.171,0a1.537,1.537,0,0,1-1.536-1.535,1.519,1.519,0,0,1,1.536-1.535,1.567,1.567,0,0,1,1.535,1.535A1.537,1.537,0,0,1,101.454,5.329Zm-4.584,0a1.519,1.519,0,0,1-1.535-1.535A1.537,1.537,0,0,1,96.87,2.258a1.535,1.535,0,0,1,0,3.07ZM9.935,5.306A1.519,1.519,0,0,1,8.4,3.771,1.537,1.537,0,0,1,9.935,2.235a1.52,1.52,0,0,1,1.536,1.536A1.537,1.537,0,0,1,9.935,5.306Zm-4.583,0A1.519,1.519,0,0,1,3.816,3.771,1.538,1.538,0,0,1,5.352,2.235a1.536,1.536,0,0,1,0,3.071Z" transform="translate(0.023 80.229)" fill="#453d66"/>
  <path id="Path-3" data-name="Path" d="M18.7,4.99,13.729,0,9.348,4.381,4.968,0,0,4.99l4.968,4.99L9.348,5.6l4.381,4.381Z" transform="translate(22.964 44.326)" fill="#453d66"/>
  <path id="Path-4" data-name="Path" d="M45.68,12.239a17.94,17.94,0,0,0-1.377-2.6,17.668,17.668,0,0,0-20.684-7.09C23.168.926,22.829,0,22.829,0s-.361.948-.79,2.552A17.677,17.677,0,0,0,1.377,9.642,17.94,17.94,0,0,0,0,12.239,17.69,17.69,0,0,1,12.058,6.5a17.639,17.639,0,0,0-6.91,14A17.963,17.963,0,0,0,5.4,23.439a17.732,17.732,0,0,1,8.264-12.171,17.7,17.7,0,0,0,.926,17.545,16.811,16.811,0,0,0,1.806,2.326,17.684,17.684,0,0,1,4.064-19.8c-.113,1.31-.2,2.71-.2,4.132a49.424,49.424,0,0,0,2.574,15.49A49.424,49.424,0,0,0,25.4,15.468a40.842,40.842,0,0,0-.2-4.132,17.684,17.684,0,0,1,4.064,19.8,18.277,18.277,0,0,0,1.806-2.326A17.647,17.647,0,0,0,32,11.268a17.662,17.662,0,0,1,8.264,12.171A17.613,17.613,0,0,0,33.6,6.5,17.651,17.651,0,0,1,45.68,12.239" transform="translate(49.135 0)" fill="#453d66"/>
  <path id="Path-5" data-name="Path" d="M0,6.748S12.713-11.588,35.045,12.19C56.09,34.59,63.971,30.819,69.954,23.706a9.422,9.422,0,0,1-.858,1.716c-.406.655-.655,1.016-.745,1.129a15.349,15.349,0,0,1-12.442,6.526c-6.706.068-15.016-3.952-24.319-14.226C10.884-4.023,0,6.748,0,6.748" transform="translate(54.103 34.552)" fill="#453d66"/>
</svg>
