<svg xmlns="http://www.w3.org/2000/svg" width="171" height="107.938" viewBox="0 0 171 107.938">
  <g id="Group_241" data-name="Group 241" transform="translate(-549 -668)">
    <g id="Group_225" data-name="Group 225" transform="translate(549 668)">
      <path id="Path_341" data-name="Path 341" d="M128.936,156.632a19.59,19.59,0,0,0-2.595-4.026,20.964,20.964,0,0,0-1.952-1.945,18.919,18.919,0,0,0-1.746,1.881,20.717,20.717,0,0,0-2.786,4.091,20.218,20.218,0,0,1,4.539,6.333,20.388,20.388,0,0,1,4.541-6.333" transform="translate(-75.231 -130.92)" fill="#453d66"/>
      <path id="Path_342" data-name="Path 342" d="M312.35,156.587a19.3,19.3,0,0,0-2.606-4.026,21.155,21.155,0,0,0-1.941-1.945,19.906,19.906,0,0,0-1.752,1.883,20.739,20.739,0,0,0-2.784,4.091,20.313,20.313,0,0,1,4.539,6.33,20.447,20.447,0,0,1,4.545-6.333" transform="translate(-168.04 -130.897)" fill="#453d66"/>
      <path id="Path_343" data-name="Path 343" d="M213.884,158.778h-2.249l.011,40.64,40.64-.012v-2.245a38.437,38.437,0,0,0-38.4-38.383m2.257,36.141-.012-31.573A33.809,33.809,0,0,1,247.031,190Z" transform="translate(-121.672 -135.027)" fill="#453d66"/>
      <path id="Path_344" data-name="Path 344" d="M120.28,197.179v2.246l40.645-.007-.007-40.64h-2.25a38.44,38.44,0,0,0-38.389,38.4m36.146-2.258-30.894-4.9a33.824,33.824,0,0,1,30.888-26.669Z" transform="translate(-75.445 -135.027)" fill="#453d66"/>
      <path id="Path_345" data-name="Path 345" d="M211.461,249.2a38.434,38.434,0,0,0,38.407,38.382h2.247l-.01-40.637-40.643.009Zm36.149,2.239.007,31.582a33.826,33.826,0,0,1-31.582-31.572Z" transform="translate(-121.584 -179.639)" fill="#453d66"/>
      <path id="Path_346" data-name="Path 346" d="M365.286,122.48l.014,56.651h5.123l-.018-61.013Z" transform="translate(-199.423 -114.453)" fill="#453d66"/>
      <path id="Path_347" data-name="Path 347" d="M323.235,174.425l-12.6.006v-11.9l1.549-4.026h-8.2l1.527,4.032,0,12.1v4.916l22.869-.005s-.032-2.2-.032-4.914l-.013-56.5-5.116,4.355Z" transform="translate(-168.401 -114.459)" fill="#453d66"/>
      <path id="Path_348" data-name="Path 348" d="M55.555,153.7,50.8,158.453l4.759,4.755,2.483-2.487,7.63,0,.006,31.573a33.82,33.82,0,0,1-31.582-31.566h7.6l2.485,2.484,4.758-4.755L44.177,153.7l-2.528,2.526H29.517v2.252a38.435,38.435,0,0,0,38.406,38.379h2.254l-.013-40.64-12.081,0Z" transform="translate(-29.517 -132.456)" fill="#453d66"/>
      <g id="Group_224" data-name="Group 224" transform="translate(12.892 0)">
        <path id="Path_349" data-name="Path 349" d="M55.616,129.315a18.483,18.483,0,0,1,4.163,7.025,18.147,18.147,0,0,1,1.826-7.959,18.07,18.07,0,0,0-3.971-5.78,18.168,18.168,0,0,0-2.018,6.714" transform="translate(-55.616 -116.721)" fill="#453d66"/>
        <path id="Path_350" data-name="Path 350" d="M77.426,129.315a18.209,18.209,0,0,0-4.161,7.022,18.314,18.314,0,0,0-1.83-7.956,17.973,17.973,0,0,1,3.97-5.78,18.265,18.265,0,0,1,2.022,6.714" transform="translate(-63.621 -116.721)" fill="#453d66"/>
        <path id="Path_351" data-name="Path 351" d="M69.417,116.075a18.139,18.139,0,0,0-2.342-3.636,19.722,19.722,0,0,0-1.754-1.743,16.544,16.544,0,0,0-1.585,1.691,18.928,18.928,0,0,0-2.511,3.691,18.163,18.163,0,0,1,4.1,5.71,18.37,18.37,0,0,1,4.1-5.714" transform="translate(-58.454 -110.697)" fill="#453d66"/>
      </g>
    </g>
  </g>
</svg>
