<svg xmlns="http://www.w3.org/2000/svg" width="212.145" height="70.26" viewBox="0 0 212.145 70.26">
  <g id="Group_243" data-name="Group 243" transform="translate(-418.651 -1078.16)">
    <rect id="Rectangle_19" data-name="Rectangle 19" width="89.173" height="29.724" transform="translate(418.651 1118.696)" fill="#453d66"/>
    <rect id="Rectangle_20" data-name="Rectangle 20" width="89.173" height="29.724" transform="translate(418.651 1078.16)" fill="#453d66"/>
    <path id="Path_426" data-name="Path 426" d="M618.783,1147.041l-.392.078a12.459,12.459,0,0,1-2.9.366c-2.317,0-5.075-1.184-5.075-6.813,0-2.882.493-6.72,4.8-6.72h.031a13.027,13.027,0,0,1,3.18.6l.35.1Zm.719-27.976-.719.123v10.383l-.617-.18-.191-.051a14.752,14.752,0,0,0-3.95-.688c-8.687,0-10.51,6.564-10.51,12.065,0,7.557,4.238,11.893,11.62,11.893a23.746,23.746,0,0,0,7.772-1.095c2.148-.688,2.914-1.675,2.914-3.76v-29.773c-2.085.381-4.238.74-6.319,1.084" transform="translate(-21.788 -4.693)" fill="#453d66"/>
    <path id="Path_427" data-name="Path 427" d="M589.778,1148.65l-.362.091-1.335.362a13.033,13.033,0,0,1-3.2.5c-2.036,0-3.247-1.013-3.247-2.714,0-1.108.493-2.979,3.827-2.979h4.316Zm-3.027-18.721a29.2,29.2,0,0,0-8.85,1.537l-2.22.676.745,5.02,2.164-.708a25.267,25.267,0,0,1,7.227-1.224c.956,0,3.873,0,3.873,3.155v1.382h-4.052c-7.377,0-10.813,2.347-10.813,7.392,0,4.321,3.159,6.9,8.455,6.9a26.434,26.434,0,0,0,5.891-.8l.1-.026.1.019.648.115c2.079.364,4.221.745,6.3,1.151v-16.531c0-5.348-3.221-8.062-9.571-8.062" transform="translate(-18.406 -6.101)" fill="#453d66"/>
    <path id="Path_428" data-name="Path 428" d="M649.723,1148.65l-.362.091-1.335.362a13.032,13.032,0,0,1-3.2.5c-2.036,0-3.248-1.013-3.248-2.714,0-1.108.494-2.979,3.828-2.979h4.316Zm-3.027-18.721a29.21,29.21,0,0,0-8.851,1.537l-2.219.676.745,5.02,2.163-.708a25.278,25.278,0,0,1,7.228-1.224c.956,0,3.873,0,3.873,3.155v1.382h-4.052c-7.378,0-10.813,2.347-10.813,7.392,0,4.321,3.158,6.9,8.455,6.9a26.428,26.428,0,0,0,5.891-.8l.1-.026.1.019.649.115c2.079.364,4.221.745,6.3,1.151v-16.531c0-5.348-3.221-8.062-9.57-8.062" transform="translate(-25.471 -6.101)" fill="#453d66"/>
    <path id="Path_429" data-name="Path 429" d="M556.837,1129.981a17.811,17.811,0,0,0-7.182,1.6l-.262.124-.236-.176c-1.417-1.042-3.524-1.551-6.432-1.551a26.1,26.1,0,0,0-7.6,1.136c-2.256.691-3.134,1.761-3.134,3.806V1153.8h7.038V1136.35l.34-.112a9.327,9.327,0,0,1,3.087-.561c2.04,0,3.072,1.08,3.072,3.207V1153.8h6.944v-15.222a4.34,4.34,0,0,0-.216-1.518l-.231-.459.474-.205a8.406,8.406,0,0,1,3.447-.715c1.4,0,3.072.561,3.072,3.207V1153.8h6.941v-15.622c0-5.513-2.983-8.194-9.123-8.194" transform="translate(-13.358 -6.108)" fill="#453d66"/>
    <path id="Path_430" data-name="Path 430" d="M638.163,1097.538a23.432,23.432,0,0,1-4.1-.363l-.392-.083V1086.9a4.078,4.078,0,0,0-.206-1.449l-.221-.442.453-.194c.108-.052.221-.078.335-.124l.071-.046c.154-.058.307-.1.463-.149.071-.021.131-.048.206-.063a15.144,15.144,0,0,1,3.63-.426h.033c4.309,0,4.807,3.834,4.807,6.719,0,5.63-2.763,6.811-5.075,6.811m-.016-19.376c-.063,0-.127,0-.186,0-4.047,0-8.212,1.1-9.7,3.283a6.562,6.562,0,0,0-1.272,3.95V1095.9a2.814,2.814,0,0,1-.216,1.32l-.228.463h-12.79v-7.321h-.015c-.154-7.7-4.713-11.927-11.317-11.927h-6.443c-.277,1.88-.471,3.2-.745,5.069h6.411c3.366,0,5.132,2.867,5.132,7.265v7.355l-.461-.225a4.336,4.336,0,0,0-1.521-.216H593.738c-.206,1.4-.478,3.226-.77,5.072H626.99c1.144-.228,2.511-.438,3.678-.654a19.274,19.274,0,0,0,7.139,1.29c7.393,0,12.17-4.937,12.17-12.585,0-7.553-4.632-12.49-11.83-12.644" transform="translate(-20.544 0)" fill="#453d66"/>
    <path id="Path_431" data-name="Path 431" d="M571.3,1105.852h.313c7.382,0,10.818-2.44,10.818-8.45,0-4.321-3.163-7.768-8.455-7.768h-6.811a2.919,2.919,0,0,1-3.247-3.113c0-1.326.493-2.985,3.821-2.985H582.6c.31-1.93.49-3.155.777-5.065H567.919c-7.2,0-10.815,3.006-10.815,8.051,0,4.972,3.161,7.568,8.457,7.568h6.806a3.21,3.21,0,0,1,3.252,3.313c0,1.114-.5,3.411-3.827,3.411h-1.147l-21.79-.048v.015h-3.962c-3.36,0-5.727-1.925-5.727-6.317V1091.4c0-4.6,1.829-7.464,5.727-7.464h6.493c.294-1.969.478-3.192.757-5.067h-8.827c-6.6,0-11.161,4.424-11.317,12.128h-.015v.283l.015,3.159c.156,7.706,4.712,11.38,11.317,11.38h6.443l11.8.02v.01h7.033l2.706,0Z" transform="translate(-13.357 -0.037)" fill="#453d66"/>
  </g>
</svg>
