<svg xmlns="http://www.w3.org/2000/svg" width="146.79" height="146.793" viewBox="0 0 146.79 146.793">
  <g id="Group_244" data-name="Group 244" transform="translate(-69.982 -69.976)">
    <path id="Path_432" data-name="Path 432" d="M254.419,445.148a6.35,6.35,0,0,0-2.3.764,2.306,2.306,0,0,1,1.25-.923c-2.822-1.18-5.088-4.579-5.117-4.614-.726-.971-1.07-1.332-1.809-2.262.26-.223.682-.579.682-.579a2.47,2.47,0,0,0,.975.163,2.009,2.009,0,1,0-.291-4,2.206,2.206,0,0,0-1.113.4,25.314,25.314,0,0,0-2.021,1.849q-3.042-3.64-6.2-6.825c10.289-9.224,25.058-18.686,42.942-19.294-17.113-2.555-32.71,3.285-46.626,15.805-13.92-12.52-29.513-18.36-46.628-15.805,17.883.608,32.655,10.07,42.942,19.294q-3.159,3.183-6.2,6.825a25.592,25.592,0,0,0-2.021-1.849,2.2,2.2,0,0,0-1.113-.4,2.009,2.009,0,1,0-.291,4,2.44,2.44,0,0,0,.973-.163l.683.579c-.74.93-1.082,1.291-1.81,2.262-.029.034-2.295,3.434-5.115,4.614a2.306,2.306,0,0,1,1.248.923,6.35,6.35,0,0,0-2.3-.764c-2.519-.375-5.622,1.053-5.037,4.456.562,3.255,6.576,5.8,11.253-.755,1.915-2.685,3.793-5.491,3.793-5.491.587-.771.9-1.086,1.7-2.077a21.006,21.006,0,0,0,1.74,1.474,2.247,2.247,0,0,0,1.125.367,2.01,2.01,0,1,0,.168-4.011,2.454,2.454,0,0,0-.969.2s-.106-.086-.245-.2c1.709-1.99,3.751-4.22,6.105-6.544,2.351,2.324,4.394,4.554,6.1,6.544-.139.11-.247.193-.247.2a2.413,2.413,0,0,0-.968-.2,2.009,2.009,0,1,0,.166,4.011,2.256,2.256,0,0,0,1.127-.367,20.964,20.964,0,0,0,1.74-1.474c.807.992,1.117,1.307,1.706,2.077,0,0,1.874,2.805,3.79,5.491,4.679,6.55,10.692,4.011,11.253.755.589-3.4-2.512-4.831-5.037-4.456" transform="translate(-91.893 -263.809)" fill="#453d66"/>
    <path id="Path_433" data-name="Path 433" d="M372.266,434.543a21.874,21.874,0,0,1,4.307,2.615c2.356,1.389,4.913-2.057,7.739-3.018-3.144-.336-3.867.942-5.869,1.014-1.879.063-2.413-.944-6.177-.611" transform="translate(-235.057 -283.131)" fill="#453d66"/>
    <path id="Path_434" data-name="Path 434" d="M325.618,227.93c-2.567.236-5.133.647-7.7.88.176,1.589,4.949-.524,7.421,3.18,2.06-1.137,8.277-2.062,8.477-.55-2.324-.065-4.494-.173-6.146.786,1.44.015,1.8,1.331,2.446.872,1.659-1.182,2.327.344,4.627.442.591.007,1.3-.516,1.767-.486,1.034.063,1.67.726,2.75.212,1.711-.815,3.6-.944,6.422-.51a5.886,5.886,0,0,0-2.965-1.639c.034-.615,2.454-.6,3.838-.159,2.606.55.267-1.55,5.174-2.417-.665-2.028-4.444-.5-5.807-.724-4.418-.745-3.709,1.123-6.893-.315l-1.384-29.374s.252-1.284.716.048a19.013,19.013,0,0,0,2.485,5.009c.885.945.969.731.969.731a9.067,9.067,0,0,0,.611-1.817,11.737,11.737,0,0,0,1.276,1.313,6.32,6.32,0,0,0,.3-2.557,12.112,12.112,0,0,0-.392-2.32,6.9,6.9,0,0,1,1.646,2.207,14.561,14.561,0,0,1,.872,2.148s1.985-1.824,1.261-5.508-3.05-4.56-3.05-4.56,1.719-.45,3.307,2.123,2.216,3.36,2.216,3.36,1.45-2.531.426-4.6a7.182,7.182,0,0,0-3.139-3.03s1.074-.462,3.276.987a9.855,9.855,0,0,1,2.41,1.834s.723-3.819-.856-5.144-5.72-1.5-6.407-2.731c0,0,5.551.512,6.813,1.712a8.638,8.638,0,0,0-4.845-4.47c-3.471-1.219-5.377-.8-5.377-.8.039-.051.63-.981,3.827-.238a23.071,23.071,0,0,0,5.765.618s-3.966-3.36-8.2-3.088-5.821,2.341-5.821,2.341a1.006,1.006,0,0,1-.5-1.574c.693-1.134.7-2.286-.331-3.838,0,0-2.642,1.564-3.273,3.353s1.024,2.579-.262,4.218a6.292,6.292,0,0,1-1.065-2.115c-.522-1.535-3.117-3.471-9.952-1.139a4.828,4.828,0,0,1,3.37,1.228c1.422,1.363,1.284,1.85,1.284,1.85a4.942,4.942,0,0,0-3.726-.337c-1.879.69-2.2,1.608-2.2,1.608a8.979,8.979,0,0,1,3.3.158c1.057.433,1.057,1.045,1.057,1.045a5.186,5.186,0,0,0-4.727.606,4.817,4.817,0,0,0-2.245,3.97,6.352,6.352,0,0,0,2.949-.483c1.559-.658,2.209-1.2,3.245-.832a7.938,7.938,0,0,0-2.718,1.39,3.077,3.077,0,0,0-1.084,1.985,7.994,7.994,0,0,0,2.314-.979c1.233-.759,2.333-1.408,3.386-.706a6.684,6.684,0,0,0-3.464,2.466,7.425,7.425,0,0,0-.793,8.41,19.746,19.746,0,0,0,2.908-3.595,21.74,21.74,0,0,1,1.331-2.231,8.771,8.771,0,0,0,.272,2.867,9.553,9.553,0,0,0,1.062-1.492,3.569,3.569,0,0,1,1.433-1.433s-.791,1.209-.861,4.725.767,4.091.767,4.091a25.2,25.2,0,0,0,3.007-4.413c1-1.889,1.678-3.6,1.678-3.6l-.981,31.007c-1.994,1.064-5.306-.164-7.3.017" transform="translate(-192.797 -82.669)" fill="#453d66"/>
    <path id="Path_435" data-name="Path 435" d="M143.377,214.437a71.065,71.065,0,1,1,71.064-71.066,71.2,71.2,0,0,1-71.064,71.066m0-144.461a73.4,73.4,0,1,0,73.395,73.395,73.539,73.539,0,0,0-73.395-73.395" fill="#453d66"/>
    <path id="Path_436" data-name="Path 436" d="M158.382,212.19a51.925,51.925,0,1,1,51.923,51.921,52.024,52.024,0,0,1-51.923-51.921m106.177,0a54.252,54.252,0,1,0-54.254,54.254,54.357,54.357,0,0,0,54.254-54.254" transform="translate(-66.931 -68.396)" fill="#453d66"/>
    <path id="Path_437" data-name="Path 437" d="M284.948,129.522a3.967,3.967,0,0,0,.087-1.226,5.834,5.834,0,0,0-.538-1.928q-.676-1.51-1.963-3.738l-.546-.9-.324-.536-.192,1.365a4.731,4.731,0,0,0-.051,1.031Z" transform="translate(-164.406 -39.83)" fill="#453d66"/>
    <path id="Path_438" data-name="Path 438" d="M296.3,138.205c.051.164.651.277,1.786.339a7.655,7.655,0,0,0,2.245-.075c.7-.226,1.183-.909,1.456-2.059a7.076,7.076,0,0,0,.178-2.351,5.49,5.49,0,0,0-.2-1.038,3.93,3.93,0,0,0-1.437-1.966,3.52,3.52,0,0,0-1.432-.659l-.034,1.868a8.862,8.862,0,0,1,1.2.5q.927.488,1.021.774c.168.514-.089,1.317-.765,2.416a7.766,7.766,0,0,1-.947,1.325,2.135,2.135,0,0,1-.856.608,3.969,3.969,0,0,1-.945.122L297.3,138l-.315.022-.593.017c-.093.029-.127.086-.1.168" transform="translate(-175.977 -46.983)" fill="#453d66"/>
    <path id="Path_439" data-name="Path 439" d="M179.395,221.033l.009-.024-.034-.081Z" transform="translate(-85.06 -117.381)" fill="#453d66"/>
    <path id="Path_440" data-name="Path 440" d="M246.447,140.258a1.068,1.068,0,0,1,.12-.44l.13-.426.724.007a4.1,4.1,0,0,0,.729-.039l.158-.515.1-.456.067-.341-1.466.022a.735.735,0,0,0-.074.175c-.029.075-.062.187-.1.336-.087.264-.144.4-.185.423a2.068,2.068,0,0,1-.627.063,2.8,2.8,0,0,1-.694-.074l-.127.416a2.769,2.769,0,0,0-.127.442l-.1.437a2.413,2.413,0,0,0,.682.036,2.647,2.647,0,0,0,.786-.065" transform="translate(-136.078 -52.932)" fill="#453d66"/>
    <path id="Path_441" data-name="Path 441" d="M209.342,168.373l5.037,4.737a3.919,3.919,0,0,0-.259-1.2,5.862,5.862,0,0,0-1.048-1.706q-1.076-1.272-2.93-3.06l-.774-.712-.459-.427.192,1.367a4.372,4.372,0,0,0,.242,1" transform="translate(-108.03 -74.672)" fill="#453d66"/>
    <path id="Path_442" data-name="Path 442" d="M242.4,149.212a1.591,1.591,0,0,0,1.175.79,2.6,2.6,0,0,0,.788.01l.2-.043a.51.51,0,0,0,.166-.051l.358-.171,5.7-3.13a4.3,4.3,0,0,0-.125-1.266l-.077-.616a.484.484,0,0,0-.032-.2l-.077-.137-.07-.264a1.53,1.53,0,0,0-.139-.324l-.057-.139-.074-.123-.1-.183a1.842,1.842,0,0,0-.324-.413,3.983,3.983,0,0,0-.539-.426l-.49-.271-.39-.2-.027,1.814.4.193a1.171,1.171,0,0,1,.492.288,1.082,1.082,0,0,1,.306.274l.134.134c.008.01.032.055.075.137a.335.335,0,0,1,.041.3l-4.911,2.7a2.038,2.038,0,0,1-1.8.166l-.2-.093-.113-.1-.125-.168-.123-.219a7.916,7.916,0,0,1-.43-1.033l-.074-.231-.1-.2-.149-.123c-.18.1-.168.56.026,1.38a7.736,7.736,0,0,0,.683,1.942" transform="translate(-133.42 -56.047)" fill="#453d66"/>
    <path id="Path_443" data-name="Path 443" d="M327.025,109.575a1.211,1.211,0,0,1,.491-.348,1.064,1.064,0,0,1,.3-.115l.39-.079c.312-.053.576.1.8.473a1.325,1.325,0,0,1,.2.373l.089.248.055.3-.149.051-.156.019-.2-.01-.19-.038-.187-.044-.675-.242-.272-.081-.348-.133-.346-.158Zm-3.389,3.394v0l1.3-.228a.839.839,0,0,0,.74-.668,1.116,1.116,0,0,1,.254-.562l2.569.885c.416.158.741.266.981.334a1.508,1.508,0,0,0,.466.087c.106-.022.175-.194.207-.519.056-.322.149-.495.266-.514l1.055-.187v0l3.126-.055a2.478,2.478,0,0,0,.33-.556l.135-.252.158-.31a2.434,2.434,0,0,0,.467.842,1.3,1.3,0,0,0,.771.242l1.139-.017,0-.068,2.88.05.671-1.156a1.763,1.763,0,0,0,.5.884,1.182,1.182,0,0,0,.8.306l.716.012-.009.065,1.952.344.212-.016.2-.063a1.615,1.615,0,0,0,.447-.288l.106-.094.026.108.123.389a.783.783,0,0,0,.389.241,6.363,6.363,0,0,0,.956.219l.212.036.409.074.444.043.7.022.264-.228.1-.07.046-.017a.505.505,0,0,1,.13.221l.032.163.05.1,2.345.411.154-.282.238-.329.274-.377.133-.236a4.965,4.965,0,0,0,.26-.962l.358-2.033-.421.3c-.157.117-.325.252-.507.414a3.55,3.55,0,0,0-.557.555l0,.279.005.4,0,.2.027.277-1.492-.3a.417.417,0,0,1,0-.192,3.314,3.314,0,0,1,.176-.553l.2-.466.473-1-.836.562a6.465,6.465,0,0,0-.625.507,1.181,1.181,0,0,0-.173.236,1.685,1.685,0,0,0-.129.466l-.051.267-.5.026-.552-.072-.219-.038-.541-.123-.43-.144c-.262-.135-.391-.243-.379-.308l.173-.327a1.184,1.184,0,0,0,.188-.267l.164-.308a5.156,5.156,0,0,0,.462-1.14c-.375.262-.694.5-.963.714a2.334,2.334,0,0,0-.6.505,2.365,2.365,0,0,1-.137.522q-.252.378-.524.33l-2.483-.435-.157.882.015-.973-.231,0a1.111,1.111,0,0,1-.742-.3.846.846,0,0,1-.257-.622v-.1l.072-.342.041-.132,0-.135.031-.464.036-.632.007-.226-1.086,1.237-.06.954,0,.238-.05.214-.081.212-.027.062-3.612-.062,0,.075-.367.005a.925.925,0,0,1-.62-.217.763.763,0,0,1-.214-.45l.005-.122.07-.449.02-.365.029-.159-.005-.214.005-.286-.024-.331-.019-.181-1.093,1.384-.032.834-.024.358-.067.236-3.577.06.008.411-.077-.421-.461.081c-.2.034-.483-.159-.849-.584a5.643,5.643,0,0,1-.755-.975l-.1-.187-.044-.193-.058-.334a.405.405,0,0,0-.135-.274.783.783,0,0,0-.416-.015,3.22,3.22,0,0,0-1.279.765,4.52,4.52,0,0,0-1.113,1.265,7.357,7.357,0,0,0-.356,1.076.559.559,0,0,1-.437.423l-2.315.406v.017l-.483.134-.291.048c-.12,0-.2-.019-.219-.048l-.128-.142a.171.171,0,0,1-.046-.1,4.919,4.919,0,0,1-.341-.776l-.827-2.095q-.984-2.479-1.271-3.54l-.748,1.587,2.66,7.207Z" transform="translate(-193.404 -27.064)" fill="#453d66"/>
    <path id="Path_444" data-name="Path 444" d="M610.212,227.769l1.291.856a2.286,2.286,0,0,1,.7.868l.043.152.034.115.029.216a2.92,2.92,0,0,1-.055.678c-.1.521-.236.822-.409.9a.627.627,0,0,1-.248-.017,1.1,1.1,0,0,1-.507-.572l-1.81-3.848ZM597.46,212.417a.659.659,0,0,0-.144.258.421.421,0,0,0,.1.262l2.509,2.867c.074.11.293.1.659-.034a1.859,1.859,0,0,1,.807-.1l.089.034-.037.091-.081.168a.291.291,0,0,1-.075.149l-.055.1-.093.144-.13.206c-.115.221-.144.348-.084.391l.649.736-.021.014,1.608,2.458,1.276-.084-.257.31-.137.252a1.175,1.175,0,0,0,.12,1.048l.54.82.346-.223.728,1.559,1.2.125-.651.49c-.106.146-.144.242-.121.295l3.6,7.641a.772.772,0,0,0,.56.3,6.965,6.965,0,0,0,1.125.07l.954-.027.8-.034c.366-.171.656-.649.873-1.44a2.676,2.676,0,0,0,.058-1.757,4.645,4.645,0,0,0-1.6-1.319l-2.233-1.29-1.007-.634a2.509,2.509,0,0,1-.572-.464,1.293,1.293,0,0,1-.19-.2l-.1-.224-.118-.248a.582.582,0,0,1-.031-.411.724.724,0,0,1,.341-.33l1.958-1.045-1.069-.258a3.627,3.627,0,0,0-.858-.158l-1.033.733-1.1-2.345-.394.181-.2-.3a.9.9,0,0,1-.137-.632.672.672,0,0,1,.282-.435l.093-.05.421-.178.319-.175.156-.06.18-.118.247-.147.272-.2.147-.111c-.077-.019-.382-.06-.918-.108l-.639-.06-.209-.019-.728.418-.324.168-.236.068-1.843-2.819-.053.034.075-.067-.238-.272c-.113-.13-.034-.387.238-.774l.644-.9,1.283-1.848.469-.671-1.867.5-1.005,1.538a3.433,3.433,0,0,1-.654.788l-.1.079-.093.051-2.432-2.773a.416.416,0,0,1-.115-.416,1.271,1.271,0,0,1,.344-.418c.019,0,.055-.027.109-.074l.118-.1.1-.06.079-.067.163-.129.068-.082.029-.07c-.046-.051-.2-.026-.447.079l-.2.07-.181.1a8.177,8.177,0,0,0-1.142.644Z" transform="translate(-410.057 -109.64)" fill="#453d66"/>
    <path id="Path_445" data-name="Path 445" d="M523.508,137.507a6.01,6.01,0,0,0,1.177-1.627q.755-1.475,1.694-3.867l.361-.987.214-.582-1.19.709a4.35,4.35,0,0,0-.839.61l-2.433,6.446a3.9,3.9,0,0,0,1.017-.7" transform="translate(-351.872 -47.02)" fill="#453d66"/>
    <path id="Path_446" data-name="Path 446" d="M647.636,233.082q.683.247.793.176c.021-.077.041-.18.065-.306s.056-.32.094-.555l.11-.808a2.272,2.272,0,0,0-.836-.281,2.693,2.693,0,0,0-.824-.139,2.286,2.286,0,0,0-.14.767,3.462,3.462,0,0,0,0,.814,2.7,2.7,0,0,0,.742.332" transform="translate(-448.594 -125.338)" fill="#453d66"/>
    <path id="Path_447" data-name="Path 447" d="M547.073,170.167l-.176-.123-.192-.132-.181-.178-.11-.182-.065-.173-.07-.274a.8.8,0,0,1-.036-.212,3.25,3.25,0,0,1,.569-.24.671.671,0,0,1,.512.05c.079.055.142.259.185.608a1.719,1.719,0,0,1,.024.532,1.737,1.737,0,0,1-.067.471l-.137-.012-.1-.027Zm-7.6.962a3.2,3.2,0,0,0,1.391,1.788c.05.032.113.079.193.13s.207.12.375.207l.38.2.43.183a11.669,11.669,0,0,0,1.713.462,6.276,6.276,0,0,0,1.952.163,4.076,4.076,0,0,0,.815-.556l.423-.334.541-.445.062-.063.137-.188.36-.651.216-.466.187-.476a6.459,6.459,0,0,0,.445-2.266,1.663,1.663,0,0,0-.144-.675.919.919,0,0,0-.329-.4c-.445-.312-1.154-.24-2.117.226a4.865,4.865,0,0,0-1.742,1.257,1.035,1.035,0,0,0-.081,1,1.875,1.875,0,0,0,.682.914,2.033,2.033,0,0,0,1.3.411,1.338,1.338,0,0,0,.49-.132.618.618,0,0,1-.022.194l-.038.185a.907.907,0,0,1-.115.389l-.1.276-.087.139-.231.481a4.536,4.536,0,0,1-2.058-.282,8.827,8.827,0,0,1-2.31-1.144,2.993,2.993,0,0,1-1-1.154,1.664,1.664,0,0,1,.169-1.769,2.338,2.338,0,0,1,.392-.421l.658-.5.6-.442a1.311,1.311,0,0,0,.266-.226c.036-.081.034-.132-.007-.164q-.252-.172-1.5.661a7.017,7.017,0,0,0-1.113.838,6.2,6.2,0,0,0-.766.866,2.167,2.167,0,0,0-.428,1.788" transform="translate(-365.039 -75.405)" fill="#453d66"/>
    <path id="Path_448" data-name="Path 448" d="M488.754,116.842l.424-.168.6-.3.041.272.046.336.021.353-.005.236a4.638,4.638,0,0,1-.634-.183l-.106-.041-.546-.24-.221-.149Zm1.317,2.647.307-.591a5.256,5.256,0,0,0,.358-.764c.009-.024.034-.084.072-.185l.111-.363.034-.3,0-.4-.057-.906a1.238,1.238,0,0,0,.43-.293l.625-.584a2.593,2.593,0,0,0,.507-.616,1.093,1.093,0,0,0,.187-.255l.1-.176.111-.18.1-.276.141.168a.231.231,0,0,0,.091.1l.214.091,1.461-1.065c.01-.074-.122-.283-.4-.625l-.421-.522a1.286,1.286,0,0,1-.3-.615,1.457,1.457,0,0,1,.123-.575l-.947.673-.728.541-.242.192.141.5a1.877,1.877,0,0,1-.137.714l-.079.207-.144.3-.2.348-.194.3a6.266,6.266,0,0,1-.6.7l-.33-1.329-.337-1.04a7.747,7.747,0,0,0-.343-.8l-.293-.562-.185-.348a5.165,5.165,0,0,0-.353-.6,2.716,2.716,0,0,0-1.057-1.13l-.363.356-.327.363a3.442,3.442,0,0,0-.546.815,1.7,1.7,0,0,0-.127.666.8.8,0,0,0,.307.564,7,7,0,0,1,.853,1.021l.142.183.236.375c.072.029.163-.028.274-.171s.176-.209.206-.2c.058.02.166.164.324.437l.209.372a2.344,2.344,0,0,1,.127.3l.216.522.144.445.12.413.007.068a2.216,2.216,0,0,1-.516.236l-.366.127-.318.082-.729.181a1.074,1.074,0,0,1-.62,0,.668.668,0,0,1-.49-.538l-.063-.3-.033-.094c-.074.01-.171.125-.293.346a1.832,1.832,0,0,0-.212.38l-.2.485a4.3,4.3,0,0,0-.132.425,2.912,2.912,0,0,0-.084.378c.033.228.1.358.2.4Z" transform="translate(-323.181 -30.519)" fill="#453d66"/>
    <path id="Path_449" data-name="Path 449" d="M575.344,155.685l.11.264.11.183a.921.921,0,0,0,.24.282l.072-.014.4-.052.377-.053.12-.021.2.421a8.717,8.717,0,0,0,.5.923,2.379,2.379,0,0,0,.55-.079,7.061,7.061,0,0,0,.884-.214l-.711-1.408-.4.048-.365.062a.394.394,0,0,1-.23.015l-.1-.026a1.812,1.812,0,0,1-.327-.57,6.834,6.834,0,0,1-.266-.7l-.442.08-.971.228.082.269Z" transform="translate(-392.774 -65.919)" fill="#453d66"/>
    <path id="Path_450" data-name="Path 450" d="M568.466,193.013a.784.784,0,0,1,.6-.139.99.99,0,0,1,.391.06,2.131,2.131,0,0,1,.207.1.736.736,0,0,1,.113.089.855.855,0,0,1,.25.639.96.96,0,0,1-.271.723l-.063.062-.433-.163-.137-.046-.065-.056-.118-.11-.243-.272-.209-.346c-.084-.291-.093-.467-.026-.541m-1.218.426a2.056,2.056,0,0,0-.248.416,1.069,1.069,0,0,0,.344,1.194,1.689,1.689,0,0,0,1.221.546l.17-.022.158-.041.219-.079.342-.141.4-.209a1.161,1.161,0,0,1-.156.294l-.109.228-.04.045-.048.05-.069.068a3.135,3.135,0,0,1-2.273.659,10.276,10.276,0,0,1-1.5-.1,7.149,7.149,0,0,1-1.423-.365l-.193-.057-.163-.106a1.226,1.226,0,0,1-.334-.25l-.274-.3-.242-.312-.389-.575-.168-.228c-.153-.067-.252-.077-.3-.022-.065.147.159.635.678,1.461.046.091.082.157.1.19s.06.1.12.178l.187.281a.894.894,0,0,0,.075.141c.017.02.039.051.074.091l.171.231a4.545,4.545,0,0,0,.647.726q1.092,1.01,3.252.247a7.8,7.8,0,0,0,3.076-1.986A4.258,4.258,0,0,0,571.6,193.7c.187-.776.161-1.281-.081-1.5-.353-.327-1.017-.365-2-.12a3.676,3.676,0,0,0-1.781.784Z" transform="translate(-382.721 -94.825)" fill="#453d66"/>
    <path id="Path_451" data-name="Path 451" d="M380.843,104.447l.228-.272.217-.224.288-.262a3.073,3.073,0,0,1,.724.373l.641.377.178-.2.279-.341.346-.464-1.2-.7-.3.308c-.286.284-.462.428-.533.431a3.211,3.211,0,0,1-.584-.26l-.334-.2-.3-.19-.129.121-.135.144-.187.223-.366.454a4.588,4.588,0,0,0,.5.348,4.069,4.069,0,0,0,.663.334" transform="translate(-240.821 -25.472)" fill="#453d66"/>
    <path id="Path_452" data-name="Path 452" d="M383.96,96.633l.983.748.841-.8-.94-.791Z" transform="translate(-244.15 -20.076)" fill="#453d66"/>
    <path id="Path_453" data-name="Path 453" d="M407.006,99.69l.211-.228.529-.462.721.435a5.249,5.249,0,0,0,.678.329l.13-.11.31-.288a8.956,8.956,0,0,0,.608-.668l-1.422-.79a2.943,2.943,0,0,0-.474.39c-.214.2-.344.3-.4.3l-.248-.1-.368-.188a6.67,6.67,0,0,1-.635-.44l-.324.3-.3.291-.426.45a1.882,1.882,0,0,0,.608.428,3.176,3.176,0,0,0,.8.351" transform="translate(-260.975 -21.691)" fill="#453d66"/>
    <path id="Path_454" data-name="Path 454" d="M157.209,197.138l1.384-1.891-.093-.067,2.334-2.853-.173-.538-.205-.486-.072-.144.169.022.3.038.294.07.466.075,1.058-1.295L165,187.926l.111-.142.125-.159c.065-.13.079-.2.043-.214a1.582,1.582,0,0,0-.113-.24c-.027-.043-.087-.133-.181-.276l-.3-.485a5.427,5.427,0,0,0-.514-.733c-.017-.017-.056-.06-.12-.13l-.988-.795-.278-.209-.2-.163-.288-.269-.385-.361-.029-.034-.2-2.045-.361.106-.524.121-1.24.221a1.608,1.608,0,0,1-.45-.1l-.1-.034a.268.268,0,0,1-.1-.079l-.194-.193.06.461.158.677.293,1.057.778-.074,1.1.8.993.69a9.6,9.6,0,0,1,1.329,1.1c.151.163.224.281.214.351l-2.062,1.908-.029-.024-.75.918-.081-.106-.132-.25-.144-.437a2.24,2.24,0,0,0-.175-.421.764.764,0,0,0-.175-.211,1.561,1.561,0,0,0-1.113-.2,2.277,2.277,0,0,0-1.581.844,3.391,3.391,0,0,0-.586,1.2l-.093.3-.044.188.031.075.32.836.348.774a.54.54,0,0,1,.12-.2l.182-.219a1.675,1.675,0,0,1,.887-.572,1.879,1.879,0,0,1,.772-.055l.163.043-2.524,3.095.1.079-.276.379-.2.221c-.094.075-.164.106-.2.1L156.2,195c-.017,0-.046-.014-.1-.046a5.1,5.1,0,0,1-.759-.394l-1.97-1.11q-2.34-1.313-3.235-1.957l.427,1.7Z" transform="translate(-62.332 -86.855)" fill="#453d66"/>
    <path id="Path_455" data-name="Path 455" d="M130.13,260.886l.306.05a.864.864,0,0,1,.233.055l.3.079.211.084.193.079-.1.242-.164.4-.235.437a.842.842,0,0,0-.183.272l-.165.262-.205.272-.185.235-.084-1a1.611,1.611,0,0,0-.2-.736l-.341-.38a1.1,1.1,0,0,1-.238-.473,3,3,0,0,1,.849.125m3.389-5.751-.019-.2-.017-.464a1.029,1.029,0,0,1,.032-.329l.051-.2.115-.212c.166-.2.469-.247.906-.154.2.048.4.106.62.181Zm-5.8,5.035.368.517.277.029a.9.9,0,0,1,.315.034l.284,1.687a4.837,4.837,0,0,0,.221.988,3.328,3.328,0,0,0,.933,1.1,4.842,4.842,0,0,0,1.053.784l.081-.2.164-.26.546-.789q.676-.953.724-1.072c.079-.19-.046-.466-.37-.819a1.839,1.839,0,0,1-.507-.757l.012-.1.086.015a6.187,6.187,0,0,1,.894.2c.673.091,1.082-.041,1.225-.387l.408-1.005-.045-.017,1.005-1.874a.526.526,0,0,0-.122-.577c-.389-.6-.564-.964-.519-1.084l2.5-2.244a4.038,4.038,0,0,0-.481-.913,4.146,4.146,0,0,0-.56-.822,3.515,3.515,0,0,0-.469-.2l-.389-.1-.26-.063-1.355-.216-.658-.134a.293.293,0,0,0-.348.176,1.7,1.7,0,0,0-.163.577l-.089.838a3.935,3.935,0,0,0,.385,1.884l.426.627.7.981.046.043-1.35,2.517.06.033-.151.365-.065.163a.45.45,0,0,1-.2.26l-.255.057a8.57,8.57,0,0,1-1.238-.247l-2.264-.557-.786-.163-.795-.153.39.459Z" transform="translate(-44.333 -141.448)" fill="#453d66"/>
    <path id="Path_456" data-name="Path 456" d="M114.037,288.978a1.947,1.947,0,0,0,.3-.185l.262-.2.341-.29a2.166,2.166,0,0,0,.236-.277.988.988,0,0,1-.187-.408l-.077-.207-.091-.219a5.176,5.176,0,0,0,.6-.471,5.823,5.823,0,0,0,.449-.415l.065-.067a2.215,2.215,0,0,0-.193-.485l-.185-.379-.187-.36-1.168.937.267.682c.062.149.084.247.058.3a1.54,1.54,0,0,1-.451.421c-.31.214-.514.344-.608.394l.163.361Z" transform="translate(-33.82 -167.213)" fill="#453d66"/>
    <path id="Path_457" data-name="Path 457" d="M659.924,404.669a6.287,6.287,0,0,1,.439-.769,1.143,1.143,0,0,1,.58.291c.252.209.377.377.377.5-.068.32-.348.556-.837.717a1.009,1.009,0,0,1-.38.12c-.015,0-.146.015-.377.05l-.022-.1a6.332,6.332,0,0,1,.221-.808m-6.937,2.884a2.682,2.682,0,0,0,1,.382,5.469,5.469,0,0,0,1.18.236l.12-.01.209-.19.31-.207a1.788,1.788,0,0,1,.171-.108,1.544,1.544,0,0,1,.266-.132,5.45,5.45,0,0,1,1.474-.49,9.376,9.376,0,0,1,1.689-.149,6.528,6.528,0,0,0,2.971-.536c.682-.353,1.024-.769,1.024-1.24,0-.49-.491-1.048-1.469-1.689a4.921,4.921,0,0,0-2.577-.959l-.466.029a1.332,1.332,0,0,0-.653.51,2.424,2.424,0,0,0-.587,1.348,3.145,3.145,0,0,0-.079.858l-.062.459-.028.152c-.611.1-1.156.206-1.629.327l-.688.212-.629.228c-.988.426-1.5.747-1.545.968" transform="translate(-453.346 -258.541)" fill="#453d66"/>
    <path id="Path_458" data-name="Path 458" d="M663.043,363.9a5.281,5.281,0,0,0-1.034-.757l-.522-.271-.488.279-.959.579c-.255.127-.6.279-1.038.461l-1.418.546a11.268,11.268,0,0,1-2.5.557c-.979.116-1.471.269-1.471.464s.14.317.416.368a9.419,9.419,0,0,0,1.519.082h1.408l.521-.053.608-.079.681-.169.6-.171.111.39a3.445,3.445,0,0,0,.755,1.038l-.11.193-.089.2-.139.378a2.062,2.062,0,0,0-.168.789,1.131,1.131,0,0,0,.06.37c.106.368.483.68,1.134.939a4.452,4.452,0,0,0,1.641.348l.267-.019.173-.06a.245.245,0,0,0,.079-.228.617.617,0,0,0-.3-.291l-.593-.279a.635.635,0,0,1-.216-.438,1.133,1.133,0,0,1,.211-.661.955.955,0,0,1,.36-.329l.248-.017h.24c.26,0,.391-.1.391-.279l-1.029-.731a3.133,3.133,0,0,1-.87-.9.541.541,0,0,1-.069-.269q0-.48.831-1.279Z" transform="translate(-453.831 -227.759)" fill="#453d66"/>
    <path id="Path_459" data-name="Path 459" d="M657.434,339.281c-.589.111-1.356.241-2.3.382-.5.118-.749.24-.749.367,0,.188.2.312.588.368a6.742,6.742,0,0,0,1.5.117l.642-.014h.344a12.851,12.851,0,0,0,1.894-.159,14.621,14.621,0,0,0,1.911-.419,9.131,9.131,0,0,0,2.278-1.081c.546-.379.8-.613.757-.709a2.837,2.837,0,0,0-.988-.456c-.091-.036-.219-.082-.38-.14l-.4-.123-.3-.079-.233-.01-1.2.709c-.254.14-.565.293-.932.461s-.774.327-1.226.486a6.893,6.893,0,0,1-1.2.3" transform="translate(-454.435 -207.89)" fill="#453d66"/>
    <path id="Path_460" data-name="Path 460" d="M662.937,443.125c-.106-.036-.238-.074-.4-.123l-.3-.079-.233-.008-1.2.707q-.383.208-.932.461c-.367.166-.774.327-1.228.486a7.077,7.077,0,0,1-1.2.3c-.589.111-1.358.242-2.3.38-.5.122-.747.241-.747.37,0,.185.2.308.586.366a6.835,6.835,0,0,0,1.5.111l.642-.008h.346a12.672,12.672,0,0,0,1.892-.161,15.007,15.007,0,0,0,1.911-.418,9.428,9.428,0,0,0,2.279-1.081c.543-.38.795-.613.757-.709a2.959,2.959,0,0,0-.988-.459c-.1-.032-.221-.08-.38-.137" transform="translate(-454.441 -289.998)" fill="#453d66"/>
    <path id="Path_461" data-name="Path 461" d="M110.734,348.056l.241-1.4.005-.038-.985-2.04-.026-.057-1.538-.26.836,1.819-6.074-1.033-.116-.021-.284,1.675,7.826,1.327Z" transform="translate(-25.514 -213.288)" fill="#453d66"/>
    <path id="Path_462" data-name="Path 462" d="M104.082,372.089a1.466,1.466,0,0,1,.956-.312c.041,0,.081,0,.12,0a1.307,1.307,0,0,1,1.363,1.421,1.34,1.34,0,0,1-.457.988,1.574,1.574,0,0,1-1.031.331c-.044,0-.093,0-.135,0a1.321,1.321,0,0,1-.945-.438,1.429,1.429,0,0,1-.317-1.026,1.305,1.305,0,0,1,.447-.962m-.575,4.127.4.024c.142.008.276.01.408.01,2.166,0,3.41-1.041,3.516-2.966a2.728,2.728,0,0,0-2.622-3.168c-.063,0-.123,0-.18,0a2.56,2.56,0,0,0-2.625,2.562,2.286,2.286,0,0,0,.632,1.834c-1.45-.175-2.156-.755-2.107-1.73a1.1,1.1,0,0,1,.985-1.182l.093-.016.089-1.591-.132.01a2.56,2.56,0,0,0-2.389,2.719c-.115,2.077,1.315,3.348,3.93,3.5" transform="translate(-23.008 -233.293)" fill="#453d66"/>
    <path id="Path_463" data-name="Path 463" d="M107.653,410.124l.312-.019-.361-5.694-1.411.089.224,3.586-6.631-2.047-.159-.046.106,1.665.005.079,7.9,2.38Z" transform="translate(-23.051 -260.058)" fill="#453d66"/>
    <path id="Path_464" data-name="Path 464" d="M111.677,439.25l-.005-.036-1.613-1.593-.043-.043-1.538.271,1.4,1.433-6.182,1.082.293,1.675,7.936-1.392Z" transform="translate(-26.212 -285.849)" fill="#453d66"/>
    <path id="Path_465" data-name="Path 465" d="M125.76,496.738l.43.966c.406.908.284,1.586-.608,1.986l-.05.021a1.33,1.33,0,0,1-1.92-.853l-.431-.966Zm.606,4.805.046-.021c1.781-.8,2.166-2.368,1.252-4.419l-1.3-2.911-8.431,3.764.848,1.9,3.066-1.372.479,1.072c.862,1.923,2.262,2.781,4.042,1.985" transform="translate(-37.286 -329.872)" fill="#453d66"/>
    <path id="Path_466" data-name="Path 466" d="M145.156,534.613l-3.374,2.078a1.346,1.346,0,0,1-2-.42c-.42-.683-.24-1.231.539-1.711l3.487-2.148-.976-1.582-3.7,2.281c-1.507.927-1.654,2.17-.964,3.291a2.234,2.234,0,0,0,2.146,1.192l-.9.556.973,1.583,5.749-3.538Z" transform="translate(-52.709 -358.361)" fill="#453d66"/>
    <path id="Path_467" data-name="Path 467" d="M162,560.379l-.079.063c-1.022.834-1.921.834-2.574.034s-.541-1.709.509-2.564l.081-.065c1.051-.856,2.007-.769,2.625-.008.6.733.5,1.675-.562,2.54m1.209,1.462c1.731-1.41,1.865-3.182.82-4.465a2.509,2.509,0,0,0-2.3-.908l3.194-2.6-1.182-1.451-7.6,6.2,1.183,1.452.827-.678a2.305,2.305,0,0,0,.421,2.437c1.06,1.3,2.829,1.488,4.562.079Z" transform="translate(-66.998 -375.149)" fill="#453d66"/>
    <rect id="Rectangle_23" data-name="Rectangle 23" width="9.811" height="1.86" transform="translate(94.995 190.274) rotate(-44.816)" fill="#453d66"/>
    <path id="Path_468" data-name="Path 468" d="M220.3,592.973a1.065,1.065,0,1,0,1.468-.058,1.016,1.016,0,0,0-1.468.058" transform="translate(-116.684 -406.418)" fill="#453d66"/>
    <path id="Path_469" data-name="Path 469" d="M200.194,601.1l-4.489,5.045,1.389,1.238,4.49-5.047Z" transform="translate(-97.763 -413.001)" fill="#453d66"/>
    <path id="Path_470" data-name="Path 470" d="M219.622,617.019a3.353,3.353,0,0,0-4.888.767l-.062.084a3.241,3.241,0,0,0,.766,4.823c1.581,1.161,3.177.955,4.208-.274l-1.363-1a1.372,1.372,0,0,1-1.939.2c-.841-.622-.918-1.541-.115-2.634l.06-.084c.764-1.039,1.711-1.242,2.494-.665a1.239,1.239,0,0,1,.421,1.733l1.425,1.046c1.014-1.658.254-3.065-1.007-3.992" transform="translate(-111.926 -424.815)" fill="#453d66"/>
    <rect id="Rectangle_24" data-name="Rectangle 24" width="9.232" height="2.105" transform="translate(110.859 202.402) rotate(-62.109)" fill="#453d66"/>
    <path id="Path_471" data-name="Path 471" d="M278.884,648.5a2.344,2.344,0,0,0-2.5.306l.406-.988-1.733-.707-2.548,6.249,1.735.706,1.468-3.608a1.342,1.342,0,0,1,1.867-.844c.764.312.933.853.586,1.706l-1.521,3.728,1.735.706,1.622-3.98c.683-1.673.113-2.771-1.118-3.273" transform="translate(-157.487 -448.78)" fill="#453d66"/>
    <path id="Path_472" data-name="Path 472" d="M318.936,660.476l-2.807,4.245-.3-5.085-1.933-.524.62,7.165,2.028.548,4.136-5.877Z" transform="translate(-189.671 -458.114)" fill="#453d66"/>
    <path id="Path_473" data-name="Path 473" d="M345.3,671.6a1.551,1.551,0,0,1,1.754-1.269,1.38,1.38,0,0,1,1.235,1.711Zm1.94-2.545a3.352,3.352,0,0,0-3.948,2.968l-.014.1a3.273,3.273,0,0,0,2.987,3.91c1.826.269,3.093-.367,3.525-1.778L348.039,674c-.2.544-.673.853-1.528.728a1.617,1.617,0,0,1-1.4-2l4.814.709.077-.51a3.114,3.114,0,0,0-2.757-3.877" transform="translate(-212.481 -465.811)" fill="#453d66"/>
    <path id="Path_474" data-name="Path 474" d="M382.149,674.618c-.978-.169-1.3-.348-1.283-.774.012-.409.366-.685.973-.669.646.022.95.286,1.036.842l1.716.053c-.123-1.555-1.231-2.129-2.728-2.172-1.382-.039-2.69.622-2.733,2.028-.034,1.317.646,1.855,2.432,2.175.966.171,1.362.372,1.348.837s-.358.728-1.079.707c-.815-.024-1.1-.38-1.163-.99l-1.74-.05c.022,1.462,1.057,2.292,2.879,2.343,1.781.051,2.862-.682,2.9-2.141.04-1.444-.877-1.9-2.56-2.19" transform="translate(-240.237 -468.055)" fill="#453d66"/>
    <path id="Path_475" data-name="Path 475" d="M412.29,672.17c-.476.032-.764-.207-.8-.748l-.217-3.249,1.414-.094-.087-1.326-1.418.094-.1-1.456-1.856.125.1,1.452-.863.06.089,1.326.863-.057.229,3.417a1.928,1.928,0,0,0,2.322,1.978,3.386,3.386,0,0,0,1.122-.257l-.1-1.442a1.744,1.744,0,0,1-.7.177" transform="translate(-263.204 -462.997)" fill="#453d66"/>
    <path id="Path_476" data-name="Path 476" d="M440.931,663.333a2.687,2.687,0,0,0-1.985,1.617,1.855,1.855,0,0,0-2.086-.764,2.28,2.28,0,0,0-1.778,1.586l-.214-1.01-1.831.382,1.382,6.612,1.836-.385-.82-3.9a1.259,1.259,0,0,1,.993-1.622c.644-.132,1.115.164,1.293,1.01l.844,4.033,1.822-.38-.82-3.908a1.256,1.256,0,0,1,.995-1.618c.659-.139,1.116.163,1.295,1.01l.841,4.03,1.826-.378-.891-4.235c-.367-1.757-1.474-2.329-2.7-2.074" transform="translate(-282.313 -461.351)" fill="#453d66"/>
    <path id="Path_477" data-name="Path 477" d="M490.244,654.084a1.381,1.381,0,0,1,1.918.882l-2.822,1.082a1.546,1.546,0,0,1,.9-1.964m2.661,2.713c.094.572-.171,1.072-.978,1.384a1.615,1.615,0,0,1-2.2-1.053l4.545-1.74-.187-.481a3.115,3.115,0,0,0-4.305-2.031A3.358,3.358,0,0,0,487.8,657.4l.036.1a3.279,3.279,0,0,0,4.525,1.944c1.723-.663,2.517-1.836,2.2-3.278Z" transform="translate(-324.685 -453.057)" fill="#453d66"/>
    <path id="Path_478" data-name="Path 478" d="M520.242,636.413a2.337,2.337,0,0,0-1.353,2.118l-.507-.944-1.651.889,3.2,5.949,1.647-.89-1.846-3.432a1.336,1.336,0,0,1,.539-1.974c.726-.394,1.252-.177,1.687.63l1.91,3.549,1.647-.885-2.036-3.788c-.856-1.593-2.067-1.851-3.237-1.221" transform="translate(-347.393 -440.216)" fill="#453d66"/>
    <path id="Path_479" data-name="Path 479" d="M551.318,623.53a.692.692,0,0,1-1.07-.238l-1.833-2.687,1.171-.8-.748-1.094-1.175.8-.82-1.206-1.536,1.05.822,1.2-.714.486.75,1.1.714-.488,1.93,2.826a1.927,1.927,0,0,0,3,.531,3.441,3.441,0,0,0,.834-.791l-.813-1.2a1.758,1.758,0,0,1-.516.509" transform="translate(-369.614 -426.378)" fill="#453d66"/>
    <path id="Path_480" data-name="Path 480" d="M577.1,586.142l-1.072-1.154-2.221,2.064-1.663-1.786,2.809-2.608-1.117-1.2L569.5,585.49l6.282,6.759,1.531-1.427-2.433-2.617Z" transform="translate(-388.424 -397.729)" fill="#453d66"/>
    <path id="Path_481" data-name="Path 481" d="M602.344,566.264l3.033,2.554a1.344,1.344,0,0,1,.23,2.033c-.516.615-1.093.616-1.795.026l-3.132-2.634-1.2,1.42,3.329,2.8c1.353,1.141,2.579.887,3.427-.12a2.24,2.24,0,0,0,.464-2.414l.808.681,1.2-1.421-5.17-4.35Z" transform="translate(-411.741 -384.81)" fill="#453d66"/>
    <path id="Path_482" data-name="Path 482" d="M624.214,539.3a2.336,2.336,0,0,0-.147,2.512l-.9-.579-1.007,1.577,5.691,3.634,1.009-1.579-3.286-2.1a1.335,1.335,0,0,1-.495-1.985c.445-.7,1.01-.764,1.783-.272l3.394,2.17,1.007-1.577-3.622-2.317c-1.526-.969-2.708-.608-3.422.514" transform="translate(-429.372 -364.112)" fill="#453d66"/>
    <path id="Path_483" data-name="Path 483" d="M643.192,500.252l.1.044c1.24.577,1.55,1.473,1.137,2.362-.391.842-1.259,1.151-2.476.589l-.093-.044c-1.216-.565-1.618-1.389-1.18-2.338.428-.923,1.3-1.175,2.516-.613m-5.794-2.625,3.687,1.707a2.245,2.245,0,0,0-1.947,1.444c-.711,1.534-.063,3.24,1.95,4.175l.094.045c2.034.942,3.644.264,4.335-1.221a2.465,2.465,0,0,0-.238-2.5l1.018.474.783-1.687-8.9-4.122Z" transform="translate(-441.224 -331.231)" fill="#453d66"/>
  </g>
</svg>
