<svg xmlns="http://www.w3.org/2000/svg" width="105.682" height="167.029" viewBox="0 0 105.682 167.029">
  <g id="Group_242" data-name="Group 242" transform="translate(-201 -787)">
    <g id="Group_235" data-name="Group 235" transform="translate(201 787)">
      <g id="Group_233" data-name="Group 233" transform="translate(0 114.972)">
        <g id="Group_230" data-name="Group 230" transform="translate(0.013)">
          <g id="Group_229" data-name="Group 229">
            <g id="Group_227" data-name="Group 227" transform="translate(58.191 1.055)">
              <rect id="Rectangle_17" data-name="Rectangle 17" width="3.131" height="17.99" fill="#453d66"/>
              <path id="Path_352" data-name="Path 352" d="M411.986,217.776v-2.429h8.184l-.068-.3a15.3,15.3,0,0,0-1.239-3.689,8.672,8.672,0,0,0-1.88-2.456,9.5,9.5,0,0,0-2.562-1.619l1.184-2.954a11.333,11.333,0,0,1,4.833,3.789,18.106,18.106,0,0,1,2.832,7.032l.04.2h25.837v-.356l-.081-.1a6.235,6.235,0,0,1-1.385-3.323,4.788,4.788,0,0,0-1.046-2.422,2.851,2.851,0,0,0-2.117-.733,6.119,6.119,0,0,0-1.671.224,7.867,7.867,0,0,0-1.435.591l-.9-2.212a10.552,10.552,0,0,1,4.77-1.033,5.673,5.673,0,0,1,3.635,1.039,5.459,5.459,0,0,1,1.695,3.448c.418,2.409.972,3.958,1.694,4.726v2.576Z" transform="translate(-404.836 -199.787)" fill="#453d66"/>
              <path id="Path_353" data-name="Path 353" d="M449.9,226.4a1.315,1.315,0,0,1-1.02-.391,1.54,1.54,0,0,1-.374-1.108,1.572,1.572,0,0,1,.369-1.122,1.314,1.314,0,0,1,1.025-.391,1.282,1.282,0,0,1,.991.386,1.6,1.6,0,0,1,.367,1.126,1.528,1.528,0,0,1-.38,1.107,1.275,1.275,0,0,1-.979.392" transform="translate(-409.715 -202.333)" fill="#453d66"/>
            </g>
            <g id="Group_228" data-name="Group 228">
              <path id="Path_354" data-name="Path 354" d="M342.436,214.557c0,3.194-1.422,5.566-4.019,7.837l-1.847-2.446c1.673-1.522,2.721-3.095,2.721-5.241v-15.6h3.146Z" transform="translate(-336.57 -198.033)" fill="#453d66"/>
              <path id="Path_355" data-name="Path 355" d="M355.1,211.612H352.05c-1.672,0-2.446.649-2.446,1.821,0,1.274.9,1.9,2.147,1.9a6.087,6.087,0,0,0,3.344-1.173Zm0-2.171v-1.023c0-1.248-.75-2.1-2.971-2.1a18.507,18.507,0,0,0-4.467.624v-2.6a28.236,28.236,0,0,1,5.192-.573c3.318,0,5.316,1.621,5.316,4.841V217.7h-2.622l-.225-1.523h-.1a7.743,7.743,0,0,1-4.467,1.7,3.945,3.945,0,0,1-4.243-4.219c0-2.62,1.9-4.218,5.092-4.218Z" transform="translate(-337.898 -198.657)" fill="#453d66"/>
              <path id="Path_356" data-name="Path 356" d="M369.077,214.566a7.261,7.261,0,0,0,3.344-1.073V205.78a11.967,11.967,0,0,0-2.2-.224c-2.822,0-4.069,1.4-4.069,4.742,0,3,1.147,4.268,2.92,4.268m.824-11.581a15.044,15.044,0,0,1,2.546.25v-5.367h3.045v19.044H373c-.1-.173-.2-.847-.3-1.024a8.433,8.433,0,0,1-4.342,1.274c-2.8,0-5.342-1.723-5.342-6.715,0-5.691,3.046-7.463,6.89-7.463" transform="translate(-340.102 -197.868)" fill="#453d66"/>
              <path id="Path_357" data-name="Path 357" d="M388.879,211.612h-3.045c-1.672,0-2.446.649-2.446,1.821,0,1.274.9,1.9,2.147,1.9a6.087,6.087,0,0,0,3.344-1.173Zm0-2.171v-1.023c0-1.248-.749-2.1-2.97-2.1a18.509,18.509,0,0,0-4.468.624v-2.6a28.235,28.235,0,0,1,5.191-.573c3.32,0,5.317,1.621,5.317,4.841V217.7h-2.621l-.224-1.523H389a7.746,7.746,0,0,1-4.468,1.7,3.946,3.946,0,0,1-4.244-4.219c0-2.62,1.9-4.218,5.093-4.218Z" transform="translate(-342.411 -198.657)" fill="#453d66"/>
            </g>
          </g>
        </g>
        <g id="Group_231" data-name="Group 231" transform="translate(0.013 30.178)">
          <path id="Path_358" data-name="Path 358" d="M341.4,234.626a.393.393,0,0,1-.3-.114.443.443,0,0,1-.11-.323.455.455,0,0,1,.108-.324.4.4,0,0,1,.3-.113.383.383,0,0,1,.3.119.525.525,0,0,1,0,.637.383.383,0,0,1-.3.12m-1.26,0a.428.428,0,0,1-.29-.1.438.438,0,0,1,.29-.772.4.4,0,0,1,.3.111.538.538,0,0,1,0,.65.388.388,0,0,1-.3.114m1.1,3.66v-2.4h-.315a1.409,1.409,0,0,0-1.009.341,1.254,1.254,0,0,0-.361.957,1.191,1.191,0,0,0,.248.835.976.976,0,0,0,.749.265Zm1.42,0c.023,0,.036.009.036.029v.505a.031.031,0,0,1-.036.035h-.8v.043q0,1.709-1.844,1.709H338.3a1.686,1.686,0,0,1-1.263-.473,1.762,1.762,0,0,1-.463-1.286,4.842,4.842,0,0,1,.3-1.72h.606a5.025,5.025,0,0,0-.249,1.677,1.245,1.245,0,0,0,.315.911,1.187,1.187,0,0,0,.888.321H339.9a1.544,1.544,0,0,0,1.026-.276,1.078,1.078,0,0,0,.316-.856v-.05h-.673a1.492,1.492,0,0,1-1.659-1.663,1.772,1.772,0,0,1,.545-1.368,2.052,2.052,0,0,1,1.452-.5h.954v2.966Z" transform="translate(-336.57 -232.84)" fill="#453d66"/>
          <path id="Path_359" data-name="Path 359" d="M344.833,238.985q.039,0,.039.029v.505c0,.024-.013.035-.039.035h-1.317a.032.032,0,0,1-.036-.035v-.505c0-.019.013-.029.036-.029Z" transform="translate(-337.493 -233.539)" fill="#453d66"/>
          <path id="Path_360" data-name="Path 360" d="M346.271,238.985q.039,0,.039.029v.505c0,.024-.013.035-.039.035h-1.317a.032.032,0,0,1-.036-.035v-.505c0-.019.013-.029.036-.029Z" transform="translate(-337.685 -233.539)" fill="#453d66"/>
          <path id="Path_361" data-name="Path 361" d="M347.709,238.985c.026,0,.039.009.039.029v.505c0,.024-.013.035-.039.035h-1.316c-.024,0-.036-.011-.036-.035v-.505q0-.029.036-.029Z" transform="translate(-337.878 -233.539)" fill="#453d66"/>
          <path id="Path_362" data-name="Path 362" d="M349.147,238.985c.026,0,.04.009.04.029v.505c0,.024-.014.035-.04.035h-1.316c-.024,0-.036-.011-.036-.035v-.505q0-.029.036-.029Z" transform="translate(-338.07 -233.539)" fill="#453d66"/>
          <path id="Path_363" data-name="Path 363" d="M351,240.557a.4.4,0,0,1-.3-.114.448.448,0,0,1-.11-.324.456.456,0,0,1,.108-.325.4.4,0,0,1,.3-.113.382.382,0,0,1,.3.12.529.529,0,0,1,0,.637.382.382,0,0,1-.3.12m-1.26,0a.43.43,0,0,1-.29-.1.526.526,0,0,1,0-.67.43.43,0,0,1,.29-.1.4.4,0,0,1,.3.113.446.446,0,0,1,.11.326.455.455,0,0,1-.108.324.4.4,0,0,1-.3.114m-.474-1.46a.031.031,0,0,1-.035-.035v-.505c0-.019.011-.029.035-.029h1.4v-2.966h.648V239.1Z" transform="translate(-338.262 -233.082)" fill="#453d66"/>
          <path id="Path_364" data-name="Path 364" d="M352.84,238.459h2.428a4.588,4.588,0,0,0-.544-1.668,3.7,3.7,0,0,0-1.146-1.191l.234-.551a3.461,3.461,0,0,1,1.37,1.3,5.559,5.559,0,0,1,.714,2.124v.555H352.84Z" transform="translate(-338.744 -233.013)" fill="#453d66"/>
          <path id="Path_365" data-name="Path 365" d="M357.586,233.249h.647v4.97h.962q.039,0,.039.029v.505c0,.023-.013.036-.039.036h-1.609Z" transform="translate(-339.378 -232.772)" fill="#453d66"/>
          <path id="Path_366" data-name="Path 366" d="M360.672,238.985c.026,0,.04.009.04.029v.505c0,.024-.014.035-.04.035h-1.316c-.024,0-.036-.011-.036-.035v-.505q0-.029.036-.029Z" transform="translate(-339.609 -233.539)" fill="#453d66"/>
          <path id="Path_367" data-name="Path 367" d="M362.11,238.985c.026,0,.04.009.04.029v.505c0,.024-.014.035-.04.035h-1.316c-.024,0-.036-.011-.036-.035v-.505q0-.029.036-.029Z" transform="translate(-339.801 -233.539)" fill="#453d66"/>
          <path id="Path_368" data-name="Path 368" d="M363.548,238.985c.027,0,.04.009.04.029v.505c0,.024-.013.035-.04.035h-1.316c-.024,0-.036-.011-.036-.035v-.505q0-.029.036-.029Z" transform="translate(-339.994 -233.539)" fill="#453d66"/>
          <path id="Path_369" data-name="Path 369" d="M364.986,238.985c.027,0,.04.009.04.029v.505c0,.024-.013.035-.04.035H363.67c-.024,0-.036-.011-.036-.035v-.505q0-.029.036-.029Z" transform="translate(-340.186 -233.539)" fill="#453d66"/>
          <path id="Path_370" data-name="Path 370" d="M366.424,238.985c.027,0,.04.009.04.029v.505c0,.024-.013.035-.04.035h-1.316c-.024,0-.036-.011-.036-.035v-.505q0-.029.036-.029Z" transform="translate(-340.378 -233.539)" fill="#453d66"/>
          <path id="Path_371" data-name="Path 371" d="M367.806,234.626a.4.4,0,0,1-.3-.113.444.444,0,0,1-.111-.324.452.452,0,0,1,.108-.324.4.4,0,0,1,.3-.114.383.383,0,0,1,.3.12.529.529,0,0,1,0,.637.384.384,0,0,1-.3.12m-1.261,4.229a.031.031,0,0,1-.036-.036v-.505c0-.019.012-.029.036-.029h.962V235.32h.647v2.966h.95q.036,0,.036.029v.505c0,.024-.012.036-.036.036Z" transform="translate(-340.57 -232.839)" fill="#453d66"/>
          <path id="Path_372" data-name="Path 372" d="M370.73,238.985c.027,0,.04.009.04.029v.505c0,.024-.013.035-.04.035h-1.316c-.024,0-.036-.011-.036-.035v-.505q0-.029.036-.029Z" transform="translate(-340.953 -233.539)" fill="#453d66"/>
          <path id="Path_373" data-name="Path 373" d="M372.168,238.985c.027,0,.04.009.04.029v.505c0,.024-.013.035-.04.035h-1.316c-.024,0-.036-.011-.036-.035v-.505q0-.029.036-.029Z" transform="translate(-341.145 -233.539)" fill="#453d66"/>
          <path id="Path_374" data-name="Path 374" d="M373.606,238.985c.027,0,.04.009.04.029v.505c0,.024-.013.035-.04.035H372.29c-.024,0-.036-.011-.036-.035v-.505q0-.029.036-.029Z" transform="translate(-341.337 -233.539)" fill="#453d66"/>
          <path id="Path_375" data-name="Path 375" d="M378.306,238.516V237.36a1.422,1.422,0,0,0-.295-.99,1.152,1.152,0,0,0-.888-.316q-1.122,0-1.887,1.865v.6Zm-4.578.569c-.024,0-.036-.011-.036-.036v-.505q0-.029.036-.029h.889v-2.749h.62v1.35a3.032,3.032,0,0,1,.858-1.228,1.813,1.813,0,0,1,1.161-.413,1.63,1.63,0,0,1,1.248.449,1.989,1.989,0,0,1,.423,1.4v1.19h.961c.025,0,.039.01.039.029v.505c0,.024-.014.036-.039.036Z" transform="translate(-341.529 -233.07)" fill="#453d66"/>
          <path id="Path_376" data-name="Path 376" d="M382.07,238.985c.026,0,.04.009.04.029v.505c0,.024-.014.035-.04.035h-1.316c-.024,0-.036-.011-.036-.035v-.505c0-.019.012-.029.036-.029Z" transform="translate(-342.468 -233.539)" fill="#453d66"/>
          <path id="Path_377" data-name="Path 377" d="M383.509,238.985c.027,0,.04.009.04.029v.505c0,.024-.013.035-.04.035h-1.316c-.024,0-.036-.011-.036-.035v-.505c0-.019.012-.029.036-.029Z" transform="translate(-342.66 -233.539)" fill="#453d66"/>
          <path id="Path_378" data-name="Path 378" d="M384.947,238.985c.027,0,.04.009.04.029v.505c0,.024-.013.035-.04.035H383.63c-.024,0-.036-.011-.036-.035v-.505c0-.019.012-.029.036-.029Z" transform="translate(-342.852 -233.539)" fill="#453d66"/>
          <path id="Path_379" data-name="Path 379" d="M385.068,238.788c-.024,0-.036-.011-.036-.036v-.505q0-.029.036-.029h.96v-4.97h.648v5.539Z" transform="translate(-343.044 -232.772)" fill="#453d66"/>
          <rect id="Rectangle_18" data-name="Rectangle 18" width="0.648" height="5.54" transform="translate(45.091 0.476)" fill="#453d66"/>
          <path id="Path_380" data-name="Path 380" d="M397.3,234.626a.394.394,0,0,1-.3-.114.443.443,0,0,1-.11-.323.448.448,0,0,1,.108-.324.394.394,0,0,1,.3-.113.384.384,0,0,1,.3.119.529.529,0,0,1,0,.637.385.385,0,0,1-.3.12m-1.261,0a.431.431,0,0,1-.29-.1.529.529,0,0,1,0-.67.431.431,0,0,1,.29-.1.394.394,0,0,1,.294.112.442.442,0,0,1,.112.326.45.45,0,0,1-.109.323.388.388,0,0,1-.3.114m1.232,3.66v-2.4h-.314a1.411,1.411,0,0,0-1.009.341,1.254,1.254,0,0,0-.361.957,1.191,1.191,0,0,0,.248.835.976.976,0,0,0,.749.265Zm-2.948,2.321a1.683,1.683,0,0,1-1.263-.474,1.754,1.754,0,0,1-.463-1.285,4.845,4.845,0,0,1,.3-1.72h.606a5,5,0,0,0-.249,1.677,1.245,1.245,0,0,0,.314.911,1.184,1.184,0,0,0,.888.321h1.475a1.544,1.544,0,0,0,1.027-.276,1.081,1.081,0,0,0,.315-.856v-.05H396.6a1.493,1.493,0,0,1-1.659-1.663,1.776,1.776,0,0,1,.544-1.368,2.057,2.057,0,0,1,1.453-.5h.955V238.9q0,1.709-1.845,1.709Z" transform="translate(-344.056 -232.84)" fill="#453d66"/>
          <path id="Path_381" data-name="Path 381" d="M402.35,238.528v-2.4h-.314a1.413,1.413,0,0,0-1.009.341,1.257,1.257,0,0,0-.36.957,1.2,1.2,0,0,0,.247.835.979.979,0,0,0,.749.265Zm-1.064,2.321a2.335,2.335,0,0,1-1.313-.374l.291-.488a3.252,3.252,0,0,0,.484.208,1.714,1.714,0,0,0,.552.085,1.091,1.091,0,0,0,.776-.265.928.928,0,0,0,.281-.707V239.1h-.715a1.62,1.62,0,0,1-1.2-.427,1.674,1.674,0,0,1-.425-1.235,1.778,1.778,0,0,1,.544-1.365,2.055,2.055,0,0,1,1.456-.508h.954v3.71a1.526,1.526,0,0,1-.439,1.161,1.745,1.745,0,0,1-1.244.416" transform="translate(-345.041 -233.082)" fill="#453d66"/>
          <path id="Path_382" data-name="Path 382" d="M404.525,238.459h2.428a4.623,4.623,0,0,0-.544-1.668,3.7,3.7,0,0,0-1.146-1.191l.234-.551a3.514,3.514,0,0,1,1.369,1.307,5.446,5.446,0,0,1,.706,2.1h.813c.023,0,.036.01.036.029v.505a.031.031,0,0,1-.036.035h-3.859Z" transform="translate(-345.649 -233.013)" fill="#453d66"/>
          <path id="Path_383" data-name="Path 383" d="M410.2,238.985q.039,0,.039.029v.505c0,.024-.013.035-.039.035h-1.317c-.024,0-.036-.011-.036-.035v-.505q0-.029.036-.029Z" transform="translate(-346.227 -233.539)" fill="#453d66"/>
          <path id="Path_384" data-name="Path 384" d="M411.642,238.985c.026,0,.039.009.039.029v.505c0,.024-.013.035-.039.035h-1.317a.032.032,0,0,1-.036-.035v-.505c0-.019.013-.029.036-.029Z" transform="translate(-346.419 -233.539)" fill="#453d66"/>
          <path id="Path_385" data-name="Path 385" d="M413.08,238.985q.039,0,.039.029v.505c0,.024-.013.035-.039.035h-1.317a.032.032,0,0,1-.036-.035v-.505c0-.019.013-.029.036-.029Z" transform="translate(-346.611 -233.539)" fill="#453d66"/>
          <path id="Path_386" data-name="Path 386" d="M414.461,234.626a.4.4,0,0,1-.3-.113.535.535,0,0,1,0-.648.4.4,0,0,1,.3-.114.383.383,0,0,1,.3.12.526.526,0,0,1,0,.637.383.383,0,0,1-.3.12m-1.26,4.229a.031.031,0,0,1-.036-.036v-.505c0-.019.011-.029.036-.029h.961V235.32h.648v2.966h.95c.024,0,.036.01.036.029v.505a.031.031,0,0,1-.036.036Z" transform="translate(-346.803 -232.839)" fill="#453d66"/>
          <path id="Path_387" data-name="Path 387" d="M417.386,238.985q.039,0,.039.029v.505c0,.024-.013.035-.039.035h-1.317a.032.032,0,0,1-.036-.035v-.505c0-.019.013-.029.036-.029Z" transform="translate(-347.186 -233.539)" fill="#453d66"/>
          <path id="Path_388" data-name="Path 388" d="M418.824,238.985c.026,0,.039.009.039.029v.505c0,.024-.013.035-.039.035h-1.317a.032.032,0,0,1-.036-.035v-.505c0-.019.013-.029.036-.029Z" transform="translate(-347.378 -233.539)" fill="#453d66"/>
          <path id="Path_389" data-name="Path 389" d="M420.262,238.985c.026,0,.039.009.039.029v.505c0,.024-.013.035-.039.035h-1.317a.031.031,0,0,1-.036-.035v-.505c0-.019.012-.029.036-.029Z" transform="translate(-347.57 -233.539)" fill="#453d66"/>
          <path id="Path_390" data-name="Path 390" d="M424.962,238.516V237.36a1.423,1.423,0,0,0-.294-.99,1.155,1.155,0,0,0-.889-.316q-1.12,0-1.886,1.865v.6Zm-4.578.569a.031.031,0,0,1-.036-.036v-.505c0-.019.011-.029.036-.029h.89v-2.749h.619v1.35a3.032,3.032,0,0,1,.858-1.228,1.81,1.81,0,0,1,1.161-.413,1.63,1.63,0,0,1,1.248.449,1.988,1.988,0,0,1,.422,1.4v1.759Z" transform="translate(-347.763 -233.07)" fill="#453d66"/>
          <path id="Path_391" data-name="Path 391" d="M432.151,234.121a.4.4,0,0,1-.3-.114.445.445,0,0,1-.111-.324.455.455,0,0,1,.108-.324.4.4,0,0,1,.3-.114.387.387,0,0,1,.3.119.53.53,0,0,1,0,.638.385.385,0,0,1-.3.12m-1.261,0a.43.43,0,0,1-.29-.1.529.529,0,0,1,0-.67.426.426,0,0,1,.29-.1.4.4,0,0,1,.3.112.447.447,0,0,1,.11.326.452.452,0,0,1-.108.324.391.391,0,0,1-.3.114m1,4.1v-2.4h-.458a1.425,1.425,0,0,0-1.014.335,1.234,1.234,0,0,0-.357.943,1.084,1.084,0,0,0,.309.833,1.242,1.242,0,0,0,.879.289Zm-.626.569a1.958,1.958,0,0,1-1.364-.443,1.591,1.591,0,0,1-.487-1.241,1.743,1.743,0,0,1,.542-1.356,2.072,2.072,0,0,1,1.456-.5h.48v-.459h.624v3.425h.829c.023,0,.036.01.036.029v.505a.031.031,0,0,1-.036.036Z" transform="translate(-348.974 -232.772)" fill="#453d66"/>
          <path id="Path_392" data-name="Path 392" d="M435.182,238.985q.039,0,.039.029v.505c0,.024-.013.035-.039.035h-1.318a.032.032,0,0,1-.036-.035v-.505c0-.019.013-.029.036-.029Z" transform="translate(-349.564 -233.539)" fill="#453d66"/>
          <path id="Path_393" data-name="Path 393" d="M436.62,238.985c.026,0,.039.009.039.029v.505c0,.024-.013.035-.039.035H435.3a.032.032,0,0,1-.036-.035v-.505c0-.019.013-.029.036-.029Z" transform="translate(-349.756 -233.539)" fill="#453d66"/>
          <path id="Path_394" data-name="Path 394" d="M438.058,238.985q.039,0,.039.029v.505c0,.024-.013.035-.039.035h-1.317a.032.032,0,0,1-.036-.035v-.505c0-.019.013-.029.036-.029Z" transform="translate(-349.948 -233.539)" fill="#453d66"/>
          <path id="Path_395" data-name="Path 395" d="M438.18,238.727a.031.031,0,0,1-.036-.035v-.505c0-.019.011-.029.036-.029h3.069v-1.343a.955.955,0,0,0-.328-.8,1.642,1.642,0,0,0-1.015-.256h-1.24v-.6a4.37,4.37,0,0,1,.649-.966,5.531,5.531,0,0,1,.924-.847,4.29,4.29,0,0,1,.995-.557l.231.555a4.807,4.807,0,0,0-1.31.8,3.255,3.255,0,0,0-.882,1.045h.633a2.34,2.34,0,0,1,1.457.392,1.339,1.339,0,0,1,.5,1.125v2.019Z" transform="translate(-350.14 -232.712)" fill="#453d66"/>
          <path id="Path_396" data-name="Path 396" d="M444.781,239.1v.174a1.819,1.819,0,0,1-.334,1.158,1.163,1.163,0,0,1-.965.42,1.614,1.614,0,0,1-.744-.206l.189-.488a1.514,1.514,0,0,0,.292.1,1.306,1.306,0,0,0,.249.023.589.589,0,0,0,.513-.267,1.208,1.208,0,0,0,.185-.7v-3.745h.616v2.966h.9c.025,0,.038.009.038.029v.505c0,.024-.013.035-.038.035Z" transform="translate(-350.754 -233.082)" fill="#453d66"/>
          <path id="Path_397" data-name="Path 397" d="M447.364,238.985c.027,0,.04.009.04.029v.505c0,.024-.013.035-.04.035h-1.316c-.024,0-.036-.011-.036-.035v-.505q0-.029.036-.029Z" transform="translate(-351.191 -233.539)" fill="#453d66"/>
          <path id="Path_398" data-name="Path 398" d="M448.8,238.985c.027,0,.04.009.04.029v.505c0,.024-.013.035-.04.035h-1.316c-.024,0-.036-.011-.036-.035v-.505q0-.029.036-.029Z" transform="translate(-351.383 -233.539)" fill="#453d66"/>
          <path id="Path_399" data-name="Path 399" d="M450.24,238.985c.027,0,.04.009.04.029v.505c0,.024-.013.035-.04.035h-1.316c-.024,0-.036-.011-.036-.035v-.505q0-.029.036-.029Z" transform="translate(-351.575 -233.539)" fill="#453d66"/>
          <path id="Path_400" data-name="Path 400" d="M451.678,238.985c.026,0,.04.009.04.029v.505c0,.024-.014.035-.04.035h-1.316c-.024,0-.036-.011-.036-.035v-.505c0-.019.012-.029.036-.029Z" transform="translate(-351.768 -233.539)" fill="#453d66"/>
          <path id="Path_401" data-name="Path 401" d="M455.925,234.486a.4.4,0,0,1-.3-.113.537.537,0,0,1,0-.648.4.4,0,0,1,.3-.114.382.382,0,0,1,.3.12.529.529,0,0,1,0,.637.382.382,0,0,1-.3.12m-.633-.983a.4.4,0,0,1-.271-.094.407.407,0,0,1,.536-.613.386.386,0,0,1,.112.3.381.381,0,0,1-.112.308.4.4,0,0,1-.265.094m-.626.983a.425.425,0,0,1-.29-.1.525.525,0,0,1,0-.669.426.426,0,0,1,.29-.1.385.385,0,0,1,.3.12.529.529,0,0,1,0,.637.385.385,0,0,1-.3.12m1.886,4.229a1.641,1.641,0,0,1-.6-.108,1.78,1.78,0,0,1-.572-.4,1.221,1.221,0,0,1-.427.367,1.332,1.332,0,0,1-.637.142H451.8a.031.031,0,0,1-.036-.035v-.505c0-.019.011-.029.036-.029h1.043v-2.4h.62v2.4h.786a.676.676,0,0,0,.548-.233.918.918,0,0,0,.2-.611v-1.555h.62V237.5l-.007.082a1.187,1.187,0,0,0,.4.439,1.08,1.08,0,0,0,.55.126H457V235.18h.62v3.535Z" transform="translate(-351.96 -232.699)" fill="#453d66"/>
        </g>
        <g id="Group_232" data-name="Group 232" transform="translate(0 42.897)">
          <path id="Path_402" data-name="Path 402" d="M340.808,247.973v.645h-3.533v2.571h3.141v.635h-3.141V254.7h-.72v-6.729Z" transform="translate(-336.555 -247.459)" fill="#453d66"/>
          <path id="Path_403" data-name="Path 403" d="M343.157,249.926v3.608a.829.829,0,0,0,.934.916,4.1,4.1,0,0,0,1.889-.683v-3.841h.691v5.037h-.58l-.066-.626a4.461,4.461,0,0,1-2.111.739,1.284,1.284,0,0,1-1.449-1.411v-3.738Z" transform="translate(-337.345 -247.72)" fill="#453d66"/>
          <path id="Path_404" data-name="Path 404" d="M352.557,254.946v-3.608a.818.818,0,0,0-.934-.906,4.229,4.229,0,0,0-1.889.683v3.831h-.691v-5.037h.654v.635a4.63,4.63,0,0,1,2.113-.747,1.279,1.279,0,0,1,1.438,1.42v3.729Z" transform="translate(-338.224 -247.703)" fill="#453d66"/>
          <path id="Path_405" data-name="Path 405" d="M357.322,254.135a3.3,3.3,0,0,0,1.673-.607v-3.28a6.07,6.07,0,0,0-1.243-.149c-1.215,0-1.767.663-1.767,2.1,0,1.411.552,1.934,1.337,1.934m.392-4.644a6.882,6.882,0,0,1,1.281.159v-2.141h.691v7.131h-.57s-.075-.514-.075-.522a3.547,3.547,0,0,1-1.888.626c-1,0-1.889-.617-1.889-2.514,0-2.084,1.093-2.738,2.449-2.738" transform="translate(-339.055 -247.397)" fill="#453d66"/>
          <path id="Path_406" data-name="Path 406" d="M367.038,254.451c1.187,0,1.738-.786,1.738-2.019s-.551-2.02-1.738-2.02c-1.206,0-1.757.8-1.757,2.02s.551,2.019,1.757,2.019m-.01-4.654a2.636,2.636,0,1,1-2.467,2.636,2.331,2.331,0,0,1,2.467-2.636" transform="translate(-340.297 -247.703)" fill="#453d66"/>
          <path id="Path_407" data-name="Path 407" d="M374.237,248.071a5.125,5.125,0,0,0-.888-.1c-.841,0-.935.459-.935,1.038v.579h1.552v.608h-1.552v4.43h-.691v-4.43H371.1v-.514l.626-.1v-.729c0-.917.383-1.468,1.5-1.468a5.1,5.1,0,0,1,1.019.1Z" transform="translate(-341.17 -247.38)" fill="#453d66"/>
          <path id="Path_408" data-name="Path 408" d="M382.347,247.973v.645h-3.533v2.571h3.141v.635h-3.141V254.7h-.72v-6.729Z" transform="translate(-342.105 -247.459)" fill="#453d66"/>
          <path id="Path_409" data-name="Path 409" d="M384.7,249.926v3.608a.829.829,0,0,0,.935.916,4.089,4.089,0,0,0,1.888-.683v-3.841h.691v5.037h-.58l-.066-.626a4.461,4.461,0,0,1-2.111.739,1.283,1.283,0,0,1-1.449-1.411v-3.738Z" transform="translate(-342.895 -247.72)" fill="#453d66"/>
          <path id="Path_410" data-name="Path 410" d="M394.1,254.946v-3.608a.819.819,0,0,0-.936-.906,4.232,4.232,0,0,0-1.888.683v3.831h-.691v-5.037h.654v.635a4.621,4.621,0,0,1,2.111-.747,1.279,1.279,0,0,1,1.439,1.42v3.729Z" transform="translate(-343.773 -247.703)" fill="#453d66"/>
          <path id="Path_411" data-name="Path 411" d="M398.862,254.135a3.3,3.3,0,0,0,1.672-.607v-3.28a6.069,6.069,0,0,0-1.243-.149c-1.215,0-1.767.663-1.767,2.1,0,1.411.552,1.934,1.338,1.934m.392-4.644a6.882,6.882,0,0,1,1.281.159v-2.141h.691v7.131h-.57s-.075-.514-.075-.522a3.544,3.544,0,0,1-1.888.626c-1,0-1.889-.617-1.889-2.514,0-2.084,1.094-2.738,2.449-2.738" transform="translate(-344.605 -247.397)" fill="#453d66"/>
          <path id="Path_412" data-name="Path 412" d="M406.214,253.507c0-.664-.495-.738-1.253-.841-.784-.112-1.654-.281-1.654-1.411,0-1.112.907-1.457,1.972-1.457a8.913,8.913,0,0,1,1.384.121v.635a9.073,9.073,0,0,0-1.318-.139c-.935,0-1.318.27-1.318.8,0,.655.5.738,1.234.832.794.1,1.673.252,1.673,1.43,0,.992-.617,1.579-1.907,1.579a16.959,16.959,0,0,1-1.7-.1V254.3a12.607,12.607,0,0,0,1.654.149c.8,0,1.234-.289,1.234-.944" transform="translate(-345.473 -247.703)" fill="#453d66"/>
          <path id="Path_413" data-name="Path 413" d="M414.361,247.844a7.424,7.424,0,0,1,1.711.215v.683a6.4,6.4,0,0,0-1.608-.253c-1.411,0-2.364.748-2.364,2.8,0,2.1,1.028,2.861,2.309,2.861a5.343,5.343,0,0,0,1.672-.281v.672a6.227,6.227,0,0,1-1.71.253c-2.084,0-3.019-1.346-3.019-3.486,0-2.112.973-3.467,3.01-3.467" transform="translate(-346.548 -247.442)" fill="#453d66"/>
          <path id="Path_414" data-name="Path 414" d="M420.18,254.451c1.187,0,1.739-.786,1.739-2.019s-.552-2.02-1.739-2.02c-1.205,0-1.757.8-1.757,2.02s.552,2.019,1.757,2.019m-.01-4.654a2.636,2.636,0,1,1-2.468,2.636,2.33,2.33,0,0,1,2.468-2.636" transform="translate(-347.397 -247.703)" fill="#453d66"/>
          <path id="Path_415" data-name="Path 415" d="M432.257,251.265v3.682h-.691V251.34c0-.57-.3-.9-.944-.9a3.653,3.653,0,0,0-1.767.682c.01.132.01.262.01.392v3.43h-.691V251.34a.812.812,0,0,0-.934-.9,3.415,3.415,0,0,0-1.758.673v3.831h-.691v-5.038h.655v.637a4.028,4.028,0,0,1,1.99-.739,1.288,1.288,0,0,1,1.327.8,3.884,3.884,0,0,1,2.065-.8,1.3,1.3,0,0,1,1.43,1.458" transform="translate(-348.343 -247.704)" fill="#453d66"/>
          <path id="Path_416" data-name="Path 416" d="M437.508,250.423a3.181,3.181,0,0,0-1.729.664v3.178a6.785,6.785,0,0,0,1.309.187c1.177,0,1.7-.776,1.7-2.1,0-1.355-.533-1.925-1.281-1.925m-2.421,6.44v-6.955h.691v.6a3.437,3.437,0,0,1,1.926-.71c.971,0,1.813.71,1.813,2.513,0,2-.963,2.729-2.383,2.729a6.2,6.2,0,0,1-1.356-.178v2Z" transform="translate(-349.719 -247.703)" fill="#453d66"/>
          <path id="Path_417" data-name="Path 417" d="M444.506,252.554H443c-.757,0-1.121.355-1.121.943,0,.617.42.916,1.047.916a2.758,2.758,0,0,0,1.58-.654Zm0-.515v-.607c0-.616-.346-1.028-1.234-1.028a7.156,7.156,0,0,0-1.673.233v-.617a9.066,9.066,0,0,1,1.823-.224,1.563,1.563,0,0,1,1.785,1.672v3.477h-.6l-.056-.654a3.315,3.315,0,0,1-1.823.7,1.4,1.4,0,0,1-1.56-1.458c0-1.009.72-1.5,1.767-1.5Z" transform="translate(-350.532 -247.703)" fill="#453d66"/>
          <path id="Path_418" data-name="Path 418" d="M451.013,254.946v-3.608a.819.819,0,0,0-.934-.906,4.226,4.226,0,0,0-1.888.683v3.831H447.5v-5.037h.655v.635a4.623,4.623,0,0,1,2.112-.747,1.279,1.279,0,0,1,1.439,1.42v3.729Z" transform="translate(-351.377 -247.703)" fill="#453d66"/>
          <path id="Path_419" data-name="Path 419" d="M455.49,254.963h-.364l-1.673-5.037h.757l1.384,4.3h.121l1.384-4.3h.757l-2.261,6.953h-.738Z" transform="translate(-352.173 -247.72)" fill="#453d66"/>
        </g>
      </g>
      <g id="Group_234" data-name="Group 234" transform="translate(0.013 0)">
        <path id="Path_420" data-name="Path 420" d="M425.313,138.109a4.991,4.991,0,0,0-.2-1.164,3,3,0,0,0-.338-.726c-.877-1.359-3.126-1.76-4.471-2a3.378,3.378,0,0,1-.993-.274,7.251,7.251,0,0,1-2.063-2.67l-2.94-5.144q-2.73-4.781-5.45-9.57c-1.438-2.535-2.787-3.056-5.025-3.919l-.121-.047c-1.424-.549-2.708-1.084-3.925-1.636a50.924,50.924,0,0,1-7.447-4.11c-.65-.437-1.309-.907-2.038-1.426a28.358,28.358,0,0,0-7.815-4.4,20.784,20.784,0,0,0-2.56-.629,13.531,13.531,0,0,0-3.418-.3,2.745,2.745,0,0,0-1.945.894,2.509,2.509,0,0,0-.559,1.885c.019.241.057.477.1.733a4.062,4.062,0,0,1,.079.681.846.846,0,0,1-.333.572,7.144,7.144,0,0,1-2.062.965c-.346.12-.67.235-.977.36-.211.087-.432.173-.664.264-2.2.864-5.885,2.312-4.939,6.339a4.815,4.815,0,0,0,.592,1.316l.867,1.462c2.783,4.7,5.66,9.552,8.474,14.413l9.146,19.339c.036.078.078.185.154.38.388.989.918,2.344,2.079,2.646a1.846,1.846,0,0,0,1.651-.417,3.658,3.658,0,0,0,.859-1.068c.2-.345.221-.373.451-.431a3.813,3.813,0,0,1,1.773.271,15.315,15.315,0,0,1,2.168.94,19.683,19.683,0,0,0,2.051.917c.381.138.8.319,1.242.512a11.126,11.126,0,0,0,3.732,1.131l.124,0a5.423,5.423,0,0,0,2.13-.556c7.093-3.025,14.056-5.895,19.931-8.3,3.188-1.307,2.94-4.18,2.739-6.488Zm-3.507,5.207c-5.852,2.4-12.8,5.26-20.043,8.35a3.109,3.109,0,0,1-1.231.345,9.782,9.782,0,0,1-2.941-.951c-.484-.211-.943-.409-1.37-.563a18.161,18.161,0,0,1-1.847-.832,16.766,16.766,0,0,0-2.465-1.056,7.081,7.081,0,0,0-2.1-.4,3.5,3.5,0,0,0-.851.1,2.707,2.707,0,0,0-1.807,1.449c-.061.1-.112.189-.157.263a9.052,9.052,0,0,1-.519-1.156c-.076-.192-.144-.36-.2-.479l-9.093-19.232c-.044-.1-.089-.187-.138-.27-2.807-4.85-5.7-9.727-8.508-14.468l-.844-1.424a2.94,2.94,0,0,1-.344-.7c-.477-2.034,1.046-2.792,3.61-3.8.238-.094.47-.185.693-.276.262-.107.546-.208.874-.323a8.541,8.541,0,0,0,2.741-1.352,3.009,3.009,0,0,0,1.114-2.232,6.378,6.378,0,0,0-.126-1.153c-.025-.156-.05-.3-.062-.452a.438.438,0,0,1,.04-.284.7.7,0,0,1,.439-.136,12.315,12.315,0,0,1,2.909.276,18.568,18.568,0,0,1,2.259.556,26.814,26.814,0,0,1,7.2,4.1c.68.486,1.384.987,2.08,1.456a53.223,53.223,0,0,0,7.766,4.29c1.254.567,2.576,1.118,4.042,1.683l.12.047c2.194.845,2.856,1.1,3.907,2.955q2.719,4.793,5.455,9.576l2.934,5.136a8.682,8.682,0,0,0,2.889,3.5,5.255,5.255,0,0,0,1.734.532c1.733.308,2.732.652,2.973,1.026a.773.773,0,0,1,.088.2,3.042,3.042,0,0,1,.1.656c.018.259.041.519.063.779C423.4,141.393,423.429,142.65,421.806,143.316Z" transform="translate(-340.377 -69.83)" fill="#453d66"/>
        <path id="Path_421" data-name="Path 421" d="M437.244,138.793a6.784,6.784,0,0,0-.269-1.563,3.778,3.778,0,0,0-.432-.928c-1.194-1.843-4.645-2.625-6.079-2.877a5.276,5.276,0,0,1-1.6-.453c-1.548-.875-2.753-2.974-3.55-4.364l-3.972-6.926q-3.97-6.926-7.921-13.862c-2-3.508-3.782-4.194-7.023-5.439l-.176-.068c-2.064-.793-3.935-1.569-5.719-2.374a74.333,74.333,0,0,1-10.879-5.988c-.984-.659-1.985-1.371-2.969-2.072-3.459-2.458-7.036-5-11.187-6.294a29.471,29.471,0,0,0-3.6-.882A19.439,19.439,0,0,0,367,84.276a3.451,3.451,0,0,0-2.455,1.116,3.082,3.082,0,0,0-.685,2.352c.027.33.081.657.145,1.023a6.436,6.436,0,0,1,.123,1.068,1.741,1.741,0,0,1-.669,1.23,10.747,10.747,0,0,1-3.2,1.511c-.472.168-.919.327-1.339.5-.309.127-.632.255-.97.387-3.227,1.272-8.1,3.194-6.829,8.585a6.337,6.337,0,0,0,.8,1.761l1.288,2.167c4.04,6.8,8.218,13.827,12.283,20.827a1.956,1.956,0,0,1,.091.181L378.8,154.857c.065.136.139.326.241.586.493,1.253,1.237,3.145,2.662,3.512a2.164,2.164,0,0,0,1.927-.5,4.849,4.849,0,0,0,1.12-1.408c.305-.518.431-.733.982-.872a5.728,5.728,0,0,1,2.852.4,22.4,22.4,0,0,1,3.21,1.383,28.154,28.154,0,0,0,2.929,1.307c.552.2,1.161.463,1.832.752a15.8,15.8,0,0,0,5.225,1.59l.15,0a7.36,7.36,0,0,0,2.886-.769c10.217-4.374,20.332-8.558,28.881-12.075,4.261-1.754,3.913-5.7,3.634-8.881C437.3,139.517,437.271,139.154,437.244,138.793Zm-4.351,8c-8.553,3.518-18.676,7.706-28.907,12.086a5.988,5.988,0,0,1-2.131.6,14.483,14.483,0,0,1-4.459-1.42c-.69-.3-1.341-.579-1.949-.8a26.882,26.882,0,0,1-2.728-1.224,24.055,24.055,0,0,0-3.507-1.5,9.83,9.83,0,0,0-2.885-.557,4.549,4.549,0,0,0-1.11.13,3.43,3.43,0,0,0-2.294,1.862,2.881,2.881,0,0,1-.641.84c-.039.032-.068.053-.08.065-.168-.1-.522-.543-1.18-2.216-.114-.29-.213-.54-.3-.717l-12.772-26.911c-.15-.314-.3-.631-.445-.943-.056-.122-.115-.241-.181-.356-4.024-6.93-8.2-13.956-12.241-20.751l-1.348-2.267a4.6,4.6,0,0,1-.554-1.159c-.853-3.6,2.255-4.826,5.545-6.121.343-.134.678-.267,1-.4.378-.156.787-.3,1.284-.477a12.009,12.009,0,0,0,3.815-1.873,3.842,3.842,0,0,0,1.423-2.842,8.252,8.252,0,0,0-.159-1.473c-.048-.277-.094-.539-.116-.807a1.063,1.063,0,0,1,.182-.8,1.45,1.45,0,0,1,1-.381,18.357,18.357,0,0,1,4.348.4,27.357,27.357,0,0,1,3.34.818c3.834,1.194,7.272,3.639,10.6,6.005.932.663,1.989,1.413,3.006,2.1a76.627,76.627,0,0,0,11.19,6.159c1.806.814,3.713,1.607,5.831,2.422l.176.067c3.052,1.172,4.316,1.657,5.939,4.507q3.95,6.941,7.923,13.868l3.973,6.929c.912,1.591,2.292,3.995,4.348,5.153a6.918,6.918,0,0,0,2.284.7c2.261.4,4.177,1.2,4.659,1.937a1.77,1.77,0,0,1,.192.419,4.966,4.966,0,0,1,.175,1.075c.022.3.048.6.074.9l.018.223C435.495,143.18,435.711,145.637,432.893,146.8Z" transform="translate(-338.486 -67.716)" fill="#453d66"/>
        <path id="Path_422" data-name="Path 422" d="M442.771,113.212c-4.972-8.653-9.058-15.786-12.859-22.446-3.113-5.455-5.754-6.467-11.019-8.482l-.286-.109c-3.364-1.287-6.409-2.547-9.308-3.851a121.34,121.34,0,0,1-17.743-9.737c-1.551-1.039-3.147-2.17-4.609-3.206l-.3-.214-.933.237-1.393.555,1.315.932c1.567,1.111,3.188,2.26,4.811,3.348a123.342,123.342,0,0,0,18.035,9.9c2.934,1.32,6.013,2.594,9.413,3.9l.287.109c5.119,1.959,7.238,2.77,10,7.608,3.8,6.663,7.889,13.8,12.862,22.453l6.994,12.162.566-3.008Z" transform="translate(-342.95 -65.167)" fill="#453d66"/>
        <path id="Path_423" data-name="Path 423" d="M361.576,147.311l-4.99-9.349-4.193-7.856c-.591-1.106-1.169-2.233-1.753-3.359-.717-1.384-1.442-2.769-2.209-4.118-1.432-2.522-2.929-5.01-4.4-7.509q-1.177-2-2.357-4l-3.359-5.682,1.913,6.317a17.207,17.207,0,0,0,.682,1.773l.334.781a32.354,32.354,0,0,0,2.225,3.707c.729,1.207,1.484,2.405,2.169,3.637,2.962,5.344,5.775,10.769,8.674,16.146l3.223,5.98,4.457,8.268,2.347,4.355.062.115.314.2c.172.109.346.218.522.324l2.269,1.372-1.751-3.279Z" transform="translate(-336.803 -70.548)" fill="#453d66"/>
        <path id="Path_424" data-name="Path 424" d="M341.063,126.8v.01c.035.341.073.679.113,1.018l12.5,22.474,4.719,5.088-17.734-33.385Z" transform="translate(-337.117 -72.761)" fill="#453d66"/>
        <path id="Path_425" data-name="Path 425" d="M438.232,131.085c-2.037-1.148-3.586-3.524-4.834-5.7l-5.211-9.069c-3.893-6.783-7.292-12.721-10.39-18.156-2.555-4.481-4.716-5.309-9.021-6.96l-.23-.088c-2.711-1.038-5.168-2.056-7.514-3.112a97.913,97.913,0,0,1-14.31-7.863c-1.222-.818-2.462-1.7-3.666-2.551l-.222-.158c-4.512-3.2-9.179-6.517-14.572-8.194a38.372,38.372,0,0,0-4.673-1.14,25.072,25.072,0,0,0-6.291-.551,4.179,4.179,0,0,0-2.969,1.339,3.7,3.7,0,0,0-.807,2.817c.036.427.106.844.18,1.274a8.877,8.877,0,0,1,.174,1.5,2.61,2.61,0,0,1-1,1.887A14.187,14.187,0,0,1,348.6,78.4c-.625.222-1.216.432-1.773.663-.405.166-.83.334-1.268.507-4.358,1.721-10.328,4.076-8.726,10.834a7.819,7.819,0,0,0,1.009,2.2l1.887,3.168q5.557,9.336,11.085,18.689c2.97,5.047,5.821,10.246,8.605,15.428q3.1,5.781,6.21,11.561l5.388,10.032a41.387,41.387,0,0,1,1.834,3.786l.124.309,2.74,1.1c-.768-1.738-1.472-3.526-2.373-5.2q-.958-1.779-1.915-3.559l-5.715-10.62-5.438-10.107c-1.674-3.119-3.295-6.271-5.084-9.327q-2.772-4.737-5.569-9.459-4.185-7.07-8.395-14.125L339.6,91.538a6.193,6.193,0,0,1-.767-1.612c-1.191-5.023,3.416-6.842,7.483-8.448l.1-.038c.412-.162.814-.321,1.2-.479.515-.212,1.07-.409,1.7-.633a15.486,15.486,0,0,0,4.884-2.394,4.67,4.67,0,0,0,1.733-3.449,10.607,10.607,0,0,0-.206-1.877c-.062-.355-.126-.722-.156-1.077a1.73,1.73,0,0,1,.323-1.308,2.2,2.2,0,0,1,1.555-.625,23.512,23.512,0,0,1,5.785.526,36.092,36.092,0,0,1,4.42,1.079c5.076,1.579,9.609,4.8,13.993,7.908,1.219.866,2.6,1.848,3.932,2.74a100.164,100.164,0,0,0,14.612,8.029c2.387,1.074,4.88,2.107,7.622,3.158l.232.089c4.087,1.566,5.779,2.214,7.968,6.057,3.1,5.436,6.5,11.377,10.393,18.16l5.211,9.07c1.389,2.416,3.141,5.074,5.607,6.462a8.85,8.85,0,0,0,2.9.866l.209.011.373-1.989-.25-.044A7.127,7.127,0,0,1,438.232,131.085Z" transform="translate(-336.57 -65.48)" fill="#453d66"/>
      </g>
    </g>
  </g>
</svg>
