<svg id="STC-01" xmlns="http://www.w3.org/2000/svg" width="115.433" height="57.664" viewBox="0 0 115.433 57.664">
  <path id="Shape" d="M94.776,57.664a24.2,24.2,0,0,1-9.087-1.728,22,22,0,0,1-7.347-4.817,23.076,23.076,0,0,1-4.983-7.467,24.466,24.466,0,0,1-1.832-9.427A25.25,25.25,0,0,1,73.29,24.8,21.988,21.988,0,0,1,94.378,10.768,21.951,21.951,0,0,1,110.1,16.789a20.223,20.223,0,0,1,5.038,8.886l-10.683,3.6a11.6,11.6,0,0,0-2.7-4.767,9.5,9.5,0,0,0-7.087-2.7,10.9,10.9,0,0,0-7.9,3.136,12.833,12.833,0,0,0-3.324,9.241,13.033,13.033,0,0,0,3.324,9.262,11.369,11.369,0,0,0,8.008,3.241,10.249,10.249,0,0,0,7.359-2.781,10.017,10.017,0,0,0,2.781-4.663l10.517,3.513a20.128,20.128,0,0,1-11.842,13.269A23.364,23.364,0,0,1,94.776,57.664Zm-36.275,0a18.248,18.248,0,0,1-6.178-.986,12.267,12.267,0,0,1-4.61-2.882A13.67,13.67,0,0,1,44.2,44.011V23.626H56.075v17.5c0,2.094.45,3.607,1.339,4.5a6.33,6.33,0,0,0,4.5,1.443,10.434,10.434,0,0,0,6.021-1.8v9.7C66.5,56.211,63.17,57.664,58.5,57.664Zm-39.537,0c-6.117,0-11.619-2.1-15.1-5.771A12.765,12.765,0,0,1,0,43.99l10.245-2.237a6.19,6.19,0,0,0,1.8,4.14,9.292,9.292,0,0,0,6.92,2.613c4.163,0,6.649-1.649,6.649-4.412,0-2.191-1.476-3.479-4.935-4.306l-6.837-1.61a19.682,19.682,0,0,1-9.429-4.767,11.234,11.234,0,0,1-3.241-8.259,13.113,13.113,0,0,1,4.223-9.7,19.5,19.5,0,0,1,13.214-4.662,22.648,22.648,0,0,1,8.109,1.429,17.18,17.18,0,0,1,6.087,3.86,12.177,12.177,0,0,1,3.68,7.465L26.511,25.78A6.741,6.741,0,0,0,24.8,22.1a8.582,8.582,0,0,0-6.106-2.237,8.547,8.547,0,0,0-4.8,1.223,3.735,3.735,0,0,0-1.761,3.167A3.237,3.237,0,0,0,13.3,26.77,6.938,6.938,0,0,0,16.622,28.2l6.921,1.339a18.63,18.63,0,0,1,9.889,4.85,12.178,12.178,0,0,1,3.6,8.8,13.055,13.055,0,0,1-3.868,9.429C29.825,55.875,24.783,57.664,18.963,57.664ZM67.929,23.626H56.075v-11.5H44.22V0H56.075V12.127H67.929v11.5Z" transform="translate(0 0)" fill="#453d66"/>
</svg>
