<svg id="Ministry-of-Culture" xmlns="http://www.w3.org/2000/svg" width="180.794" height="113.908" viewBox="0 0 180.794 113.908">
  <path id="Path" d="M3.239,1.653,1.608,0,0,1.653,1.608,3.284Z" transform="translate(5.164 66.116)" fill="#453d66"/>
  <path id="Path-2" data-name="Path" d="M3.216,1.653,1.608,0,0,1.653,1.608,3.284Z" transform="translate(1.359 66.116)" fill="#453d66"/>
  <path id="Path-3" data-name="Path" d="M3.216,1.653,1.608,0,0,1.653,1.608,3.307Z" transform="translate(32.344 65.98)" fill="#453d66"/>
  <g id="Group" transform="translate(0 0)">
    <path id="Shape" d="M11.619,13.25h-.612a5.051,5.051,0,0,1-2.919-.733,3.135,3.135,0,0,1-1.272-2.211,4.92,4.92,0,0,1-2.582.634,5.6,5.6,0,0,1-1.653-.227,4.38,4.38,0,0,1-1.337-.68A3.109,3.109,0,0,1,.34,8.925,3.182,3.182,0,0,1,0,7.429a4.227,4.227,0,0,1,1.767-3.42A11.661,11.661,0,0,1,6.682,1.948V.362L8.743,0,8.629,8.834a1.9,1.9,0,0,0,.544,1.608,2.887,2.887,0,0,0,1.858.476h.612c2.369,0,21.856-.091,23.012-.272s1.721-.446,1.721-.793V8.019a4.556,4.556,0,0,1-1.223.656,4.459,4.459,0,0,1-1.472.227,3.545,3.545,0,0,1-2.7-1A3.842,3.842,0,0,1,30.012,5.1a5.988,5.988,0,0,1,.317-1.925,5.148,5.148,0,0,1,.837-1.563A3.752,3.752,0,0,1,32.435.566a3.33,3.33,0,0,1,4.643,1.7A14.041,14.041,0,0,1,38.12,8.448a6.569,6.569,0,0,1-.408,2.628,2.809,2.809,0,0,1-1.427,1.359,5.6,5.6,0,0,1-1.087.384c-.376.084-.837.179-1.4.25s-1.163.113-1.858.136S12.459,13.25,11.619,13.25ZM6.682,4.009a11.654,11.654,0,0,0-1.858.362,8.538,8.538,0,0,0-1.586.634,3.891,3.891,0,0,0-1.087.861,1.645,1.645,0,0,0-.408,1.064,1.262,1.262,0,0,0,.227.793,1.383,1.383,0,0,0,.612.522,3.523,3.523,0,0,0,.906.294,5.451,5.451,0,0,0,1.064.09A4.941,4.941,0,0,0,6.727,8.2l-.045-4.19ZM33.908,2.378a2.049,2.049,0,0,0-1.609.747,2.728,2.728,0,0,0-.656,1.835,1.8,1.8,0,0,0,.589,1.449,2.478,2.478,0,0,0,1.676.5,5.119,5.119,0,0,0,1.314-.181,3.4,3.4,0,0,0,1.042-.5,7.06,7.06,0,0,0-.747-2.945A1.785,1.785,0,0,0,33.908,2.378Z" transform="translate(0 71.19)" fill="#453d66"/>
    <path id="Path-4" data-name="Path" d="M3.239,1.631,1.631,0,0,1.631,1.631,3.284Z" transform="translate(65.663 68.766)" fill="#453d66"/>
    <path id="Path-5" data-name="Path" d="M3.239,1.631,1.631,0,0,1.631,1.631,3.284Z" transform="translate(69.468 68.766)" fill="#453d66"/>
    <path id="Path-6" data-name="Path" d="M3.239,1.653,1.608,0,0,1.653,1.608,3.284Z" transform="translate(96.105 68.336)" fill="#453d66"/>
    <path id="Path-7" data-name="Path" d="M1.608,3.284,3.239,1.631,1.608,0,0,1.631Z" transform="translate(98.007 71.711)" fill="#453d66"/>
    <path id="Path-8" data-name="Path" d="M3.239,1.631,1.608,0,0,1.631,1.608,3.284Z" transform="translate(94.202 71.711)" fill="#453d66"/>
    <path id="Shape-2" data-name="Shape" d="M59.819,16.829c-2.025,0-3.4-.587-4.077-1.744a3.186,3.186,0,0,1-1.7,1.291c-.8.3-19.72.453-20.725.453a17.294,17.294,0,0,1-2.876-.227,16.324,16.324,0,0,1-2.65-.68,15.614,15.614,0,0,1-2.65.68c-.941.157-19.552.227-20.77.227a4.763,4.763,0,0,1-3.165-.914A3.514,3.514,0,0,1,.113,13.183L0,.385,2.061.022l-.113,12.39a1.993,1.993,0,0,0,.566,1.609,2.806,2.806,0,0,0,1.835.475c.77,0,18.873,0,19.343-.022a12.434,12.434,0,0,0,1.337-.069,4.176,4.176,0,0,1-1.359-3.193A4.8,4.8,0,0,1,23.987,9.4a4.173,4.173,0,0,1,.883-1.472,4.336,4.336,0,0,1,1.314-1,3.653,3.653,0,0,1,3.171,0,4.427,4.427,0,0,1,1.314,1A5,5,0,0,1,31.552,9.4a5.326,5.326,0,0,1,.317,1.812,4.192,4.192,0,0,1-1.359,3.193c.344.019.737.041,1.314.069.475.022.97.022,1.495.022,1.286,0,19.863-.113,20.408-.385A1.833,1.833,0,0,0,54.746,12.8c.052-.235.1-.465.136-.725.023-.147.052-.3.079-.441s.057-.294.079-.441c.046-.2.072-.4.1-.6.012-.1.024-.191.039-.286.019-.123.034-.241.049-.356.02-.157.039-.306.065-.437l1.768.2c-.045.49-.1.936-.15,1.366-.027.225-.053.44-.076.649l-.015.129c-.059.528-.1.878-.1,1,0,1.067,1.044,1.609,3.1,1.609.184,0,18.613-.022,18.982-.069a4.036,4.036,0,0,0,.974-.227,1.643,1.643,0,0,0,.7-.408.862.862,0,0,0,.272-.634L80.68.362,82.741,0l-.113,12.933a3.532,3.532,0,0,1-.43,1.835,3.346,3.346,0,0,1-1.11,1.2,4.406,4.406,0,0,1-1.563.657C78.949,16.758,60.788,16.829,59.819,16.829ZM27.792,8.788a2.642,2.642,0,0,0-.952.181,2.211,2.211,0,0,0-.77.522,2.612,2.612,0,0,0-.5.793,2.739,2.739,0,0,0-.182.974c0,1.2.808,2.066,2.4,2.582,1.593-.523,2.4-1.392,2.4-2.582a2.664,2.664,0,0,0-.181-.974,2.613,2.613,0,0,0-.521-.793,2.211,2.211,0,0,0-.77-.522A2.514,2.514,0,0,0,27.792,8.788Z" transform="translate(41.405 67.588)" fill="#453d66"/>
    <path id="Path-9" data-name="Path" d="M.136,16.806,0,.362,2.061,0,1.925,16.806Z" transform="translate(127.43 67.588)" fill="#453d66"/>
    <path id="Shape-3" data-name="Shape" d="M4.53,15.855a4.771,4.771,0,0,1-3.375-1.087A4.105,4.105,0,0,1,0,11.643a7.5,7.5,0,0,1,.362-2.4,7.34,7.34,0,0,1,.975-1.993A5.084,5.084,0,0,1,2.764,5.889a3.239,3.239,0,0,1,1.744-.5,3.3,3.3,0,0,1,1.767.5A5.094,5.094,0,0,1,7.7,7.248a6.647,6.647,0,0,1,.952,2.016,8.109,8.109,0,0,1,.362,2.492,3.933,3.933,0,0,1-1.2,2.989A4.616,4.616,0,0,1,4.53,15.855Zm0-8.086a2.245,2.245,0,0,0-1.065.272,2.79,2.79,0,0,0-.883.747,4.157,4.157,0,0,0-.589,1.087,4.25,4.25,0,0,0-.227,1.337,2.038,2.038,0,0,0,.7,1.7,3.171,3.171,0,0,0,2.039.589,5.154,5.154,0,0,0,1.042-.113,2.432,2.432,0,0,0,.861-.34,2.151,2.151,0,0,0,.589-.5.73.73,0,0,0,.249-.566,6.381,6.381,0,0,0-.2-1.677,4.443,4.443,0,0,0-.566-1.337,3.181,3.181,0,0,0-.861-.883A2.093,2.093,0,0,0,4.53,7.769ZM6.41,3.307h0L4.8,1.653,6.41,0,8.019,1.653,6.411,3.306Zm-3.805,0h0L1,1.653,2.6,0,4.213,1.653,2.606,3.306Z" transform="translate(137.056 68.743)" fill="#453d66"/>
    <path id="Path-10" data-name="Path" d="M0,12.3a16.225,16.225,0,0,0,2.6-1.2A13.941,13.941,0,0,0,4.689,9.672,6.772,6.772,0,0,0,6.048,8.177a2.533,2.533,0,0,0,.5-1.427,4.52,4.52,0,0,0-.181-1.065,13.646,13.646,0,0,0-.5-1.427C5.64,3.737,5.391,3.216,5.1,2.65s-.612-1.087-.951-1.608L6.025,0A12.008,12.008,0,0,1,7.746,3.239a10.242,10.242,0,0,1,.634,3.307A6.607,6.607,0,0,1,6.5,11.053,13.213,13.213,0,0,1,1.2,14.36Z" transform="translate(145.346 75.267)" fill="#453d66"/>
    <path id="Path-11" data-name="Path" d="M.136,16.806,0,.362,2.061,0,1.925,16.806Z" transform="translate(157.192 67.588)" fill="#453d66"/>
    <path id="Shape-4" data-name="Shape" d="M1.2,19.773h0L0,17.713a17.127,17.127,0,0,0,2.6-1.2,14,14,0,0,0,2.084-1.428A6.8,6.8,0,0,0,6.048,13.59a2.548,2.548,0,0,0,.5-1.427A4.5,4.5,0,0,0,6.364,11.1a13.657,13.657,0,0,0-.5-1.427c-.226-.52-.478-1.047-.77-1.609a18.657,18.657,0,0,0-.952-1.608l1.88-1.042A11.983,11.983,0,0,1,7.747,8.653a10.278,10.278,0,0,1,.634,3.307A6.648,6.648,0,0,1,6.5,16.467a13.255,13.255,0,0,1-5.3,3.306ZM4.779,3.307h0L3.171,1.653,4.779,0,6.388,1.653,4.78,3.306Z" transform="translate(160.545 69.853)" fill="#453d66"/>
    <path id="Shape-5" data-name="Shape" d="M.928,14.858h0L0,12.706a11.3,11.3,0,0,0,4.439-1.413A4.507,4.507,0,0,0,6.5,8.607a3.833,3.833,0,0,1-1.223.612,5.14,5.14,0,0,1-1.472.2,3.491,3.491,0,0,1-2.764-1.2A4.6,4.6,0,0,1,0,5.074,6.355,6.355,0,0,1,.317,3.058,5.157,5.157,0,0,1,1.178,1.45,3.706,3.706,0,0,1,2.492.385,3.609,3.609,0,0,1,4.123,0,3.539,3.539,0,0,1,7.294,1.834,10.014,10.014,0,0,1,8.426,7.022a7.586,7.586,0,0,1-.544,2.9,7.4,7.4,0,0,1-1.518,2.356,8.051,8.051,0,0,1-2.355,1.676,10.1,10.1,0,0,1-3.08.906ZM4.055,2.265A2.07,2.07,0,0,0,2.4,3.012a2.889,2.889,0,0,0-.634,1.971,2.21,2.21,0,0,0,.634,1.7,2.3,2.3,0,0,0,1.744.634,5.206,5.206,0,0,0,1.427-.2A3.478,3.478,0,0,0,6.66,6.591,6.844,6.844,0,0,0,5.889,3.4,2.082,2.082,0,0,0,4.055,2.265Z" transform="translate(172.345 74.768)" fill="#453d66"/>
    <path id="Path-12" data-name="Path" d="M.7,0H2.831L7.5,7.973,12.163,0h2.061l.725,15.334H12.775l-.5-11.778L7.95,10.8H6.84L2.582,3.647,2.061,15.334H0Z" transform="translate(0 93.681)" fill="#453d66"/>
    <path id="Shape-6" data-name="Shape" d="M2.7,15.4H.634V4.711H2.7V15.4ZM1.653,3.284h0L0,1.631,1.653,0,3.284,1.631,1.654,3.284Z" transform="translate(17.056 93.613)" fill="#453d66"/>
    <path id="Path-13" data-name="Path" d="M.023,10.94V.929c0-.136,0-.362-.023-.68H1.971l.068,1.608c.136-.181.317-.385.5-.612A3.835,3.835,0,0,1,3.262.634,4.206,4.206,0,0,1,4.281.181,4.721,4.721,0,0,1,5.595,0,3.789,3.789,0,0,1,8.7,1.223,5.019,5.019,0,0,1,9.717,4.53v6.41H7.656V4.689a3.183,3.183,0,0,0-.634-2.2,2.323,2.323,0,0,0-1.812-.7,2.814,2.814,0,0,0-1.495.362,2.732,2.732,0,0,0-.951.951,4.116,4.116,0,0,0-.521,1.336,6.972,6.972,0,0,0-.159,1.54v4.96Z" transform="translate(22.673 98.075)" fill="#453d66"/>
    <path id="Shape-7" data-name="Shape" d="M2.673,15.4H.612V4.711H2.673V15.4ZM1.653,3.284h0L0,1.631,1.653,0,3.284,1.631,1.654,3.284Z" transform="translate(34.315 93.613)" fill="#453d66"/>
    <path id="Path-14" data-name="Path" d="M1.268,8.358a4.625,4.625,0,0,0,1.382.929,4.766,4.766,0,0,0,1.857.34,3.885,3.885,0,0,0,1.721-.34,1.1,1.1,0,0,0,.68-1.042A1.149,1.149,0,0,0,6.75,7.61a1.442,1.442,0,0,0-.5-.476A3.909,3.909,0,0,0,5.3,6.75c-.385-.113-.883-.249-1.45-.385A8.337,8.337,0,0,1,2.627,6,4.225,4.225,0,0,1,1.54,5.391a3.142,3.142,0,0,1-.793-.929A2.59,2.59,0,0,1,.453,3.171,2.44,2.44,0,0,1,.815,1.812a3.061,3.061,0,0,1,.951-1A4.494,4.494,0,0,1,3.1.2,5.869,5.869,0,0,1,4.643,0,6.557,6.557,0,0,1,6.976.362a5.625,5.625,0,0,1,1.721,1L7.565,2.786a4.169,4.169,0,0,0-1.2-.747,4.3,4.3,0,0,0-1.7-.294,3.452,3.452,0,0,0-1.586.317,1.081,1.081,0,0,0-.589,1.065,1.108,1.108,0,0,0,.793,1.019,12.98,12.98,0,0,0,2.084.634,11.378,11.378,0,0,1,1.4.43,4.671,4.671,0,0,1,1.155.612,2.843,2.843,0,0,1,.793.929,2.985,2.985,0,0,1,.294,1.336,2.6,2.6,0,0,1-.362,1.4,3.058,3.058,0,0,1-1,1.019,4.53,4.53,0,0,1-1.427.612,6.93,6.93,0,0,1-1.676.2A5.947,5.947,0,0,1,0,9.694Z" transform="translate(39.185 97.962)" fill="#453d66"/>
    <path id="Path-15" data-name="Path" d="M1.925,5.21H0V3.488H1.925V0H3.986V3.488H7.112V5.21H3.986v5.277a2.8,2.8,0,0,0,.408,1.767,1.422,1.422,0,0,0,1.133.476,2.528,2.528,0,0,0,1-.181A3.821,3.821,0,0,0,7.316,12l.951,1.268a4.239,4.239,0,0,1-1.382.929A4.621,4.621,0,0,1,5.21,14.5a3.116,3.116,0,0,1-2.492-.929,4.239,4.239,0,0,1-.793-2.877Z" transform="translate(49.627 94.836)" fill="#453d66"/>
    <path id="Path-16" data-name="Path" d="M.023,10.849V.838C.023.7.023.476,0,.181H1.971L2.039,1.9a7.709,7.709,0,0,1,.476-.612A3.835,3.835,0,0,1,3.239.68a5.093,5.093,0,0,1,1-.476A3.86,3.86,0,0,1,5.527,0a5.21,5.21,0,0,1,.634.045A2.389,2.389,0,0,1,6.7.181L6.251,2.106a2.851,2.851,0,0,0-1.065-.159A3.023,3.023,0,0,0,3.964,2.2a3.068,3.068,0,0,0-.974.7,3.535,3.535,0,0,0-.657,1.042A3.42,3.42,0,0,0,2.084,5.21v5.64Z" transform="translate(59.615 98.166)" fill="#453d66"/>
    <path id="Path-17" data-name="Path" d="M1.268,13.3a4.264,4.264,0,0,0,.521.362,1.52,1.52,0,0,0,.747.159,1.149,1.149,0,0,0,.634-.159,1.442,1.442,0,0,0,.476-.5,5.172,5.172,0,0,0,.408-.793c.136-.317.272-.68.453-1.087l.272-.68L0,0H2.378L5.821,8.063,8.856,0H11.1L6.818,10.419q-.306.747-.612,1.631a10.265,10.265,0,0,1-.77,1.676A4.572,4.572,0,0,1,4.3,15.04a2.557,2.557,0,0,1-1.676.521,3.41,3.41,0,0,1-1.359-.227,3.294,3.294,0,0,1-.974-.589Z" transform="translate(67.158 98.347)" fill="#453d66"/>
    <path id="Shape-8" data-name="Shape" d="M5.685,11.371A5.882,5.882,0,0,1,3.4,10.918a5.454,5.454,0,0,1-1.79-1.223A6.131,6.131,0,0,1,.431,7.882,5.407,5.407,0,0,1,0,5.685a5.4,5.4,0,0,1,.431-2.2A5.653,5.653,0,0,1,1.608,1.677,5.209,5.209,0,0,1,3.4.453,5.72,5.72,0,0,1,5.685,0,5.747,5.747,0,0,1,7.95.453,5.442,5.442,0,0,1,9.74,1.677a5.657,5.657,0,0,1,1.178,1.812,5.42,5.42,0,0,1,.43,2.2,5.422,5.422,0,0,1-.43,2.2A6.116,6.116,0,0,1,9.74,9.694a5.454,5.454,0,0,1-1.79,1.223A5.338,5.338,0,0,1,5.685,11.371Zm0-9.581a3.31,3.31,0,0,0-1.495.34,3.665,3.665,0,0,0-1.133.883,3.551,3.551,0,0,0-.7,1.246,4.534,4.534,0,0,0-.25,1.45,4.31,4.31,0,0,0,.25,1.427,4.185,4.185,0,0,0,.7,1.246,3.667,3.667,0,0,0,1.133.884,3.626,3.626,0,0,0,1.495.317,3.312,3.312,0,0,0,1.5-.34,3.665,3.665,0,0,0,1.133-.883,3.581,3.581,0,0,0,.7-1.246,4.473,4.473,0,0,0,.25-1.428,4.471,4.471,0,0,0-.25-1.427,3.949,3.949,0,0,0-.7-1.246A3.665,3.665,0,0,0,7.18,2.13,3.181,3.181,0,0,0,5.685,1.79Z" transform="translate(82.764 97.962)" fill="#453d66"/>
    <path id="Path-18" data-name="Path" d="M1.925,6.772H0V5.051H1.925V4.168a5.268,5.268,0,0,1,.317-1.88A3.706,3.706,0,0,1,3.058,1,3.256,3.256,0,0,1,4.236.249,4.164,4.164,0,0,1,5.64,0,5.3,5.3,0,0,1,7.316.272a3.964,3.964,0,0,1,1.495.906L7.769,2.514a2.773,2.773,0,0,0-1.812-.7,1.909,1.909,0,0,0-1.427.566,2.848,2.848,0,0,0-.544,1.971v.68H7.044V6.75H3.986v8.969H1.925Z" transform="translate(95.335 93.274)" fill="#453d66"/>
    <path id="Path-19" data-name="Path" d="M13.681,13.047a5.127,5.127,0,0,1-.793.951,7.47,7.47,0,0,1-1.291,1A7.322,7.322,0,0,1,7.678,16.1a8.058,8.058,0,0,1-3.1-.589,7.266,7.266,0,0,1-2.424-1.676A7.647,7.647,0,0,1,.566,11.3,8.608,8.608,0,0,1,0,8.109,8.537,8.537,0,0,1,.566,4.96,8.352,8.352,0,0,1,2.152,2.378,7.451,7.451,0,0,1,4.575.634,7.521,7.521,0,0,1,7.724,0a7.369,7.369,0,0,1,2.2.294,8.356,8.356,0,0,1,1.7.747,6.994,6.994,0,0,1,1.246.974A6.4,6.4,0,0,1,13.7,3.035L12.141,4.371c-.181-.249-.408-.521-.657-.815a4.287,4.287,0,0,0-.906-.77A5.054,5.054,0,0,0,9.355,2.22a4.873,4.873,0,0,0-1.586-.227A5.2,5.2,0,0,0,5.5,2.469a5.05,5.05,0,0,0-1.7,1.314A5.7,5.7,0,0,0,2.741,5.708a7.328,7.328,0,0,0-.362,2.356A7.1,7.1,0,0,0,2.763,10.4a6,6,0,0,0,1.065,1.9A4.907,4.907,0,0,0,5.5,13.567a5.4,5.4,0,0,0,2.22.453,5.309,5.309,0,0,0,1.789-.272,5.1,5.1,0,0,0,1.268-.634,5.829,5.829,0,0,0,.861-.747c.227-.249.408-.453.566-.634Z" transform="translate(108.63 93.274)" fill="#453d66"/>
    <path id="Path-20" data-name="Path" d="M.023,0H2.084V6.274a3.224,3.224,0,0,0,.612,2.2,2.305,2.305,0,0,0,1.789.68A2.814,2.814,0,0,0,5.98,8.788a3.175,3.175,0,0,0,.951-.951A4.116,4.116,0,0,0,7.452,6.5,8.662,8.662,0,0,0,7.61,4.96V0H9.672V10.034a6.149,6.149,0,0,0,.023.657H7.724L7.656,9.105c-.136.181-.317.385-.5.589a4.092,4.092,0,0,1-.747.589,5.308,5.308,0,0,1-1.019.453,4.6,4.6,0,0,1-1.314.181A3.769,3.769,0,0,1,1,9.717,5.054,5.054,0,0,1,0,6.41V0Z" transform="translate(124.44 98.324)" fill="#453d66"/>
    <rect id="Rectangle" width="2.061" height="15.334" transform="translate(136.988 93.681)" fill="#453d66"/>
    <path id="Path-21" data-name="Path" d="M1.925,5.21H0V3.488H1.925V0H3.986V3.488H7.112V5.21H3.986v5.277a2.8,2.8,0,0,0,.408,1.767,1.422,1.422,0,0,0,1.133.476,2.528,2.528,0,0,0,1-.181A3.821,3.821,0,0,0,7.316,12l.951,1.268a4.411,4.411,0,0,1-1.359.929,4.621,4.621,0,0,1-1.676.294,3.116,3.116,0,0,1-2.492-.929,4.239,4.239,0,0,1-.793-2.877V5.21Z" transform="translate(140.884 94.836)" fill="#453d66"/>
    <path id="Path-22" data-name="Path" d="M.023,0H2.084V6.274a3.224,3.224,0,0,0,.612,2.2,2.305,2.305,0,0,0,1.789.68A2.814,2.814,0,0,0,5.98,8.788a3.175,3.175,0,0,0,.951-.951A4.116,4.116,0,0,0,7.452,6.5,8.662,8.662,0,0,0,7.61,4.96V0H9.672V10.034a6.149,6.149,0,0,0,.023.657H7.724L7.656,9.105c-.136.181-.317.385-.5.589a4.092,4.092,0,0,1-.747.589,5.308,5.308,0,0,1-1.019.453,4.6,4.6,0,0,1-1.314.181A3.769,3.769,0,0,1,1,9.717,5.054,5.054,0,0,1,0,6.41V0Z" transform="translate(150.397 98.324)" fill="#453d66"/>
    <path id="Path-23" data-name="Path" d="M.023,10.849V.838C.023.7.023.476,0,.181H1.971L2.039,1.9a7.709,7.709,0,0,1,.476-.612A3.835,3.835,0,0,1,3.239.68a5.093,5.093,0,0,1,1-.476A3.86,3.86,0,0,1,5.527,0a5.21,5.21,0,0,1,.634.045A2.389,2.389,0,0,1,6.7.181L6.251,2.106a2.851,2.851,0,0,0-1.065-.159A3.023,3.023,0,0,0,3.964,2.2a3.068,3.068,0,0,0-.974.7,3.535,3.535,0,0,0-.657,1.042A3.42,3.42,0,0,0,2.084,5.21v5.64Z" transform="translate(162.923 98.166)" fill="#453d66"/>
    <path id="Shape-9" data-name="Shape" d="M5.595,11.325a6.229,6.229,0,0,1-2.288-.408A4.561,4.561,0,0,1,1.54,9.74,5.108,5.108,0,0,1,.408,7.928,6.5,6.5,0,0,1,0,5.572a6.259,6.259,0,0,1,.385-2.2A5.089,5.089,0,0,1,1.495,1.608,5.3,5.3,0,0,1,3.193.431,5.148,5.148,0,0,1,5.345,0,5.2,5.2,0,0,1,7.723.521a4.889,4.889,0,0,1,1.631,1.4,5.976,5.976,0,0,1,.929,1.993,9,9,0,0,1,.294,2.356H2.13a3.183,3.183,0,0,0,.317,1.314,3.573,3.573,0,0,0,.77,1.042,3.222,3.222,0,0,0,1.109.68,3.668,3.668,0,0,0,1.314.25,4.817,4.817,0,0,0,2.22-.453A4.877,4.877,0,0,0,9.128,8.2l1.156,1.246a5.65,5.65,0,0,1-.49.472l-.054.049a4.525,4.525,0,0,1-.952.612,8.011,8.011,0,0,1-1.381.521A7.2,7.2,0,0,1,5.595,11.325Zm-.25-9.581a3.383,3.383,0,0,0-1.314.249,3.059,3.059,0,0,0-1,.657A2.7,2.7,0,0,0,2.4,3.6a2.742,2.742,0,0,0-.249,1.109H8.425v0a3.447,3.447,0,0,0-.884-2.084A2.757,2.757,0,0,0,5.345,1.744Z" transform="translate(170.216 98.007)" fill="#453d66"/>
    <path id="Path-24" data-name="Path" d="M3.652.1c-1.133,15.312.249,30.555-.113,46-.068,2.831.294,5.866.068,8.72-.023.34-.113.589-.634.612a7.294,7.294,0,0,0-2.106,0C.639,53.4.73,51.81.549,50.043a106.306,106.306,0,0,1-.2-11.167C.3,31.7-.312,24.4.209,17.245A90.721,90.721,0,0,0,.277,7.959,66.991,66.991,0,0,1,.164.122,13.862,13.862,0,0,1,3.652.1" transform="translate(139.543 6.945)" fill="#453d66"/>
    <path id="Path-25" data-name="Path" d="M16.1.062c1.246.113,1.812.5,1.9,1.9.136,2.106-.159,3.239.068,5.3.747,6.84-.861,13.794-.136,20.657.385,3.624.023,6.886.136,10.51.181,5.413-.045,11.552-.181,17.894H1.016C.427,55.487.54,51.274.722,50.165a15.7,15.7,0,0,0,.136-2.922c-.045-3.986.2-7.543.181-11.529a45.206,45.206,0,0,0-.43-7C.269,26.676.79,23.1.5,21.036.11,18.454-.094,3.1.042.153c0,0,14.066-.272,16.059-.091" transform="translate(0.003 2.656)" fill="#453d66"/>
    <path id="Path-26" data-name="Path" d="M.841.069C-.133-.293.025.862.025,1.451c0,.566,0,.906-.023,1.653C-.02,4.576.116,8.631.116,10.08c.023,2.446.181,4.6.136,6.523C.161,20.228.161,23.874.3,27.521c.362,9.037-.068,18.12.2,27.112.023.77.521,1,1.223,1.178l1.042.181c-.045-7.7.566-15.787.091-23.466-.2-3.216-.091-6.41-.091-9.626,0-3.08-.023-6.161.023-9.241.045-1.88.023-3.737-.045-5.617-.068-2.31.045-6.772-.566-7.384C1.86.273,1.475.3.841.069" transform="translate(46.181 6.25)" fill="#453d66"/>
    <path id="Path-27" data-name="Path" d="M1.971,55.878c1.019-.023.815-.793.815-1.4,0-.566.136-.906.136-1.653.023-1.495-.068-5.572-.091-7.044-.023-2.469-.159-4.621-.113-6.569.091-3.669.136-7.339,0-11.008C2.4,19.071,2.877,9.921,2.65.861,2.627.068,2.106.045,1.223,0L0,.045c0,7.769.091,16.036.181,24.3.045,3.239,0,5.753,0,8.992,0,3.1.068,5.595.045,8.7,0,1.653-.068,3.465-.091,5.753C.113,50.125,0,54.542.544,55.244a1.588,1.588,0,0,0,1.427.634" transform="translate(28.403 0.023)" fill="#453d66"/>
    <path id="Path-28" data-name="Path" d="M1.671,55.944C.743,55.83.607,55.4.63,54.335.72,51.164.516,44.369.177,40.224A55.628,55.628,0,0,1,.426,28.9C.743,26.317.29,24.415.29,21.221c-.023-4.19.227-7.475.227-10.306C.494,9.171.448,7.427.358,5.683.29,4.052.312.451.312.066A6.647,6.647,0,0,1,1.807.02,4.828,4.828,0,0,1,3.778.541,42.852,42.852,0,0,1,4.05,7.676c0,1.155-.068,5.912,0,7.044.136,1.9.068,3.828.068,5.731.023,2.424.159,4.87.159,7.293,0,3.08-.249,6.161-.34,9.241-.136,5.685.589,13.024.521,17.78-.023.951.091,1.45-.906,1.45a14.231,14.231,0,0,0-1.88-.272" transform="translate(50.877 4.714)" fill="#453d66"/>
    <path id="Path-29" data-name="Path" d="M6.422,55.549c.181-2.356-.317-6-.317-7.9,0-1.11-.136-5.708-.068-6.818.113-1.835.023-3.692.023-5.549,0-2.356.136-4.711.113-7.067-.023-2.99-.317-5.957-.43-8.947C5.516,13.057,6.444,4.79,6.059.4A24.833,24.833,0,0,0,.465.011,67.875,67.875,0,0,0,.148,11.155c.045,2.741-.2,5.912-.136,9.989.045,3.08.838,6.772.521,9.287A50.654,50.654,0,0,0,.352,41.393c.5,5.21.317,13.749.385,13.862Z" transform="translate(131.563 2.503)" fill="#453d66"/>
    <path id="Path-30" data-name="Path" d="M.634,55.995c.249-6.433.2-10.306.317-15.855.068-3.918-.544-8.879-.476-13A129.953,129.953,0,0,0,.091,9.947C-.045,8.361.181,5.394.113,3.809.068,2.744.023,1.385,0,.321A26.718,26.718,0,0,0,9.219.592c6.41-1.359,17.01.045,17.01.045a10.57,10.57,0,0,1,.7,4.19,71.545,71.545,0,0,0-.045,7.633c.159,4.371-.657,8.245-.657,14.406,0,4.054.612,6.727.747,9.422.136,2.786-.34,5.119-.159,9.513.113,2.718.045,9.853.091,10.51,0,0-19.094.113-23.171-.385a7.468,7.468,0,0,0-3.1.068" transform="translate(153.772 2.193)" fill="#453d66"/>
    <path id="Path-31" data-name="Path" d="M3.612.159c.113,9.6.181,20.249.657,28.9.159,2.9.068,6.523.181,9.808.045,1.472-.2,4.394-.317,6.342-.091,1.586-.045,3.171-.023,4.734A43.227,43.227,0,0,1,4.042,55.2a10.174,10.174,0,0,0-3.1,0,12.732,12.732,0,0,1-.091-3.828c.2-11.529-.612-19.932-.408-30.532C.509,17.4.4,12.684.123,9.264A48.685,48.685,0,0,1,.35,0,30.257,30.257,0,0,1,3.612.159" transform="translate(115.868)" fill="#453d66"/>
    <path id="Path-32" data-name="Path" d="M6.682.483c.294,4.96.068,8.222.159,12.48.091,3.737.5,6.931.272,11.212-.2,3.692.181,7.407.272,11.121.068,3.6.136,7.225.181,10.827.068,2.786.136,5.323.136,8.131,0,.476-.045,1.472-.045,1.948a8.075,8.075,0,0,0-1.948-.091,18.19,18.19,0,0,1-5.006-.2c-.589-.136-.091-9.9-.068-10.8C.7,41.435.7,37.765.7,34.1.68,30.381.34,26.44.272,22.748.2,18.988.408,15.478.318,11.74.227,7.958.114,4.741,0,.959-.022.189.7-.219,1.926.121,3.511.528,5.21.008,6.682.483" transform="translate(144.847 0.196)" fill="#453d66"/>
    <path id="Path-33" data-name="Path" d="M4.349.2A2.465,2.465,0,0,1,6.342,2.687c.023,1.812,0,3.42-.045,5.006-.045,1.767-.113,3.488-.068,5.413.091,7.837.43,15.312.091,23.42-.294,6.863.34,13.567.272,19.864-2.084-.113-4.575-.317-6.591-.408C.566,44.363.2,33.355.068,21.26,0,14.465,1.11,9.142.159.082A17.15,17.15,0,0,1,4.349.2" transform="translate(20.045 5.128)" fill="#453d66"/>
    <path id="Shape-10" data-name="Shape" d="M13.2,56.868h0a23.225,23.225,0,0,0-2.883-.142c-.289,0-.578,0-.867,0H9.424c-.271,0-.608.005-.93.005-.737,0-1.3-.015-1.816-.048s-1.008-.069-1.469-.1c-.96-.073-1.789-.135-2.733-.135-.515,0-1.03.019-1.574.058-.008-.959-.034-1.8-.058-2.608C.8,52.463.762,51.224.834,49.779c4.2.367,8.362,2.751,12.365,7.087Zm20.3-.692c-3.818,0-6.85,0-9.268-.01a79.235,79.235,0,0,1,15.561-7.135,24,24,0,0,1,6.734-1.3c2.214,0,3.781.665,4.659,1.976,0,0,.071.078.124.078a.043.043,0,0,0,.033-.014.223.223,0,0,0,.024-.155c-.841-2.495-3.072-3.76-6.63-3.76-3.486,0-8.2,1.194-14.017,3.548a112.4,112.4,0,0,0-10.7,5.059,101.42,101.42,0,0,1-.793-12.277c-.04-1.921-.237-4.6-.395-6.746-.02-.277-.04-.543-.058-.8-.018-.232-.042-.5-.068-.792-.182-2.03-.458-5.1.43-5.867a.977.977,0,0,1,.642-.274c.925,0,1.763,1.628,2.3,2.994A20.76,20.76,0,0,1,23.167,34.4c.033.251.022.846.008,1.536-.028,1.485-.067,3.518.3,3.89a.17.17,0,0,0,.171.055c.2-.037.654-1.069.9-1.624.053-.122.095-.218.123-.278a10.923,10.923,0,0,0,1.109-4.553c.312-5.146-.691-7.571-1.472-8.947a15.55,15.55,0,0,1,5.014,8.254,18.549,18.549,0,0,1,.626,4.747c.818-.208,1.2-1.783,1.133-4.682v-.029q-.006-.239-.012-.482a13.072,13.072,0,0,0-.668-4.66c-.016-.043-.041-.111-.072-.2-1.984-5.538-3.975-7.148-5.3-7.524a.461.461,0,0,1,.051,0h.058a8.4,8.4,0,0,1,4.149,1.724,18.426,18.426,0,0,1,2.333,2.65,8.224,8.224,0,0,1,1.609,3.783l.009.049c.17.893.317,1.664.593,1.664.165,0,.368-.279.62-.852a6.612,6.612,0,0,0-.551-5.929,13.862,13.862,0,0,0-3.848-4.323,11.507,11.507,0,0,0-4.8-2.229,12.6,12.6,0,0,1,3.589-.545,10.032,10.032,0,0,1,2.957.432,8.782,8.782,0,0,1,3.323,2.2,5.019,5.019,0,0,0,2.044,1.4c0-.059,0-.118.007-.175a2.964,2.964,0,0,0-.777-2.294,10.988,10.988,0,0,0-2.175-2.333,11.158,11.158,0,0,0-6.9-2.42,12.114,12.114,0,0,0-4.451.88,7.5,7.5,0,0,1,6.313-3.294,4.766,4.766,0,0,1,.98.077c-.428-1.506-3.347-1.994-4.693-1.994A4.125,4.125,0,0,0,25,8.4a8.4,8.4,0,0,0-5.595,3.24,10.909,10.909,0,0,1-.627-1.782c-.482-1.6-1.081-3.58-1.859-3.58a.475.475,0,0,0-.119.015c-.822.212-1.058,1.368-1.287,2.486a4.025,4.025,0,0,1-.888,2.248.69.69,0,0,1-.434.136,6.085,6.085,0,0,1-2.484-1.2,7.833,7.833,0,0,0-2.585-1.3A7.494,7.494,0,0,0,8.153,8.6,5.212,5.212,0,0,0,4.278,10.25c-.09.085-.174.164-.251.231.411.028.831.029,1.238.03a13.11,13.11,0,0,1,1.752.083,4.709,4.709,0,0,1,2.13,1.133,14.581,14.581,0,0,1,2.325,2.146s-.005.006-.011.006A17.429,17.429,0,0,0,8.9,13.7c-.864,0-1.807.05-2.883.151a8.28,8.28,0,0,0-5.911,3.08C-.128,13.924.085,7.411.155,5.271.284,1.952.623.036,1.083.016,1.419.005,1.771,0,2.128,0,4.444,0,6.861.221,9.2.435c1,.091,2.032.186,3.028.26,3.217.256,7.111.385,11.574.385,1.925,0,3.744-.08,5.5-.158s3.58-.158,5.5-.158c1.273,0,2.085.07,2.8.132.577.05,1.121.1,1.807.1.551,0,1.162-.031,1.87-.094C42.4.8,43.712.763,44.977.727c.774-.022,1.5-.043,2.177-.077.586-.03,1.2-.069,1.792-.108C50.239.459,51.577.372,52.86.372c.429,0,.823.009,1.2.029l.073,0a1.643,1.643,0,0,1,1.2.6A9.782,9.782,0,0,1,57.1,5.7a26.731,26.731,0,0,1,.314,6.187c-.33,4.327-.33,12.282-.2,16.127.066,1.9.211,3.477.352,5a55.793,55.793,0,0,1,.328,6.754c-.018.613-.04,1.252-.061,1.87v.006c-.059,1.718-.12,3.5-.12,5.169,0,2.069.049,4,.091,5.458a3.768,3.768,0,0,1-3.761,3.9c-3.007,0-6.357,0-9.786,0C40.671,56.173,36.969,56.176,33.5,56.176ZM15.4,54.785l0,0a21.213,21.213,0,0,0-11.21-6.3,19.558,19.558,0,0,0-2.243-.34C.4,48.02.422,47.758.5,46.654c.018-.266.039-.567.043-.929.009-1.069-.052-2.152-.111-3.2A36.463,36.463,0,0,1,.358,38.2a37.936,37.936,0,0,0-.063-4.27C.138,30.92-.025,27.8,1.377,25.09a8.485,8.485,0,0,1,4.395-4.145,19.2,19.2,0,0,1,3.219-.625c.077,0,.12.009.127.026s0,.02-.016.032c-2.392,1.878-4.67,6.457-4.395,11.574.045.966.8,2.284,1.609,2.447.032-.569.051-1.091.068-1.551.08-2.215.124-3.435,1.336-5.131S10.591,24.23,11.6,24.23a.715.715,0,0,1,.357.09,4.8,4.8,0,0,0-1.22,1.689,16.9,16.9,0,0,0-1.5,6.51v.012c-.02.431-.162,4.279.93,6.739a1.126,1.126,0,0,0,.384.521c.007-.041.412-2.836.476-3.33a35.659,35.659,0,0,1,.77-3.692c.032-.115.069-.258.112-.421.365-1.395,1.125-4.3,2.174-4.3a.991.991,0,0,1,.727.46c1.309,1.674,1.227,5.506,1.173,8.041-.009.439-.018.854-.018,1.2,0,5.272-.044,10.93-.566,17.031ZM.09,24.088h0A18.744,18.744,0,0,0,.17,22.12c.017-1.948.036-4.157,1.525-5.093a7.982,7.982,0,0,1,4.248-1.181,8.442,8.442,0,0,1,3,.547H8.934A25.183,25.183,0,0,0,4.48,18.567,13.757,13.757,0,0,0,.09,24.088Z" transform="translate(57.015 3.132)" fill="#453d66"/>
    <path id="Path-34" data-name="Path" d="M6.278.758a.65.65,0,0,1,.544.589c.159,6.3.294,11.959.7,18.483a54.917,54.917,0,0,1-.091,9.422c-.5,3.986.521,7.225.249,11.234-.362,5.3.408,9.626.113,14.926l-6.569.136c-.544.023-1.042-.5-.951-1.767.068-1.268-.023-6.7-.023-10.8S.8,35.1.344,30.52c-.227-2.242.317-4.643.181-6.886C.3,19.557.162,15.978.072,11.9.026,9.478.072,5.786,0,3.408-.042,1.754.321.531,1.227.123,2.223-.33,5.1.6,6.278.758" transform="translate(122.013 3.818)" fill="#453d66"/>
    <path id="Path-35" data-name="Path" d="M.206,51.76C.139,53.277.116,53.821.116,54.387c0,.385.34.453.657.612.2.113,1.971.476,2.559.612a8.888,8.888,0,0,0,1.721.181c1.7-.023,3.4.566,5.1.408a.42.42,0,0,0,.159-.045,1.525,1.525,0,0,0,.747-1.268c.2-1.45-.2-2.718.023-5.345s.023-9.762.045-11.484c.113-13-.634-13.205-.294-23.239a48.456,48.456,0,0,0-.362-8.426A24.654,24.654,0,0,1,10.15,1.2.966.966,0,0,0,9.244.027C6.435-.109.524.321.524.321a14.235,14.235,0,0,0-.294,4.3C.274,5.848.048,7.864.048,9.087c0,1.382-.091,2.763-.023,4.145C.184,16.946.3,20.661.184,24.353c-.294,9.4.544,14.859.181,24.077Z" transform="translate(33.225 1.083)" fill="#453d66"/>
  </g>
</svg>
