<svg xmlns="http://www.w3.org/2000/svg" width="609.999" height="14.84" viewBox="0 0 609.999 14.84">
  <g id="Group_219" data-name="Group 219" transform="translate(-4702.854 -1109.893)">
    <path id="Path_328" data-name="Path 328" d="M7201.982,1109.893c3.881,0,7.6,3.413,7.42,7.42a7.549,7.549,0,0,1-7.42,7.42c-3.881,0-7.6-3.413-7.42-7.42a7.549,7.549,0,0,1,7.42-7.42Z" transform="translate(-1896.555)" fill="#f6403d"/>
    <path id="Path_331" data-name="Path 331" d="M5934.046,1117.393a4.947,4.947,0,1,1-4.946,4.947,5,5,0,0,1,4.946-4.947Z" transform="translate(-1048.413 -5.027)" fill="#f6403d"/>
    <path id="Path_332" data-name="Path 332" d="M5647.568,1117.393a4.947,4.947,0,1,1-4.947,4.947,5,5,0,0,1,4.947-4.947Z" transform="translate(-856.409 -5.027)" fill="#f6403d"/>
    <path id="Path_333" data-name="Path 333" d="M5599.968,1117.393a4.947,4.947,0,1,1-4.946,4.947,5,5,0,0,1,4.946-4.947Z" transform="translate(-824.506 -5.027)" fill="#f6403d"/>
    <path id="Path_334" data-name="Path 334" d="M6220.674,1117.393a4.947,4.947,0,1,1-4.946,4.947,5,5,0,0,1,4.946-4.947Z" transform="translate(-1240.518 -5.027)" fill="#f6403d"/>
    <path id="Path_335" data-name="Path 335" d="M6172.916,1117.393a4.947,4.947,0,1,1-4.947,4.947,5,5,0,0,1,4.947-4.947Z" transform="translate(-1208.509 -5.027)" fill="#f6403d"/>
    <path id="Path_336" data-name="Path 336" d="M6029.641,1117.947h-.009l-47.249.089a4.7,4.7,0,0,0,.008,9.4h.01l47.249-.089a4.7,4.7,0,0,0-.009-9.4Z" transform="translate(-1080.984 -5.358)" fill="#fff"/>
    <path id="Path_337" data-name="Path 337" d="M5758.837,1117.874h-.009l-63,.119a4.7,4.7,0,0,0,.008,9.4h.01l63-.119a4.7,4.7,0,0,0-.009-9.4Z" transform="translate(-888.929 -5.291)" fill="#fff"/>
    <path id="Path_338" data-name="Path 338" d="M5446.664,1117.015h-.039l-52.106.42a4.7,4.7,0,1,0,.076,9.4l52.106-.42a4.7,4.7,0,0,0-.037-9.4Z" transform="translate(-687.003 -4.449)" fill="#fff"/>
    <path id="Path_339" data-name="Path 339" d="M6343.425,1117.015h-.027l-74.48.42a4.7,4.7,0,0,0,.025,9.4h.027l74.48-.42a4.7,4.7,0,0,0-.026-9.4Z" transform="translate(-1273.038 -4.449)" fill="#fff"/>
  </g>
</svg>
