<svg xmlns="http://www.w3.org/2000/svg" width="84.433" height="108.601" viewBox="0 0 84.433 108.601">
  <path id="Combined_Shape" data-name="Combined Shape" d="M0,105.335v-17.9A3.256,3.256,0,0,1,2.938,84.2c15.141-1.481,27.912-14.324,27.912-29.9H53.593c0,28.822-21.679,52.481-50.09,54.294q-.108.007-.215.007A3.277,3.277,0,0,1,0,105.335ZM30.839,54.3c0-28.821,21.68-52.48,50.09-54.293a3.279,3.279,0,0,1,3.5,3.261v17.9A3.257,3.257,0,0,1,81.5,24.407C66.354,25.887,53.584,38.73,53.584,54.3Z" transform="translate(0 0)" fill="#f6ab3d"/>
</svg>
