<svg xmlns="http://www.w3.org/2000/svg" xmlns:xlink="http://www.w3.org/1999/xlink" width="361" height="437" viewBox="0 0 361 437">
  <defs>
    <clipPath id="clip-path">
      <rect id="Rectangle_14" data-name="Rectangle 14" width="420.099" height="429.537" transform="matrix(0.767, 0.642, -0.642, 0.767, 275.562, 0)" fill="none"/>
    </clipPath>
    <clipPath id="clip-Artboard_1">
      <rect width="361" height="437"/>
    </clipPath>
  </defs>
  <g id="Artboard_1" data-name="Artboard – 1" clip-path="url(#clip-Artboard_1)">
    <rect width="361" height="437" fill="rgba(255,255,255,0)"/>
    <g id="Group_212" data-name="Group 212" transform="translate(-773.634 1460.09)">
      <g id="Group_211" data-name="Group 211" transform="translate(520.634 -1584.465)">
        <g id="Group_210" data-name="Group 210" transform="translate(0 0)" clip-path="url(#clip-path)">
          <g id="Group_209" data-name="Group 209" transform="translate(266.864 138.36)">
            <g id="Group_208" data-name="Group 208">
              <g id="Group_207" data-name="Group 207">
                <g id="Group_205" data-name="Group 205" transform="translate(0.872 1.583)">
                  <path id="Path_302" data-name="Path 302" d="M1213.528-569.589a5.032,5.032,0,0,1-.537-7.1h0a5.029,5.029,0,0,1,7.1-.534h0a5.029,5.029,0,0,1,.535,7.1h0a5.03,5.03,0,0,1-7.043.58h0Zm-12.755-11.6a5.034,5.034,0,0,1-.135-7.117h0a5.034,5.034,0,0,1,7.117-.135h0a5.034,5.034,0,0,1,.135,7.117h0a5.036,5.036,0,0,1-6.853.375h0C1200.945-581.028,1200.858-581.106,1200.772-581.191ZM1188.7-593.5h0a5.029,5.029,0,0,1,.269-7.111h0a5.037,5.037,0,0,1,7.116.268h0a5.039,5.039,0,0,1-.271,7.114h0a5.034,5.034,0,0,1-6.647.174h0A4.881,4.881,0,0,1,1188.7-593.5Zm-11.356-12.978h0a5.033,5.033,0,0,1,.68-7.085h0a5.034,5.034,0,0,1,7.087.678h0a5.03,5.03,0,0,1-.68,7.085h0a5.032,5.032,0,0,1-6.428-.016h0A5.223,5.223,0,0,1,1177.341-606.479Zm-10.587-13.611a5.032,5.032,0,0,1,1.086-7.036h0a5.035,5.035,0,0,1,7.036,1.085h0a5.036,5.036,0,0,1-1.086,7.036h0a5.032,5.032,0,0,1-6.2-.2h0A4.88,4.88,0,0,1,1166.753-620.09Zm-9.787-14.2a5.033,5.033,0,0,1,1.488-6.961h0a5.035,5.035,0,0,1,6.961,1.488h0a5.037,5.037,0,0,1-1.491,6.964h0a5.038,5.038,0,0,1-5.963-.363h0A4.949,4.949,0,0,1,1156.967-634.289Zm-8.953-14.74a5.03,5.03,0,0,1,1.889-6.862h0a5.032,5.032,0,0,1,6.864,1.886h0a5.035,5.035,0,0,1-1.888,6.867h0a5.037,5.037,0,0,1-5.719-.518h0A5.075,5.075,0,0,1,1148.014-649.029Zm-8.086-15.231h0a5.031,5.031,0,0,1,2.281-6.741h0a5.03,5.03,0,0,1,6.743,2.278l0,0a5.036,5.036,0,0,1-2.283,6.743h0a5.037,5.037,0,0,1-5.465-.651h0A4.989,4.989,0,0,1,1139.928-664.26Zm-7.194-15.669a5.032,5.032,0,0,1,2.661-6.6h0a5.033,5.033,0,0,1,6.6,2.667h0a5.03,5.03,0,0,1-2.664,6.6h0a5.035,5.035,0,0,1-5.2-.772h0A4.965,4.965,0,0,1,1132.734-679.929Z" transform="translate(-1132.331 940.283)" fill="#fff"/>
                  <path id="Path_303" data-name="Path 303" d="M1318.394-876.766a5.034,5.034,0,0,1,7.091-.632h0a5.034,5.034,0,0,1,.632,7.091h0a5.034,5.034,0,0,1-7.091.632h0A5.034,5.034,0,0,1,1318.394-876.766Zm-35.256-30.351a5.035,5.035,0,0,1,.943-7.058h0a5.033,5.033,0,0,1,7.056.941h0a5.035,5.035,0,0,1-.941,7.056h0a5.035,5.035,0,0,1-6.286-.132h0A5.194,5.194,0,0,1,1283.138-907.116Zm-10.005-14.147h0a5.037,5.037,0,0,1,1.463-6.969h0a5.033,5.033,0,0,1,6.967,1.465h0a5.031,5.031,0,0,1-1.465,6.967h0a5.034,5.034,0,0,1-5.977-.353h0A5.042,5.042,0,0,1,1273.132-921.263Zm-8.92-14.856a5.031,5.031,0,0,1,1.979-6.837h0a5.031,5.031,0,0,1,6.837,1.978h0a5.032,5.032,0,0,1-1.978,6.837h0a5.038,5.038,0,0,1-5.661-.544h0A5.013,5.013,0,0,1,1264.212-936.119Zm-7.792-15.478a5.035,5.035,0,0,1,2.485-6.672h0a5.035,5.035,0,0,1,6.671,2.485h0a5.034,5.034,0,0,1-2.484,6.671h0a5.033,5.033,0,0,1-5.326-.719h0A5.055,5.055,0,0,1,1256.421-951.6Zm-6.613-16.012h0a5.036,5.036,0,0,1,2.974-6.47h0a5.035,5.035,0,0,1,6.469,2.975h0a5.042,5.042,0,0,1-2.974,6.469h0a5.035,5.035,0,0,1-4.982-.865h0A5.039,5.039,0,0,1,1249.807-967.608Zm-5.407-16.458h0a5.031,5.031,0,0,1,3.442-6.23h0a5.032,5.032,0,0,1,6.232,3.444h0a5.034,5.034,0,0,1-3.444,6.228h0A5.026,5.026,0,0,1,1246-981.6h0A5.01,5.01,0,0,1,1244.4-984.066Zm-4.176-16.81a5.038,5.038,0,0,1,3.895-5.962h0a5.034,5.034,0,0,1,5.959,3.9h0a5.032,5.032,0,0,1-3.895,5.957h0a5.018,5.018,0,0,1-4.265-1.067h0A5.005,5.005,0,0,1,1240.224-1000.876Zm-2.924-17.075a5.032,5.032,0,0,1,4.323-5.654h0a5.032,5.032,0,0,1,5.656,4.321h0a5.036,5.036,0,0,1-4.325,5.657h0a5.014,5.014,0,0,1-3.9-1.13h0A5,5,0,0,1,1237.3-1017.952Zm-1.657-17.241,0,0h0a5.034,5.034,0,0,1,4.729-5.319h0a5.03,5.03,0,0,1,5.321,4.727h0a5.03,5.03,0,0,1-4.727,5.321h0a5,5,0,0,1-3.526-1.163h0A5.009,5.009,0,0,1,1235.643-1035.193Zm-.387-17.316a5.034,5.034,0,0,1,5.11-4.959h0a5.032,5.032,0,0,1,4.959,5.1h0a5.039,5.039,0,0,1-5.107,4.962h0a5.032,5.032,0,0,1-3.156-1.171h0A5.028,5.028,0,0,1,1235.255-1052.509Zm.9-17.3h0a5.033,5.033,0,0,1,5.458-4.572h0a5.038,5.038,0,0,1,4.569,5.461h0a5.038,5.038,0,0,1-5.461,4.569h0a5.031,5.031,0,0,1-2.781-1.152h0A5.019,5.019,0,0,1,1236.151-1069.807Zm2.169-17.186,0,0h0a5.034,5.034,0,0,1,5.784-4.152h0a5.032,5.032,0,0,1,4.152,5.784h0a5.03,5.03,0,0,1-5.781,4.149h0a5,5,0,0,1-2.413-1.1h0A5.024,5.024,0,0,1,1238.321-1086.992Zm3.434-16.98a5.035,5.035,0,0,1,6.079-3.712h0a5.034,5.034,0,0,1,3.711,6.074h0a5.038,5.038,0,0,1-6.076,3.714h0a5.046,5.046,0,0,1-2.045-1.029h0A5.038,5.038,0,0,1,1241.755-1103.972Zm4.7-16.676h0a5.029,5.029,0,0,1,6.331-3.248h0a5.035,5.035,0,0,1,3.251,6.333h0a5.037,5.037,0,0,1-6.336,3.248h0a5,5,0,0,1-1.685-.926h0A5.027,5.027,0,0,1,1246.45-1120.648Z" transform="translate(-1191.424 1191.302)" fill="#fff"/>
                  <path id="Path_304" data-name="Path 304" d="M1385.757-993.224a5.034,5.034,0,0,1,7.091-.632h0a5.034,5.034,0,0,1,.632,7.091h0a5.034,5.034,0,0,1-7.091.632h0A5.033,5.033,0,0,1,1385.757-993.224Zm-12.193-4.644a5.028,5.028,0,0,1-.012-7.116h0a5.033,5.033,0,0,1,7.118-.015l0,0a5.036,5.036,0,0,1,.01,7.119h0a5.034,5.034,0,0,1-6.791.312h0Q1373.722-997.708,1373.564-997.867Zm-11.768-12.789h0a5.038,5.038,0,0,1,.607-7.1h0a5.029,5.029,0,0,1,7.09.607h0a5.035,5.035,0,0,1-.6,7.093h0a5.038,5.038,0,0,1-6.471.017h0A5.316,5.316,0,0,1,1361.8-1010.656Zm-10.611-13.769a5.037,5.037,0,0,1,1.22-7.015h0a5.034,5.034,0,0,1,7.013,1.223h0a5.036,5.036,0,0,1-1.22,7.015h0a5.044,5.044,0,0,1-6.124-.254h0A5.043,5.043,0,0,1,1351.185-1024.425Zm-9.367-14.645a5.029,5.029,0,0,1,1.829-6.879h0a5.031,5.031,0,0,1,6.879,1.829h0a5.034,5.034,0,0,1-1.829,6.878h0a5.034,5.034,0,0,1-5.754-.492h0A4.956,4.956,0,0,1,1341.818-1039.071Zm-8.06-15.416a5.033,5.033,0,0,1,2.425-6.694h0a5.035,5.035,0,0,1,6.693,2.425h0a5.036,5.036,0,0,1-2.425,6.694h0a5.04,5.04,0,0,1-5.369-.7h0A5,5,0,0,1,1333.758-1054.487Zm-6.682-16.056a5.035,5.035,0,0,1,3-6.456h0a5.036,5.036,0,0,1,6.459,3h0a5.035,5.035,0,0,1-3,6.456h0a5.027,5.027,0,0,1-4.965-.869h0A5,5,0,0,1,1327.075-1070.542Zm-5.261-16.571a5.035,5.035,0,0,1,3.547-6.174h0a5.035,5.035,0,0,1,6.172,3.545h0a5.036,5.036,0,0,1-3.547,6.174h0a5.027,5.027,0,0,1-4.546-1h0A5,5,0,0,1,1321.814-1087.113Zm-3.809-16.964a5.038,5.038,0,0,1,4.068-5.844h0a5.034,5.034,0,0,1,5.842,4.066h0a5.035,5.035,0,0,1-4.065,5.847h0a5.031,5.031,0,0,1-4.12-1.1h0A5.025,5.025,0,0,1,1318.005-1104.077Zm-2.328-17.226h0a5.033,5.033,0,0,1,4.553-5.471h0a5.038,5.038,0,0,1,5.474,4.555h0a5.037,5.037,0,0,1-4.556,5.474h0a5.035,5.035,0,0,1-3.686-1.154h0A5.018,5.018,0,0,1,1315.677-1121.3Zm-.835-17.359a5.03,5.03,0,0,1,5.009-5.058h0a5.03,5.03,0,0,1,5.058,5.009h0a5.034,5.034,0,0,1-5.009,5.058h0a5.014,5.014,0,0,1-3.251-1.172h0A5.023,5.023,0,0,1,1314.842-1138.663Zm.666-17.37a5.037,5.037,0,0,1,5.425-4.609h0a5.038,5.038,0,0,1,4.609,5.43h0a5.033,5.033,0,0,1-5.427,4.606h0a5,5,0,0,1-2.816-1.153h0A5.016,5.016,0,0,1,1315.508-1156.033Zm2.162-17.243a5.033,5.033,0,0,1,5.8-4.121h0a5.031,5.031,0,0,1,4.121,5.8l0,0a5.035,5.035,0,0,1-5.807,4.119h0a5,5,0,0,1-2.385-1.1h0A5.038,5.038,0,0,1,1317.67-1173.275Zm3.653-16.995a5.036,5.036,0,0,1,6.142-3.6h0a5.035,5.035,0,0,1,3.6,6.142h0a5.032,5.032,0,0,1-6.141,3.6h0a4.991,4.991,0,0,1-1.956-1h0A5.042,5.042,0,0,1,1321.323-1190.27Zm5.118-16.6a5.035,5.035,0,0,1,6.431-3.053h0a5.037,5.037,0,0,1,3.051,6.434h0a5.036,5.036,0,0,1-6.433,3.051h0a5.029,5.029,0,0,1-1.536-.879h0A5.033,5.033,0,0,1,1326.441-1206.873Zm6.549-16.106a5.036,5.036,0,0,1,6.675-2.476h0a5.037,5.037,0,0,1,2.476,6.676h0a5.034,5.034,0,0,1-6.675,2.476h0a5.08,5.08,0,0,1-1.133-.716h0A5.036,5.036,0,0,1,1332.99-1222.98Zm7.934-15.468h0a5.029,5.029,0,0,1,6.861-1.883h0a5.027,5.027,0,0,1,1.886,6.863h0a5.034,5.034,0,0,1-6.866,1.883h0a5.174,5.174,0,0,1-.743-.515h0A5.032,5.032,0,0,1,1340.925-1238.448Zm9.246-14.717a5.032,5.032,0,0,1,7-1.284h0a5.039,5.039,0,0,1,1.284,7h0a5.037,5.037,0,0,1-7,1.281h0c-.131-.091-.255-.186-.374-.285h0A5.032,5.032,0,0,1,1350.171-1253.165Zm10.478-13.861a5.031,5.031,0,0,1,7.086-.677h0a5.036,5.036,0,0,1,.677,7.087l0,0a5.03,5.03,0,0,1-7.083.679h0l-.027-.023h0A5.034,5.034,0,0,1,1360.649-1267.026Zm11.538-5.933a5.031,5.031,0,0,1-.622-7.091h0a5.033,5.033,0,0,1,7.092-.622h0a5.034,5.034,0,0,1,.622,7.092h0a5.037,5.037,0,0,1-7.086.627h0Z" transform="translate(-1237.118 1281.85)" fill="#f6403d"/>
                  <path id="Path_305" data-name="Path 305" d="M1437.571-929.091a5.038,5.038,0,0,1,.291-7.115h0a5.036,5.036,0,0,1,7.113.294h0a5.038,5.038,0,0,1-.289,7.113h0a5.039,5.039,0,0,1-6.639.163h0A5.254,5.254,0,0,1,1437.571-929.091Zm-11.145-13.461a5.03,5.03,0,0,1,1.04-7.042h0a5.03,5.03,0,0,1,7.042,1.04h0a5.034,5.034,0,0,1-1.04,7.042h0a5.033,5.033,0,0,1-6.227-.175h0A5.046,5.046,0,0,1,1426.426-942.552Zm-9.67-14.571h0a5.032,5.032,0,0,1,1.776-6.891h0a5.032,5.032,0,0,1,6.894,1.778h0a5.034,5.034,0,0,1-1.777,6.894h0a5.038,5.038,0,0,1-5.788-.475h0A5.033,5.033,0,0,1,1416.756-957.122Zm-8.075-15.508a5.034,5.034,0,0,1,2.5-6.667h0a5.034,5.034,0,0,1,6.667,2.5h0a5.035,5.035,0,0,1-2.5,6.667h0a5.033,5.033,0,0,1-5.318-.722h0A5.032,5.032,0,0,1,1408.681-972.63Zm-6.393-16.27h0a5.034,5.034,0,0,1,3.184-6.367h0a5.033,5.033,0,0,1,6.367,3.184h0a5.033,5.033,0,0,1-3.184,6.368h0a5.029,5.029,0,0,1-4.824-.917h0A5.011,5.011,0,0,1,1402.288-988.9Zm-4.649-16.846h0a5.034,5.034,0,0,1,3.833-6h0a5.03,5.03,0,0,1,6,3.831h0a5.038,5.038,0,0,1-3.831,6h0a5.034,5.034,0,0,1-4.315-1.057h0A5.016,5.016,0,0,1,1397.639-1005.745Zm-2.863-17.236a5.034,5.034,0,0,1,4.436-5.569h0a5.038,5.038,0,0,1,5.567,4.439h0a5.034,5.034,0,0,1-4.437,5.569h0a5.037,5.037,0,0,1-3.8-1.144h0A5.022,5.022,0,0,1,1394.776-1022.982Zm-1.05-17.438a5.033,5.033,0,0,1,4.994-5.074h0a5.035,5.035,0,0,1,5.072,4.992h0a5.033,5.033,0,0,1-4.995,5.075h0a5.009,5.009,0,0,1-3.266-1.171h0A5.017,5.017,0,0,1,1393.726-1040.42Zm.776-17.453a5.031,5.031,0,0,1,5.5-4.522h0a5.033,5.033,0,0,1,4.525,5.5l0,0a5.028,5.028,0,0,1-5.5,4.523h0a4.994,4.994,0,0,1-2.74-1.145h0A5.026,5.026,0,0,1,1394.5-1057.872Zm2.6-17.271h0a5.036,5.036,0,0,1,5.94-3.925h0a5.033,5.033,0,0,1,3.922,5.942h0a5.031,5.031,0,0,1-5.94,3.92h0a5,5,0,0,1-2.217-1.066h0A5.03,5.03,0,0,1,1397.1-1075.144Zm4.4-16.905h0a5.031,5.031,0,0,1,6.321-3.275h0a5.037,5.037,0,0,1,3.274,6.322h0a5.036,5.036,0,0,1-6.321,3.274h0a4.984,4.984,0,0,1-1.706-.934h0A5.032,5.032,0,0,1,1401.5-1092.049Zm6.16-16.353h0a5.032,5.032,0,0,1,6.63-2.592h0a5.034,5.034,0,0,1,2.59,6.633h0a5.034,5.034,0,0,1-6.633,2.59h0a5.118,5.118,0,0,1-1.211-.749h0A5.037,5.037,0,0,1,1407.657-1108.4Z" transform="translate(-1282.408 1183.998)" fill="#fff"/>
                  <path id="Path_306" data-name="Path 306" d="M1520.162-892.351a5.034,5.034,0,0,1,7.091-.632h0a5.034,5.034,0,0,1,.632,7.091h0a5.037,5.037,0,0,1-7.091.632h0A5.036,5.036,0,0,1,1520.162-892.351Zm-12.1-5.068a5.03,5.03,0,0,1,.3-7.109h0a5.034,5.034,0,0,1,7.114.3h0a5.033,5.033,0,0,1-.306,7.111h0a5.034,5.034,0,0,1-6.629.157h0A4.8,4.8,0,0,1,1508.062-897.419Zm-11.018-13.746h0a5.028,5.028,0,0,1,1.251-7.008h0a5.034,5.034,0,0,1,7.008,1.251h0a5.037,5.037,0,0,1-1.251,7.008h0a5.036,5.036,0,0,1-6.107-.263h0A5.039,5.039,0,0,1,1497.044-911.165Zm-9.084-15.094a5.034,5.034,0,0,1,2.174-6.779h0a5.038,5.038,0,0,1,6.782,2.177h-.005a5.034,5.034,0,0,1-2.174,6.779h0a5.036,5.036,0,0,1-5.534-.618h0A5.042,5.042,0,0,1,1487.96-926.259Zm-6.986-16.171h0a5.032,5.032,0,0,1,3.059-6.427h0a5.035,5.035,0,0,1,6.429,3.061h0a5.03,5.03,0,0,1-3.061,6.424h0a5.019,5.019,0,0,1-4.916-.883h0A5.021,5.021,0,0,1,1480.974-942.43Zm-4.778-16.95a5.037,5.037,0,0,1,3.884-5.966h0a5.034,5.034,0,0,1,5.966,3.884h0a5.031,5.031,0,0,1-3.884,5.966h0a5.028,5.028,0,0,1-4.271-1.066h0A5.017,5.017,0,0,1,1476.2-959.381ZM1473.7-976.81a5.04,5.04,0,0,1,4.639-5.4h0a5.036,5.036,0,0,1,5.4,4.637l0,0a5.025,5.025,0,0,1-4.634,5.4h0a5.012,5.012,0,0,1-3.611-1.155h0A5.03,5.03,0,0,1,1473.7-976.81Zm-.171-17.609,0,0h0a5.031,5.031,0,0,1,5.307-4.744h0a5.034,5.034,0,0,1,4.742,5.31h0a5.032,5.032,0,0,1-5.31,4.741h0a4.992,4.992,0,0,1-2.942-1.162h0A5.024,5.024,0,0,1,1473.531-994.419Zm2.159-17.475a5.031,5.031,0,0,1,5.891-3.993h0a5.031,5.031,0,0,1,4,5.888h0a5.035,5.035,0,0,1-5.891,4h0a5.021,5.021,0,0,1-2.28-1.078h0A5.031,5.031,0,0,1,1475.69-1011.895Z" transform="translate(-1328.223 1129.203)" fill="#fff"/>
                  <path id="Path_307" data-name="Path 307" d="M1587.147-863.035a5.082,5.082,0,0,1,1.154-3.677h0a5.082,5.082,0,0,1,3.414-1.786h0a5.079,5.079,0,0,1,3.677,1.154h0a5.079,5.079,0,0,1,1.786,3.414h0a5.08,5.08,0,0,1-1.154,3.676h0a5.08,5.08,0,0,1-3.415,1.786h0a5.08,5.08,0,0,1-3.677-1.155h0A5.081,5.081,0,0,1,1587.147-863.035Zm-10.826-9.2a5.035,5.035,0,0,1,.642-7.089h0a5.034,5.034,0,0,1,7.089.642h0a5.029,5.029,0,0,1-.642,7.089h0a5.027,5.027,0,0,1-6.447,0h0A4.935,4.935,0,0,1,1576.322-872.237Zm-10.134-14.692a5.026,5.026,0,0,1,1.914-6.854h0a5.03,5.03,0,0,1,6.856,1.916h0a5.035,5.035,0,0,1-1.917,6.856h0a5.039,5.039,0,0,1-5.7-.527h0A5.009,5.009,0,0,1,1566.187-886.929Zm-7.307-16.284a5.033,5.033,0,0,1,3.124-6.395h0a5.034,5.034,0,0,1,6.4,3.126h0a5.033,5.033,0,0,1-3.124,6.395h0a5.04,5.04,0,0,1-4.873-.9h0A5.025,5.025,0,0,1,1558.88-903.212Zm-4.25-17.323a5.032,5.032,0,0,1,4.219-5.733h0a5.033,5.033,0,0,1,5.733,4.224h0a5.035,5.035,0,0,1-4.222,5.73h0a5.02,5.02,0,0,1-3.987-1.119h0A4.992,4.992,0,0,1,1554.63-920.535Z" transform="translate(-1374.757 1077.729)" fill="#fff"/>
                </g>
                <g id="Group_206" data-name="Group 206">
                  <path id="Path_308" data-name="Path 308" d="M1177.61-607.662a5.035,5.035,0,0,1-.643-.646,299.03,299.03,0,0,1-45.365-74.309q-.47-1.106-.932-2.215a5.034,5.034,0,0,1,2.715-6.581,5.034,5.034,0,0,1,6.581,2.714q.447,1.073.9,2.142a288.96,288.96,0,0,0,43.838,71.808,5.034,5.034,0,0,1-.649,7.089A5.035,5.035,0,0,1,1177.61-607.662Z" transform="translate(-1130.283 944.661)" fill="#5932ff"/>
                  <path id="Path_309" data-name="Path 309" d="M1169.526-861.664a5.005,5.005,0,0,1-1.579-2.381,269.149,269.149,0,0,1-9.577-44.174c-1.106-8.512-1.812-17.177-2.1-25.756a5.034,5.034,0,0,1,4.864-5.2,5.034,5.034,0,0,1,5.2,4.864c.274,8.258.953,16.6,2.017,24.792A259.1,259.1,0,0,0,1177.571-867a5.034,5.034,0,0,1-3.334,6.29A5.03,5.03,0,0,1,1169.526-861.664Z" transform="translate(-1145.204 1086.69)" fill="#00dde7"/>
                  <path id="Path_310" data-name="Path 310" d="M1302.107-567.251a266.77,266.77,0,0,1-57.763-67.442,5.034,5.034,0,0,1,1.725-6.907,5.033,5.033,0,0,1,6.907,1.725,255.486,255.486,0,0,0,55.139,65.02c2.133,1.783,2.866,4.839,1.083,6.972A5.034,5.034,0,0,1,1302.107-567.251Z" transform="translate(-1195.358 916.252)" fill="#00dde7"/>
                  <path id="Path_311" data-name="Path 311" d="M1237.019-1049.893a5.024,5.024,0,0,1-1.807-3.9q.006-.875.018-1.75A233.348,233.348,0,0,1,1246.2-1123.1q.492-1.545,1.006-3.085a5.034,5.034,0,0,1,6.368-3.181,5.034,5.034,0,0,1,3.182,6.368q-.492,1.474-.963,2.953A223.283,223.283,0,0,0,1245.3-1055.4q-.012.838-.017,1.678a5.034,5.034,0,0,1-5.068,5A5.016,5.016,0,0,1,1237.019-1049.893Z" transform="translate(-1190.528 1196.033)" fill="#5932ff"/>
                  <path id="Path_312" data-name="Path 312" d="M1280.763-763a5.055,5.055,0,0,1-.978-1.1q-.751-1.144-1.488-2.295a232.246,232.246,0,0,1-32.043-79.019,5.034,5.034,0,0,1,3.923-5.94,5.033,5.033,0,0,1,5.94,3.923,222.206,222.206,0,0,0,30.658,75.608q.7,1.1,1.423,2.194a5.034,5.034,0,0,1-1.442,6.971A5.035,5.035,0,0,1,1280.763-763Z" transform="translate(-1196.807 1036.327)" fill="#5932ff"/>
                  <path id="Path_313" data-name="Path 313" d="M1386.338-583.629c-.055-.046-.109-.093-.163-.142a235.822,235.822,0,0,1-16.891-17.039q-.486-.544-.971-1.092a5.035,5.035,0,0,1,.442-7.1,5.034,5.034,0,0,1,7.106.442q.461.522.926,1.042a225.592,225.592,0,0,0,16.168,16.309,5.033,5.033,0,0,1,.332,7.111A5.034,5.034,0,0,1,1386.338-583.629Z" transform="translate(-1266.222 897.851)" fill="#5932ff"/>
                  <path id="Path_314" data-name="Path 314" d="M1439.55-535.677" transform="translate(-1307.846 855.025)" fill="none" stroke="#5932ff" stroke-linecap="round" stroke-linejoin="round" stroke-width="28.5"/>
                  <path id="Path_315" data-name="Path 315" d="M1356.951-1218a5.036,5.036,0,0,1-1.357-5.928q.565-1.253,1.148-2.5.475-1.015.961-2.025a201.055,201.055,0,0,1,27.1-41.932l11.226-13.385a5.034,5.034,0,0,1,7.086-.627l.005,0a5.034,5.034,0,0,1,.622,7.092l-11.226,13.386a190.959,190.959,0,0,0-25.747,39.83q-.462.96-.913,1.922-.552,1.182-1.088,2.371a5.034,5.034,0,0,1-6.657,2.522A5.043,5.043,0,0,1,1356.951-1218Z" transform="translate(-1259.388 1285.568)" fill="#fff"/>
                  <path id="Path_316" data-name="Path 316" d="M1329.39-949.043a5.012,5.012,0,0,1-1.473-2.073q-.265-.7-.523-1.394a200.773,200.773,0,0,1-12.323-60.245,200.3,200.3,0,0,1,6.5-61.3,5.034,5.034,0,0,1,6.159-3.57,5.034,5.034,0,0,1,3.569,6.16,190.232,190.232,0,0,0-6.17,58.221,190.715,190.715,0,0,0,11.705,57.229q.247.664.5,1.325a5.034,5.034,0,0,1-2.919,6.493A5.032,5.032,0,0,1,1329.39-949.043Z" transform="translate(-1236.241 1166.276)" fill="#fff"/>
                  <path id="Path_317" data-name="Path 317" d="M1433.151-651.2l-.006-.006a200.93,200.93,0,0,1-34.861-37.809q-.552-.781-1.1-1.567a5.034,5.034,0,0,1,1.267-7.005,5.032,5.032,0,0,1,7.005,1.267q.518.747,1.043,1.489a190.635,190.635,0,0,0,30.129,33.355,4.98,4.98,0,0,1,.61.462l2.468,2.175a5.034,5.034,0,0,1,.488,7.059A5.034,5.034,0,0,1,1433.151-651.2Z" transform="translate(-1283.007 948.5)" fill="#fff"/>
                  <path id="Path_318" data-name="Path 318" d="M1402.986-1072.051a5.034,5.034,0,0,1-1.708-4.859,165.633,165.633,0,0,1,11.426-35.469,5.034,5.034,0,0,1,6.661-2.513,5.034,5.034,0,0,1,2.513,6.661,155.541,155.541,0,0,0-10.73,33.31,5.034,5.034,0,0,1-5.929,3.94A5.01,5.01,0,0,1,1402.986-1072.051Z" transform="translate(-1285.815 1187.834)" fill="#f6ab3d"/>
                  <path id="Path_319" data-name="Path 319" d="M1433.842-805.669a5.05,5.05,0,0,1-.766-.8q-.583-.76-1.156-1.524a164.661,164.661,0,0,1-29.26-63.96,5.034,5.034,0,0,1,3.839-5.995,5.034,5.034,0,0,1,5.995,3.839,154.671,154.671,0,0,0,27.481,60.076q.539.718,1.087,1.433a5.034,5.034,0,0,1-.927,7.058A5.036,5.036,0,0,1,1433.842-805.669Z" transform="translate(-1286.598 1051.604)" fill="#f6ab3d"/>
                  <path id="Path_320" data-name="Path 320" d="M1477.724-958.925a5.014,5.014,0,0,1-1.688-2.8q-.222-1.03-.429-2.065-.14-.7-.273-1.411-.173-.92-.333-1.84a132.474,132.474,0,0,1,.365-47.57c.157-.827.322-1.652.49-2.454a5.034,5.034,0,0,1,5.961-3.892,5.033,5.033,0,0,1,3.892,5.96q-.237,1.131-.452,2.265a122.427,122.427,0,0,0-.336,43.968q.147.851.307,1.7.123.652.253,1.306.19.956.4,1.907a5.034,5.034,0,0,1-3.858,5.983A5.024,5.024,0,0,1,1477.724-958.925Z" transform="translate(-1327.066 1133.704)" fill="#5932ff"/>
                  <path id="Path_321" data-name="Path 321" d="M1538.57-776.043a131.587,131.587,0,0,1-33.029-41.373q-.266-.523-.53-1.051a5.034,5.034,0,0,1,2.258-6.751,5.033,5.033,0,0,1,6.751,2.259c.162.324.324.646.489.969a121.579,121.579,0,0,0,30.518,38.225,5.034,5.034,0,0,1,.633,7.091A5.034,5.034,0,0,1,1538.57-776.043Z" transform="translate(-1345.126 1021.567)" fill="#5932ff"/>
                  <path id="Path_322" data-name="Path 322" d="M1588.422-863.021a98.344,98.344,0,0,1-34.621-63.5,5.034,5.034,0,0,1,4.374-5.617,5.034,5.034,0,0,1,5.617,4.374,88.313,88.313,0,0,0,31.089,57.023l.047.039a5.034,5.034,0,0,1,.634,7.088,5.034,5.034,0,0,1-7.091.637Z" transform="translate(-1373.42 1082.673)" fill="#f6403d"/>
                </g>
              </g>
            </g>
          </g>
        </g>
      </g>
      <path id="Path_323" data-name="Path 323" d="M1486.367-712.7c-5.715-1.589-3.922-3.577-1.45-7.144,10.319-14.89,7.674-34.659-6.193-39.486-8.435-2.936-8.256-5.077-4.837-12.135,8.142-16.812-1.924-31.906-20.475-31.606-17.214.279-29.9,10.408-41.689,21.036a411.007,411.007,0,0,0-46.744,49.314c-5.274-5.64-7.963-12.147-11.195-18.286-29.761-56.516-83.067-62.519-126.278-40.837-18.2,9.133-23.111,21.121-18.172,39.781-18.814,2.572-26.692,9.454-30.787,28.978-3.861,18.4-6.532,37.163-1.989,55.8,7.69,31.546,23.411,57.778,52.823,73.817,18.532,10.1,38.854,14.147,59.723,14.592a683.357,683.357,0,0,0,86.819-3.9c23.4-2.488,44.742-9.771,58.808-30.887,8.123-12.195,18.522-22.668,27.662-34.07,9.1-11.355,20.914-19.576,30.721-29.988C1505.185-690.535,1500.629-708.736,1486.367-712.7Zm-182.656-.727a66.155,66.155,0,0,1-10.754,32.052c-17.188,26.208-58.541,18.854-68.325-1.082-4.959-10.106-5.244-20.2-2.91-30.6,2.32-10.334,4.815-20.513-.628-31.92,10.783-.359,19.507-4.139,28.238-8.016C1277.556-765.529,1306.2-744.341,1303.712-713.428Z" transform="translate(-381.6 -458.157)" fill="#f6ab3d"/>
      <path id="Path_324" data-name="Path 324" d="M1674.486-642.957c-1.381-1.182-2.564-1.795-3.141-2.767-1.5-2.53.434-4.167,1.961-5.752q18.909-19.613,37.865-39.18c9.775-10.112,20.026-19.657,32.141-26.982,2.258-1.366,4.794-2.787,6.77-.045,1.962,2.723.12,4.669-2.232,6.233-25.792,17.154-45.028,41.288-66.819,62.7C1679.043-646.791,1676.854-645.041,1674.486-642.957Z" transform="translate(-657.125 -506.509)" fill="#180b43"/>
      <path id="Path_325" data-name="Path 325" d="M1718.578-539.575c-.584-.318-2.058-.641-2.639-1.54-1.141-1.764-.646-3.653.86-5.17,19.955-20.112,39.845-40.3,62.911-56.974,2.626-1.9,6.081-3.951,8.446-.632,2.837,3.981-1.675,5.292-4.017,7-20.907,15.29-39.26,33.387-57.334,51.807C1724.636-542.869,1722.841-539.966,1718.578-539.575Z" transform="translate(-681.078 -571.729)" fill="#180b43"/>
      <path id="Path_326" data-name="Path 326" d="M1506.552-339.142a51.808,51.808,0,0,1,6.165,1.25c2.465.751,5.194,2.082,4.339,5.191-.847,3.081-3.457,2.735-6.245,2.135a47.209,47.209,0,0,0-9.408-.574c-2.454-.023-5.543,1-6.173-2.467-.691-3.806,2.46-4.652,5.335-5.2A52.641,52.641,0,0,1,1506.552-339.142Z" transform="translate(-565.877 -724.743)" fill="#180b43"/>
    </g>
  </g>
</svg>
