<svg xmlns="http://www.w3.org/2000/svg" width="366" height="323" viewBox="0 0 366 323">
  <path id="Fill_22_Copy" data-name="Fill 22 Copy" d="M346.811,164.835,180.713,2.47a8.66,8.66,0,0,0-12.113,0L3.186,164.166a10.607,10.607,0,0,0,0,15.158l40.787,39.868a10.517,10.517,0,0,0,14.717,0L127.6,151.833a5.272,5.272,0,0,1,8.953,3.792V296.42A10.565,10.565,0,0,0,147.1,307h55.8a10.561,10.561,0,0,0,10.543-10.58V156.295a5.271,5.271,0,0,1,8.953-3.789l68.907,67.355a10.521,10.521,0,0,0,14.72,0L346.811,180a10.6,10.6,0,0,0,0-15.161" transform="translate(8 8)" fill="none" stroke="#5932ff" stroke-miterlimit="10" stroke-width="16"/>
</svg>
