<svg xmlns="http://www.w3.org/2000/svg" xmlns:xlink="http://www.w3.org/1999/xlink" width="390" height="589" viewBox="0 0 390 589">
  <defs>
    <clipPath id="clip-path">
      <rect id="Rectangle_12" data-name="Rectangle 12" width="366.275" height="374.503" transform="translate(493.172 336.792) rotate(154.067)" fill="none"/>
    </clipPath>
    <clipPath id="clip-path-2">
      <path id="Path_280" data-name="Path 280" d="M402.967,7.272,0,0,32.909,403.641,417.133,408Z" fill="none"/>
    </clipPath>
    <clipPath id="clip-Artboard_1">
      <rect width="390" height="589"/>
    </clipPath>
  </defs>
  <g id="Artboard_1" data-name="Artboard – 1" clip-path="url(#clip-Artboard_1)">
    <rect width="390" height="589" fill="rgba(255,255,255,0)"/>
    <g id="Group_215" data-name="Group 215" transform="matrix(-0.985, 0.174, -0.174, -0.985, 743.319, 492.381)">
      <g id="Group_213" data-name="Group 213" transform="translate(463.43 690.176) rotate(-160)">
        <g id="Group_167" data-name="Group 167" transform="translate(0 0)" clip-path="url(#clip-path)">
          <g id="Group_166" data-name="Group 166" transform="translate(73.115 89.185)">
            <g id="Group_165" data-name="Group 165" transform="translate(0 0)">
              <g id="Group_164" data-name="Group 164">
                <g id="Group_162" data-name="Group 162" transform="translate(0.003 1.619)">
                  <path id="Path_180" data-name="Path 180" d="M6.307,83.4h0A4.385,4.385,0,0,1,.47,81.429h0a4.385,4.385,0,0,1,1.946-5.892h0a4.385,4.385,0,0,1,5.892,1.947h0a4.387,4.387,0,0,1-1.949,5.893Zm13.013-7.01h0a4.391,4.391,0,0,1-5.719-1.76h0a4.389,4.389,0,0,1,1.613-5.993h0a4.389,4.389,0,0,1,5.993,1.613h0a4.389,4.389,0,0,1-1.613,5.993C19.5,76.3,19.414,76.347,19.319,76.393Zm12.6-7.741h0A4.389,4.389,0,0,1,26.327,67.1h0a4.393,4.393,0,0,1,1.268-6.076h0A4.392,4.392,0,0,1,33.672,62.3h0A4.385,4.385,0,0,1,32.4,68.373h0A4.358,4.358,0,0,1,31.915,68.651ZM44.047,60.2h0a4.387,4.387,0,0,1-5.442-1.34h0a4.386,4.386,0,0,1,.916-6.137h0a4.388,4.388,0,0,1,6.139.919h0a4.388,4.388,0,0,1-.916,6.138h0A4.573,4.573,0,0,1,44.047,60.2Zm11.628-9.131h0a4.388,4.388,0,0,1-5.29-1.139h0a4.391,4.391,0,0,1,.563-6.181h0a4.391,4.391,0,0,1,6.181.563h0a4.388,4.388,0,0,1-.563,6.181A4.268,4.268,0,0,1,55.675,51.073Zm11.081-9.785h0a4.393,4.393,0,0,1-5.122-.948h0a4.392,4.392,0,0,1,.2-6.206h0a4.389,4.389,0,0,1,6.2.206h0a4.388,4.388,0,0,1-.206,6.2A4.315,4.315,0,0,1,66.756,41.287Zm10.5-10.411h0a4.391,4.391,0,0,1-4.948-.765h0a4.39,4.39,0,0,1-.152-6.207h0a4.387,4.387,0,0,1,6.2-.151h0a4.387,4.387,0,0,1-1.1,7.123Zm9.88-10.993h0a4.391,4.391,0,0,1-4.76-.6h0a4.39,4.39,0,0,1-.512-6.186h0a4.386,4.386,0,0,1,6.185-.508h0a4.387,4.387,0,0,1,.511,6.184h0A4.349,4.349,0,0,1,87.135,19.883ZM96.366,8.336h0A4.39,4.39,0,0,1,91.8,7.894h0a4.386,4.386,0,0,1-.865-6.144h0A4.388,4.388,0,0,1,97.085.884h0a4.388,4.388,0,0,1,.862,6.146A4.327,4.327,0,0,1,96.366,8.336Z" transform="translate(80.335 242.413)" fill="#fff"/>
                  <path id="Path_181" data-name="Path 181" d="M6.309,201.155h0a4.389,4.389,0,0,1-5.866-2.028h0a4.389,4.389,0,0,1,2.028-5.866h0a4.389,4.389,0,1,1,3.838,7.894Zm37.424-23.6h0a4.389,4.389,0,0,1-5.346-1.212h0a4.389,4.389,0,0,1,.689-6.168h0a4.388,4.388,0,0,1,6.168.689h0a4.39,4.39,0,0,1-.688,6.17A4.527,4.527,0,0,1,43.733,177.552Zm11.2-9.651h0a4.388,4.388,0,0,1-5.131-.96h0a4.386,4.386,0,0,1,.227-6.2h0a4.387,4.387,0,0,1,6.2.227h0a4.392,4.392,0,0,1-.229,6.2h0A4.389,4.389,0,0,1,54.93,167.9Zm10.446-10.457h0a4.392,4.392,0,0,1-4.9-.732h0a4.387,4.387,0,0,1-.235-6.2h0a4.387,4.387,0,0,1,6.2-.234h0a4.4,4.4,0,0,1-1.062,7.167Zm9.637-11.211h0a4.387,4.387,0,0,1-4.657-.513h0a4.389,4.389,0,0,1-.7-6.168h0a4.39,4.39,0,0,1,6.168-.7h0a4.389,4.389,0,0,1-.813,7.378Zm8.774-11.894h0a4.391,4.391,0,0,1-4.4-.317h0a4.4,4.4,0,0,1-1.154-6.1h0a4.389,4.389,0,0,1,6.1-1.155h0a4.39,4.39,0,0,1,1.154,6.1h0A4.392,4.392,0,0,1,83.788,134.34Zm7.866-12.51h0a4.383,4.383,0,0,1-4.12-.147h0a4.389,4.389,0,0,1-1.6-5.994h0a4.388,4.388,0,0,1,6-1.6h0a4.387,4.387,0,0,1,1.6,6h0A4.369,4.369,0,0,1,91.654,121.83Zm6.921-13.058h0a4.377,4.377,0,0,1-3.834,0h0a4.388,4.388,0,0,1-2.041-5.86h0a4.389,4.389,0,0,1,5.863-2.043h0a4.39,4.39,0,0,1,.012,7.9Zm5.936-13.534h0a4.372,4.372,0,0,1-3.533.136h0a4.392,4.392,0,0,1-2.469-5.7h0a4.387,4.387,0,0,1,5.7-2.465h0a4.387,4.387,0,0,1,.307,8.026Zm4.924-13.933h0a4.36,4.36,0,0,1-3.229.241h0a4.386,4.386,0,0,1-2.879-5.5h0a4.386,4.386,0,0,1,5.5-2.879h0a4.389,4.389,0,0,1,2.882,5.5h0A4.366,4.366,0,0,1,109.434,81.306Zm3.886-14.256h0a4.385,4.385,0,0,1-2.917.326h0a4.393,4.393,0,0,1-3.277-5.273h0a4.386,4.386,0,0,1,5.27-3.275h0a4.389,4.389,0,0,1,.923,8.222Zm2.823-14.506h0a4.385,4.385,0,0,1-2.6.389h0a4.392,4.392,0,0,1-3.658-5.016h0a4.392,4.392,0,0,1,5.015-3.658h0a4.388,4.388,0,0,1,3.655,5.017h0A4.376,4.376,0,0,1,116.143,52.543Zm1.745-14.674h0a4.358,4.358,0,0,1-2.273.424h0a4.386,4.386,0,0,1-4.019-4.728h0a4.388,4.388,0,0,1,4.731-4.02h0a4.389,4.389,0,0,1,4.019,4.731h0A4.379,4.379,0,0,1,117.887,37.869Zm.65-14.762h0a4.408,4.408,0,0,1-1.947.44h0a4.393,4.393,0,0,1-4.359-4.422h0a4.389,4.389,0,0,1,4.419-4.358h0a4.39,4.39,0,0,1,1.887,8.339Zm-.446-14.77h0a4.366,4.366,0,0,1-1.621.429h0a4.391,4.391,0,0,1-4.677-4.082h0A4.39,4.39,0,0,1,115.877.01h0a4.385,4.385,0,0,1,4.673,4.081h0A4.383,4.383,0,0,1,118.092,8.338Z" transform="translate(51.453 73.351)" fill="#fff"/>
                  <path id="Path_182" data-name="Path 182" d="M6.309,248.021h0a4.389,4.389,0,0,1-5.866-2.028h0a4.389,4.389,0,0,1,2.028-5.866h0a4.389,4.389,0,0,1,3.839,7.894Zm12.98-7.042h0a4.389,4.389,0,0,1-5.68-1.693h0a4.391,4.391,0,0,1,1.507-6.021h0a4.388,4.388,0,0,1,6.019,1.511h0a4.384,4.384,0,0,1-1.508,6.018Q19.463,240.9,19.289,240.98Zm12.333-8.134h0a4.392,4.392,0,0,1-5.471-1.377h0a4.389,4.389,0,0,1,.982-6.128h0a4.384,4.384,0,0,1,6.127.98h0a4.392,4.392,0,0,1-.981,6.131h0A4.627,4.627,0,0,1,31.622,232.845ZM43.2,223.667h0a4.4,4.4,0,0,1-5.235-1.074h0a4.39,4.39,0,0,1,.444-6.192h0a4.39,4.39,0,0,1,6.191.442h0a4.4,4.4,0,0,1-1.4,6.825ZM53.932,213.51h0a4.389,4.389,0,0,1-4.972-.795h0a4.39,4.39,0,0,1-.1-6.2h0a4.386,4.386,0,0,1,6.205-.1h0a4.385,4.385,0,0,1,.1,6.205A4.316,4.316,0,0,1,53.932,213.51Zm9.814-11.06h0a4.394,4.394,0,0,1-4.69-.538h0a4.39,4.39,0,0,1-.643-6.174h0a4.39,4.39,0,0,1,6.174-.643h0a4.391,4.391,0,0,1-.841,7.354Zm8.806-11.871h0a4.383,4.383,0,0,1-4.384-.31h0a4.39,4.39,0,0,1-1.176-6.093h0a4.391,4.391,0,0,1,6.1-1.176h0a4.389,4.389,0,0,1-.537,7.58Zm7.741-12.59h0a4.383,4.383,0,0,1-4.057-.109h0a4.391,4.391,0,0,1-1.7-5.971h0a4.39,4.39,0,0,1,5.968-1.7h0a4.388,4.388,0,0,1-.21,7.78Zm6.621-13.21h0a4.386,4.386,0,0,1-3.717.061h0a4.39,4.39,0,0,1-2.209-5.8h0a4.389,4.389,0,0,1,5.8-2.21h0a4.389,4.389,0,0,1,.127,7.952Zm5.453-13.731h0a4.389,4.389,0,0,1-3.362.2h0a4.392,4.392,0,0,1-2.7-5.591h0a4.392,4.392,0,0,1,5.591-2.7h0a4.388,4.388,0,0,1,2.7,5.588h0A4.374,4.374,0,0,1,92.366,151.048Zm4.252-14.15h0a4.372,4.372,0,0,1-3,.307h0a4.388,4.388,0,0,1-3.173-5.334h0a4.386,4.386,0,0,1,5.334-3.173h0a4.387,4.387,0,0,1,.837,8.2Zm3.015-14.463h0a4.363,4.363,0,0,1-2.625.383h0a4.388,4.388,0,0,1-3.622-5.04h0a4.392,4.392,0,0,1,5.043-3.623h0a4.39,4.39,0,0,1,1.2,8.281Zm1.755-14.665h0a4.364,4.364,0,0,1-2.249.425h0a4.39,4.39,0,0,1-4.046-4.707h0a4.386,4.386,0,0,1,4.709-4.043h0a4.39,4.39,0,0,1,1.583,8.326ZM101.863,93h0a4.351,4.351,0,0,1-1.866.438h0A4.387,4.387,0,0,1,95.559,89.1h0A4.39,4.39,0,0,1,99.9,84.665h0A4.39,4.39,0,0,1,101.863,93Zm-.811-14.746h0a4.383,4.383,0,0,1-1.484.42h0a4.391,4.391,0,0,1-4.8-3.936h0a4.392,4.392,0,0,1,3.936-4.8h0a4.39,4.39,0,0,1,2.349,8.317ZM98.96,63.631h0A4.419,4.419,0,0,1,97.851,64h0a4.39,4.39,0,0,1-5.127-3.5h0a4.391,4.391,0,0,1,3.5-5.127h0a4.389,4.389,0,0,1,2.735,8.259ZM95.6,49.247h0a4.519,4.519,0,0,1-.737.28h0a4.389,4.389,0,0,1-5.413-3.039h0a4.383,4.383,0,0,1,3.04-5.41h0a4.384,4.384,0,0,1,5.409,3.038h0A4.387,4.387,0,0,1,95.6,49.247ZM90.988,35.21h0c-.122.059-.247.113-.376.163h0a4.392,4.392,0,0,1-5.655-2.559h0a4.392,4.392,0,0,1,2.561-5.656h0a4.389,4.389,0,0,1,3.471,8.052Zm-5.8-13.587h0l-.028.014h0a4.386,4.386,0,0,1-5.851-2.066h0a4.391,4.391,0,0,1,2.065-5.853h0a4.389,4.389,0,0,1,3.817,7.9ZM78.7,8.337h0a4.392,4.392,0,0,1-5.863-2.022h0A4.389,4.389,0,0,1,74.86.445h0a4.389,4.389,0,0,1,5.869,2.02h0A4.387,4.387,0,0,1,78.71,8.334Z" transform="translate(38.573 0)" fill="#f6403d"/>
                  <path id="Path_183" data-name="Path 183" d="M6.3,149.35h0a4.393,4.393,0,0,1-5.582-1.535h0a4.392,4.392,0,0,1,1.253-6.079h0a4.391,4.391,0,0,1,6.08,1.249h0A4.393,4.393,0,0,1,6.8,149.066,4.492,4.492,0,0,1,6.3,149.35ZM18.2,140.584h0a4.387,4.387,0,0,1-5.305-1.163h0a4.389,4.389,0,0,1,.6-6.177h0a4.386,4.386,0,0,1,6.177.6h0a4.4,4.4,0,0,1-1.474,6.737Zm10.911-9.98h0a4.392,4.392,0,0,1-5-.817h0a4.389,4.389,0,0,1-.053-6.208h0a4.388,4.388,0,0,1,6.207-.053h0a4.387,4.387,0,0,1,.051,6.2h0A4.394,4.394,0,0,1,29.106,130.6ZM38.9,119.527h0a4.389,4.389,0,0,1-4.651-.509h0a4.391,4.391,0,0,1-.708-6.167h0a4.389,4.389,0,0,1,6.166-.707h0a4.389,4.389,0,0,1-.807,7.383Zm8.565-12.042h0a4.384,4.384,0,0,1-4.274-.24h0a4.389,4.389,0,0,1-1.353-6.058h0a4.389,4.389,0,0,1,6.058-1.353h0a4.389,4.389,0,0,1,1.353,6.058h0A4.364,4.364,0,0,1,47.464,107.484Zm7.254-12.874h0a4.391,4.391,0,0,1-3.873-.014h0a4.393,4.393,0,0,1-1.978-5.884h0a4.385,4.385,0,0,1,5.88-1.979h0a4.389,4.389,0,0,1,1.981,5.882h0A4.374,4.374,0,0,1,54.717,94.611Zm5.869-13.559h0a4.39,4.39,0,0,1-3.452.168h0a4.389,4.389,0,0,1-2.581-5.646h0A4.392,4.392,0,0,1,60.2,72.99h0a4.391,4.391,0,0,1,.389,8.061Zm4.42-14.1h0a4.366,4.366,0,0,1-3.01.3h0a4.388,4.388,0,0,1-3.157-5.345h0a4.39,4.39,0,0,1,5.342-3.156h0a4.389,4.389,0,0,1,.826,8.2Zm2.925-14.478h0a4.351,4.351,0,0,1-2.559.392h0a4.384,4.384,0,0,1-3.7-4.983h0a4.388,4.388,0,0,1,4.986-3.7h0a4.389,4.389,0,0,1,1.274,8.288Zm1.395-14.7h0a4.357,4.357,0,0,1-2.1.436h0a4.387,4.387,0,0,1-4.2-4.567h0a4.388,4.388,0,0,1,4.57-4.2h0a4.389,4.389,0,0,1,4.2,4.571h0A4.385,4.385,0,0,1,69.326,37.776Zm-.156-14.763h0a4.353,4.353,0,0,1-1.64.431h0a4.392,4.392,0,0,1-4.659-4.1h0a4.391,4.391,0,0,1,4.1-4.659h0a4.386,4.386,0,0,1,4.659,4.1h0A4.387,4.387,0,0,1,69.171,23.013ZM67.459,8.338h0a4.479,4.479,0,0,1-1.182.379h0A4.389,4.389,0,0,1,61.211,5.13h0A4.389,4.389,0,0,1,64.8.063h0a4.387,4.387,0,0,1,5.064,3.589h0A4.392,4.392,0,0,1,67.459,8.338Z" transform="translate(41.686 63.187)" fill="#fff"/>
                  <path id="Path_184" data-name="Path 184" d="M6.309,102.273h0a4.391,4.391,0,0,1-5.866-2.028h0A4.389,4.389,0,0,1,2.47,94.379h0a4.389,4.389,0,0,1,3.839,7.894Zm12.826-7.316h0a4.389,4.389,0,0,1-5.576-1.529h0A4.389,4.389,0,0,1,14.8,87.346h0a4.389,4.389,0,0,1,6.083,1.241h0a4.386,4.386,0,0,1-1.239,6.078A4.184,4.184,0,0,1,19.135,94.956ZM30.887,86h0a4.39,4.39,0,0,1-5.223-1.063h0a4.392,4.392,0,0,1,.417-6.193h0a4.389,4.389,0,0,1,6.192.417h0a4.384,4.384,0,0,1-.417,6.192h0A4.4,4.4,0,0,1,30.887,86ZM41.341,75.555h0a4.393,4.393,0,0,1-4.812-.642h0a4.39,4.39,0,0,1-.413-6.194l0,0a4.393,4.393,0,0,1,6.2-.414h0a4.395,4.395,0,0,1-.967,7.251ZM50.3,63.808h0a4.376,4.376,0,0,1-4.345-.288h0a4.385,4.385,0,0,1-1.238-6.08h0A4.39,4.39,0,0,1,50.8,56.2h0a4.386,4.386,0,0,1,1.235,6.081h0A4.372,4.372,0,0,1,50.3,63.808Zm7.319-12.83h0a4.382,4.382,0,0,1-3.837,0h0a4.386,4.386,0,0,1-2.031-5.865h0a4.39,4.39,0,0,1,5.865-2.03h0a4.387,4.387,0,0,1,0,7.893Zm5.559-13.683h0a4.37,4.37,0,0,1-3.3.217h0a4.382,4.382,0,0,1-2.785-5.543v0a4.391,4.391,0,0,1,5.546-2.786h0a4.389,4.389,0,0,1,.539,8.115Zm3.7-14.3h0a4.353,4.353,0,0,1-2.734.364h0a4.387,4.387,0,0,1-3.495-5.13h0a4.39,4.39,0,0,1,5.129-3.495h0a4.387,4.387,0,0,1,3.492,5.131h0A4.38,4.38,0,0,1,66.883,23ZM68.666,8.338h0a4.373,4.373,0,0,1-2.156.432h0a4.39,4.39,0,0,1-4.142-4.623h0A4.387,4.387,0,0,1,66.987.007h0a4.39,4.39,0,0,1,1.678,8.331Z" transform="translate(12.838 92.828)" fill="#fff"/>
                  <path id="Path_185" data-name="Path 185" d="M6.306,50.393h0a4.429,4.429,0,0,1-3.354.2h0A4.428,4.428,0,0,1,.44,48.365h0a4.429,4.429,0,0,1-.2-3.354h0A4.428,4.428,0,0,1,2.467,42.5h0a4.429,4.429,0,0,1,3.354-.2h0a4.429,4.429,0,0,1,2.513,2.23h0a4.385,4.385,0,0,1-2.028,5.866Zm12.649-7.61h0A4.384,4.384,0,0,1,13.5,41.425h0a4.386,4.386,0,0,1,.949-6.133h0a4.388,4.388,0,0,1,6.133.949h0a4.389,4.389,0,0,1-.949,6.133A4.314,4.314,0,0,1,18.955,42.783Zm11.078-9.771h0a4.393,4.393,0,0,1-4.935-.754h0a4.39,4.39,0,0,1-.178-6.2h0a4.384,4.384,0,0,1,6.2-.178h0a4.394,4.394,0,0,1-1.091,7.137ZM39.153,21.4h0a4.395,4.395,0,0,1-4.313-.263h0a4.389,4.389,0,0,1-1.3-6.068h0a4.389,4.389,0,0,1,6.071-1.3h0a4.392,4.392,0,0,1-.461,7.629ZM46.025,8.334h0a4.375,4.375,0,0,1-3.609.108h0A4.389,4.389,0,0,1,40.051,2.7h0A4.388,4.388,0,0,1,45.791.338h0a4.389,4.389,0,0,1,.234,8Z" transform="translate(0 118.301)" fill="#fff"/>
                </g>
                <g id="Group_163" data-name="Group 163">
                  <path id="Path_186" data-name="Path 186" d="M6.3,62.413A4.457,4.457,0,0,0,6.985,62,260.723,260.723,0,0,0,61.011,8.681q.63-.837,1.254-1.678a4.389,4.389,0,0,0-7.051-5.228Q54.611,2.588,54,3.4A251.923,251.923,0,0,1,1.794,54.923,4.389,4.389,0,0,0,6.3,62.413Z" transform="translate(117.214 242.462)" fill="#5932ff"/>
                  <path id="Path_187" data-name="Path 187" d="M6.313,63.982A4.368,4.368,0,0,0,8.15,62.3a234.679,234.679,0,0,0,17.4-35.359c2.728-6.968,5.149-14.152,7.2-21.35a4.389,4.389,0,1,0-8.443-2.4c-1.97,6.93-4.3,13.844-6.926,20.551A225.864,225.864,0,0,1,.629,57.774a4.389,4.389,0,0,0,5.684,6.209Z" transform="translate(160.243 150.998)" fill="#00dde7"/>
                  <path id="Path_188" data-name="Path 188" d="M6.247,52.39A232.586,232.586,0,0,0,69.318,7.49a4.389,4.389,0,1,0-6.213-6.2,222.738,222.738,0,0,1-60.34,43.4C.586,45.752-.679,48.183.381,50.363A4.389,4.389,0,0,0,6.247,52.39Z" transform="translate(64.468 250.129)" fill="#00dde7"/>
                  <path id="Path_189" data-name="Path 189" d="M6.307,70.736a4.38,4.38,0,0,0,2.349-2.918q.179-.741.353-1.484A203.452,203.452,0,0,0,13.951,6.869q-.091-1.411-.2-2.822A4.389,4.389,0,1,0,5,4.732q.106,1.351.193,2.7a194.688,194.688,0,0,1-4.73,56.9Q.3,65.045.124,65.758a4.389,4.389,0,0,0,6.184,4.979Z" transform="translate(158.099 72.832)" fill="#5932ff"/>
                  <path id="Path_190" data-name="Path 190" d="M6.307,68.744a4.391,4.391,0,0,0,1.059-.724q.877-.809,1.742-1.628A202.5,202.5,0,0,0,52.855,6.282,4.389,4.389,0,1,0,44.934,2.5,193.743,193.743,0,0,1,3.078,60.014q-.828.783-1.666,1.556a4.389,4.389,0,0,0,4.9,7.174Z" transform="translate(99.625 174.547)" fill="#5932ff"/>
                  <path id="Path_191" data-name="Path 191" d="M6.306,19.668c.057-.027.113-.056.168-.086A205.526,205.526,0,0,0,24.352,8.722Q24.879,8.365,25.4,8A4.389,4.389,0,1,0,20.421.776q-.5.345-1,.687A196.8,196.8,0,0,1,2.305,11.858a4.389,4.389,0,0,0,4,7.811Z" transform="translate(60.423 250.61)" fill="#5932ff"/>
                  <path id="Path_192" data-name="Path 192" d="M0,0" transform="translate(55.845 272.176)" fill="none" stroke="#5932ff" stroke-linecap="round" stroke-linejoin="round" stroke-width="28.5"/>
                  <path id="Path_193" data-name="Path 193" d="M27.554,66.34a4.39,4.39,0,0,0,2.4-4.73q-.214-1.179-.444-2.356-.188-.959-.387-1.916a175.26,175.26,0,0,0-14.1-41.184L8.334,2.465A4.389,4.389,0,0,0,2.471.443l-.006,0A4.388,4.388,0,0,0,.446,6.314L7.126,20a166.478,166.478,0,0,1,13.4,39.119q.189.909.368,1.819.219,1.116.421,2.235a4.393,4.393,0,0,0,6.24,3.163Z" transform="translate(110.182 0)" fill="#fff"/>
                  <path id="Path_194" data-name="Path 194" d="M6.312,108.439A4.368,4.368,0,0,0,7.995,107q.37-.534.737-1.069A175.051,175.051,0,0,0,31.841,57.548,174.624,174.624,0,0,0,39.249,4.317a4.389,4.389,0,0,0-8.777.143,165.85,165.85,0,0,1-7.037,50.558A166.278,166.278,0,0,1,1.484,100.974q-.349.51-.7,1.016a4.389,4.389,0,0,0,5.529,6.448Z" transform="translate(103.651 85.457)" fill="#fff"/>
                  <path id="Path_195" data-name="Path 195" d="M6.309,33.436l.007,0A175.175,175.175,0,0,0,43.77,8.782q.632-.544,1.258-1.094a4.389,4.389,0,1,0-5.791-6.6q-.6.523-1.2,1.041A166.219,166.219,0,0,1,5.528,24.01a4.325,4.325,0,0,0-.613.262L2.368,25.593a4.389,4.389,0,0,0,3.94,7.843Z" transform="translate(38.577 216.204)" fill="#fff"/>
                  <path id="Path_196" data-name="Path 196" d="M8.439,39.768a4.388,4.388,0,0,0,2.468-3.752A144.392,144.392,0,0,0,8.707,3.6,4.389,4.389,0,0,0,.072,5.179,135.629,135.629,0,0,1,2.138,35.621a4.39,4.39,0,0,0,6.3,4.147Z" transform="translate(102.558 63.236)" fill="#f6ab3d"/>
                  <path id="Path_197" data-name="Path 197" d="M6.3,55.853a4.425,4.425,0,0,0,.817-.516q.653-.52,1.3-1.046A143.567,143.567,0,0,0,46.643,6.337a4.389,4.389,0,0,0-7.867-3.894,134.854,134.854,0,0,1-35.9,45.044q-.607.495-1.221.984A4.389,4.389,0,0,0,6.3,55.853Z" transform="translate(51.847 150.938)" fill="#f6ab3d"/>
                  <path id="Path_198" data-name="Path 198" d="M6.312,53.345a4.37,4.37,0,0,0,2.017-2.01q.4-.825.8-1.657.267-.566.529-1.136.34-.742.669-1.487A115.494,115.494,0,0,0,20.031,6.73c.041-.733.075-1.466.1-2.179a4.389,4.389,0,0,0-8.772-.325q-.037,1.006-.094,2.011A106.749,106.749,0,0,1,2.294,43.509q-.3.689-.618,1.374-.241.526-.489,1.052-.362.769-.737,1.53a4.389,4.389,0,0,0,5.861,5.881Z" transform="translate(63.932 92.524)" fill="#5932ff"/>
                  <path id="Path_199" data-name="Path 199" d="M6.309,36.068A114.725,114.725,0,0,0,42.964,8.016q.335-.386.67-.778a4.389,4.389,0,1,0-6.677-5.7q-.307.36-.617.717A106,106,0,0,1,2.471,28.174a4.389,4.389,0,1,0,3.838,7.894Z" transform="translate(12.841 160.65)" fill="#5932ff"/>
                  <path id="Path_200" data-name="Path 200" d="M6.356,52.407A85.742,85.742,0,0,0,49.017,5.967a4.389,4.389,0,1,0-8.191-3.155,77,77,0,0,1-38.308,41.7l-.048.023a4.389,4.389,0,0,0,3.836,7.895Z" transform="translate(0 117.883)" fill="#f6403d"/>
                </g>
              </g>
            </g>
          </g>
        </g>
      </g>
      <g id="Group_214" data-name="Group 214" transform="matrix(0.985, -0.174, 0.174, 0.985, 406.163, 72.434)">
        <g id="Group_193" data-name="Group 193" transform="translate(0 0)" clip-path="url(#clip-path-2)">
          <g id="Group_192" data-name="Group 192" transform="translate(31.143 9.772)">
            <g id="Group_191" data-name="Group 191" transform="translate(0 0)">
              <g id="Group_190" data-name="Group 190">
                <g id="Group_188" data-name="Group 188" transform="translate(0 5.177)">
                  <path id="Path_255" data-name="Path 255" d="M242.071,4.658a4.541,4.541,0,0,0,4.656,4.425h0a4.541,4.541,0,0,0,4.425-4.656h0A4.543,4.543,0,0,0,246.5,0h0A4.544,4.544,0,0,0,242.071,4.658Zm.349,15.22h0a4.545,4.545,0,0,0,4.582,4.5h0a4.547,4.547,0,0,0,4.5-4.582h0a4.538,4.538,0,0,0-4.578-4.5h0l-.077,0h0A4.542,4.542,0,0,0,242.42,19.878Zm-.3,15.035a4.545,4.545,0,0,0,4.32,4.752h0a4.538,4.538,0,0,0,4.753-4.32h0a4.544,4.544,0,0,0-4.32-4.752h0c-.115-.007-.227-.007-.338,0h0A4.541,4.541,0,0,0,242.124,34.913ZM240.978,49.9a4.546,4.546,0,0,0,4.043,4.992h0a4.542,4.542,0,0,0,4.992-4.046h0v0h0a4.54,4.54,0,0,0-4.043-4.992h0a4.223,4.223,0,0,0-.594-.026h0A4.547,4.547,0,0,0,240.978,49.9ZM236.138,79.56a4.542,4.542,0,0,0,3.445,5.422h0A4.546,4.546,0,0,0,245,81.535h0a4.546,4.546,0,0,0-3.448-5.422h0a4.418,4.418,0,0,0-1.106-.106h0A4.539,4.539,0,0,0,236.138,79.56Zm-3.691,14.57a4.543,4.543,0,0,0,3.13,5.612h0a4.541,4.541,0,0,0,5.608-3.131h0A4.541,4.541,0,0,0,238.059,91h0a4.56,4.56,0,0,0-1.359-.173h0A4.546,4.546,0,0,0,232.447,94.131Zm-4.519,14.338v0a4.544,4.544,0,0,0,2.8,5.783h0a4.541,4.541,0,0,0,5.779-2.8h0a4.543,4.543,0,0,0-2.8-5.78h0a4.577,4.577,0,0,0-1.607-.249h0A4.543,4.543,0,0,0,227.928,108.469ZM222.6,122.494a4.539,4.539,0,0,0,2.466,5.932h0A4.541,4.541,0,0,0,231,125.959h0a4.546,4.546,0,0,0-2.466-5.931h0a4.525,4.525,0,0,0-1.845-.342h0A4.538,4.538,0,0,0,222.6,122.494ZM216.479,136.2h0a4.539,4.539,0,0,0,2.121,6.062h0a4.54,4.54,0,0,0,6.061-2.122h0a4.541,4.541,0,0,0-2.122-6.061h0a4.516,4.516,0,0,0-2.084-.451h0A4.544,4.544,0,0,0,216.479,136.2Zm-6.9,13.337a4.542,4.542,0,0,0,1.774,6.176h0a4.541,4.541,0,0,0,6.172-1.774h0a4.546,4.546,0,0,0-1.774-6.176h0a4.521,4.521,0,0,0-2.31-.565h0A4.533,4.533,0,0,0,209.584,149.539Zm-7.648,12.93a4.542,4.542,0,0,0,1.416,6.264h0a4.544,4.544,0,0,0,6.268-1.419h0a4.545,4.545,0,0,0-1.419-6.264h0a4.526,4.526,0,0,0-2.537-.7h0A4.533,4.533,0,0,0,201.936,162.469Zm-8.378,12.476h0a4.54,4.54,0,0,0,1.06,6.333h0a4.539,4.539,0,0,0,6.334-1.061h0a4.541,4.541,0,0,0-1.061-6.334h0a4.526,4.526,0,0,0-2.751-.842h0A4.539,4.539,0,0,0,193.558,174.945Zm-9.068,11.983h0a4.541,4.541,0,0,0,.7,6.385h0a4.545,4.545,0,0,0,6.388-.7h0a4.545,4.545,0,0,0-.7-6.385h0a4.529,4.529,0,0,0-2.956-1h0A4.538,4.538,0,0,0,184.49,186.928Zm-9.739,11.456a4.542,4.542,0,0,0,.335,6.413h0a4.546,4.546,0,0,0,6.416-.335h0a4.545,4.545,0,0,0-.335-6.416h0a4.527,4.527,0,0,0-3.154-1.163h0A4.527,4.527,0,0,0,174.751,198.384Zm-10.373,10.885a4.54,4.54,0,0,0-.027,6.423h0a4.54,4.54,0,0,0,6.422.028h0a4.54,4.54,0,0,0,.028-6.422h0a4.526,4.526,0,0,0-3.344-1.344h0A4.51,4.51,0,0,0,164.378,209.269ZM153.4,219.551a4.543,4.543,0,0,0-.391,6.413h0a4.542,4.542,0,0,0,6.413.387h0a4.541,4.541,0,0,0,.392-6.408h0a4.53,4.53,0,0,0-3.521-1.53h0A4.514,4.514,0,0,0,153.4,219.551Zm-11.542,9.643a4.542,4.542,0,0,0-.756,6.38h0a4.545,4.545,0,0,0,6.38.756h0a4.542,4.542,0,0,0,.752-6.38h0a4.538,4.538,0,0,0-3.686-1.731h0A4.524,4.524,0,0,0,141.859,229.195Zm-12.076,8.977h0a4.541,4.541,0,0,0-1.118,6.325h0a4.541,4.541,0,0,0,6.325,1.115h0a4.538,4.538,0,0,0,1.118-6.323h0a4.537,4.537,0,0,0-3.841-1.94h0A4.5,4.5,0,0,0,129.783,238.171Zm-12.569,8.273h0a4.54,4.54,0,0,0-1.477,6.251h0a4.541,4.541,0,0,0,6.252,1.477h0a4.544,4.544,0,0,0,1.476-6.252h0a4.54,4.54,0,0,0-3.986-2.153h0A4.5,4.5,0,0,0,117.214,246.444Zm-13.024,7.543a4.542,4.542,0,0,0-1.83,6.159h0a4.542,4.542,0,0,0,6.156,1.83h0a4.542,4.542,0,0,0,1.83-6.156h0a4.536,4.536,0,0,0-4.113-2.379h0A4.535,4.535,0,0,0,104.19,253.988Zm-13.439,6.789a4.543,4.543,0,0,0-2.18,6.041h0A4.54,4.54,0,0,0,94.614,269h0a4.542,4.542,0,0,0,2.181-6.041h0a4.543,4.543,0,0,0-4.231-2.611h0A4.523,4.523,0,0,0,90.751,260.777Zm-13.806,6a4.539,4.539,0,0,0-2.525,5.906h0a4.537,4.537,0,0,0,5.906,2.525h0a4.54,4.54,0,0,0,2.525-5.906h0a4.541,4.541,0,0,0-4.332-2.851h0A4.5,4.5,0,0,0,76.945,266.781Zm-14.136,5.2a4.544,4.544,0,0,0-2.861,5.751h0A4.54,4.54,0,0,0,65.7,280.6h0a4.543,4.543,0,0,0,2.861-5.752h0a4.545,4.545,0,0,0-4.422-3.094h0A4.528,4.528,0,0,0,62.809,271.986Zm-14.384,4.374h0a4.537,4.537,0,0,0-3.184,5.575h0a4.538,4.538,0,0,0,5.578,3.187h0A4.54,4.54,0,0,0,54,279.543h0a4.54,4.54,0,0,0-4.491-3.345h0A4.594,4.594,0,0,0,48.425,276.359ZM33.816,279.9a4.545,4.545,0,0,0-3.5,5.388h0a4.544,4.544,0,0,0,5.388,3.5h0a4.543,4.543,0,0,0,3.5-5.386h0a4.548,4.548,0,0,0-4.556-3.6h0A4.665,4.665,0,0,0,33.816,279.9ZM19.03,282.6h0a4.54,4.54,0,0,0-3.8,5.176h0a4.54,4.54,0,0,0,5.176,3.8h0a4.541,4.541,0,0,0,3.8-5.176h0a4.543,4.543,0,0,0-4.6-3.856h0A4.412,4.412,0,0,0,19.03,282.6ZM4.11,284.448A4.543,4.543,0,0,0,.021,289.4h0a4.538,4.538,0,0,0,4.951,4.089h0a4.54,4.54,0,0,0,4.089-4.951h0a4.539,4.539,0,0,0-4.632-4.11h0C4.324,284.434,4.215,284.44,4.11,284.448Z" transform="translate(23.595 0.444)" fill="#fff"/>
                  <path id="Path_256" data-name="Path 256" d="M231.181,4.658a4.542,4.542,0,0,0,4.656,4.426h0a4.543,4.543,0,0,0,4.425-4.656h0A4.543,4.543,0,0,0,235.606,0h0A4.543,4.543,0,0,0,231.181,4.658Zm.31,15.182a4.543,4.543,0,0,0,4.545,4.539h0a4.538,4.538,0,0,0,4.539-4.544h0a4.547,4.547,0,0,0-4.544-4.539h0l-.118,0h0A4.543,4.543,0,0,0,231.491,19.84Zm-.473,15a4.55,4.55,0,0,0,4.245,4.822h0a4.543,4.543,0,0,0,4.822-4.246h0a4.541,4.541,0,0,0-4.246-4.821h0c-.137-.01-.274-.013-.408-.01h0A4.547,4.547,0,0,0,231.018,34.835Zm-1.427,14.929a4.538,4.538,0,0,0,3.927,5.082h0a4.543,4.543,0,0,0,5.085-3.924h0a4.547,4.547,0,0,0-3.927-5.084h0a4.282,4.282,0,0,0-.7-.036h0A4.541,4.541,0,0,0,229.591,49.765Zm-2.39,14.8a4.543,4.543,0,0,0,3.589,5.329h0a4.544,4.544,0,0,0,5.329-3.592h0a4.542,4.542,0,0,0-3.592-5.326h0a4.618,4.618,0,0,0-.987-.083h0A4.548,4.548,0,0,0,227.2,64.57Zm-3.342,14.621a4.541,4.541,0,0,0,3.237,5.548h0a4.546,4.546,0,0,0,5.548-3.238h0a4.542,4.542,0,0,0-3.237-5.548h0a4.526,4.526,0,0,0-1.273-.149h0A4.544,4.544,0,0,0,223.858,79.191Zm-4.283,14.371h0a4.542,4.542,0,0,0,2.87,5.746h0a4.546,4.546,0,0,0,5.749-2.869h0a4.547,4.547,0,0,0-2.873-5.747h0a4.553,4.553,0,0,0-1.552-.235h0A4.549,4.549,0,0,0,219.575,93.562ZM208.28,121.29h0a4.543,4.543,0,0,0,2.106,6.068h0a4.54,4.54,0,0,0,6.068-2.106h0a4.542,4.542,0,0,0-2.106-6.068h0a4.52,4.52,0,0,0-2.093-.454h0A4.539,4.539,0,0,0,208.28,121.29Zm-6.97,13.266a4.548,4.548,0,0,0,1.71,6.194h0a4.548,4.548,0,0,0,6.194-1.711h0a4.544,4.544,0,0,0-1.711-6.193h0a4.532,4.532,0,0,0-2.353-.592h0A4.55,4.55,0,0,0,201.31,134.556Zm-7.808,12.8h0a4.543,4.543,0,0,0,1.308,6.29h0a4.543,4.543,0,0,0,6.289-1.308h0v0h0a4.537,4.537,0,0,0-1.308-6.285h0a4.513,4.513,0,0,0-2.6-.744h0A4.537,4.537,0,0,0,193.5,147.353Zm-8.618,12.272h0a4.542,4.542,0,0,0,.9,6.361h0a4.545,4.545,0,0,0,6.36-.906h0a4.544,4.544,0,0,0-.9-6.36h0a4.523,4.523,0,0,0-2.842-.907h0A4.529,4.529,0,0,0,184.884,159.625Zm-9.389,11.7h0a4.539,4.539,0,0,0,.495,6.4h0a4.539,4.539,0,0,0,6.4-.495h0a4.539,4.539,0,0,0-.495-6.4h0a4.514,4.514,0,0,0-3.067-1.092h0A4.527,4.527,0,0,0,175.495,171.323ZM165.376,182.4h0a4.543,4.543,0,0,0,.084,6.426h0a4.545,4.545,0,0,0,6.423-.084h0a4.548,4.548,0,0,0-.084-6.426h0a4.538,4.538,0,0,0-3.288-1.288h0A4.523,4.523,0,0,0,165.376,182.4ZM154.564,192.8h0a4.547,4.547,0,0,0-.327,6.417h0a4.546,4.546,0,0,0,6.417.328h0v0h0a4.542,4.542,0,0,0,.328-6.414h0a4.54,4.54,0,0,0-3.491-1.5h0A4.539,4.539,0,0,0,154.564,192.8Zm-11.455,9.7a4.541,4.541,0,0,0-.737,6.38h0a4.541,4.541,0,0,0,6.38.736h0a4.538,4.538,0,0,0,.736-6.38h0a4.532,4.532,0,0,0-3.676-1.721h0A4.527,4.527,0,0,0,143.11,202.5Zm-12.054,8.941h0a4.541,4.541,0,0,0-1.146,6.32h0a4.54,4.54,0,0,0,6.32,1.146h0a4.541,4.541,0,0,0,1.146-6.32h0a4.541,4.541,0,0,0-3.854-1.955h0A4.52,4.52,0,0,0,131.055,211.444Zm-12.607,8.149a4.54,4.54,0,0,0-1.55,6.235h0a4.542,4.542,0,0,0,6.235,1.551h0a4.542,4.542,0,0,0,1.547-6.235h0a4.537,4.537,0,0,0-4.01-2.2h0A4.518,4.518,0,0,0,118.449,219.593Zm-13.11,7.323a4.54,4.54,0,0,0-1.949,6.121h0a4.539,4.539,0,0,0,6.12,1.948h0a4.543,4.543,0,0,0,1.949-6.121h0a4.537,4.537,0,0,0-4.154-2.454h0A4.512,4.512,0,0,0,105.339,226.916ZM91.78,233.374h0a4.542,4.542,0,0,0-2.341,5.984h0a4.542,4.542,0,0,0,5.98,2.34h0a4.54,4.54,0,0,0,2.341-5.98h0A4.539,4.539,0,0,0,93.483,233h0A4.563,4.563,0,0,0,91.78,233.374Zm-13.951,5.569h0a4.542,4.542,0,0,0-2.725,5.815h0a4.542,4.542,0,0,0,5.815,2.728h0v0h0a4.537,4.537,0,0,0,2.724-5.815h0a4.541,4.541,0,0,0-4.384-3h0A4.527,4.527,0,0,0,77.828,238.943ZM63.57,243.584h0a4.541,4.541,0,0,0-3.1,5.627h0a4.54,4.54,0,0,0,5.627,3.1h0a4.542,4.542,0,0,0,3.1-5.63h0a4.547,4.547,0,0,0-4.477-3.275h0A4.517,4.517,0,0,0,63.57,243.584Zm-14.535,3.709a4.545,4.545,0,0,0-3.455,5.416h0A4.544,4.544,0,0,0,51,256.165h0a4.541,4.541,0,0,0,3.456-5.416h0a4.541,4.541,0,0,0-4.545-3.561h0A4.5,4.5,0,0,0,49.035,247.294ZM34.3,250.057h0a4.54,4.54,0,0,0-3.8,5.18h0a4.54,4.54,0,0,0,5.179,3.8h0a4.541,4.541,0,0,0,3.8-5.182h0a4.542,4.542,0,0,0-4.6-3.85h0A4.5,4.5,0,0,0,34.3,250.057ZM19.4,251.864a4.546,4.546,0,0,0-4.122,4.929h0a4.543,4.543,0,0,0,4.929,4.119h0a4.541,4.541,0,0,0,4.122-4.926h0a4.542,4.542,0,0,0-4.636-4.138h0C19.6,251.85,19.5,251.855,19.4,251.864ZM0,257.377A4.542,4.542,0,0,0,4.658,261.8h0a4.542,4.542,0,0,0,4.425-4.656h0a4.543,4.543,0,0,0-4.656-4.425h0A4.542,4.542,0,0,0,0,257.377Z" transform="translate(3.998 2.764)" fill="#fff"/>
                  <path id="Path_257" data-name="Path 257" d="M201.827,4.658a4.543,4.543,0,0,0,4.656,4.425h0a4.542,4.542,0,0,0,4.425-4.656h0A4.541,4.541,0,0,0,206.253,0h0A4.542,4.542,0,0,0,201.827,4.658Zm-.453,16.619a4.538,4.538,0,0,0,4.227,4.834h0a4.54,4.54,0,0,0,4.834-4.227h0a4.541,4.541,0,0,0-4.227-4.837h0c-.144-.01-.284-.012-.424-.009h0A4.541,4.541,0,0,0,201.374,21.277ZM159.44,131.452a4.539,4.539,0,0,0,.807,6.372h0a4.539,4.539,0,0,0,6.372-.806h0a4.543,4.543,0,0,0-.806-6.373h0a4.509,4.509,0,0,0-2.9-.949h0A4.523,4.523,0,0,0,159.44,131.452Zm-9.6,11.478a4.539,4.539,0,0,0,.339,6.413h0a4.54,4.54,0,0,0,6.413-.336h0a4.542,4.542,0,0,0-.336-6.416h0a4.53,4.53,0,0,0-3.154-1.164h0A4.538,4.538,0,0,0,149.844,142.93Zm-10.411,10.742a4.544,4.544,0,0,0-.133,6.422h0a4.541,4.541,0,0,0,6.421.136h0a4.538,4.538,0,0,0,.133-6.422h0a4.518,4.518,0,0,0-3.393-1.4h0A4.542,4.542,0,0,0,139.433,153.672Zm-11.171,9.952a4.543,4.543,0,0,0-.605,6.4h0a4.544,4.544,0,0,0,6.4.606h0a4.543,4.543,0,0,0,.6-6.4h0a4.532,4.532,0,0,0-3.62-1.645h0A4.519,4.519,0,0,0,128.262,163.624Zm-11.875,9.106a4.541,4.541,0,0,0-1.076,6.332h0a4.543,4.543,0,0,0,6.334,1.076h0a4.541,4.541,0,0,0,1.073-6.331h0a4.533,4.533,0,0,0-3.824-1.914h0A4.52,4.52,0,0,0,116.388,172.73Zm-12.516,8.207a4.541,4.541,0,0,0-1.541,6.234h0a4.545,4.545,0,0,0,6.238,1.541h0a4.545,4.545,0,0,0,1.541-6.237h0a4.543,4.543,0,0,0-4.007-2.194h0A4.531,4.531,0,0,0,103.871,180.937Zm-13.089,7.256a4.541,4.541,0,0,0-2,6.106h0a4.542,4.542,0,0,0,6.106,2h0a4.54,4.54,0,0,0,2-6.106h0a4.543,4.543,0,0,0-4.17-2.486h0A4.573,4.573,0,0,0,90.782,188.193ZM77.19,194.464a4.536,4.536,0,0,0-2.444,5.938h0a4.537,4.537,0,0,0,5.938,2.444h0a4.539,4.539,0,0,0,2.444-5.938h0a4.541,4.541,0,0,0-4.309-2.795h0A4.48,4.48,0,0,0,77.19,194.464ZM63.166,199.7h0a4.545,4.545,0,0,0-2.883,5.743h0a4.542,4.542,0,0,0,5.742,2.879h0a4.537,4.537,0,0,0,2.88-5.74h0a4.548,4.548,0,0,0-4.425-3.114h0A4.519,4.519,0,0,0,63.166,199.7Zm-14.36,4.179a4.543,4.543,0,0,0-3.3,5.511h0a4.543,4.543,0,0,0,5.512,3.3h0a4.545,4.545,0,0,0,3.3-5.511h0a4.541,4.541,0,0,0-4.517-3.437h0A4.477,4.477,0,0,0,48.807,203.881Zm-14.629,3.1a4.546,4.546,0,0,0-3.7,5.253h0a4.546,4.546,0,0,0,5.253,3.7h0a4.544,4.544,0,0,0,3.7-5.253h0a4.545,4.545,0,0,0-4.585-3.764h0A4.8,4.8,0,0,0,34.177,206.98Zm-14.816,2.01a4.543,4.543,0,0,0-4.076,4.966h0a4.541,4.541,0,0,0,4.963,4.076h0a4.543,4.543,0,0,0,4.076-4.967h0a4.537,4.537,0,0,0-4.632-4.093h0C19.583,208.975,19.472,208.981,19.361,208.99ZM0,214.569a4.544,4.544,0,0,0,4.656,4.426h0a4.543,4.543,0,0,0,4.425-4.657h0a4.542,4.542,0,0,0-4.656-4.425h0A4.543,4.543,0,0,0,0,214.569Z" transform="translate(3.112 15.043)" fill="#f6ab3d"/>
                  <path id="Path_258" data-name="Path 258" d="M176.045,0a4.542,4.542,0,0,0-4.419,4.663h0a4.542,4.542,0,0,0,4.663,4.418h0a4.541,4.541,0,0,0,4.418-4.662h0A4.543,4.543,0,0,0,176.051,0h-.006Zm-4.024,19.9a4.54,4.54,0,0,0,4.6,4.481h0a4.542,4.542,0,0,0,4.481-4.6h0a4.541,4.541,0,0,0-4.6-4.48h-.057A4.54,4.54,0,0,0,172.021,19.9Zm-.437,14.892v0a4.537,4.537,0,0,0,4.2,4.854h0a4.541,4.541,0,0,0,4.858-4.2h0a4.543,4.543,0,0,0-4.2-4.858h0c-.15-.009-.3-.014-.45-.01h0A4.542,4.542,0,0,0,171.584,34.791Zm-1.715,14.8h0a4.54,4.54,0,0,0,3.768,5.2h0a4.54,4.54,0,0,0,5.2-3.767h0a4.544,4.544,0,0,0-3.767-5.2h0a4.689,4.689,0,0,0-.837-.055h0A4.541,4.541,0,0,0,169.869,49.588Zm-2.992,14.59a4.544,4.544,0,0,0,3.3,5.512h0a4.544,4.544,0,0,0,5.511-3.3h0a4.546,4.546,0,0,0-3.3-5.512h0a4.607,4.607,0,0,0-1.221-.135h0A4.543,4.543,0,0,0,166.877,64.178Zm-4.25,14.275a4.543,4.543,0,0,0,2.806,5.779h0a4.545,4.545,0,0,0,5.779-2.81h0a4.542,4.542,0,0,0-2.809-5.776h0a4.508,4.508,0,0,0-1.6-.249h0A4.541,4.541,0,0,0,162.627,78.453ZM157.151,92.3h0a4.542,4.542,0,0,0,2.3,6h0a4.544,4.544,0,0,0,6-2.3h0a4.54,4.54,0,0,0-2.3-6h0a4.548,4.548,0,0,0-1.965-.393h0A4.544,4.544,0,0,0,157.151,92.3ZM150.5,105.625a4.542,4.542,0,0,0,1.764,6.176h0a4.544,4.544,0,0,0,6.176-1.767h0v0h0a4.537,4.537,0,0,0-1.768-6.172h0a4.509,4.509,0,0,0-2.313-.572h0A4.54,4.54,0,0,0,150.5,105.625Zm-7.785,12.7a4.539,4.539,0,0,0,1.225,6.3h0a4.547,4.547,0,0,0,6.307-1.229h0a4.543,4.543,0,0,0-1.229-6.3h0a4.54,4.54,0,0,0-2.65-.774h0A4.525,4.525,0,0,0,142.713,118.325Zm-8.852,11.985a4.543,4.543,0,0,0,.68,6.387h0a4.544,4.544,0,0,0,6.388-.682h0a4.542,4.542,0,0,0-.682-6.388h0a4.524,4.524,0,0,0-2.966-1.005h0A4.522,4.522,0,0,0,133.861,130.311Zm-9.852,11.181a4.548,4.548,0,0,0,.129,6.425h0a4.546,4.546,0,0,0,6.425-.132h0a4.541,4.541,0,0,0-.132-6.421h0a4.524,4.524,0,0,0-3.262-1.266h0A4.525,4.525,0,0,0,124.01,141.491Zm-10.773,10.3a4.544,4.544,0,0,0-.424,6.41h0a4.545,4.545,0,0,0,6.411.424h0a4.542,4.542,0,0,0,.42-6.411h0a4.527,4.527,0,0,0-3.534-1.549h0A4.528,4.528,0,0,0,113.237,151.787Zm-11.62,9.332a4.539,4.539,0,0,0-.974,6.347h0a4.539,4.539,0,0,0,6.351.974h0a4.542,4.542,0,0,0,.97-6.351h0a4.534,4.534,0,0,0-3.781-1.852h0A4.5,4.5,0,0,0,101.616,161.119Zm-12.383,8.293a4.546,4.546,0,0,0-1.515,6.244h0a4.539,4.539,0,0,0,6.24,1.515h0a4.543,4.543,0,0,0,1.519-6.241h0a4.543,4.543,0,0,0-4-2.177h0A4.541,4.541,0,0,0,89.233,169.412ZM76.18,176.6a4.543,4.543,0,0,0-2.051,6.088h0a4.541,4.541,0,0,0,6.088,2.052h0a4.542,4.542,0,0,0,2.051-6.085h0a4.539,4.539,0,0,0-4.19-2.524h0A4.528,4.528,0,0,0,76.18,176.6Zm-13.627,6.032a4.541,4.541,0,0,0-2.573,5.885h0a4.543,4.543,0,0,0,5.885,2.576h0a4.543,4.543,0,0,0,2.573-5.885h0a4.543,4.543,0,0,0-4.346-2.886h0A4.534,4.534,0,0,0,62.553,182.635Zm-14.092,4.819a4.545,4.545,0,0,0-3.08,5.64h0a4.546,4.546,0,0,0,5.639,3.077h0a4.54,4.54,0,0,0,3.077-5.638h0a4.545,4.545,0,0,0-4.471-3.26h0A4.539,4.539,0,0,0,48.462,187.454ZM34,191.031a4.545,4.545,0,0,0-3.556,5.348h0a4.545,4.545,0,0,0,5.352,3.557h0a4.543,4.543,0,0,0,3.553-5.352h0a4.54,4.54,0,0,0-4.56-3.643h0A4.523,4.523,0,0,0,34,191.031Zm-14.716,2.307a4.545,4.545,0,0,0-4,5.026h0a4.542,4.542,0,0,0,5.025,4h0a4.542,4.542,0,0,0,4-5.022h0a4.541,4.541,0,0,0-4.624-4.03h0C19.551,193.316,19.417,193.322,19.285,193.338ZM1.252,195.787A4.565,4.565,0,0,0,0,199.033H0a4.562,4.562,0,0,0,1.414,3.175h0a4.561,4.561,0,0,0,3.243,1.25h0a4.561,4.561,0,0,0,3.178-1.414h0A4.57,4.57,0,0,0,9.083,198.8h0a4.566,4.566,0,0,0-1.411-3.178h0a4.57,4.57,0,0,0-3.246-1.247h0A4.572,4.572,0,0,0,1.252,195.787Z" transform="translate(2.333 0)" fill="#f6403d"/>
                  <path id="Path_259" data-name="Path 259" d="M123.22,4.659a4.542,4.542,0,0,0,4.656,4.425h0A4.543,4.543,0,0,0,132.3,4.427h0A4.543,4.543,0,0,0,127.645,0h0A4.542,4.542,0,0,0,123.22,4.659Zm-.053,14.935h0a4.542,4.542,0,0,0,4.3,4.775h0a4.544,4.544,0,0,0,4.776-4.3h0a4.542,4.542,0,0,0-4.3-4.775h0c-.121-.007-.24-.007-.358,0h0A4.54,4.54,0,0,0,123.167,19.594Zm-1.551,14.733h0a4.54,4.54,0,0,0,3.774,5.2h0a4.539,4.539,0,0,0,5.2-3.774h0a4.54,4.54,0,0,0-3.773-5.2h0a4.625,4.625,0,0,0-.833-.055h0A4.544,4.544,0,0,0,121.616,34.327Zm-3.087,14.484a4.542,4.542,0,0,0,3.209,5.565h0A4.541,4.541,0,0,0,127.3,51.17h0A4.545,4.545,0,0,0,124.1,45.6h0a4.576,4.576,0,0,0-1.3-.155h0A4.546,4.546,0,0,0,118.529,48.811ZM113.936,62.89a4.544,4.544,0,0,0,2.6,5.874h0a4.54,4.54,0,0,0,5.871-2.6h0a4.543,4.543,0,0,0-2.6-5.871h0a4.568,4.568,0,0,0-1.749-.306h0A4.548,4.548,0,0,0,113.936,62.89ZM100.459,89.22a4.542,4.542,0,0,0,1.324,6.286h0a4.544,4.544,0,0,0,6.285-1.324h0a4.543,4.543,0,0,0-1.323-6.285h0a4.533,4.533,0,0,0-2.595-.738h0A4.535,4.535,0,0,0,100.459,89.22Zm-8.728,11.969h0a4.541,4.541,0,0,0,.66,6.39h0a4.539,4.539,0,0,0,6.389-.661h0a4.54,4.54,0,0,0-.661-6.388h0a4.527,4.527,0,0,0-2.978-1.015h0A4.528,4.528,0,0,0,91.731,101.188Zm-9.929,11a4.542,4.542,0,0,0-.006,6.422h0a4.543,4.543,0,0,0,6.425.005h0a4.539,4.539,0,0,0,.005-6.422h0a4.522,4.522,0,0,0-3.331-1.331h0A4.523,4.523,0,0,0,81.8,112.19ZM70.786,122.1h0a4.54,4.54,0,0,0-.673,6.387h0a4.542,4.542,0,0,0,6.387.673h0a4.54,4.54,0,0,0,.673-6.388h0a4.529,4.529,0,0,0-3.649-1.683h0A4.514,4.514,0,0,0,70.786,122.1ZM58.8,130.807a4.546,4.546,0,0,0-1.335,6.283h0a4.54,4.54,0,0,0,6.283,1.335h0a4.54,4.54,0,0,0,1.335-6.283h0a4.538,4.538,0,0,0-3.93-2.069h0A4.513,4.513,0,0,0,58.8,130.807Zm-12.83,7.405a4.547,4.547,0,0,0-1.987,6.111h0a4.54,4.54,0,0,0,6.109,1.984h0a4.543,4.543,0,0,0,1.987-6.109h0a4.544,4.544,0,0,0-4.166-2.479h0A4.548,4.548,0,0,0,45.965,138.213Zm-13.538,6.02a4.541,4.541,0,0,0-2.618,5.864h0a4.546,4.546,0,0,0,5.866,2.621h0a4.542,4.542,0,0,0,2.618-5.866h0a4.54,4.54,0,0,0-4.356-2.918h0A4.5,4.5,0,0,0,32.427,144.233Zm-14.1,4.558a4.542,4.542,0,0,0-3.219,5.557h0a4.54,4.54,0,0,0,5.557,3.222h0a4.541,4.541,0,0,0,3.219-5.557h0a4.54,4.54,0,0,0-4.5-3.373h0A4.461,4.461,0,0,0,18.332,148.791ZM3.838,151.842h0A4.541,4.541,0,0,0,.055,157.03h0a4.54,4.54,0,0,0,5.188,3.787h0a4.546,4.546,0,0,0,3.787-5.189h0a4.546,4.546,0,0,0-4.6-3.839h0A4.592,4.592,0,0,0,3.838,151.842Z" transform="translate(20.49 10.384)" fill="#fff"/>
                  <path id="Path_260" data-name="Path 260" d="M112.354,4.658a4.541,4.541,0,0,0,4.656,4.425h0a4.544,4.544,0,0,0,4.425-4.656h0A4.543,4.543,0,0,0,116.779,0h0A4.54,4.54,0,0,0,112.354,4.658Zm-.322,14.777a4.542,4.542,0,0,0,4.136,4.914h0a4.543,4.543,0,0,0,4.917-4.134h0a4.547,4.547,0,0,0-4.136-4.916h0a4.8,4.8,0,0,0-.511-.016h0A4.547,4.547,0,0,0,112.033,19.435ZM109.8,33.942h0a4.545,4.545,0,0,0,3.448,5.422h0a4.539,4.539,0,0,0,5.419-3.448h0a4.536,4.536,0,0,0-3.444-5.419h0a4.534,4.534,0,0,0-1.106-.109h0A4.543,4.543,0,0,0,109.8,33.942Zm-4.137,14.083h0a4.537,4.537,0,0,0,2.693,5.83h0a4.539,4.539,0,0,0,5.83-2.692h0a4.54,4.54,0,0,0-2.693-5.831h0a4.5,4.5,0,0,0-1.684-.28h0A4.536,4.536,0,0,0,105.666,48.026Zm-5.972,13.4h0a4.543,4.543,0,0,0,1.9,6.137h0a4.541,4.541,0,0,0,6.138-1.9h0a4.537,4.537,0,0,0-1.9-6.135h0A4.511,4.511,0,0,0,103.6,59h0A4.539,4.539,0,0,0,99.694,61.423ZM92,73.92a4.539,4.539,0,0,0,1.071,6.334h0a4.539,4.539,0,0,0,6.333-1.07h0v0h0a4.544,4.544,0,0,0-1.07-6.333h0a4.517,4.517,0,0,0-2.744-.842h0A4.528,4.528,0,0,0,92,73.92ZM82.718,85.3a4.542,4.542,0,0,0,.227,6.419h0a4.542,4.542,0,0,0,6.419-.227h0a4.545,4.545,0,0,0-.227-6.422h0a4.548,4.548,0,0,0-3.213-1.216h0A4.525,4.525,0,0,0,82.718,85.3Zm-10.7,10.065h0a4.54,4.54,0,0,0-.618,6.393h0a4.544,4.544,0,0,0,6.4.618h0a4.541,4.541,0,0,0,.615-6.392h0a4.53,4.53,0,0,0-3.623-1.656h0A4.524,4.524,0,0,0,72.019,95.368Zm-11.93,8.568h0a4.544,4.544,0,0,0-1.453,6.258h0a4.541,4.541,0,0,0,6.255,1.453h0a4.538,4.538,0,0,0,1.457-6.255h0a4.54,4.54,0,0,0-3.976-2.14h0A4.534,4.534,0,0,0,60.089,103.937Zm-12.957,6.914a4.544,4.544,0,0,0-2.273,6.008h0a4.539,4.539,0,0,0,6.008,2.274h0a4.544,4.544,0,0,0,2.274-6.007h0a4.544,4.544,0,0,0-4.258-2.675h0A4.515,4.515,0,0,0,47.131,110.851ZM33.37,115.98a4.543,4.543,0,0,0-3.054,5.652h0a4.54,4.54,0,0,0,5.652,3.054h0a4.544,4.544,0,0,0,3.053-5.651h0a4.545,4.545,0,0,0-4.466-3.244h0A4.705,4.705,0,0,0,33.37,115.98Zm-14.316,3.25a4.544,4.544,0,0,0-3.777,5.2h0a4.542,4.542,0,0,0,5.194,3.777h0v0h0a4.538,4.538,0,0,0,3.78-5.195h0a4.541,4.541,0,0,0-4.6-3.83h0A4.994,4.994,0,0,0,19.053,119.23Zm-17.8,2.747A4.562,4.562,0,0,0,0,125.22H0A4.566,4.566,0,0,0,1.415,128.4h0a4.572,4.572,0,0,0,3.242,1.247h0a4.573,4.573,0,0,0,3.178-1.41h0a4.572,4.572,0,0,0,1.246-3.246h0a4.569,4.569,0,0,0-1.41-3.175h0a4.56,4.56,0,0,0-3.246-1.25h0A4.557,4.557,0,0,0,1.252,121.977Z" transform="translate(0.777 12.699)" fill="#fff"/>
                  <path id="Path_261" data-name="Path 261" d="M82.585,4.659a4.543,4.543,0,0,0,4.656,4.425h0a4.545,4.545,0,0,0,4.428-4.656h0A4.545,4.545,0,0,0,87.01,0h0A4.543,4.543,0,0,0,82.585,4.659Zm-.279,14.7v0a4.539,4.539,0,0,0,4.055,4.979h0a4.54,4.54,0,0,0,4.979-4.055h0a4.548,4.548,0,0,0-4.058-4.982h0a4.377,4.377,0,0,0-.584-.023h0A4.544,4.544,0,0,0,82.306,19.361ZM79.539,33.551h0a4.536,4.536,0,0,0,3.09,5.629h0a4.54,4.54,0,0,0,5.632-3.09h0a4.544,4.544,0,0,0-3.093-5.631h0a4.521,4.521,0,0,0-1.385-.179h0A4.54,4.54,0,0,0,79.539,33.551ZM74.257,47h0a4.546,4.546,0,0,0,2.027,6.1h0a4.545,4.545,0,0,0,6.1-2.027h0a4.544,4.544,0,0,0-2.024-6.1h0A4.531,4.531,0,0,0,78.2,44.5h0A4.539,4.539,0,0,0,74.257,47ZM66.634,59.294a4.547,4.547,0,0,0,.9,6.364h0a4.542,4.542,0,0,0,6.361-.9h0A4.544,4.544,0,0,0,73,58.4h0a4.518,4.518,0,0,0-2.845-.91h0A4.547,4.547,0,0,0,66.634,59.294ZM56.941,70.032h0a4.541,4.541,0,0,0-.248,6.419h0a4.541,4.541,0,0,0,6.418.247h0a4.541,4.541,0,0,0,.248-6.418h0a4.533,4.533,0,0,0-3.452-1.455h0A4.523,4.523,0,0,0,56.941,70.032ZM45.486,78.863a4.543,4.543,0,0,0-1.393,6.272h0a4.546,4.546,0,0,0,6.272,1.393h0a4.546,4.546,0,0,0,1.393-6.272h0a4.539,4.539,0,0,0-3.953-2.1h0A4.525,4.525,0,0,0,45.486,78.863Zm-12.846,6.63a4.542,4.542,0,0,0-2.5,5.917h0a4.545,4.545,0,0,0,5.917,2.5h0a4.538,4.538,0,0,0,2.5-5.917h0a4.542,4.542,0,0,0-4.326-2.833h0A4.541,4.541,0,0,0,32.639,85.493Zm-13.833,4.2a4.54,4.54,0,0,0-3.527,5.367h0a4.544,4.544,0,0,0,5.367,3.53h0a4.543,4.543,0,0,0,3.527-5.37h0A4.542,4.542,0,0,0,19.614,89.6h0A4.391,4.391,0,0,0,18.806,89.694ZM1.252,92.752A4.558,4.558,0,0,0,0,96H0a4.562,4.562,0,0,0,1.414,3.178h0a4.572,4.572,0,0,0,3.242,1.247h0A4.574,4.574,0,0,0,7.836,99.01h0a4.572,4.572,0,0,0,1.247-3.246h0A4.567,4.567,0,0,0,7.672,92.59h0a4.558,4.558,0,0,0-3.246-1.25h0A4.555,4.555,0,0,0,1.252,92.752Z" transform="translate(0 11.434)" fill="#fff"/>
                </g>
                <g id="Group_189" data-name="Group 189" transform="translate(0.001 0)">
                  <path id="Path_262" data-name="Path 262" d="M7.3,0A4.542,4.542,0,0,0,2.875,4.658l.414,16.289A266.042,266.042,0,0,1,.058,69.622a4.542,4.542,0,1,0,8.97,1.436A275.045,275.045,0,0,0,12.37,20.718l-.413-16.29A4.542,4.542,0,0,0,7.3,0Z" transform="translate(262.649 0)" fill="#f6403d"/>
                  <path id="Path_263" data-name="Path 263" d="M65.783,0a4.541,4.541,0,0,0-4.1,2.838q-.222.55-.448,1.1a263.839,263.839,0,0,1-25.5,47.569A265.647,265.647,0,0,1,1.368,92.66a4.542,4.542,0,0,0,6.348,6.5A274.737,274.737,0,0,0,43.268,56.6,272.86,272.86,0,0,0,69.643,7.386q.233-.568.464-1.141A4.543,4.543,0,0,0,65.783,0Z" transform="translate(185.186 123.624)" fill="#f6403d"/>
                  <path id="Path_264" data-name="Path 264" d="M79.08,0A4.536,4.536,0,0,0,77,.57q-.919.51-1.843,1.011A261.759,261.759,0,0,1,3.615,27.831a4.542,4.542,0,1,0,1.855,8.892A270.811,270.811,0,0,0,79.492,9.563q.957-.52,1.909-1.047A4.543,4.543,0,0,0,79.08,0Z" transform="translate(52.91 257.876)" fill="#f6403d"/>
                  <path id="Path_265" data-name="Path 265" d="M21.087,0a4.542,4.542,0,0,0-4.425,4.656l.42,16.481A231.4,231.4,0,0,1,.331,114.17a4.542,4.542,0,0,0,8.425,3.4A240.444,240.444,0,0,0,26.164,20.908l-.42-16.481A4.542,4.542,0,0,0,21.087,0Z" transform="translate(218.33 0.67)" fill="#f6ab3d"/>
                  <path id="Path_266" data-name="Path 266" d="M70.128,0a4.536,4.536,0,0,0-3.711,2.087A232.885,232.885,0,0,1,1.971,68.58a4.542,4.542,0,0,0,5.143,7.488A241.918,241.918,0,0,0,74.062,7,4.543,4.543,0,0,0,70.128,0Z" transform="translate(132.277 151.36)" fill="#f6ab3d"/>
                  <path id="Path_267" data-name="Path 267" d="M81.893,0a4.516,4.516,0,0,0-1.481.289A232.522,232.522,0,0,1,4.427,15.021,4.542,4.542,0,1,0,4.658,24.1,241.577,241.577,0,0,0,83.6,8.795,4.542,4.542,0,0,0,81.893,0Z" transform="translate(3.997 245.641)" fill="#f6ab3d"/>
                  <path id="Path_268" data-name="Path 268" d="M46.655,0a4.542,4.542,0,0,0-4.383,3.957A202.063,202.063,0,0,1,1.9,101.219q-.463.6-.932,1.2a4.542,4.542,0,0,0,7.152,5.6q.489-.624.973-1.251A211.149,211.149,0,0,0,51.28,5.127,4.546,4.546,0,0,0,46.655,0Z" transform="translate(160.984 50.025)" fill="#f6ab3d"/>
                  <path id="Path_269" data-name="Path 269" d="M72.5,0a4.522,4.522,0,0,0-2.8,1.061A201.272,201.272,0,0,1,5.366,37.43q-1.119.383-2.245.755a4.542,4.542,0,1,0,2.844,8.627q1.176-.386,2.346-.788a210.323,210.323,0,0,0,67.225-38A4.542,4.542,0,0,0,72.5,0Z" transform="translate(62.782 181.861)" fill="#f6ab3d"/>
                  <path id="Path_270" data-name="Path 270" d="M31.318,0a4.576,4.576,0,0,0-.686.07q-.623.111-1.247.218A204.971,204.971,0,0,1,.035,3.157L0,3.158l.23,9.081H.265a214.06,214.06,0,0,0,30.657-3q.652-.111,1.3-.227A4.542,4.542,0,0,0,31.318,0Z" transform="translate(7.54 226.975)" fill="#f6ab3d"/>
                  <path id="Path_271" data-name="Path 271" d="M9.306,0H9.3A4.542,4.542,0,0,0,4.881,4.664l.425,15.817A172.941,172.941,0,0,1,1.138,63.236Q.925,64.178.7,65.115.429,66.263.139,67.41a4.542,4.542,0,1,0,8.808,2.225q.3-1.205.593-2.418.235-.99.458-1.978a182.019,182.019,0,0,0,4.388-45L13.962,4.42A4.542,4.542,0,0,0,9.306,0Z" transform="translate(168.999 2.227)" fill="#fff"/>
                  <path id="Path_272" data-name="Path 272" d="M76.32,0a4.543,4.543,0,0,0-4.052,2.728A172.328,172.328,0,0,1,43.854,47.506a172.756,172.756,0,0,1-40.535,34q-.549.333-1.1.659a4.542,4.542,0,1,0,4.645,7.807q.58-.345,1.157-.695a181.827,181.827,0,0,0,42.664-35.79A181.4,181.4,0,0,0,80.6,6.357,4.545,4.545,0,0,0,76.32,0Z" transform="translate(87.846 93.323)" fill="#fff"/>
                  <path id="Path_273" data-name="Path 273" d="M50.916,0a4.536,4.536,0,0,0-1.2.193q-.787.238-1.578.469A172.676,172.676,0,0,1,7.976,7.357a4.519,4.519,0,0,0-.692-.016l-2.976.153a4.542,4.542,0,0,0,.35,9.077h.007A181.935,181.935,0,0,0,50.682,9.384q.832-.242,1.662-.493A4.543,4.543,0,0,0,50.916,0Z" transform="translate(2.333 192.062)" fill="#fff"/>
                  <path id="Path_274" data-name="Path 274" d="M19.869,0a4.542,4.542,0,0,0-4.425,4.656l.415,16.292A141.742,141.742,0,0,1,.5,88.838a4.542,4.542,0,0,0,8.09,4.132A150.849,150.849,0,0,0,24.94,20.719L24.525,4.426A4.542,4.542,0,0,0,19.869,0Z" transform="translate(127.946 3.004)" fill="#5932ff"/>
                  <path id="Path_275" data-name="Path 275" d="M61.1,0a4.529,4.529,0,0,0-2.751,1.02A140.085,140.085,0,0,1,5.019,28.162q-.788.207-1.577.4a4.542,4.542,0,1,0,2.2,8.813q.842-.209,1.68-.43A149.129,149.129,0,0,0,64.091,8.063,4.543,4.543,0,0,0,61.1,0Z" transform="translate(33.319 136.317)" fill="#f6ab3d"/>
                  <path id="Path_276" data-name="Path 276" d="M40.141,0a4.544,4.544,0,0,0-4.169,3.031c-.251.71-.514,1.432-.783,2.148A111.5,111.5,0,0,1,5.107,48.943q-.585.52-1.176,1.033-.456.4-.916.785-.671.568-1.353,1.128a4.542,4.542,0,1,0,5.761,7.025q.738-.6,1.466-1.223.5-.422.99-.849.639-.554,1.271-1.116A120.607,120.607,0,0,0,43.691,8.382c.292-.775.577-1.558.849-2.327A4.545,4.545,0,0,0,40.141,0Z" transform="translate(70.963 61.495)" fill="#00dde7"/>
                  <path id="Path_277" data-name="Path 277" d="M50.954,0a4.555,4.555,0,0,0-1.8.427q-.446.208-.894.414A110.134,110.134,0,0,1,5.076,10.77,4.542,4.542,0,0,0,.651,15.426c.064,2.508-1.868,4.355.64,4.385,23.413.281,36.03-3.991,50.737-10.706q.484-.219.967-.446A4.543,4.543,0,0,0,50.954,0Z" transform="translate(0.128 127.672)" fill="#00dde7"/>
                  <path id="Path_278" data-name="Path 278" d="M14.072,0A4.543,4.543,0,0,0,9.647,4.658l.418,16.427A80.349,80.349,0,0,1,1.107,60.068Q.83,60.6.545,61.132a4.542,4.542,0,0,0,8,4.31q.319-.591.628-1.188a89.451,89.451,0,0,0,9.977-43.4L18.728,4.427A4.543,4.543,0,0,0,14.072,0Z" transform="translate(72.631 4.56)" fill="#f6ab3d"/>
                  <path id="Path_279" data-name="Path 279" d="M61.722,0a4.53,4.53,0,0,0-3.065,1.3A80,80,0,0,1,4.481,24.245H4.427a4.542,4.542,0,0,0,.228,9.081l.058,0A89.049,89.049,0,0,0,65.02,7.785,4.543,4.543,0,0,0,61.722,0Z" transform="translate(0 83.705)" fill="#f6ab3d"/>
                </g>
              </g>
            </g>
          </g>
        </g>
      </g>
    </g>
    <g id="Group_195" data-name="Group 195" transform="matrix(0.985, -0.174, 0.174, 0.985, -17.545, 137.884)">
      <g id="Group_169" data-name="Group 169" transform="translate(123.55 0) rotate(30)">
        <path id="Path_201" data-name="Path 201" d="M239.759,152.215c16.873.708,31.992-5.5,47.04-11.951,4.6-1.969,9.073-4.22,13.695-6.125,8.382-3.454,16.349-3.524,22.858,3.877,6.744,7.668,5.766,16.029,1.184,24.151-8.283,14.683-21.964,23.108-36.81,29.5a266.128,266.128,0,0,1-58.09,18.008c-26.286,4.727-50.73,14.621-73.444,27.964-18.595,10.923-36.607,12.152-56.266,4.891q-42.442-15.676-66.011-54.052C21.6,168.42,20.244,147.13,26.945,125.018c2.511-8.283,5.422-16.444,8.157-24.659,6.76-20.3.724-38.55-16.945-50.733-4.989-3.44-9.6-7.139-12.939-12.307C0,29.24-2.183,20.672,2.823,11.962,8.213,2.589,17.546-.677,27.658.114,48.731,1.762,65.9,10.6,77.4,29.168c8.339,13.473,15.082,27.5,16.226,43.508.5,6.933,2.071,7.19,7.355,3.2,18.429-13.928,37.959-25.86,60.437-32.421a57.156,57.156,0,0,1,24.749-1.506c9.535,1.43,16.268,7.2,19.654,16.5,1.355,3.719,2.871,7.379,4.314,11.066-16.489,30.863-39.36,55.043-72.2,68.739-5.337,2.226-11.007,2.626-16.718,2.3-13.232-.755-19.864-12.6-13.312-24.21,5.195-9.208,13.6-15.45,21.745-21.81,7.619-5.948,15.438-11.644,22.533-18.231,1.195-1.109,2.415-2.333,2.643-5.775-15.539,14.407-33.414,24.3-46.395,39.967-8.95,10.8-7.809,21.285,3.136,30.351,3.734,3.093,5.042,6.392,5.145,11.13.38,17.522,10.28,26.067,27.624,24.076,5.313-.61,9.679.038,13.388,4.508,11.4,13.742,23.107,16.64,39.613,9.4C215.478,182,230.557,170.337,239.759,152.215Z" transform="translate(0 0)" fill="#5932ff"/>
        <path id="Path_202" data-name="Path 202" d="M140.368,86.56c.781,11.375-7.752,17.388-14.811,23.39-13.521,11.5-27.973,21.772-47.293,20.643-9.342-.546-17.09-3.683-21.122-12.5-2.471-5.4-5.988-6.2-11.243-5.255-19.6,3.518-32.221-7.547-31.454-27.647.125-3.263.068-5.169-3.086-7.3C-2.267,68.66-3.647,55.1,7.289,42.187c7.169-8.466,16.073-15,24.757-21.736,6.582-5.109,13.374-9.93,19.137-16.025,2.149-2.273,4.587-6.523,8-3.2,3.388,3.3.337,6.975-2.465,9.357C48.1,17.9,39.314,25.04,30.469,32.092c-6.522,5.2-12.97,10.446-18.117,17.08-3.689,4.755-5.487,9.842-2.846,15.79,2.718,6.12,7.667,7.5,13.877,7.527,16.469.069,29.177-8.537,41.4-17.85C81.092,42.206,94.285,26.831,105.136,9.414c1.354-2.173,3.711-3.723,5.6-5.561a6.961,6.961,0,0,1,1.606.482c5.477,2.87,4.334,7.166,1.727,10.95C93.18,45.617,69.532,72.67,32.01,82.895c-6.68,1.82-8.185,5.754-4.926,11.985,3.86,7.38,11.03,10.015,20.608,7.075C67.454,95.891,84.7,85.211,99.98,71.582c9.152-8.164,18.2-16.607,25.169-26.937,2.184-3.239,4.537-6.986,9.622-4.795l2.349,2.023c2.213,5.059-.343,9.017-3.07,12.869C119.144,75.8,99.342,91.177,77.25,104c-3.888,2.256-11.368,2.664-9.42,9.376,1.87,6.445,8.612,6.5,14.384,6.179,13.3-.731,23.995-7.353,33.731-15.707a138.686,138.686,0,0,0,13.925-14.276c2.319-2.657,4.585-6.133,9.089-3.639A5.43,5.43,0,0,1,140.368,86.56Z" transform="translate(99.391 65.655)" fill="#180b43"/>
        <path id="Path_203" data-name="Path 203" d="M111.817,35.288c-5.369.216-6.483,5.107-9.042,8.334-20.8,26.225-45.8,46.665-78.406,56.394C11.472,103.864-.314,95.471.006,83.307c.107-4.08,1.182-7.276,5.884-7.638C22.217,74.411,35.5,65.894,47.466,56.137,63.617,42.971,77.988,27.8,89.081,9.843c2.144-3.47,3.275-6.415.454-9.843,12.822,3.892,19.571,12.155,20.164,24.839C109.868,28.449,109.28,32.173,111.817,35.288Z" transform="translate(121.624 70.316)" fill="#5932ff"/>
        <path id="Path_204" data-name="Path 204" d="M76.2,44.054c-3.886.188-5.333,3.27-7.524,5.82C54.486,66.386,38.993,80.808,15.151,80.615c-3.409-.028-6.494-.6-9.313-2.879-8.123-6.566-7.88-10.271,1.428-14.912a173.9,173.9,0,0,0,61.21-50.38C71.266,8.8,74.288,5.034,74.362,0,87.855,14.148,82.144,29.1,76.2,44.054Z" transform="translate(162.149 107.529)" fill="#5932ff"/>
        <path id="Path_205" data-name="Path 205" d="M15.371,8.49c-.369,3.077-2.621,4.426-4.215,3.4C7.224,9.351,1.007,8.992.068,3.383-.568-.421,3.393-.146,5.881.163,11.02.8,13.817,4.293,15.371,8.49Z" transform="translate(80.045 209.927)" fill="#180b43"/>
      </g>
    </g>
  </g>
</svg>
