<svg id="Group" xmlns="http://www.w3.org/2000/svg" width="31.601" height="31.601" viewBox="0 0 31.601 31.601">
  <g id="Group-2" data-name="Group" transform="translate(0 0)">
    <g id="Group_14" data-name="Group 14">
      <g id="Group_16" data-name="Group 16">
        <path id="Path" d="M30.164,2.873a1.436,1.436,0,0,0,0-2.873H1.436a1.436,1.436,0,0,0,0,2.873Z" transform="translate(0 28.728)" fill="#fff"/>
        <path id="Path-2" data-name="Path" d="M16.2,14.8l-5.43,5.631v-19a1.436,1.436,0,0,0-2.873,0v19L2.47,14.8A1.436,1.436,0,0,0,.4,16.8L8.3,24.99a.107.107,0,0,0,.01.009l.019.019.008.009c.023.022.049.037.073.057l.04.034c.027.021.051.046.078.065l.022.013c.036.024.075.04.112.06s.072.044.111.06l.025.008a1.262,1.262,0,0,0,.125.04c.039.012.077.027.116.036l.027,0c.043.008.086.009.13.014a1.24,1.24,0,0,0,.126.012h.025a1.26,1.26,0,0,0,.126-.012c.043,0,.087-.006.13-.014l.027,0c.04-.009.077-.024.116-.036a1.275,1.275,0,0,0,.126-.04l.025-.008c.037-.016.072-.04.108-.059s.078-.038.116-.062l.021-.012c.027-.019.052-.044.078-.065s.023-.018.034-.028c.027-.022.055-.039.08-.062a.107.107,0,0,0,.009-.01L10.36,25a.108.108,0,0,0,.01-.009l7.9-8.193A1.436,1.436,0,1,0,16.2,14.8Z" transform="translate(6.464)" fill="#fff"/>
      </g>
    </g>
  </g>
</svg>
