<svg xmlns="http://www.w3.org/2000/svg" width="47.97" height="75.816" viewBox="0 0 47.97 75.816">
  <g id="Group_236" data-name="Group 236" transform="translate(-201 -787)">
    <g id="Group_235" data-name="Group 235" transform="translate(201 787)">
      <g id="Group_233" data-name="Group 233" transform="translate(0 52.187)">
        <g id="Group_230" data-name="Group 230" transform="translate(0.006)">
          <g id="Group_229" data-name="Group 229">
            <g id="Group_227" data-name="Group 227" transform="translate(26.413 0.479)">
              <rect id="Rectangle_17" data-name="Rectangle 17" width="1.421" height="8.166" fill="#453d66"/>
              <path id="Path_352" data-name="Path 352" d="M411.986,210.433v-1.1H415.7l-.031-.136a6.945,6.945,0,0,0-.562-1.675,3.937,3.937,0,0,0-.853-1.115,4.312,4.312,0,0,0-1.163-.735l.537-1.341a5.144,5.144,0,0,1,2.194,1.72,8.219,8.219,0,0,1,1.286,3.192l.018.089h11.728v-.162l-.037-.043a2.83,2.83,0,0,1-.628-1.508,2.172,2.172,0,0,0-.475-1.1,1.294,1.294,0,0,0-.961-.333,2.779,2.779,0,0,0-.759.1,3.573,3.573,0,0,0-.651.268l-.411-1a4.79,4.79,0,0,1,2.165-.469,2.575,2.575,0,0,1,1.65.471,2.478,2.478,0,0,1,.769,1.565,4.409,4.409,0,0,0,.769,2.145v1.169Z" transform="translate(-408.741 -202.267)" fill="#453d66"/>
              <path id="Path_353" data-name="Path 353" d="M449.135,224.758a.6.6,0,0,1-.463-.177.7.7,0,0,1-.17-.5.714.714,0,0,1,.168-.509.6.6,0,0,1,.465-.177.582.582,0,0,1,.45.175.726.726,0,0,1,.167.511.694.694,0,0,1-.172.5.579.579,0,0,1-.444.178" transform="translate(-430.896 -213.833)" fill="#453d66"/>
            </g>
            <g id="Group_228" data-name="Group 228">
              <path id="Path_354" data-name="Path 354" d="M339.233,206.12a4.524,4.524,0,0,1-1.824,3.557l-.838-1.11a3.125,3.125,0,0,0,1.235-2.379v-7.082h1.428Z" transform="translate(-336.57 -198.619)" fill="#453d66"/>
              <path id="Path_355" data-name="Path 355" d="M350.406,207.332h-1.382c-.759,0-1.11.295-1.11.827,0,.578.408.862.974.862a2.763,2.763,0,0,0,1.518-.532Zm0-.986v-.464c0-.566-.34-.952-1.349-.952a8.4,8.4,0,0,0-2.028.283v-1.178a12.818,12.818,0,0,1,2.357-.26c1.506,0,2.413.736,2.413,2.2V210.1h-1.19l-.1-.691h-.045a3.515,3.515,0,0,1-2.028.771,1.791,1.791,0,0,1-1.926-1.915c0-1.189.861-1.914,2.311-1.914Z" transform="translate(-342.6 -201.452)" fill="#453d66"/>
              <path id="Path_356" data-name="Path 356" d="M365.764,205.447a3.3,3.3,0,0,0,1.518-.487v-3.5a5.434,5.434,0,0,0-1-.1c-1.281,0-1.847.634-1.847,2.152,0,1.36.521,1.937,1.325,1.937m.374-5.257a6.828,6.828,0,0,1,1.155.114v-2.436h1.382v8.644h-1.133c-.045-.079-.09-.385-.136-.465a3.828,3.828,0,0,1-1.971.578c-1.269,0-2.425-.782-2.425-3.048,0-2.583,1.383-3.388,3.127-3.388" transform="translate(-352.613 -197.868)" fill="#453d66"/>
              <path id="Path_357" data-name="Path 357" d="M384.19,207.332h-1.382c-.759,0-1.11.295-1.11.827,0,.578.408.862.975.862a2.763,2.763,0,0,0,1.518-.532Zm0-.986v-.464c0-.566-.34-.952-1.348-.952a8.4,8.4,0,0,0-2.028.283v-1.178a12.818,12.818,0,0,1,2.356-.26c1.507,0,2.413.736,2.413,2.2V210.1h-1.19l-.1-.691h-.045a3.516,3.516,0,0,1-2.028.771,1.791,1.791,0,0,1-1.926-1.915c0-1.189.862-1.914,2.312-1.914Z" transform="translate(-363.098 -201.452)" fill="#453d66"/>
            </g>
          </g>
        </g>
        <g id="Group_231" data-name="Group 231" transform="translate(0.006 13.698)">
          <path id="Path_358" data-name="Path 358" d="M338.764,234.148a.178.178,0,0,1-.136-.052.2.2,0,0,1-.05-.147.206.206,0,0,1,.049-.147.18.18,0,0,1,.136-.052.174.174,0,0,1,.137.054.239.239,0,0,1,0,.289.174.174,0,0,1-.137.054m-.572,0a.194.194,0,0,1-.132-.047.2.2,0,0,1,.132-.35.182.182,0,0,1,.134.05.244.244,0,0,1,0,.295.176.176,0,0,1-.135.052m.5,1.661V234.72h-.143a.64.64,0,0,0-.458.155.569.569,0,0,0-.164.435.541.541,0,0,0,.112.379.443.443,0,0,0,.34.12Zm.645,0c.011,0,.016,0,.016.013v.229a.014.014,0,0,1-.016.016h-.364v.02q0,.776-.837.776h-.782a.765.765,0,0,1-.573-.215.8.8,0,0,1-.21-.584,2.2,2.2,0,0,1,.135-.781h.275a2.28,2.28,0,0,0-.113.761.565.565,0,0,0,.143.413.539.539,0,0,0,.4.146h.669a.7.7,0,0,0,.466-.125.489.489,0,0,0,.144-.389v-.023h-.306a.677.677,0,0,1-.753-.755.8.8,0,0,1,.247-.621.931.931,0,0,1,.659-.229h.433v1.346Z" transform="translate(-336.57 -233.337)" fill="#453d66"/>
          <path id="Path_359" data-name="Path 359" d="M344.094,238.985c.012,0,.018,0,.018.013v.229c0,.011-.006.016-.018.016h-.6a.014.014,0,0,1-.017-.016V239c0-.009.006-.013.017-.013Z" transform="translate(-340.763 -236.513)" fill="#453d66"/>
          <path id="Path_360" data-name="Path 360" d="M345.532,238.985c.012,0,.018,0,.018.013v.229c0,.011-.006.016-.018.016h-.6a.014.014,0,0,1-.016-.016V239c0-.009.006-.013.016-.013Z" transform="translate(-341.635 -236.513)" fill="#453d66"/>
          <path id="Path_361" data-name="Path 361" d="M346.971,238.985c.012,0,.018,0,.018.013v.229c0,.011-.006.016-.018.016h-.6c-.011,0-.017-.005-.017-.016V239c0-.009.006-.013.017-.013Z" transform="translate(-342.508 -236.513)" fill="#453d66"/>
          <path id="Path_362" data-name="Path 362" d="M348.409,238.985c.012,0,.018,0,.018.013v.229c0,.011-.006.016-.018.016h-.6c-.011,0-.017-.005-.017-.016V239c0-.009.005-.013.017-.013Z" transform="translate(-343.381 -236.513)" fill="#453d66"/>
          <path id="Path_363" data-name="Path 363" d="M350.036,237.829a.183.183,0,0,1-.136-.052.2.2,0,0,1-.05-.147.207.207,0,0,1,.049-.147.181.181,0,0,1,.137-.052.173.173,0,0,1,.137.054.24.24,0,0,1,0,.289.174.174,0,0,1-.137.054m-.572,0a.2.2,0,0,1-.132-.047.239.239,0,0,1,0-.3.2.2,0,0,1,.132-.047.18.18,0,0,1,.134.051.2.2,0,0,1,.05.148.206.206,0,0,1-.049.147.179.179,0,0,1-.135.052m-.215-.663a.014.014,0,0,1-.016-.016v-.229c0-.009.005-.013.016-.013h.635v-1.346h.294v1.6Z" transform="translate(-344.253 -234.436)" fill="#453d66"/>
          <path id="Path_364" data-name="Path 364" d="M352.84,236.6h1.1a2.083,2.083,0,0,0-.247-.757,1.677,1.677,0,0,0-.52-.541l.106-.25a1.571,1.571,0,0,1,.622.59,2.523,2.523,0,0,1,.324.964v.252H352.84Z" transform="translate(-346.442 -234.125)" fill="#453d66"/>
          <path id="Path_365" data-name="Path 365" d="M357.586,233.249h.294V235.5h.436q.018,0,.018.013v.229c0,.011-.006.017-.018.017h-.73Z" transform="translate(-349.321 -233.033)" fill="#453d66"/>
          <path id="Path_366" data-name="Path 366" d="M359.934,238.985c.012,0,.018,0,.018.013v.229c0,.011-.006.016-.018.016h-.6c-.011,0-.017-.005-.017-.016V239c0-.009.006-.013.017-.013Z" transform="translate(-350.373 -236.513)" fill="#453d66"/>
          <path id="Path_367" data-name="Path 367" d="M361.372,238.985c.012,0,.018,0,.018.013v.229c0,.011-.006.016-.018.016h-.6c-.011,0-.017-.005-.017-.016V239c0-.009.006-.013.017-.013Z" transform="translate(-351.246 -236.513)" fill="#453d66"/>
          <path id="Path_368" data-name="Path 368" d="M362.81,238.985c.012,0,.018,0,.018.013v.229c0,.011-.006.016-.018.016h-.6c-.011,0-.017-.005-.017-.016V239c0-.009.006-.013.017-.013Z" transform="translate(-352.118 -236.513)" fill="#453d66"/>
          <path id="Path_369" data-name="Path 369" d="M364.248,238.985c.012,0,.018,0,.018.013v.229c0,.011-.006.016-.018.016h-.6c-.011,0-.017-.005-.017-.016V239q0-.013.017-.013Z" transform="translate(-352.991 -236.513)" fill="#453d66"/>
          <path id="Path_370" data-name="Path 370" d="M365.686,238.985c.012,0,.018,0,.018.013v.229c0,.011-.006.016-.018.016h-.6c-.011,0-.017-.005-.017-.016V239q0-.013.017-.013Z" transform="translate(-353.863 -236.513)" fill="#453d66"/>
          <path id="Path_371" data-name="Path 371" d="M367.1,234.148a.18.18,0,0,1-.136-.052.2.2,0,0,1-.05-.147.205.205,0,0,1,.049-.147.18.18,0,0,1,.137-.052.174.174,0,0,1,.137.054.24.24,0,0,1,0,.289.174.174,0,0,1-.137.054m-.572,1.92a.014.014,0,0,1-.016-.016v-.229c0-.009.005-.013.016-.013h.436v-1.346h.294v1.346h.431c.011,0,.016,0,.016.013v.229c0,.011-.005.016-.016.016Z" transform="translate(-354.736 -233.337)" fill="#453d66"/>
          <path id="Path_372" data-name="Path 372" d="M369.992,238.985c.012,0,.018,0,.018.013v.229c0,.011-.006.016-.018.016h-.6c-.011,0-.017-.005-.017-.016V239q0-.013.017-.013Z" transform="translate(-356.476 -236.513)" fill="#453d66"/>
          <path id="Path_373" data-name="Path 373" d="M371.43,238.985c.012,0,.018,0,.018.013v.229c0,.011-.006.016-.018.016h-.6c-.011,0-.017-.005-.017-.016V239c0-.009.006-.013.017-.013Z" transform="translate(-357.348 -236.513)" fill="#453d66"/>
          <path id="Path_374" data-name="Path 374" d="M372.868,238.985c.012,0,.018,0,.018.013v.229c0,.011-.006.016-.018.016h-.6c-.011,0-.017-.005-.017-.016V239c0-.009.006-.013.017-.013Z" transform="translate(-358.221 -236.513)" fill="#453d66"/>
          <path id="Path_375" data-name="Path 375" d="M375.787,236.856v-.525a.646.646,0,0,0-.134-.45.523.523,0,0,0-.4-.144q-.509,0-.857.847v.271Zm-2.078.258c-.011,0-.017-.005-.017-.016v-.229q0-.013.017-.013h.4v-1.248h.281v.613a1.377,1.377,0,0,1,.389-.557.823.823,0,0,1,.527-.188.74.74,0,0,1,.566.2.9.9,0,0,1,.192.636v.54h.436c.011,0,.018,0,.018.013v.229c0,.011-.006.016-.018.016Z" transform="translate(-359.093 -234.384)" fill="#453d66"/>
          <path id="Path_376" data-name="Path 376" d="M381.332,238.985c.012,0,.018,0,.018.013v.229c0,.011-.006.016-.018.016h-.6c-.011,0-.017-.005-.017-.016V239q0-.013.017-.013Z" transform="translate(-363.356 -236.513)" fill="#453d66"/>
          <path id="Path_377" data-name="Path 377" d="M382.77,238.985c.012,0,.018,0,.018.013v.229c0,.011-.006.016-.018.016h-.6c-.011,0-.017-.005-.017-.016V239c0-.009.006-.013.017-.013Z" transform="translate(-364.229 -236.513)" fill="#453d66"/>
          <path id="Path_378" data-name="Path 378" d="M384.208,238.985c.012,0,.018,0,.018.013v.229c0,.011-.006.016-.018.016h-.6c-.011,0-.017-.005-.017-.016V239c0-.009.005-.013.017-.013Z" transform="translate(-365.101 -236.513)" fill="#453d66"/>
          <path id="Path_379" data-name="Path 379" d="M385.049,235.763c-.011,0-.017-.005-.017-.016v-.229q0-.013.017-.013h.436v-2.256h.294v2.514Z" transform="translate(-365.974 -233.033)" fill="#453d66"/>
          <rect id="Rectangle_18" data-name="Rectangle 18" width="0.294" height="2.514" transform="translate(20.467 0.216)" fill="#453d66"/>
          <path id="Path_380" data-name="Path 380" d="M394.737,234.148a.179.179,0,0,1-.136-.052.2.2,0,0,1-.05-.147.2.2,0,0,1,.049-.147.179.179,0,0,1,.137-.052.174.174,0,0,1,.137.054.24.24,0,0,1,0,.289.175.175,0,0,1-.137.054m-.572,0a.2.2,0,0,1-.132-.047.24.24,0,0,1,0-.3.2.2,0,0,1,.132-.046.179.179,0,0,1,.134.051.2.2,0,0,1,.051.148.2.2,0,0,1-.05.147.176.176,0,0,1-.135.052m.559,1.661V234.72h-.142a.641.641,0,0,0-.458.155.569.569,0,0,0-.164.435.541.541,0,0,0,.112.379.443.443,0,0,0,.34.12Zm-1.338,1.054a.764.764,0,0,1-.573-.215.8.8,0,0,1-.21-.583,2.2,2.2,0,0,1,.135-.781h.275a2.27,2.27,0,0,0-.113.761.565.565,0,0,0,.143.413.537.537,0,0,0,.4.146h.669a.7.7,0,0,0,.466-.125.491.491,0,0,0,.143-.389v-.023h-.306a.678.678,0,0,1-.753-.755.806.806,0,0,1,.247-.621.933.933,0,0,1,.659-.229H395v1.624q0,.776-.837.776Z" transform="translate(-370.566 -233.337)" fill="#453d66"/>
          <path id="Path_381" data-name="Path 381" d="M401.052,236.908v-1.089h-.142a.641.641,0,0,0-.458.155.57.57,0,0,0-.164.435.542.542,0,0,0,.112.379.444.444,0,0,0,.34.12Zm-.483,1.054a1.06,1.06,0,0,1-.6-.17l.132-.221a1.478,1.478,0,0,0,.22.094.779.779,0,0,0,.251.039.5.5,0,0,0,.352-.12.421.421,0,0,0,.127-.321v-.1h-.324a.736.736,0,0,1-.545-.194.76.76,0,0,1-.193-.561.807.807,0,0,1,.247-.619.933.933,0,0,1,.661-.23h.433v1.684a.693.693,0,0,1-.2.527.792.792,0,0,1-.565.189" transform="translate(-375.039 -234.436)" fill="#453d66"/>
          <path id="Path_382" data-name="Path 382" d="M404.525,236.6h1.1a2.1,2.1,0,0,0-.247-.757,1.678,1.678,0,0,0-.52-.541l.106-.25a1.6,1.6,0,0,1,.621.593,2.471,2.471,0,0,1,.32.955h.369c.011,0,.016,0,.016.013v.229a.014.014,0,0,1-.016.016h-1.752Z" transform="translate(-377.801 -234.125)" fill="#453d66"/>
          <path id="Path_383" data-name="Path 383" d="M409.465,238.985c.012,0,.018,0,.018.013v.229c0,.011-.006.016-.018.016h-.6c-.011,0-.017-.005-.017-.016V239c0-.009.005-.013.017-.013Z" transform="translate(-380.425 -236.513)" fill="#453d66"/>
          <path id="Path_384" data-name="Path 384" d="M410.9,238.985c.012,0,.018,0,.018.013v.229c0,.011-.006.016-.018.016h-.6a.014.014,0,0,1-.016-.016V239c0-.009.006-.013.016-.013Z" transform="translate(-381.298 -236.513)" fill="#453d66"/>
          <path id="Path_385" data-name="Path 385" d="M412.341,238.985q.018,0,.018.013v.229c0,.011-.006.016-.018.016h-.6a.014.014,0,0,1-.017-.016V239c0-.009.006-.013.017-.013Z" transform="translate(-382.17 -236.513)" fill="#453d66"/>
          <path id="Path_386" data-name="Path 386" d="M413.754,234.148a.181.181,0,0,1-.136-.052.243.243,0,0,1,0-.294.179.179,0,0,1,.136-.052.174.174,0,0,1,.137.054.239.239,0,0,1,0,.289.174.174,0,0,1-.137.054m-.572,1.92a.014.014,0,0,1-.016-.016v-.229c0-.009.005-.013.016-.013h.436v-1.346h.294v1.346h.431c.011,0,.016,0,.016.013v.229a.014.014,0,0,1-.016.016Z" transform="translate(-383.043 -233.337)" fill="#453d66"/>
          <path id="Path_387" data-name="Path 387" d="M416.647,238.985c.012,0,.018,0,.018.013v.229c0,.011-.006.016-.018.016h-.6a.014.014,0,0,1-.017-.016V239c0-.009.006-.013.017-.013Z" transform="translate(-384.783 -236.513)" fill="#453d66"/>
          <path id="Path_388" data-name="Path 388" d="M418.085,238.985c.012,0,.018,0,.018.013v.229c0,.011-.006.016-.018.016h-.6a.014.014,0,0,1-.017-.016V239c0-.009.006-.013.017-.013Z" transform="translate(-385.655 -236.513)" fill="#453d66"/>
          <path id="Path_389" data-name="Path 389" d="M419.524,238.985q.018,0,.018.013v.229c0,.011-.006.016-.018.016h-.6a.014.014,0,0,1-.016-.016V239c0-.009.005-.013.016-.013Z" transform="translate(-386.529 -236.513)" fill="#453d66"/>
          <path id="Path_390" data-name="Path 390" d="M422.442,236.856v-.525a.646.646,0,0,0-.133-.45.525.525,0,0,0-.4-.144q-.508,0-.856.847v.271Zm-2.078.258a.014.014,0,0,1-.016-.016v-.229c0-.009.005-.013.016-.013h.4v-1.248h.281v.613a1.377,1.377,0,0,1,.389-.557.821.821,0,0,1,.527-.188.74.74,0,0,1,.566.2.9.9,0,0,1,.192.636v.8Z" transform="translate(-387.401 -234.384)" fill="#453d66"/>
          <path id="Path_391" data-name="Path 391" d="M430.658,233.643a.18.18,0,0,1-.136-.052.2.2,0,0,1-.05-.147.206.206,0,0,1,.049-.147.182.182,0,0,1,.137-.052.176.176,0,0,1,.137.054.241.241,0,0,1,0,.289.175.175,0,0,1-.137.054m-.572,0a.2.2,0,0,1-.132-.047.24.24,0,0,1,0-.3.193.193,0,0,1,.132-.047.18.18,0,0,1,.134.051.2.2,0,0,1,.05.148.205.205,0,0,1-.049.147.178.178,0,0,1-.135.052m.455,1.86v-1.089h-.208a.647.647,0,0,0-.46.152.56.56,0,0,0-.162.428.492.492,0,0,0,.14.378.564.564,0,0,0,.4.131Zm-.284.258a.888.888,0,0,1-.619-.2.722.722,0,0,1-.221-.563.791.791,0,0,1,.246-.615.94.94,0,0,1,.661-.225h.218v-.208h.283V235.5h.376c.011,0,.016,0,.016.013v.229a.014.014,0,0,1-.016.016Z" transform="translate(-392.903 -233.03)" fill="#453d66"/>
          <path id="Path_392" data-name="Path 392" d="M434.443,238.985c.012,0,.018,0,.018.013v.229c0,.011-.006.016-.018.016h-.6a.014.014,0,0,1-.016-.016V239c0-.009.006-.013.016-.013Z" transform="translate(-395.58 -236.513)" fill="#453d66"/>
          <path id="Path_393" data-name="Path 393" d="M435.881,238.985c.012,0,.018,0,.018.013v.229c0,.011-.006.016-.018.016h-.6a.014.014,0,0,1-.016-.016V239c0-.009.006-.013.016-.013Z" transform="translate(-396.453 -236.513)" fill="#453d66"/>
          <path id="Path_394" data-name="Path 394" d="M437.319,238.985c.012,0,.018,0,.018.013v.229c0,.011-.006.016-.018.016h-.6a.014.014,0,0,1-.017-.016V239c0-.009.006-.013.017-.013Z" transform="translate(-397.325 -236.513)" fill="#453d66"/>
          <path id="Path_395" data-name="Path 395" d="M438.16,235.487a.014.014,0,0,1-.016-.016v-.229c0-.009.005-.013.016-.013h1.393v-.61a.434.434,0,0,0-.149-.363.745.745,0,0,0-.46-.116h-.563v-.27a1.983,1.983,0,0,1,.295-.439,2.51,2.51,0,0,1,.419-.385,1.947,1.947,0,0,1,.451-.253l.1.252a2.181,2.181,0,0,0-.595.363,1.477,1.477,0,0,0-.4.474h.288a1.062,1.062,0,0,1,.661.178.608.608,0,0,1,.229.51v.916Z" transform="translate(-398.198 -232.756)" fill="#453d66"/>
          <path id="Path_396" data-name="Path 396" d="M443.665,237.167v.079a.825.825,0,0,1-.152.525.528.528,0,0,1-.438.191.733.733,0,0,1-.338-.094l.086-.221a.688.688,0,0,0,.133.046.593.593,0,0,0,.113.01.267.267,0,0,0,.233-.121.548.548,0,0,0,.084-.32v-1.7h.28v1.346h.409c.011,0,.017,0,.017.013v.229c0,.011-.006.016-.017.016Z" transform="translate(-400.985 -234.436)" fill="#453d66"/>
          <path id="Path_397" data-name="Path 397" d="M446.626,238.985c.012,0,.018,0,.018.013v.229c0,.011-.006.016-.018.016h-.6c-.011,0-.017-.005-.017-.016V239c0-.009.006-.013.017-.013Z" transform="translate(-402.972 -236.513)" fill="#453d66"/>
          <path id="Path_398" data-name="Path 398" d="M448.064,238.985c.012,0,.018,0,.018.013v.229c0,.011-.006.016-.018.016h-.6c-.011,0-.017-.005-.017-.016V239c0-.009.005-.013.017-.013Z" transform="translate(-403.845 -236.513)" fill="#453d66"/>
          <path id="Path_399" data-name="Path 399" d="M449.5,238.985c.012,0,.018,0,.018.013v.229c0,.011-.006.016-.018.016h-.6c-.011,0-.017-.005-.017-.016V239q0-.013.017-.013Z" transform="translate(-404.717 -236.513)" fill="#453d66"/>
          <path id="Path_400" data-name="Path 400" d="M450.94,238.985c.012,0,.018,0,.018.013v.229c0,.011-.006.016-.018.016h-.6c-.011,0-.017-.005-.017-.016V239c0-.009.006-.013.017-.013Z" transform="translate(-405.59 -236.513)" fill="#453d66"/>
          <path id="Path_401" data-name="Path 401" d="M453.653,233.51a.183.183,0,0,1-.136-.052.244.244,0,0,1,0-.294.18.18,0,0,1,.136-.052.173.173,0,0,1,.137.054.24.24,0,0,1,0,.289.173.173,0,0,1-.137.054m-.287-.446a.18.18,0,0,1-.123-.043.185.185,0,0,1,.243-.278.175.175,0,0,1,.051.138.173.173,0,0,1-.051.14.182.182,0,0,1-.12.043m-.284.446a.193.193,0,0,1-.132-.047.238.238,0,0,1,0-.3.193.193,0,0,1,.132-.047.175.175,0,0,1,.137.054.24.24,0,0,1,0,.289.175.175,0,0,1-.137.054m.856,1.92a.744.744,0,0,1-.274-.049.807.807,0,0,1-.26-.182.554.554,0,0,1-.194.166.6.6,0,0,1-.289.064H451.78a.014.014,0,0,1-.016-.016v-.229c0-.009.005-.013.016-.013h.473v-1.089h.281v1.089h.357a.307.307,0,0,0,.249-.106.416.416,0,0,0,.089-.277v-.706h.281v.795l0,.037a.538.538,0,0,0,.18.2.49.49,0,0,0,.25.057h.2v-1.346h.281v1.6Z" transform="translate(-406.462 -232.699)" fill="#453d66"/>
        </g>
        <g id="Group_232" data-name="Group 232" transform="translate(0 19.471)">
          <path id="Path_402" data-name="Path 402" d="M338.486,247.973v.293h-1.6v1.167h1.426v.288h-1.426v1.307h-.327v-3.054Z" transform="translate(-336.556 -247.74)" fill="#453d66"/>
          <path id="Path_403" data-name="Path 403" d="M342.779,249.926v1.638a.376.376,0,0,0,.424.416,1.859,1.859,0,0,0,.857-.31v-1.743h.314v2.286h-.263l-.03-.284a2.025,2.025,0,0,1-.958.335.583.583,0,0,1-.658-.641v-1.7Z" transform="translate(-340.141 -248.925)" fill="#453d66"/>
          <path id="Path_404" data-name="Path 404" d="M350.638,252.134V250.5a.371.371,0,0,0-.424-.411,1.919,1.919,0,0,0-.857.31v1.739h-.314v-2.286h.3v.288a2.1,2.1,0,0,1,.959-.339.58.58,0,0,1,.653.645v1.693Z" transform="translate(-344.132 -248.847)" fill="#453d66"/>
          <path id="Path_405" data-name="Path 405" d="M356.2,250.517a1.5,1.5,0,0,0,.759-.276v-1.489a2.757,2.757,0,0,0-.564-.068c-.551,0-.8.3-.8.954s.25.878.607.878m.178-2.108a3.125,3.125,0,0,1,.581.072v-.972h.314v3.237h-.259s-.034-.233-.034-.237a1.61,1.61,0,0,1-.857.284c-.454,0-.857-.28-.857-1.141,0-.946.5-1.243,1.112-1.243" transform="translate(-347.907 -247.458)" fill="#453d66"/>
          <path id="Path_406" data-name="Path 406" d="M365.685,251.91c.539,0,.789-.357.789-.916s-.25-.917-.789-.917-.8.361-.8.917.25.916.8.916m0-2.113a1.2,1.2,0,1,1-1.12,1.2,1.058,1.058,0,0,1,1.12-1.2" transform="translate(-353.547 -248.847)" fill="#453d66"/>
          <path id="Path_407" data-name="Path 407" d="M372.522,247.694a2.326,2.326,0,0,0-.4-.047c-.382,0-.424.208-.424.471v.263h.7v.276h-.7v2.011h-.314v-2.011H371.1v-.233l.284-.046v-.331c0-.416.174-.666.679-.666a2.315,2.315,0,0,1,.462.047Z" transform="translate(-357.512 -247.38)" fill="#453d66"/>
          <path id="Path_408" data-name="Path 408" d="M380.025,247.973v.293h-1.6v1.167h1.426v.288h-1.426v1.307h-.327v-3.054Z" transform="translate(-361.759 -247.74)" fill="#453d66"/>
          <path id="Path_409" data-name="Path 409" d="M384.319,249.926v1.638a.376.376,0,0,0,.424.416,1.856,1.856,0,0,0,.857-.31v-1.743h.314v2.286h-.263l-.03-.284a2.025,2.025,0,0,1-.958.335.583.583,0,0,1-.658-.641v-1.7Z" transform="translate(-365.345 -248.925)" fill="#453d66"/>
          <path id="Path_410" data-name="Path 410" d="M392.178,252.134V250.5a.372.372,0,0,0-.425-.411,1.921,1.921,0,0,0-.857.31v1.739h-.313v-2.286h.3v.288a2.1,2.1,0,0,1,.958-.339.58.58,0,0,1,.653.645v1.693Z" transform="translate(-369.336 -248.847)" fill="#453d66"/>
          <path id="Path_411" data-name="Path 411" d="M397.738,250.517a1.5,1.5,0,0,0,.759-.276v-1.489a2.756,2.756,0,0,0-.564-.068c-.551,0-.8.3-.8.954s.251.878.607.878m.178-2.108a3.124,3.124,0,0,1,.581.072v-.972h.314v3.237h-.259s-.034-.233-.034-.237a1.609,1.609,0,0,1-.857.284c-.454,0-.857-.28-.857-1.141,0-.946.5-1.243,1.112-1.243" transform="translate(-373.11 -247.458)" fill="#453d66"/>
          <path id="Path_412" data-name="Path 412" d="M404.626,251.481c0-.3-.225-.335-.569-.382s-.751-.127-.751-.641.412-.661.9-.661a4.045,4.045,0,0,1,.628.055v.288a4.118,4.118,0,0,0-.6-.063c-.424,0-.6.123-.6.365,0,.3.225.335.56.378.361.046.759.114.759.649,0,.45-.28.717-.866.717a7.7,7.7,0,0,1-.772-.046v-.3a5.719,5.719,0,0,0,.751.068c.365,0,.56-.131.56-.428" transform="translate(-377.056 -248.847)" fill="#453d66"/>
          <path id="Path_413" data-name="Path 413" d="M412.717,247.844a3.37,3.37,0,0,1,.777.1v.31a2.907,2.907,0,0,0-.73-.115c-.641,0-1.073.339-1.073,1.273,0,.955.467,1.3,1.048,1.3a2.425,2.425,0,0,0,.759-.127v.305a2.827,2.827,0,0,1-.776.115c-.946,0-1.37-.611-1.37-1.583s.442-1.574,1.366-1.574" transform="translate(-381.936 -247.662)" fill="#453d66"/>
          <path id="Path_414" data-name="Path 414" d="M418.827,251.91c.539,0,.789-.357.789-.916s-.25-.917-.789-.917-.8.361-.8.917.251.916.8.916m0-2.113a1.2,1.2,0,1,1-1.12,1.2,1.058,1.058,0,0,1,1.12-1.2" transform="translate(-385.79 -248.847)" fill="#453d66"/>
          <path id="Path_415" data-name="Path 415" d="M428.179,250.469v1.671h-.314V250.5c0-.259-.136-.407-.429-.407a1.658,1.658,0,0,0-.8.31c0,.06,0,.119,0,.178v1.557h-.314V250.5a.369.369,0,0,0-.424-.407,1.55,1.55,0,0,0-.8.306v1.739h-.314v-2.287h.3v.289a1.828,1.828,0,0,1,.9-.335.585.585,0,0,1,.6.361,1.763,1.763,0,0,1,.937-.361.588.588,0,0,1,.649.662" transform="translate(-390.09 -248.853)" fill="#453d66"/>
          <path id="Path_416" data-name="Path 416" d="M436.186,250.081a1.444,1.444,0,0,0-.785.3v1.443a3.081,3.081,0,0,0,.594.085c.534,0,.772-.352.772-.955s-.242-.874-.581-.874m-1.1,2.923v-3.157h.314v.272a1.56,1.56,0,0,1,.874-.322c.441,0,.823.322.823,1.141,0,.908-.437,1.239-1.082,1.239a2.815,2.815,0,0,1-.615-.081V253Z" transform="translate(-396.338 -248.847)" fill="#453d66"/>
          <path id="Path_417" data-name="Path 417" d="M442.683,251.048H442c-.344,0-.509.161-.509.428s.191.416.475.416a1.252,1.252,0,0,0,.717-.3Zm0-.234v-.276c0-.28-.157-.466-.56-.466a3.25,3.25,0,0,0-.759.106v-.28a4.114,4.114,0,0,1,.827-.1.709.709,0,0,1,.81.759v1.578h-.271l-.026-.3a1.5,1.5,0,0,1-.827.318.637.637,0,0,1-.708-.662c0-.458.327-.679.8-.679Z" transform="translate(-400.028 -248.847)" fill="#453d66"/>
          <path id="Path_418" data-name="Path 418" d="M449.094,252.134V250.5a.371.371,0,0,0-.424-.411,1.918,1.918,0,0,0-.857.31v1.739H447.5v-2.286h.3v.288a2.1,2.1,0,0,1,.959-.339.581.581,0,0,1,.653.645v1.693Z" transform="translate(-403.869 -248.847)" fill="#453d66"/>
          <path id="Path_419" data-name="Path 419" d="M454.377,252.213h-.165l-.76-2.286h.344l.628,1.951h.055l.628-1.951h.344l-1.026,3.156h-.335Z" transform="translate(-407.481 -248.925)" fill="#453d66"/>
        </g>
      </g>
      <g id="Group_234" data-name="Group 234" transform="translate(0.006 0)">
        <path id="Path_420" data-name="Path 420" d="M392.41,117.337a2.269,2.269,0,0,0-.09-.528,1.359,1.359,0,0,0-.153-.33c-.4-.617-1.419-.8-2.029-.907a1.534,1.534,0,0,1-.451-.124,3.291,3.291,0,0,1-.936-1.212l-1.334-2.335q-1.239-2.17-2.474-4.344a3.541,3.541,0,0,0-2.281-1.779l-.055-.021c-.647-.249-1.229-.492-1.781-.742a23.115,23.115,0,0,1-3.38-1.866c-.295-.2-.594-.412-.925-.647a12.872,12.872,0,0,0-3.547-2,9.431,9.431,0,0,0-1.162-.286,6.142,6.142,0,0,0-1.551-.136,1.246,1.246,0,0,0-.883.406,1.139,1.139,0,0,0-.254.856c.009.109.026.217.046.333a1.841,1.841,0,0,1,.036.309.384.384,0,0,1-.151.26,3.243,3.243,0,0,1-.936.438c-.157.054-.3.107-.444.164-.1.04-.2.079-.3.12-1,.392-2.671,1.049-2.242,2.877a2.185,2.185,0,0,0,.269.6l.394.663c1.263,2.132,2.569,4.336,3.847,6.542l4.151,8.778c.017.035.035.084.07.172.176.449.417,1.064.944,1.2a.838.838,0,0,0,.749-.189,1.662,1.662,0,0,0,.39-.485c.092-.157.1-.169.2-.2a1.731,1.731,0,0,1,.805.123,6.953,6.953,0,0,1,.984.427,8.937,8.937,0,0,0,.931.416c.173.063.363.145.564.232a5.05,5.05,0,0,0,1.694.513h.056a2.462,2.462,0,0,0,.967-.252c3.22-1.373,6.38-2.676,9.047-3.768,1.447-.593,1.334-1.9,1.243-2.945Zm-1.592,2.364c-2.656,1.088-5.81,2.388-9.1,3.79a1.412,1.412,0,0,1-.559.157,4.441,4.441,0,0,1-1.335-.432c-.22-.1-.428-.186-.622-.256a8.245,8.245,0,0,1-.838-.378,7.608,7.608,0,0,0-1.119-.479,3.214,3.214,0,0,0-.955-.184,1.587,1.587,0,0,0-.386.046,1.229,1.229,0,0,0-.82.658l-.071.12a4.1,4.1,0,0,1-.236-.525c-.035-.087-.065-.163-.091-.217l-4.127-8.729c-.02-.043-.04-.085-.063-.123-1.274-2.2-2.586-4.415-3.862-6.567l-.383-.647a1.337,1.337,0,0,1-.156-.319c-.217-.923.475-1.267,1.639-1.724.108-.042.214-.084.315-.125.119-.049.248-.094.4-.147a3.876,3.876,0,0,0,1.244-.614,1.366,1.366,0,0,0,.506-1.013,2.9,2.9,0,0,0-.057-.523c-.011-.071-.023-.138-.028-.205a.2.2,0,0,1,.018-.129.317.317,0,0,1,.2-.062,5.59,5.59,0,0,1,1.321.125,8.431,8.431,0,0,1,1.025.252,12.171,12.171,0,0,1,3.27,1.862c.309.221.628.448.944.661a24.158,24.158,0,0,0,3.525,1.947c.569.258,1.169.507,1.835.764l.055.021c1,.383,1.3.5,1.774,1.341q1.234,2.176,2.476,4.347l1.332,2.331a3.94,3.94,0,0,0,1.311,1.587,2.386,2.386,0,0,0,.787.241c.786.14,1.24.3,1.349.466a.349.349,0,0,1,.04.09,1.378,1.378,0,0,1,.047.3c.008.118.018.236.029.354C391.541,118.828,391.555,119.4,390.818,119.7Z" transform="translate(-353.857 -86.345)" fill="#453d66"/>
        <path id="Path_421" data-name="Path 421" d="M390.1,109.005a3.078,3.078,0,0,0-.122-.709,1.716,1.716,0,0,0-.2-.421c-.542-.836-2.108-1.192-2.76-1.306a2.4,2.4,0,0,1-.728-.206,5.355,5.355,0,0,1-1.612-1.981l-1.8-3.144q-1.8-3.144-3.6-6.292a4.892,4.892,0,0,0-3.188-2.469l-.08-.031c-.937-.36-1.786-.712-2.6-1.078a33.743,33.743,0,0,1-4.938-2.718c-.447-.3-.9-.622-1.348-.94a18.512,18.512,0,0,0-5.078-2.857,13.379,13.379,0,0,0-1.634-.4,8.823,8.823,0,0,0-2.211-.194,1.566,1.566,0,0,0-1.115.507,1.4,1.4,0,0,0-.311,1.068c.012.15.037.3.066.464a2.922,2.922,0,0,1,.056.485.79.79,0,0,1-.3.558,4.878,4.878,0,0,1-1.453.686c-.214.076-.417.149-.608.227-.14.058-.287.116-.44.176-1.465.577-3.678,1.45-3.1,3.9a2.876,2.876,0,0,0,.364.8l.585.984c1.834,3.086,3.73,6.276,5.575,9.453a.887.887,0,0,1,.041.082l6,12.651c.03.062.063.148.109.266.224.569.562,1.428,1.208,1.594a.982.982,0,0,0,.875-.228,2.2,2.2,0,0,0,.508-.639c.138-.235.2-.333.446-.4a2.6,2.6,0,0,1,1.295.181,10.167,10.167,0,0,1,1.457.628,12.781,12.781,0,0,0,1.33.593c.25.09.527.21.832.341a7.17,7.17,0,0,0,2.372.722h.068a3.341,3.341,0,0,0,1.31-.349c4.637-1.985,9.229-3.885,13.109-5.481,1.934-.8,1.776-2.589,1.649-4.031C390.123,109.334,390.109,109.169,390.1,109.005Zm-1.975,3.633c-3.882,1.6-8.477,3.5-13.121,5.486a2.718,2.718,0,0,1-.967.271,6.574,6.574,0,0,1-2.024-.645c-.313-.135-.609-.263-.885-.361a12.2,12.2,0,0,1-1.238-.556,10.919,10.919,0,0,0-1.592-.68,4.462,4.462,0,0,0-1.31-.253,2.065,2.065,0,0,0-.5.059,1.557,1.557,0,0,0-1.041.845,1.307,1.307,0,0,1-.291.381c-.018.015-.031.024-.036.029-.076-.046-.237-.247-.536-1.006-.052-.132-.1-.245-.135-.326l-5.8-12.215c-.068-.143-.136-.286-.2-.428-.026-.055-.052-.109-.082-.162-1.827-3.146-3.722-6.335-5.556-9.419l-.612-1.029a2.091,2.091,0,0,1-.252-.526c-.387-1.634,1.024-2.19,2.517-2.778.156-.061.307-.121.452-.181.171-.071.357-.136.583-.217a5.452,5.452,0,0,0,1.732-.85,1.744,1.744,0,0,0,.646-1.29,3.743,3.743,0,0,0-.072-.669c-.022-.126-.042-.245-.053-.366a.482.482,0,0,1,.083-.361.658.658,0,0,1,.452-.173,8.333,8.333,0,0,1,1.973.182,12.42,12.42,0,0,1,1.516.371,17.79,17.79,0,0,1,4.811,2.726c.423.3.9.641,1.365.952a34.781,34.781,0,0,0,5.079,2.8c.82.37,1.685.73,2.647,1.1l.08.03c1.385.532,1.959.752,2.7,2.046q1.793,3.151,3.6,6.3l1.8,3.145a6.056,6.056,0,0,0,1.973,2.339,3.14,3.14,0,0,0,1.037.317,3.748,3.748,0,0,1,2.115.879.8.8,0,0,1,.087.19,2.254,2.254,0,0,1,.079.488c.01.136.022.273.033.408l.008.1C389.3,111,389.4,112.112,388.122,112.638Z" transform="translate(-345.27 -76.743)" fill="#453d66"/>
        <path id="Path_422" data-name="Path 422" d="M410.853,86.975c-2.257-3.928-4.112-7.165-5.837-10.188-1.413-2.476-2.612-2.935-5-3.85l-.13-.05c-1.527-.584-2.909-1.156-4.225-1.748a55.075,55.075,0,0,1-8.054-4.42c-.7-.472-1.428-.985-2.092-1.455l-.135-.1-.424.107-.632.252.6.423c.711.5,1.447,1.026,2.184,1.52a55.985,55.985,0,0,0,8.186,4.493c1.332.6,2.729,1.177,4.273,1.769l.13.05c2.323.889,3.285,1.257,4.539,3.453,1.726,3.024,3.581,6.263,5.838,10.192l3.174,5.52.257-1.365Z" transform="translate(-365.543 -65.167)" fill="#453d66"/>
        <path id="Path_423" data-name="Path 423" d="M348.873,124.446l-2.265-4.244-1.9-3.566c-.268-.5-.53-1.013-.8-1.525-.325-.628-.654-1.257-1-1.869-.65-1.145-1.33-2.274-2-3.408q-.534-.908-1.07-1.814l-1.525-2.579.868,2.867a7.812,7.812,0,0,0,.31.8l.152.354a14.683,14.683,0,0,0,1.01,1.683c.331.548.674,1.092.984,1.651,1.345,2.426,2.622,4.888,3.937,7.329l1.463,2.714,2.023,3.753,1.065,1.977.028.052.142.09c.078.05.157.1.237.147l1.03.623L350.769,128Z" transform="translate(-337.628 -89.603)" fill="#453d66"/>
        <path id="Path_424" data-name="Path 424" d="M340.845,124.183v0c.016.155.033.308.051.462l5.674,10.2,2.142,2.31-8.049-15.154Z" transform="translate(-339.054 -99.653)" fill="#453d66"/>
        <path id="Path_425" data-name="Path 425" d="M382.715,96.366a6.781,6.781,0,0,1-2.194-2.585l-2.365-4.116c-1.767-3.079-3.31-5.774-4.716-8.241-1.16-2.034-2.141-2.41-4.095-3.159l-.1-.04c-1.231-.471-2.346-.933-3.411-1.413a44.437,44.437,0,0,1-6.5-3.569c-.555-.371-1.118-.77-1.664-1.158l-.1-.072a24.142,24.142,0,0,0-6.614-3.72,17.414,17.414,0,0,0-2.121-.518,11.38,11.38,0,0,0-2.855-.25,1.9,1.9,0,0,0-1.348.608,1.68,1.68,0,0,0-.367,1.279c.016.194.048.383.082.578a4.027,4.027,0,0,1,.079.68,1.185,1.185,0,0,1-.455.857,6.441,6.441,0,0,1-1.937.924c-.284.1-.552.2-.805.3-.184.075-.377.151-.576.23-1.978.781-4.688,1.85-3.961,4.918a3.551,3.551,0,0,0,.458,1l.857,1.438q2.522,4.238,5.031,8.483c1.348,2.291,2.642,4.651,3.906,7l2.819,5.248,2.446,4.554a18.8,18.8,0,0,1,.833,1.719l.056.14,1.244.5c-.349-.789-.668-1.6-1.077-2.361l-.869-1.616L349.8,99.184,347.332,94.6c-.76-1.416-1.5-2.846-2.308-4.234q-1.258-2.15-2.528-4.294-1.9-3.209-3.81-6.411l-.739-1.243a2.815,2.815,0,0,1-.348-.732c-.541-2.28,1.551-3.106,3.4-3.835l.044-.017c.187-.074.369-.146.543-.217.234-.1.486-.186.772-.287a7.029,7.029,0,0,0,2.217-1.087,2.12,2.12,0,0,0,.787-1.566,4.815,4.815,0,0,0-.094-.852c-.028-.161-.057-.328-.071-.489a.786.786,0,0,1,.147-.594,1,1,0,0,1,.706-.284,10.674,10.674,0,0,1,2.626.239,16.383,16.383,0,0,1,2.006.49,23.479,23.479,0,0,1,6.352,3.589c.553.393,1.181.839,1.785,1.244a45.465,45.465,0,0,0,6.632,3.644c1.083.488,2.215.956,3.46,1.433l.105.041c1.855.711,2.623,1,3.617,2.749,1.407,2.467,2.95,5.164,4.718,8.243l2.365,4.117a7.572,7.572,0,0,0,2.545,2.933,4.017,4.017,0,0,0,1.316.393l.095.005.169-.9-.114-.02A3.236,3.236,0,0,1,382.715,96.366Z" transform="translate(-336.57 -66.587)" fill="#453d66"/>
      </g>
    </g>
  </g>
</svg>
