<svg xmlns="http://www.w3.org/2000/svg" xmlns:xlink="http://www.w3.org/1999/xlink" width="146.436" height="69.42" viewBox="0 0 146.436 69.42">
  <defs>
    <clipPath id="clip-path">
      <path id="Clip_34" data-name="Clip 34" d="M0,0H12.3V14.916H0Z" transform="translate(0 0.066)" fill="none"/>
    </clipPath>
    <clipPath id="clip-path-2">
      <path id="Clip_43" data-name="Clip 43" d="M0,69.42H146.436V0H0Z" transform="translate(0 0)" fill="none"/>
    </clipPath>
  </defs>
  <g id="Group_64_Copy" data-name="Group 64 Copy" transform="translate(0 0)">
    <path id="Fill_1" data-name="Fill 1" d="M0,4.038A8.056,8.056,0,0,1,.595,1.1H3.234a8.161,8.161,0,0,0-.428,2.458c0,2.568,1.712,4.17,5.042,4.17h6.326c2.283,0,3.329-1.032,3.329-3.138V0H20.38V4.587c0,3.643-2.4,5.728-6.207,5.728H7.848C3.068,10.314,0,7.747,0,4.038" transform="translate(0.023 18.671)" fill="#fff"/>
    <path id="Fill_3" data-name="Fill 3" d="M6.183,13.518v2.59C2.307,16.108,0,13.957,0,10.38V0H2.878V10.38c0,2.151,1.046,3.138,3.305,3.138" transform="translate(23.288 12.877)" fill="#fff"/>
    <path id="Fill_5" data-name="Fill 5" d="M11.3,7.725v2.59c-2.378,0-3.876-.7-4.732-2.019a6.2,6.2,0,0,1-5.018,2.019A1.419,1.419,0,0,1,0,8.975c0-.768.618-1.251,1.546-1.251,2.283,0,3.329-.966,3.329-3.138V0H7.753V4.586c0,2.173,1.022,3.138,3.543,3.138" transform="translate(27.925 18.671)" fill="#fff"/>
    <path id="Fill_7" data-name="Fill 7" d="M11.3,7.725l2.922-.016v2.605H11.3c-2.378,0-3.876-.7-4.732-2.019a6.2,6.2,0,0,1-5.018,2.019A1.419,1.419,0,0,1,0,8.975c0-.768.618-1.251,1.546-1.251,2.283,0,3.329-.966,3.329-3.138V0H7.753V4.586c0,2.173,1.023,3.138,3.543,3.138" transform="translate(37.675 18.671)" fill="#fff"/>
    <path id="Fill_9" data-name="Fill 9" d="M4.875,0H7.753V4.587c0,3.577-2.331,5.728-6.207,5.728A1.419,1.419,0,0,1,0,8.976c0-.768.618-1.251,1.546-1.251,2.283,0,3.329-.966,3.329-3.138Z" transform="translate(49.742 18.671)" fill="#fff"/>
    <path id="Fill_11" data-name="Fill 11" d="M10.2,10.314A6.49,6.49,0,0,1,6.659,9.48v.834c0,3.226-1.308,4.74-4.019,4.74A11.173,11.173,0,0,1,0,14.7l.618-2.436a8.142,8.142,0,0,0,1.665.241c1.07,0,1.5-.549,1.5-2.195V0H6.659V4.587c0,2.172,1.022,3.138,3.543,3.138h4.412v2.59Z" transform="translate(58.147 18.671)" fill="#fff"/>
    <path id="Fill_13" data-name="Fill 13" d="M4.875,0H7.753V4.587c0,3.577-2.33,5.728-6.207,5.728A1.419,1.419,0,0,1,0,8.976c0-.768.618-1.251,1.546-1.251,2.283,0,3.329-.966,3.329-3.138Z" transform="translate(70.844 18.671)" fill="#fff"/>
    <path id="Fill_15" data-name="Fill 15" d="M3.092,1.546A1.546,1.546,0,1,1,1.546,0,1.546,1.546,0,0,1,3.092,1.546" transform="translate(44.628 30.906)" fill="#fff"/>
    <path id="Fill_17" data-name="Fill 17" d="M3.092,1.546A1.546,1.546,0,1,1,1.546,0,1.546,1.546,0,0,1,3.092,1.546" transform="translate(52.312 13.855)" fill="#fff"/>
    <path id="Fill_19" data-name="Fill 19" d="M3.092,1.546A1.546,1.546,0,1,1,1.546,0,1.546,1.546,0,0,1,3.092,1.546" transform="translate(56.65 13.855)" fill="#fff"/>
    <path id="Fill_21" data-name="Fill 21" d="M3.092,1.546A1.546,1.546,0,1,1,1.546,0,1.546,1.546,0,0,1,3.092,1.546" transform="translate(73.237 13.855)" fill="#fff"/>
    <path id="Fill_23" data-name="Fill 23" d="M3.092,1.546A1.546,1.546,0,1,1,1.546,0,1.546,1.546,0,0,1,3.092,1.546" transform="translate(77.574 13.855)" fill="#fff"/>
    <path id="Fill_25" data-name="Fill 25" d="M3.092,1.546A1.546,1.546,0,1,1,1.546,0,1.546,1.546,0,0,1,3.092,1.546" transform="translate(40.291 30.906)" fill="#fff"/>
    <path id="Fill_27" data-name="Fill 27" d="M3.092,1.546A1.546,1.546,0,1,1,1.546,0,1.546,1.546,0,0,1,3.092,1.546" transform="translate(32.776 30.906)" fill="#fff"/>
    <path id="Fill_29" data-name="Fill 29" d="M3.092,1.546A1.546,1.546,0,1,1,1.546,0,1.546,1.546,0,0,1,3.092,1.546" transform="translate(10.748 14.294)" fill="#fff"/>
    <path id="Fill_31" data-name="Fill 31" d="M3.092,1.546A1.546,1.546,0,1,1,1.546,0,1.546,1.546,0,0,1,3.092,1.546" transform="translate(6.41 14.294)" fill="#fff"/>
    <g id="Group_35" data-name="Group 35" transform="translate(0 39.737)">
      <path id="Clip_34-2" data-name="Clip 34" d="M0,0H12.3V14.916H0Z" transform="translate(0 0.066)" fill="none"/>
      <g id="Group_35-2" data-name="Group 35" clip-path="url(#clip-path)">
        <path id="Fill_33" data-name="Fill 33" d="M4.681,2.631H0V0H12.3V2.631H7.615V14.916H4.681Z" transform="translate(0 0.066)" fill="#fff"/>
      </g>
    </g>
    <path id="Fill_36" data-name="Fill 36" d="M6.094,11.392a6.855,6.855,0,0,1-3.148-.708,5.287,5.287,0,0,1-2.167-2,5.722,5.722,0,0,1-.778-3A5.658,5.658,0,0,1,.779,2.7,5.312,5.312,0,0,1,2.946.708,6.865,6.865,0,0,1,6.094,0,6.013,6.013,0,0,1,8.249.375a4.776,4.776,0,0,1,1.7,1.1V.125h2.821V11.374H10.088V9.809A4.358,4.358,0,0,1,8.362,11,6.292,6.292,0,0,1,6.094,11.392ZM6.41,2.208a3.575,3.575,0,0,0-2.561.958,3.335,3.335,0,0,0-1,2.52,3.332,3.332,0,0,0,1,2.52,3.572,3.572,0,0,0,2.561.958,3.617,3.617,0,0,0,2.573-.958A3.317,3.317,0,0,0,10,5.685a3.319,3.319,0,0,0-1.015-2.52A3.62,3.62,0,0,0,6.41,2.208Z" transform="translate(10.779 43.344)" fill="#fff"/>
    <path id="Fill_38" data-name="Fill 38" d="M6.974,0V2.479a3.87,3.87,0,0,0-.654-.063A3.57,3.57,0,0,0,3.747,3.3a3.365,3.365,0,0,0-.925,2.551v5.522H0V.125H2.686V1.75Q3.9,0,6.974,0" transform="translate(25.069 43.344)" fill="#fff"/>
    <path id="Fill_40" data-name="Fill 40" d="M6.861,12.975a3.432,3.432,0,0,1-1.207.562,5.856,5.856,0,0,1-1.5.188,4.481,4.481,0,0,1-3.069-.958A3.527,3.527,0,0,1,0,9.976V0H2.821V2.541H6.048V4.624H2.821v5.29a1.649,1.649,0,0,0,.44,1.239,1.693,1.693,0,0,0,1.23.427,2.621,2.621,0,0,0,1.58-.458Z" transform="translate(32.043 41.011)" fill="#fff"/>
    <path id="Clip_43-2" data-name="Clip 43" d="M0,69.42H146.436V0H0Z" transform="translate(0 0)" fill="none"/>
    <g id="Mask_Group_2" data-name="Mask Group 2" clip-path="url(#clip-path-2)">
      <path id="Fill_42" data-name="Fill 42" d="M0,11.25H2.821V0H0Z" transform="translate(40.419 43.469)" fill="#fff"/>
      <path id="Fill_44" data-name="Fill 44" d="M6.681,15.6a6.3,6.3,0,0,1-2.269-.4,4.375,4.375,0,0,1-1.726-1.187v1.565H0V0H2.822V5.686a4.775,4.775,0,0,1,1.7-1.1,6.016,6.016,0,0,1,2.155-.374,6.87,6.87,0,0,1,3.148.707,5.382,5.382,0,0,1,2.178,2A5.62,5.62,0,0,1,12.8,9.893a5.672,5.672,0,0,1-.789,2.989,5.349,5.349,0,0,1-2.178,2.01A6.86,6.86,0,0,1,6.681,15.6ZM6.365,6.415a3.892,3.892,0,0,0-1.829.427A3.226,3.226,0,0,0,3.25,8.06a3.513,3.513,0,0,0-.474,1.832,3.519,3.519,0,0,0,.474,1.833,3.229,3.229,0,0,0,1.286,1.218,3.882,3.882,0,0,0,1.829.427,3.578,3.578,0,0,0,2.561-.958,3.337,3.337,0,0,0,1-2.52,3.34,3.34,0,0,0-1-2.52A3.581,3.581,0,0,0,6.365,6.415Z" transform="translate(44.756 39.136)" fill="#fff"/>
      <path id="Fill_45" data-name="Fill 45" d="M6.094,11.392a6.855,6.855,0,0,1-3.148-.708,5.284,5.284,0,0,1-2.167-2,5.722,5.722,0,0,1-.778-3A5.658,5.658,0,0,1,.779,2.7,5.308,5.308,0,0,1,2.946.708,6.865,6.865,0,0,1,6.094,0,6.013,6.013,0,0,1,8.249.375a4.776,4.776,0,0,1,1.7,1.1V.125h2.821V11.374H10.088V9.809A4.358,4.358,0,0,1,8.362,11,6.292,6.292,0,0,1,6.094,11.392ZM6.41,2.208a3.575,3.575,0,0,0-2.561.958,3.335,3.335,0,0,0-1,2.52,3.332,3.332,0,0,0,1,2.52,3.572,3.572,0,0,0,2.561.958,3.617,3.617,0,0,0,2.573-.958A3.317,3.317,0,0,0,10,5.685a3.319,3.319,0,0,0-1.015-2.52A3.62,3.62,0,0,0,6.41,2.208Z" transform="translate(58.693 43.344)" fill="#fff"/>
      <path id="Fill_46" data-name="Fill 46" d="M6.861,12.975a3.432,3.432,0,0,1-1.207.562,5.856,5.856,0,0,1-1.5.188,4.481,4.481,0,0,1-3.069-.958A3.527,3.527,0,0,1,0,9.976V0H2.821V2.541H6.048V4.624H2.821v5.29a1.649,1.649,0,0,0,.44,1.239,1.693,1.693,0,0,0,1.23.427,2.621,2.621,0,0,0,1.58-.458Z" transform="translate(73.286 41.011)" fill="#fff"/>
      <path id="Fill_47" data-name="Fill 47" d="M3.092,1.546A1.546,1.546,0,1,1,1.546,0,1.546,1.546,0,0,1,3.092,1.546" transform="translate(40.283 38.653)" fill="#fff"/>
      <path id="Fill_48" data-name="Fill 48" d="M2.376,0h0A2.376,2.376,0,0,1,4.752,2.376v35.2a2.376,2.376,0,0,1-4.752,0V2.376A2.376,2.376,0,0,1,2.376,0" transform="translate(141.97 14.734)" fill="#fff"/>
      <path id="Fill_49" data-name="Fill 49" d="M2.376,0h0A2.376,2.376,0,0,1,4.752,2.376V39.545a2.376,2.376,0,1,1-4.752,0V2.376A2.376,2.376,0,0,1,2.376,0" transform="translate(133.647 27.498)" fill="#fff"/>
      <path id="Fill_50" data-name="Fill 50" d="M2.376,0h0A2.376,2.376,0,0,1,4.752,2.376v35.2a2.376,2.376,0,0,1-4.752,0V2.376A2.376,2.376,0,0,1,2.376,0" transform="translate(125.324 14.734)" fill="#fff"/>
      <path id="Fill_51" data-name="Fill 51" d="M2.376,0h0A2.376,2.376,0,0,1,4.752,2.376v35.2a2.376,2.376,0,0,1-4.752,0V2.376A2.376,2.376,0,0,1,2.376,0" transform="translate(117 14.734)" fill="#fff"/>
      <path id="Fill_52" data-name="Fill 52" d="M2.376,0h0A2.376,2.376,0,0,1,4.752,2.376V24.811a2.376,2.376,0,0,1-4.752,0V2.376A2.376,2.376,0,0,1,2.376,0" transform="translate(108.196 27.498)" fill="#fff"/>
      <path id="Fill_53" data-name="Fill 53" d="M2.376,0h0A2.376,2.376,0,0,1,4.752,2.376V52.309a2.376,2.376,0,1,1-4.752,0V2.376A2.376,2.376,0,0,1,2.376,0" transform="translate(99.873 0)" fill="#fff"/>
      <path id="Fill_54" data-name="Fill 54" d="M2.376,0h0A2.376,2.376,0,0,1,4.752,2.376v35.2a2.376,2.376,0,0,1-4.752,0V2.376A2.376,2.376,0,0,1,2.376,0" transform="translate(91.549 14.734)" fill="#fff"/>
      <path id="Fill_55" data-name="Fill 55" d="M2.566,0h.007a2.566,2.566,0,0,1,0,5.133H2.566A2.566,2.566,0,1,1,2.566,0" transform="translate(141.296 7.122)" fill="#ff2130"/>
      <path id="Fill_56" data-name="Fill 56" d="M2.566,0h.007a2.566,2.566,0,0,1,0,5.133H2.566A2.566,2.566,0,1,1,2.566,0" transform="translate(141.296 0)" fill="#ff2130"/>
      <path id="Fill_57" data-name="Fill 57" d="M2.566,0h.007a2.566,2.566,0,1,1,0,5.133H2.566A2.566,2.566,0,1,1,2.566,0" transform="translate(124.649 7.122)" fill="#ff2130"/>
      <path id="Fill_58" data-name="Fill 58" d="M2.566,0h.007a2.566,2.566,0,0,1,0,5.133H2.566A2.566,2.566,0,1,1,2.566,0" transform="translate(124.649 0)" fill="#ff2130"/>
      <path id="Fill_59" data-name="Fill 59" d="M2.566,0h.007a2.566,2.566,0,0,1,0,5.133H2.566A2.566,2.566,0,1,1,2.566,0" transform="translate(116.326 64.287)" fill="#ff2130"/>
      <path id="Fill_60" data-name="Fill 60" d="M2.566,0h.007a2.566,2.566,0,0,1,0,5.133H2.566A2.566,2.566,0,1,1,2.566,0" transform="translate(116.326 57.165)" fill="#ff2130"/>
      <path id="Fill_61" data-name="Fill 61" d="M2.566,0h.007a2.566,2.566,0,1,1,0,5.133H2.566A2.566,2.566,0,1,1,2.566,0" transform="translate(108.002 57.165)" fill="#ff2130"/>
      <path id="Fill_62" data-name="Fill 62" d="M2.566,0h.007a2.566,2.566,0,0,1,0,5.133H2.566A2.566,2.566,0,1,1,2.566,0" transform="translate(91.355 7.122)" fill="#ff2130"/>
      <path id="Fill_63" data-name="Fill 63" d="M2.566,0h.007a2.566,2.566,0,0,1,0,5.133H2.566A2.566,2.566,0,1,1,2.566,0" transform="translate(91.355 0)" fill="#ff2130"/>
    </g>
  </g>
</svg>
