<svg id="Group_64_Copy" data-name="Group 64 Copy" xmlns="http://www.w3.org/2000/svg" xmlns:xlink="http://www.w3.org/1999/xlink" width="207.622" height="98.426" viewBox="0 0 207.622 98.426">
  <defs>
    <clipPath id="clip-path">
      <path id="Clip_34" data-name="Clip 34" d="M0,0H17.432V21.148H0Z" fill="none"/>
    </clipPath>
    <clipPath id="clip-path-2">
      <path id="Clip_43" data-name="Clip 43" d="M0,98.426H207.622V0H0Z" fill="none"/>
    </clipPath>
  </defs>
  <path id="Fill_1" data-name="Fill 1" d="M0,5.725A11.422,11.422,0,0,1,.843,1.556H4.585a11.571,11.571,0,0,0-.607,3.485c0,3.64,2.427,5.912,7.148,5.912H20.1c3.237,0,4.72-1.463,4.72-4.45V0H28.9V6.5c0,5.165-3.405,8.121-8.8,8.121H11.127C4.35,14.624,0,10.984,0,5.725" transform="translate(0.033 26.472)" fill="#fff"/>
  <path id="Fill_3" data-name="Fill 3" d="M8.767,19.166v3.672c-5.5,0-8.767-3.05-8.767-8.121V0H4.08V14.717c0,3.05,1.484,4.45,4.687,4.45" transform="translate(33.018 18.258)" fill="#fff"/>
  <path id="Fill_5" data-name="Fill 5" d="M16.016,10.952v3.672c-3.372,0-5.5-1-6.709-2.863C7.822,13.6,5.361,14.624,2.192,14.624A2.012,2.012,0,0,1,0,12.726c0-1.089.877-1.774,2.192-1.774,3.237,0,4.72-1.369,4.72-4.45V0h4.08V6.5c0,3.081,1.45,4.45,5.024,4.45" transform="translate(39.593 26.472)" fill="#fff"/>
  <path id="Fill_7" data-name="Fill 7" d="M16.016,10.952l4.143-.022v3.694H16.016c-3.372,0-5.5-1-6.709-2.863C7.822,13.6,5.361,14.624,2.192,14.624A2.012,2.012,0,0,1,0,12.726c0-1.089.877-1.774,2.192-1.774,3.237,0,4.72-1.369,4.72-4.45V0h4.08V6.5c0,3.081,1.45,4.45,5.024,4.45" transform="translate(53.417 26.472)" fill="#fff"/>
  <path id="Fill_9" data-name="Fill 9" d="M6.912,0h4.08V6.5c0,5.072-3.3,8.121-8.8,8.121A2.012,2.012,0,0,1,0,12.726c0-1.089.877-1.774,2.192-1.774,3.237,0,4.72-1.369,4.72-4.449Z" transform="translate(70.526 26.472)" fill="#fff"/>
  <path id="Fill_11" data-name="Fill 11" d="M14.465,14.624a9.2,9.2,0,0,1-5.024-1.182v1.182c0,4.574-1.855,6.721-5.7,6.721A15.841,15.841,0,0,1,0,20.847l.877-3.453a11.545,11.545,0,0,0,2.36.342c1.517,0,2.124-.778,2.124-3.112V0h4.08V6.5c0,3.08,1.45,4.449,5.024,4.449h6.256v3.672Z" transform="translate(82.443 26.472)" fill="#fff"/>
  <path id="Fill_13" data-name="Fill 13" d="M6.912,0h4.08V6.5c0,5.072-3.3,8.121-8.8,8.121A2.012,2.012,0,0,1,0,12.726c0-1.089.877-1.774,2.192-1.774,3.237,0,4.72-1.369,4.72-4.449Z" transform="translate(100.446 26.472)" fill="#fff"/>
  <path id="Fill_15" data-name="Fill 15" d="M4.384,2.192A2.192,2.192,0,1,1,2.192,0,2.192,2.192,0,0,1,4.384,2.192" transform="translate(63.276 43.82)" fill="#fff"/>
  <path id="Fill_17" data-name="Fill 17" d="M4.384,2.192A2.192,2.192,0,1,1,2.192,0,2.192,2.192,0,0,1,4.384,2.192" transform="translate(74.17 19.644)" fill="#fff"/>
  <path id="Fill_19" data-name="Fill 19" d="M4.384,2.192A2.192,2.192,0,1,1,2.192,0,2.192,2.192,0,0,1,4.384,2.192" transform="translate(80.32 19.644)" fill="#fff"/>
  <path id="Fill_21" data-name="Fill 21" d="M4.384,2.192A2.192,2.192,0,1,1,2.192,0,2.192,2.192,0,0,1,4.384,2.192" transform="translate(103.837 19.644)" fill="#fff"/>
  <path id="Fill_23" data-name="Fill 23" d="M4.384,2.192A2.192,2.192,0,1,1,2.192,0,2.192,2.192,0,0,1,4.384,2.192" transform="translate(109.987 19.644)" fill="#fff"/>
  <path id="Fill_25" data-name="Fill 25" d="M4.384,2.192A2.192,2.192,0,1,1,2.192,0,2.192,2.192,0,0,1,4.384,2.192" transform="translate(57.126 43.82)" fill="#fff"/>
  <path id="Fill_27" data-name="Fill 27" d="M4.384,2.192A2.192,2.192,0,1,1,2.192,0,2.192,2.192,0,0,1,4.384,2.192" transform="translate(46.471 43.82)" fill="#fff"/>
  <path id="Fill_29" data-name="Fill 29" d="M4.384,2.192A2.192,2.192,0,1,1,2.192,0,2.192,2.192,0,0,1,4.384,2.192" transform="translate(15.238 20.266)" fill="#fff"/>
  <path id="Fill_31" data-name="Fill 31" d="M4.384,2.192A2.192,2.192,0,1,1,2.192,0,2.192,2.192,0,0,1,4.384,2.192" transform="translate(9.088 20.266)" fill="#fff"/>
  <g id="Group_35" data-name="Group 35" transform="translate(0 56.434)">
    <path id="Clip_34-2" data-name="Clip 34" d="M0,0H17.432V21.148H0Z" transform="translate(0 0)" fill="none"/>
    <g id="Group_35-2" data-name="Group 35" transform="translate(0 0)" clip-path="url(#clip-path)">
      <path id="Fill_33" data-name="Fill 33" d="M6.636,3.73H0V0H17.433V3.73H10.8V21.148H6.636Z" transform="translate(0)" fill="#fff"/>
    </g>
  </g>
  <path id="Fill_36" data-name="Fill 36" d="M8.64,16.153a9.722,9.722,0,0,1-4.464-1A7.5,7.5,0,0,1,1.1,12.314,8.112,8.112,0,0,1,0,8.062,8.032,8.032,0,0,1,1.1,3.824,7.532,7.532,0,0,1,4.176,1,9.73,9.73,0,0,1,8.64,0,8.535,8.535,0,0,1,11.7.532,6.763,6.763,0,0,1,14.111,2.1V.177h4v15.95H14.3V13.908a6.19,6.19,0,0,1-2.448,1.683A8.9,8.9,0,0,1,8.64,16.153ZM9.088,3.13A5.071,5.071,0,0,0,5.456,4.488,4.731,4.731,0,0,0,4.032,8.062a4.728,4.728,0,0,0,1.424,3.573,5.068,5.068,0,0,0,3.632,1.358,5.124,5.124,0,0,0,3.648-1.358,4.7,4.7,0,0,0,1.44-3.573,4.707,4.707,0,0,0-1.44-3.573A5.127,5.127,0,0,0,9.088,3.13Z" transform="translate(15.284 61.454)" fill="#fff"/>
  <path id="Fill_38" data-name="Fill 38" d="M9.888,0V3.514a5.487,5.487,0,0,0-.928-.089A5.062,5.062,0,0,0,5.312,4.68,4.771,4.771,0,0,0,4,8.3v7.83H0V.177H3.808v2.3Q5.536,0,9.888,0" transform="translate(35.544 61.454)" fill="#fff"/>
  <path id="Fill_40" data-name="Fill 40" d="M9.727,18.4a4.866,4.866,0,0,1-1.712.8,8.3,8.3,0,0,1-2.128.266A6.354,6.354,0,0,1,1.536,18.1,5,5,0,0,1,0,14.145V0H4V3.6H8.576V6.555H4v7.5a2.337,2.337,0,0,0,.624,1.757,2.4,2.4,0,0,0,1.744.605,3.716,3.716,0,0,0,2.24-.65Z" transform="translate(45.432 58.147)" fill="#fff"/>
  <path id="Clip_43-2" data-name="Clip 43" d="M0,98.426H207.622V0H0Z" transform="translate(0 0)" fill="none"/>
  <g id="Mask_Group_1" data-name="Mask Group 1" transform="translate(0 0)" clip-path="url(#clip-path-2)">
    <path id="Fill_42" data-name="Fill 42" d="M0,15.95H4V0H0Z" transform="translate(57.308 61.631)" fill="#fff"/>
    <path id="Fill_44" data-name="Fill 44" d="M9.472,22.117a8.918,8.918,0,0,1-3.216-.561,6.194,6.194,0,0,1-2.448-1.683v2.218H0V0H4V8.062A6.769,6.769,0,0,1,6.415,6.5a8.538,8.538,0,0,1,3.056-.532,9.735,9.735,0,0,1,4.464,1A7.62,7.62,0,0,1,17.023,9.8a7.968,7.968,0,0,1,1.12,4.223,8.04,8.04,0,0,1-1.12,4.237,7.58,7.58,0,0,1-3.088,2.85A9.735,9.735,0,0,1,9.472,22.117ZM9.023,9.095A5.509,5.509,0,0,0,6.432,9.7a4.59,4.59,0,0,0-1.824,1.728,4.99,4.99,0,0,0-.672,2.6,4.99,4.99,0,0,0,.672,2.6,4.579,4.579,0,0,0,1.824,1.728,5.509,5.509,0,0,0,2.592.606A5.072,5.072,0,0,0,12.656,17.6a4.732,4.732,0,0,0,1.424-3.573,4.732,4.732,0,0,0-1.424-3.573A5.074,5.074,0,0,0,9.023,9.095Z" transform="translate(63.457 55.489)" fill="#fff"/>
    <path id="Fill_45" data-name="Fill 45" d="M8.64,16.153a9.722,9.722,0,0,1-4.464-1A7.494,7.494,0,0,1,1.1,12.314,8.112,8.112,0,0,1,0,8.062,8.032,8.032,0,0,1,1.1,3.824,7.529,7.529,0,0,1,4.176,1,9.73,9.73,0,0,1,8.64,0,8.535,8.535,0,0,1,11.7.532,6.763,6.763,0,0,1,14.111,2.1V.177h4v15.95H14.3V13.908a6.19,6.19,0,0,1-2.448,1.683A8.9,8.9,0,0,1,8.64,16.153ZM9.088,3.13A5.071,5.071,0,0,0,5.456,4.488,4.731,4.731,0,0,0,4.032,8.062a4.728,4.728,0,0,0,1.424,3.573,5.068,5.068,0,0,0,3.632,1.358,5.124,5.124,0,0,0,3.648-1.358,4.7,4.7,0,0,0,1.44-3.573,4.707,4.707,0,0,0-1.44-3.573A5.127,5.127,0,0,0,9.088,3.13Z" transform="translate(83.217 61.454)" fill="#fff"/>
    <path id="Fill_46" data-name="Fill 46" d="M9.727,18.4a4.866,4.866,0,0,1-1.712.8,8.3,8.3,0,0,1-2.128.266A6.353,6.353,0,0,1,1.536,18.1,5,5,0,0,1,0,14.145V0H4V3.6H8.576V6.555H4v7.5a2.337,2.337,0,0,0,.624,1.757,2.4,2.4,0,0,0,1.744.605,3.716,3.716,0,0,0,2.24-.65Z" transform="translate(103.908 58.147)" fill="#fff"/>
    <path id="Fill_47" data-name="Fill 47" d="M4.384,2.192A2.192,2.192,0,1,1,2.192,0,2.192,2.192,0,0,1,4.384,2.192" transform="translate(57.114 54.803)" fill="#fff"/>
    <path id="Fill_48" data-name="Fill 48" d="M3.369,0h0A3.369,3.369,0,0,1,6.738,3.369V53.276a3.369,3.369,0,0,1-6.738,0V3.369A3.369,3.369,0,0,1,3.369,0" transform="translate(201.291 20.89)" fill="#fff"/>
    <path id="Fill_49" data-name="Fill 49" d="M3.369,0h0A3.369,3.369,0,0,1,6.738,3.369v52.7a3.369,3.369,0,1,1-6.738,0V3.369A3.369,3.369,0,0,1,3.369,0" transform="translate(189.489 38.988)" fill="#fff"/>
    <path id="Fill_50" data-name="Fill 50" d="M3.369,0h0A3.369,3.369,0,0,1,6.738,3.369V53.276a3.369,3.369,0,0,1-6.738,0V3.369A3.369,3.369,0,0,1,3.369,0" transform="translate(177.688 20.89)" fill="#fff"/>
    <path id="Fill_51" data-name="Fill 51" d="M3.369,0h0A3.369,3.369,0,0,1,6.738,3.369V53.276a3.369,3.369,0,0,1-6.738,0V3.369A3.369,3.369,0,0,1,3.369,0" transform="translate(165.887 20.89)" fill="#fff"/>
    <path id="Fill_52" data-name="Fill 52" d="M3.369,0h0A3.369,3.369,0,0,1,6.738,3.369v31.81a3.369,3.369,0,0,1-6.738,0V3.369A3.369,3.369,0,0,1,3.369,0" transform="translate(153.404 38.988)" fill="#fff"/>
    <path id="Fill_53" data-name="Fill 53" d="M3.369,0h0A3.369,3.369,0,0,1,6.738,3.369v70.8a3.369,3.369,0,1,1-6.738,0V3.369A3.369,3.369,0,0,1,3.369,0" transform="translate(141.603 0)" fill="#fff"/>
    <path id="Fill_54" data-name="Fill 54" d="M3.369,0h0A3.369,3.369,0,0,1,6.738,3.369V53.276a3.369,3.369,0,0,1-6.738,0V3.369A3.369,3.369,0,0,1,3.369,0" transform="translate(129.802 20.89)" fill="#fff"/>
    <path id="Fill_55" data-name="Fill 55" d="M3.639,0h.01a3.639,3.639,0,0,1,0,7.277h-.01A3.639,3.639,0,1,1,3.639,0" transform="translate(200.335 10.097)" fill="#fff"/>
    <path id="Fill_56" data-name="Fill 56" d="M3.639,0h.01a3.639,3.639,0,0,1,0,7.277h-.01A3.639,3.639,0,1,1,3.639,0" transform="translate(200.335 0)" fill="#fff"/>
    <path id="Fill_57" data-name="Fill 57" d="M3.639,0h.01a3.639,3.639,0,1,1,0,7.277h-.01A3.639,3.639,0,1,1,3.639,0" transform="translate(176.732 10.097)" fill="#fff"/>
    <path id="Fill_58" data-name="Fill 58" d="M3.639,0h.01a3.639,3.639,0,1,1,0,7.278h-.01A3.639,3.639,0,0,1,3.639,0" transform="translate(176.732 0)" fill="#fff"/>
    <path id="Fill_59" data-name="Fill 59" d="M3.639,0h.01a3.639,3.639,0,0,1,0,7.278h-.01A3.639,3.639,0,0,1,3.639,0" transform="translate(164.931 91.148)" fill="#fff"/>
    <path id="Fill_60" data-name="Fill 60" d="M3.639,0h.01a3.639,3.639,0,0,1,0,7.277h-.01A3.639,3.639,0,1,1,3.639,0" transform="translate(164.931 81.051)" fill="#fff"/>
    <path id="Fill_61" data-name="Fill 61" d="M3.639,0h.01a3.639,3.639,0,1,1,0,7.277h-.01A3.639,3.639,0,1,1,3.639,0" transform="translate(153.13 81.051)" fill="#fff"/>
    <path id="Fill_62" data-name="Fill 62" d="M3.639,0h.01a3.639,3.639,0,0,1,0,7.277h-.01A3.639,3.639,0,1,1,3.639,0" transform="translate(129.527 10.097)" fill="#fff"/>
    <path id="Fill_63" data-name="Fill 63" d="M3.639,0h.01a3.639,3.639,0,0,1,0,7.277h-.01A3.639,3.639,0,1,1,3.639,0" transform="translate(129.527 0)" fill="#fff"/>
  </g>
</svg>
