<svg xmlns="http://www.w3.org/2000/svg" width="99.05" height="32.804" viewBox="0 0 99.05 32.804">
  <g id="Group_245" data-name="Group 245" transform="translate(-418.651 -1078.16)">
    <rect id="Rectangle_19" data-name="Rectangle 19" width="41.635" height="13.878" transform="translate(418.651 1097.086)" fill="#453d66"/>
    <rect id="Rectangle_20" data-name="Rectangle 20" width="41.635" height="13.878" transform="translate(418.651 1078.16)" fill="#453d66"/>
    <path id="Path_426" data-name="Path 426" d="M610.644,1131.549l-.183.036a5.811,5.811,0,0,1-1.353.171c-1.082,0-2.369-.553-2.369-3.181,0-1.346.23-3.138,2.242-3.138H609a6.086,6.086,0,0,1,1.485.281l.164.045Zm.336-13.062-.336.057v4.848l-.288-.084-.089-.024a6.885,6.885,0,0,0-1.844-.321c-4.056,0-4.907,3.065-4.907,5.633,0,3.528,1.979,5.553,5.425,5.553a11.086,11.086,0,0,0,3.629-.511,1.6,1.6,0,0,0,1.36-1.756v-13.9c-.974.178-1.979.346-2.95.506" transform="translate(-108.724 -23.42)" fill="#453d66"/>
    <path id="Path_427" data-name="Path 427" d="M581.806,1138.67l-.169.042-.623.169a6.082,6.082,0,0,1-1.494.234c-.951,0-1.516-.473-1.516-1.267,0-.517.23-1.391,1.787-1.391h2.015Zm-1.413-8.741a13.634,13.634,0,0,0-4.132.718l-1.037.316.348,2.344,1.01-.33a11.8,11.8,0,0,1,3.375-.572c.446,0,1.808,0,1.808,1.473v.646h-1.892c-3.444,0-5.049,1.1-5.049,3.451,0,2.017,1.475,3.221,3.948,3.221a12.339,12.339,0,0,0,2.75-.371l.048-.012.048.009.3.054c.971.17,1.971.348,2.941.538v-7.718c0-2.5-1.5-3.764-4.469-3.764" transform="translate(-91.85 -30.447)" fill="#453d66"/>
    <path id="Path_428" data-name="Path 428" d="M641.751,1138.67l-.169.042-.623.169a6.082,6.082,0,0,1-1.494.234c-.951,0-1.516-.473-1.516-1.267,0-.517.231-1.391,1.787-1.391h2.015Zm-1.413-8.741a13.639,13.639,0,0,0-4.133.718l-1.036.316.348,2.344,1.01-.33a11.809,11.809,0,0,1,3.375-.572c.446,0,1.808,0,1.808,1.473v.646h-1.892c-3.445,0-5.049,1.1-5.049,3.451,0,2.017,1.474,3.221,3.947,3.221a12.338,12.338,0,0,0,2.75-.371l.049-.012.047.009.3.054c.971.17,1.971.348,2.94.538v-7.718c0-2.5-1.5-3.764-4.468-3.764" transform="translate(-127.105 -30.447)" fill="#453d66"/>
    <path id="Path_429" data-name="Path 429" d="M543.593,1129.981a8.316,8.316,0,0,0-3.353.748l-.122.058-.11-.082a5.03,5.03,0,0,0-3-.724,12.183,12.183,0,0,0-3.547.531c-1.054.323-1.463.822-1.463,1.777v8.812h3.286v-8.146l.159-.052a4.356,4.356,0,0,1,1.441-.262c.953,0,1.435.5,1.435,1.5v6.963h3.242v-7.107a2.028,2.028,0,0,0-.1-.709l-.108-.214.221-.1a3.924,3.924,0,0,1,1.609-.334,1.312,1.312,0,0,1,1.434,1.5v6.963h3.241v-7.294c0-2.574-1.393-3.825-4.26-3.825" transform="translate(-66.66 -30.478)" fill="#453d66"/>
    <path id="Path_430" data-name="Path 430" d="M614.069,1087.208a10.942,10.942,0,0,1-1.916-.17l-.183-.039v-4.758a1.905,1.905,0,0,0-.1-.677l-.1-.206.211-.091c.05-.024.1-.037.157-.058l.033-.021c.072-.027.143-.048.216-.07.033-.01.061-.022.1-.029a7.069,7.069,0,0,1,1.695-.2h.015c2.012,0,2.244,1.79,2.244,3.137,0,2.629-1.29,3.18-2.37,3.18m-.007-9.047c-.029,0-.059,0-.087,0-1.89,0-3.834.515-4.528,1.533a3.063,3.063,0,0,0-.594,1.844v4.905a1.314,1.314,0,0,1-.1.616l-.106.216h-5.972v-3.418h-.007c-.072-3.6-2.2-5.569-5.284-5.569h-3.008c-.129.878-.22,1.494-.348,2.367h2.993c1.572,0,2.4,1.339,2.4,3.392v3.434l-.215-.105a2.03,2.03,0,0,0-.71-.1h-5.164c-.1.655-.223,1.506-.36,2.368h15.885c.534-.106,1.173-.2,1.717-.305a9,9,0,0,0,3.333.6c3.452,0,5.682-2.305,5.682-5.876,0-3.527-2.163-5.832-5.524-5.9" transform="translate(-102.521 0)" fill="#453d66"/>
    <path id="Path_431" data-name="Path 431" d="M550.34,1091.255h.146c3.447,0,5.051-1.139,5.051-3.945a3.618,3.618,0,0,0-3.947-3.627h-3.18a1.363,1.363,0,0,1-1.516-1.453c0-.619.23-1.394,1.784-1.394h6.941c.145-.9.229-1.473.363-2.365h-7.219c-3.362,0-5.049,1.4-5.049,3.759,0,2.321,1.476,3.534,3.949,3.534h3.178a1.5,1.5,0,0,1,1.518,1.547c0,.52-.233,1.593-1.787,1.593h-.535l-10.174-.022v.007h-1.85c-1.569,0-2.674-.9-2.674-2.949v-1.429c0-2.147.854-3.485,2.674-3.485h3.031c.137-.919.223-1.49.353-2.366h-4.121c-3.084,0-5.211,2.065-5.284,5.663h-.007v.132l.007,1.475c.073,3.6,2.2,5.313,5.284,5.313h3.008l5.509.009v0h3.284l1.264,0Z" transform="translate(-66.654 -0.183)" fill="#453d66"/>
  </g>
</svg>
