<svg xmlns="http://www.w3.org/2000/svg" width="87.056" height="54.951" viewBox="0 0 87.056 54.951">
  <g id="Group_226" data-name="Group 226" transform="translate(-549 -668)">
    <g id="Group_225" data-name="Group 225" transform="translate(549 668)">
      <path id="Path_341" data-name="Path 341" d="M124.479,153.7a9.974,9.974,0,0,0-1.321-2.05,10.67,10.67,0,0,0-.994-.99,9.632,9.632,0,0,0-.889.957,10.547,10.547,0,0,0-1.418,2.083,10.293,10.293,0,0,1,2.311,3.224,10.379,10.379,0,0,1,2.312-3.224" transform="translate(-97.138 -140.611)" fill="#453d66"/>
      <path id="Path_342" data-name="Path 342" d="M307.891,153.656a9.827,9.827,0,0,0-1.327-2.05,10.765,10.765,0,0,0-.988-.99,10.125,10.125,0,0,0-.892.959,10.558,10.558,0,0,0-1.417,2.083,10.341,10.341,0,0,1,2.311,3.223,10.409,10.409,0,0,1,2.314-3.224" transform="translate(-234.422 -140.577)" fill="#453d66"/>
      <path id="Path_343" data-name="Path 343" d="M212.78,158.778h-1.145l.006,20.69,20.69-.006v-1.143a19.568,19.568,0,0,0-19.55-19.541m1.149,18.4-.006-16.074a17.212,17.212,0,0,1,15.732,13.569Z" transform="translate(-165.835 -146.686)" fill="#453d66"/>
      <path id="Path_344" data-name="Path 344" d="M120.28,178.328v1.143l20.692,0,0-20.69h-1.145a19.57,19.57,0,0,0-19.544,19.55m18.4-1.15-15.728-2.5a17.22,17.22,0,0,1,15.725-13.577Z" transform="translate(-97.454 -146.686)" fill="#453d66"/>
      <path id="Path_345" data-name="Path 345" d="M211.461,248.089a19.567,19.567,0,0,0,19.553,19.54h1.144l-.005-20.688-20.691,0Zm18.4,1.14,0,16.078a17.221,17.221,0,0,1-16.078-16.073Z" transform="translate(-165.705 -212.678)" fill="#453d66"/>
      <path id="Path_346" data-name="Path 346" d="M365.286,120.339l.007,28.841H367.9l-.009-31.062Z" transform="translate(-280.845 -116.252)" fill="#453d66"/>
      <path id="Path_347" data-name="Path 347" d="M313.783,146.79l-6.415,0v-6.057l.789-2.05h-4.176l.777,2.053,0,6.159v2.5l11.643,0s-.016-1.122-.016-2.5l-.007-28.766-2.6,2.217Z" transform="translate(-234.957 -116.261)" fill="#453d66"/>
      <path id="Path_348" data-name="Path 348" d="M42.773,153.7l-2.423,2.421,2.423,2.421,1.264-1.266h3.884l0,16.074a17.218,17.218,0,0,1-16.078-16.07h3.869l1.265,1.264,2.422-2.421L36.981,153.7l-1.287,1.286H29.517v1.146A19.567,19.567,0,0,0,49.07,175.67h1.148l-.007-20.69H44.06Z" transform="translate(-29.517 -142.884)" fill="#453d66"/>
      <g id="Group_224" data-name="Group 224" transform="translate(6.564 0)">
        <path id="Path_349" data-name="Path 349" d="M55.616,126.019a9.41,9.41,0,0,1,2.119,3.577,9.238,9.238,0,0,1,.93-4.052,9.2,9.2,0,0,0-2.021-2.943,9.249,9.249,0,0,0-1.028,3.418" transform="translate(-55.616 -119.607)" fill="#453d66"/>
        <path id="Path_350" data-name="Path 350" d="M74.485,126.019a9.271,9.271,0,0,0-2.119,3.575,9.323,9.323,0,0,0-.932-4.05,9.15,9.15,0,0,1,2.021-2.943,9.3,9.3,0,0,1,1.029,3.418" transform="translate(-67.457 -119.607)" fill="#453d66"/>
        <path id="Path_351" data-name="Path 351" d="M65.4,113.435a9.234,9.234,0,0,0-1.192-1.851,10.045,10.045,0,0,0-.893-.887,8.423,8.423,0,0,0-.807.861,9.636,9.636,0,0,0-1.278,1.879,9.247,9.247,0,0,1,2.085,2.907,9.352,9.352,0,0,1,2.085-2.909" transform="translate(-59.814 -110.697)" fill="#453d66"/>
      </g>
    </g>
  </g>
</svg>
