<svg xmlns="http://www.w3.org/2000/svg" width="68.218" height="68.22" viewBox="0 0 68.218 68.22">
  <g id="Group_240" data-name="Group 240" transform="translate(-69.982 -69.976)">
    <path id="Path_432" data-name="Path 432" d="M218.951,425.925a2.953,2.953,0,0,0-1.071.355,1.072,1.072,0,0,1,.581-.429,6.631,6.631,0,0,1-2.378-2.144c-.337-.451-.5-.619-.841-1.051l.317-.269a1.148,1.148,0,0,0,.453.076.934.934,0,1,0-.135-1.86,1.025,1.025,0,0,0-.517.186,11.761,11.761,0,0,0-.939.859q-1.414-1.692-2.882-3.172c4.782-4.287,11.645-8.684,19.957-8.967-7.953-1.187-15.2,1.527-21.669,7.345-6.469-5.819-13.715-8.533-21.67-7.345,8.311.283,15.176,4.68,19.957,8.967q-1.468,1.479-2.882,3.172a11.878,11.878,0,0,0-.939-.859,1.025,1.025,0,0,0-.517-.186.934.934,0,1,0-.135,1.86,1.134,1.134,0,0,0,.452-.076l.318.269c-.344.432-.5.6-.841,1.051a6.634,6.634,0,0,1-2.377,2.144,1.072,1.072,0,0,1,.58.429,2.953,2.953,0,0,0-1.071-.355c-1.171-.174-2.613.49-2.341,2.071.261,1.513,3.056,2.693,5.23-.351.89-1.248,1.763-2.552,1.763-2.552.273-.358.417-.5.792-.965a9.759,9.759,0,0,0,.809.685,1.044,1.044,0,0,0,.523.17.934.934,0,1,0,.078-1.864,1.142,1.142,0,0,0-.45.091l-.114-.091c.794-.925,1.743-1.961,2.837-3.041,1.093,1.08,2.042,2.116,2.836,3.041l-.115.091a1.123,1.123,0,0,0-.45-.091.934.934,0,1,0,.077,1.864,1.049,1.049,0,0,0,.524-.17,9.744,9.744,0,0,0,.809-.685c.375.461.519.607.793.965,0,0,.871,1.3,1.761,2.552,2.174,3.044,4.969,1.864,5.23.351.274-1.581-1.167-2.245-2.341-2.071" transform="translate(-105.961 -304.195)" fill="#453d66"/>
    <path id="Path_433" data-name="Path 433" d="M372.266,434.3a10.166,10.166,0,0,1,2,1.215c1.1.645,2.283-.956,3.6-1.4-1.461-.156-1.8.438-2.727.471-.873.029-1.121-.439-2.871-.284" transform="translate(-271.041 -326.475)" fill="#453d66"/>
    <path id="Path_434" data-name="Path 434" d="M321.5,200.288c-1.193.11-2.385.3-3.578.409.082.739,2.3-.243,3.449,1.478.957-.528,3.846-.958,3.94-.255a5.475,5.475,0,0,0-2.856.365c.669.007.835.618,1.137.405.771-.549,1.082.16,2.15.205.275,0,.6-.24.821-.226.481.029.776.337,1.278.1a4.877,4.877,0,0,1,2.985-.237,2.735,2.735,0,0,0-1.378-.762c.016-.286,1.141-.279,1.784-.074,1.211.255.124-.72,2.4-1.123-.309-.942-2.065-.231-2.7-.337-2.053-.346-1.724.522-3.2-.146l-.643-13.651s.117-.6.333.022a8.837,8.837,0,0,0,1.155,2.328c.411.439.45.34.45.34a4.216,4.216,0,0,0,.284-.844,5.457,5.457,0,0,0,.593.61,2.937,2.937,0,0,0,.142-1.188,5.63,5.63,0,0,0-.182-1.078,3.208,3.208,0,0,1,.765,1.026,6.768,6.768,0,0,1,.405,1,2.764,2.764,0,0,0,.586-2.56,2.7,2.7,0,0,0-1.417-2.119s.8-.209,1.537.987,1.03,1.562,1.03,1.562a2.581,2.581,0,0,0,.2-2.138,3.338,3.338,0,0,0-1.459-1.408s.5-.215,1.522.458a4.58,4.58,0,0,1,1.12.852s.336-1.775-.4-2.391-2.658-.7-2.977-1.269c0,0,2.58.238,3.166.8a4.014,4.014,0,0,0-2.252-2.077,5.04,5.04,0,0,0-2.5-.371c.018-.024.293-.456,1.779-.111a10.722,10.722,0,0,0,2.679.287,6.251,6.251,0,0,0-3.81-1.435,3.71,3.71,0,0,0-2.705,1.088.467.467,0,0,1-.232-.731,1.5,1.5,0,0,0-.154-1.784,4.015,4.015,0,0,0-1.521,1.558c-.294.831.476,1.2-.122,1.96a2.924,2.924,0,0,1-.5-.983c-.243-.713-1.449-1.613-4.625-.529a2.244,2.244,0,0,1,1.566.571c.661.634.6.86.6.86a2.3,2.3,0,0,0-1.732-.157c-.873.321-1.023.747-1.023.747a4.173,4.173,0,0,1,1.533.073c.491.2.491.485.491.485a2.41,2.41,0,0,0-2.2.282A2.238,2.238,0,0,0,318.175,183a2.952,2.952,0,0,0,1.37-.224c.724-.306,1.027-.557,1.508-.387a3.689,3.689,0,0,0-1.263.646,1.43,1.43,0,0,0-.5.922,3.715,3.715,0,0,0,1.075-.455c.573-.353,1.084-.654,1.574-.328a3.106,3.106,0,0,0-1.61,1.146,3.451,3.451,0,0,0-.368,3.909,9.175,9.175,0,0,0,1.351-1.671,10.106,10.106,0,0,1,.618-1.037,4.076,4.076,0,0,0,.127,1.332,4.44,4.44,0,0,0,.493-.693,1.658,1.658,0,0,1,.666-.666,4.581,4.581,0,0,0-.4,2.2c-.03,1.632.357,1.9.357,1.9a11.712,11.712,0,0,0,1.4-2.051c.463-.878.78-1.671.78-1.671l-.456,14.41c-.926.494-2.466-.076-3.393.008" transform="translate(-222.312 -95.324)" fill="#453d66"/>
    <path id="Path_435" data-name="Path 435" d="M104.091,137.112a33.026,33.026,0,1,1,33.026-33.027,33.09,33.09,0,0,1-33.026,33.027m0-67.136A34.11,34.11,0,1,0,138.2,104.085a34.176,34.176,0,0,0-34.109-34.109" fill="#453d66"/>
    <path id="Path_436" data-name="Path 436" d="M157.137,183.148a24.131,24.131,0,1,1,24.13,24.13,24.177,24.177,0,0,1-24.13-24.13m49.344,0a25.213,25.213,0,1,0-25.214,25.214,25.262,25.262,0,0,0,25.214-25.214" transform="translate(-77.177 -78.867)" fill="#453d66"/>
    <path id="Path_437" data-name="Path 437" d="M283.053,125.066a1.844,1.844,0,0,0,.041-.57,2.712,2.712,0,0,0-.25-.9q-.314-.7-.912-1.737l-.254-.416-.151-.249-.089.634a2.2,2.2,0,0,0-.024.479Z" transform="translate(-189.575 -45.927)" fill="#453d66"/>
    <path id="Path_438" data-name="Path 438" d="M296.293,134.025c.024.076.3.129.83.158a3.558,3.558,0,0,0,1.043-.035c.326-.105.55-.423.677-.957a3.29,3.29,0,0,0,.083-1.093,2.553,2.553,0,0,0-.094-.482,1.826,1.826,0,0,0-.668-.914,1.636,1.636,0,0,0-.665-.306l-.016.868a4.118,4.118,0,0,1,.556.233q.431.227.474.36c.078.239-.041.612-.356,1.123a3.609,3.609,0,0,1-.44.616.992.992,0,0,1-.4.283,1.845,1.845,0,0,1-.439.057l-.12-.006-.146.01-.275.008c-.043.014-.059.04-.046.078" transform="translate(-202.916 -54.175)" fill="#453d66"/>
    <path id="Path_439" data-name="Path 439" d="M179.381,220.977l0-.011-.016-.037Z" transform="translate(-98.081 -135.351)" fill="#453d66"/>
    <path id="Path_440" data-name="Path 440" d="M245.661,139.074a.5.5,0,0,1,.056-.2l.061-.2.337,0a1.9,1.9,0,0,0,.339-.018l.073-.239.049-.212.031-.158-.681.01a.342.342,0,0,0-.034.081c-.014.035-.029.087-.048.156-.041.123-.067.188-.086.2a.961.961,0,0,1-.291.029,1.3,1.3,0,0,1-.322-.034l-.059.193a1.288,1.288,0,0,0-.059.205l-.046.2a1.122,1.122,0,0,0,.317.017,1.23,1.23,0,0,0,.365-.03" transform="translate(-156.91 -61.035)" fill="#453d66"/>
    <path id="Path_441" data-name="Path 441" d="M209.11,167.1l2.341,2.2a1.82,1.82,0,0,0-.12-.558,2.723,2.723,0,0,0-.487-.793q-.5-.591-1.362-1.422l-.36-.331-.213-.2.089.635a2.032,2.032,0,0,0,.112.466" transform="translate(-124.568 -86.103)" fill="#453d66"/>
    <path id="Path_442" data-name="Path 442" d="M241.949,145.38a.739.739,0,0,0,.546.367,1.211,1.211,0,0,0,.366,0l.092-.02a.237.237,0,0,0,.077-.024l.166-.08,2.65-1.455a2,2,0,0,0-.058-.588l-.036-.287a.225.225,0,0,0-.015-.092l-.036-.064-.033-.122a.71.71,0,0,0-.064-.15l-.026-.064-.034-.057-.046-.085a.856.856,0,0,0-.15-.192,1.85,1.85,0,0,0-.251-.2l-.228-.126-.181-.095-.013.843.185.09a.544.544,0,0,1,.228.134.5.5,0,0,1,.142.127l.062.062s.015.026.035.064a.156.156,0,0,1,.019.139l-2.283,1.255a.947.947,0,0,1-.837.077l-.092-.043-.053-.047-.058-.078-.057-.1a3.681,3.681,0,0,1-.2-.48l-.034-.107-.045-.093-.069-.057c-.084.045-.078.26.012.641a3.6,3.6,0,0,0,.318.9" transform="translate(-153.845 -64.627)" fill="#453d66"/>
    <path id="Path_443" data-name="Path 443" d="M322.569,107.008a.563.563,0,0,1,.228-.162.494.494,0,0,1,.142-.053l.181-.037c.145-.025.267.048.371.22a.616.616,0,0,1,.092.174l.041.115.025.142-.069.024-.072.009-.091,0-.088-.018-.087-.021-.314-.112-.127-.037-.162-.062-.161-.073Zm-1.575,1.578v0l.6-.106a.39.39,0,0,0,.344-.31.519.519,0,0,1,.118-.261l1.194.411c.193.073.345.123.456.155a.7.7,0,0,0,.217.041c.049-.01.081-.09.1-.241s.069-.23.123-.239l.49-.087h0l1.453-.026a1.151,1.151,0,0,0,.154-.259l.063-.117.073-.144a1.131,1.131,0,0,0,.217.392.6.6,0,0,0,.358.112l.529-.008,0-.032,1.339.023.312-.537a.819.819,0,0,0,.231.411.549.549,0,0,0,.37.142l.333.006,0,.03.907.16.1-.007.092-.029a.751.751,0,0,0,.208-.134l.049-.044.012.05.057.181a.364.364,0,0,0,.181.112,2.956,2.956,0,0,0,.444.1l.1.017.19.034.206.02.323.01.123-.106.046-.033.022-.008a.235.235,0,0,1,.06.1l.015.076.023.049,1.09.191.072-.131.111-.153.127-.175.062-.11a2.308,2.308,0,0,0,.121-.447l.166-.945-.2.142c-.073.054-.151.117-.236.193a1.65,1.65,0,0,0-.259.258v.13l0,.184v.092l.013.129-.693-.141a.194.194,0,0,1,0-.089,1.541,1.541,0,0,1,.082-.257l.093-.216.22-.463-.388.261a3,3,0,0,0-.291.236.548.548,0,0,0-.08.11.783.783,0,0,0-.06.217l-.024.124-.231.012-.256-.033-.1-.017-.252-.057-.2-.067c-.122-.063-.182-.113-.176-.143l.08-.152a.551.551,0,0,0,.088-.124l.076-.143a2.4,2.4,0,0,0,.215-.53c-.174.122-.322.232-.447.332a1.085,1.085,0,0,0-.279.235,1.1,1.1,0,0,1-.064.243q-.117.175-.243.154l-1.154-.2-.073.41.007-.452-.107,0a.516.516,0,0,1-.345-.138.393.393,0,0,1-.119-.289v-.048l.033-.159.019-.061,0-.063.014-.216.017-.294,0-.105-.5.575-.028.443,0,.111-.023.1-.037.1-.013.029-1.679-.029v.035l-.17,0a.43.43,0,0,1-.288-.1.355.355,0,0,1-.1-.209l0-.057.033-.208.01-.17.014-.074,0-.1,0-.133-.011-.154-.009-.084-.508.643-.015.388-.011.166-.031.11-1.663.028,0,.191-.036-.2-.214.037c-.094.016-.224-.074-.395-.271a2.622,2.622,0,0,1-.351-.453l-.045-.087-.021-.09-.027-.155a.188.188,0,0,0-.063-.127.364.364,0,0,0-.193-.007,1.5,1.5,0,0,0-.595.356,2.1,2.1,0,0,0-.517.588,3.425,3.425,0,0,0-.166.5.26.26,0,0,1-.2.2l-1.076.189v.008l-.224.062-.135.022c-.056,0-.091-.009-.1-.022l-.06-.066a.08.08,0,0,1-.022-.045,2.288,2.288,0,0,1-.158-.361l-.384-.973q-.457-1.152-.591-1.645l-.348.738,1.236,3.349Z" transform="translate(-223.012 -31.207)" fill="#453d66"/>
    <path id="Path_444" data-name="Path 444" d="M603.309,218.779l.6.4a1.062,1.062,0,0,1,.327.4l.02.071.016.053.014.1a1.358,1.358,0,0,1-.025.315c-.048.242-.11.382-.19.419a.291.291,0,0,1-.115-.008.511.511,0,0,1-.235-.266l-.841-1.788Zm-5.926-7.134a.306.306,0,0,0-.067.12.2.2,0,0,0,.045.122l1.166,1.332c.034.051.136.045.306-.016a.864.864,0,0,1,.375-.048l.041.016-.017.042-.037.078a.135.135,0,0,1-.035.069l-.025.045-.043.067-.06.1c-.053.1-.067.162-.039.181l.3.342-.01.006.747,1.142.593-.039-.119.144-.064.117a.546.546,0,0,0,.056.487l.251.381.161-.1.338.724.559.058-.3.228c-.049.068-.067.112-.056.137l1.671,3.551a.359.359,0,0,0,.26.14,3.238,3.238,0,0,0,.523.033l.443-.013.37-.016c.17-.08.3-.3.406-.669a1.243,1.243,0,0,0,.027-.817,2.159,2.159,0,0,0-.743-.613l-1.038-.6-.468-.294a1.168,1.168,0,0,1-.266-.216.6.6,0,0,1-.088-.093l-.049-.1-.055-.115a.27.27,0,0,1-.014-.191.336.336,0,0,1,.158-.154l.91-.486-.5-.12a1.686,1.686,0,0,0-.4-.073l-.48.341-.513-1.09-.183.084-.091-.139a.421.421,0,0,1-.064-.294.313.313,0,0,1,.131-.2l.043-.023.2-.083.148-.081.072-.028.084-.055.115-.068.127-.091.068-.052c-.036-.009-.177-.028-.427-.05l-.3-.028-.1-.009-.338.194-.15.078-.11.032-.856-1.31-.025.016.035-.031-.111-.127c-.053-.06-.016-.18.111-.36l.3-.419.6-.859.218-.312-.867.232-.467.715a1.593,1.593,0,0,1-.3.366l-.047.037-.043.024-1.13-1.289a.194.194,0,0,1-.053-.193.59.59,0,0,1,.16-.194c.009,0,.025-.013.051-.034l.055-.048.045-.028.037-.031.076-.06.032-.038.014-.033c-.021-.024-.092-.012-.208.037l-.094.033-.084.046a3.794,3.794,0,0,0-.531.3Z" transform="translate(-472.831 -126.425)" fill="#453d66"/>
    <path id="Path_445" data-name="Path 445" d="M522.964,133.726a2.792,2.792,0,0,0,.547-.756q.351-.685.787-1.8l.168-.458.1-.271-.553.329a2.022,2.022,0,0,0-.39.283l-1.131,3a1.812,1.812,0,0,0,.473-.326" transform="translate(-405.74 -54.218)" fill="#453d66"/>
    <path id="Path_446" data-name="Path 446" d="M647.229,232.053q.318.115.369.082c.01-.036.019-.084.03-.142s.026-.149.044-.258l.051-.376a1.056,1.056,0,0,0-.388-.131,1.251,1.251,0,0,0-.383-.064,1.065,1.065,0,0,0-.065.356,1.611,1.611,0,0,0,0,.378,1.254,1.254,0,0,0,.345.154" transform="translate(-517.268 -144.525)" fill="#453d66"/>
    <path id="Path_447" data-name="Path 447" d="M542.978,168.444l-.082-.057-.089-.061-.084-.083-.051-.084-.03-.08-.033-.127a.379.379,0,0,1-.017-.1,1.51,1.51,0,0,1,.264-.111.312.312,0,0,1,.238.023c.037.025.066.12.086.283a1.26,1.26,0,0,1-.02.466l-.064-.006-.048-.013Zm-3.531.447a1.488,1.488,0,0,0,.646.831c.023.015.052.037.09.06s.1.056.174.1l.177.091.2.085a5.419,5.419,0,0,0,.8.215,2.916,2.916,0,0,0,.907.076,1.9,1.9,0,0,0,.379-.259l.2-.155.251-.207.029-.029.064-.088.167-.3.1-.217.087-.221a3,3,0,0,0,.207-1.053.773.773,0,0,0-.067-.314.427.427,0,0,0-.153-.188c-.207-.145-.536-.111-.984.105a2.262,2.262,0,0,0-.809.584.481.481,0,0,0-.037.466.871.871,0,0,0,.317.425.945.945,0,0,0,.607.191.622.622,0,0,0,.228-.061.287.287,0,0,1-.01.09l-.018.086a.423.423,0,0,1-.053.181l-.048.128-.041.064-.108.224a2.107,2.107,0,0,1-.957-.131,4.1,4.1,0,0,1-1.074-.532,1.391,1.391,0,0,1-.464-.536.773.773,0,0,1,.079-.822,1.087,1.087,0,0,1,.182-.2l.306-.23.281-.205a.611.611,0,0,0,.123-.105c.017-.037.016-.061,0-.076q-.117-.08-.7.307a3.264,3.264,0,0,0-.517.389,2.88,2.88,0,0,0-.356.4,1.007,1.007,0,0,0-.2.831" transform="translate(-420.922 -86.949)" fill="#453d66"/>
    <path id="Path_448" data-name="Path 448" d="M487.062,112.764l.2-.078.281-.14.019.127.021.156.01.164,0,.11a2.154,2.154,0,0,1-.294-.085l-.049-.019-.254-.111-.1-.069Zm.612,1.23.143-.275a2.443,2.443,0,0,0,.166-.355c0-.011.016-.039.033-.086l.052-.169.016-.14,0-.184-.026-.421a.575.575,0,0,0,.2-.136l.291-.271a1.2,1.2,0,0,0,.236-.286.509.509,0,0,0,.087-.119l.047-.082.052-.084.048-.128.065.078a.107.107,0,0,0,.042.045l.1.042.679-.5c0-.034-.057-.131-.184-.291l-.2-.243a.6.6,0,0,1-.14-.286.676.676,0,0,1,.057-.267l-.44.313-.338.252-.112.089.065.231a.873.873,0,0,1-.064.332l-.037.1-.067.14-.093.162-.09.141a2.912,2.912,0,0,1-.278.326l-.154-.618-.157-.483a3.586,3.586,0,0,0-.159-.372l-.136-.261-.086-.162a2.391,2.391,0,0,0-.164-.28,1.262,1.262,0,0,0-.491-.525l-.169.166-.152.169a1.6,1.6,0,0,0-.254.379.79.79,0,0,0-.059.31.373.373,0,0,0,.143.262,3.256,3.256,0,0,1,.4.474l.066.085.11.174c.033.014.076-.013.127-.08s.082-.1.1-.091.077.076.151.2l.1.173a1.091,1.091,0,0,1,.059.141l.1.243.067.207.056.192,0,.032a1.032,1.032,0,0,1-.24.11l-.17.059-.148.038-.339.084a.5.5,0,0,1-.288,0,.31.31,0,0,1-.228-.25l-.029-.139-.015-.044c-.034,0-.08.058-.136.161a.852.852,0,0,0-.1.177l-.092.225a2.015,2.015,0,0,0-.061.2,1.349,1.349,0,0,0-.039.176c.015.106.047.166.091.184Z" transform="translate(-372.656 -35.191)" fill="#453d66"/>
    <path id="Path_449" data-name="Path 449" d="M575.209,155.183l.051.123.051.085a.429.429,0,0,0,.111.131l.033-.006.184-.024.175-.025.056-.01.092.2a4.027,4.027,0,0,0,.233.429,1.106,1.106,0,0,0,.255-.037,3.28,3.28,0,0,0,.411-.1l-.33-.654-.187.022-.169.029a.183.183,0,0,1-.107.007l-.045-.012a.843.843,0,0,1-.152-.265,3.152,3.152,0,0,1-.123-.325l-.205.037-.451.106.038.125Z" transform="translate(-452.903 -76.01)" fill="#453d66"/>
    <path id="Path_450" data-name="Path 450" d="M565.092,192.428a.364.364,0,0,1,.281-.064.46.46,0,0,1,.181.028.982.982,0,0,1,.1.047.341.341,0,0,1,.053.041.4.4,0,0,1,.116.3.446.446,0,0,1-.126.336l-.03.029-.2-.076-.064-.022-.03-.026-.055-.051-.113-.127-.1-.161c-.039-.135-.043-.217-.012-.251m-.566.2a.955.955,0,0,0-.115.193.5.5,0,0,0,.16.555.785.785,0,0,0,.567.254l.079-.01.073-.019.1-.037.159-.065.185-.1a.539.539,0,0,1-.073.137l-.051.106-.018.021-.022.023-.032.032a1.457,1.457,0,0,1-1.056.306,4.778,4.778,0,0,1-.7-.045,3.323,3.323,0,0,1-.661-.169l-.09-.026-.076-.049a.57.57,0,0,1-.155-.116l-.127-.14-.112-.145-.181-.267-.078-.106c-.071-.031-.117-.036-.14-.01-.03.069.074.3.315.679.021.042.038.073.047.088s.028.045.056.083l.087.131a.423.423,0,0,0,.035.065c.008.01.018.024.034.042l.08.107a2.111,2.111,0,0,0,.3.337,1.423,1.423,0,0,0,1.511.115,3.627,3.627,0,0,0,1.429-.923,1.979,1.979,0,0,0,.487-.926c.087-.361.075-.6-.037-.7-.164-.152-.473-.17-.929-.056a1.708,1.708,0,0,0-.828.365Z" transform="translate(-441.311 -109.341)" fill="#453d66"/>
    <path id="Path_451" data-name="Path 451" d="M380.22,103.53l.106-.127.1-.1.134-.122a1.428,1.428,0,0,1,.337.174l.3.175.083-.092.13-.158.161-.216-.557-.326-.141.143c-.133.132-.215.2-.248.2a1.49,1.49,0,0,1-.271-.121l-.155-.092-.138-.088-.06.056-.063.067-.087.1-.17.211a2.133,2.133,0,0,0,.233.162,1.891,1.891,0,0,0,.308.155" transform="translate(-277.688 -29.371)" fill="#453d66"/>
    <path id="Path_452" data-name="Path 452" d="M383.96,96.184l.457.348.391-.37-.437-.368Z" transform="translate(-281.527 -23.149)" fill="#453d66"/>
    <path id="Path_453" data-name="Path 453" d="M406.252,98.716l.1-.106.246-.215.335.2a2.439,2.439,0,0,0,.315.153l.06-.051.144-.134a4.167,4.167,0,0,0,.283-.31l-.661-.367a1.367,1.367,0,0,0-.22.181c-.1.093-.16.138-.185.138l-.115-.045-.171-.088a3.1,3.1,0,0,1-.3-.2l-.15.138-.14.135-.2.209a.874.874,0,0,0,.282.2,1.476,1.476,0,0,0,.372.163" transform="translate(-300.927 -25.012)" fill="#453d66"/>
    <path id="Path_454" data-name="Path 454" d="M153.426,188.86l.643-.879-.043-.031,1.085-1.326-.08-.25-.1-.226-.033-.067.079.01.142.017.137.033.217.035.492-.6,1.078-1,.052-.066.058-.074c.03-.06.037-.095.02-.1a.735.735,0,0,0-.052-.111l-.084-.128-.14-.225a2.522,2.522,0,0,0-.239-.341l-.056-.061-.459-.369-.129-.1-.095-.076-.134-.125-.179-.168-.014-.016-.092-.95-.168.049-.243.056-.576.1a.746.746,0,0,1-.209-.047l-.047-.016a.125.125,0,0,1-.045-.037l-.09-.09.028.214.073.314.136.491.361-.034.513.372.462.321a4.459,4.459,0,0,1,.618.51c.07.076.1.13.1.163l-.958.887-.014-.011-.349.427-.037-.049-.061-.116-.067-.2a1.042,1.042,0,0,0-.081-.2.355.355,0,0,0-.081-.1.726.726,0,0,0-.517-.092,1.058,1.058,0,0,0-.735.392,1.576,1.576,0,0,0-.272.556l-.043.141-.021.088.014.035.149.388.162.36a.251.251,0,0,1,.056-.094l.084-.1a.778.778,0,0,1,.412-.266.873.873,0,0,1,.359-.025l.076.02-1.173,1.438.045.037-.128.176-.092.1c-.044.035-.076.049-.094.046l-.088-.014c-.008,0-.021-.006-.045-.022a2.371,2.371,0,0,1-.353-.183l-.915-.516q-1.088-.61-1.5-.91l.2.79Z" transform="translate(-71.874 -100.152)" fill="#453d66"/>
    <path id="Path_455" data-name="Path 455" d="M128.451,256.065l.142.023a.4.4,0,0,1,.108.025l.142.037.1.039.09.037-.045.112-.076.185-.109.2a.391.391,0,0,0-.085.127l-.076.122-.1.126-.086.109-.039-.465a.748.748,0,0,0-.093-.342l-.158-.177a.512.512,0,0,1-.111-.22,1.4,1.4,0,0,1,.395.058m1.575-2.673-.009-.095-.008-.216a.478.478,0,0,1,.015-.153l.024-.091.053-.1c.077-.092.218-.115.421-.072.092.022.187.049.288.084Zm-2.7,2.34.171.24.129.014a.42.42,0,0,1,.146.016l.132.784a2.248,2.248,0,0,0,.1.459,1.546,1.546,0,0,0,.434.513,2.249,2.249,0,0,0,.49.365l.037-.092.076-.121.254-.367q.314-.443.337-.5c.037-.088-.021-.217-.172-.38a.854.854,0,0,1-.236-.352l.005-.048.04.007a2.877,2.877,0,0,1,.415.091c.313.042.5-.019.569-.18l.189-.467-.021-.008.467-.871a.244.244,0,0,0-.057-.268c-.181-.28-.262-.448-.241-.5l1.161-1.043a1.876,1.876,0,0,0-.224-.424,1.926,1.926,0,0,0-.26-.382,1.629,1.629,0,0,0-.218-.093l-.181-.048-.121-.029-.63-.1-.306-.062a.136.136,0,0,0-.162.082.789.789,0,0,0-.076.268l-.041.389a1.828,1.828,0,0,0,.179.875l.2.291.326.456.021.02-.627,1.17.028.015-.07.169-.03.076a.209.209,0,0,1-.093.121l-.119.026a3.983,3.983,0,0,1-.575-.115l-1.052-.259-.365-.076-.369-.071.181.213Z" transform="translate(-51.12 -163.102)" fill="#453d66"/>
    <path id="Path_456" data-name="Path 456" d="M113.736,286.855a.9.9,0,0,0,.14-.086l.122-.095.158-.135a1.008,1.008,0,0,0,.11-.129.46.46,0,0,1-.087-.189l-.036-.1-.042-.1a2.408,2.408,0,0,0,.281-.219,2.709,2.709,0,0,0,.209-.193l.03-.031a1.029,1.029,0,0,0-.09-.225l-.086-.176-.087-.167-.543.435.124.317c.029.069.039.115.027.141a.716.716,0,0,1-.209.2c-.144.1-.239.16-.282.183l.076.168Z" transform="translate(-38.998 -192.812)" fill="#453d66"/>
    <path id="Path_457" data-name="Path 457" d="M656.211,403.487a2.921,2.921,0,0,1,.2-.357.531.531,0,0,1,.27.135c.117.1.175.175.175.231-.032.149-.162.259-.389.333a.469.469,0,0,1-.177.056c-.007,0-.068.007-.175.023l-.01-.045a2.941,2.941,0,0,1,.1-.376m-3.224,1.34a1.246,1.246,0,0,0,.463.177,2.542,2.542,0,0,0,.548.11l.056,0,.1-.088.144-.1a.824.824,0,0,1,.08-.05.715.715,0,0,1,.123-.061,2.533,2.533,0,0,1,.685-.228,4.355,4.355,0,0,1,.785-.069,3.034,3.034,0,0,0,1.381-.249c.317-.164.476-.357.476-.576s-.228-.487-.683-.785a2.287,2.287,0,0,0-1.2-.446l-.217.014a.618.618,0,0,0-.3.237,1.127,1.127,0,0,0-.273.626,1.463,1.463,0,0,0-.036.4l-.029.213-.013.071c-.284.045-.537.1-.757.152l-.32.1-.292.106c-.459.2-.7.347-.718.45" transform="translate(-522.748 -298.121)" fill="#453d66"/>
    <path id="Path_458" data-name="Path 458" d="M657.994,363.353a2.452,2.452,0,0,0-.481-.352l-.243-.126-.227.13-.446.269c-.119.059-.279.13-.482.214l-.659.254a5.237,5.237,0,0,1-1.163.259c-.455.054-.684.125-.684.216s.065.147.193.171a4.38,4.38,0,0,0,.706.038h.654l.242-.025.283-.037.317-.079.278-.08.052.181a1.6,1.6,0,0,0,.351.482l-.051.09-.041.091-.064.176a.957.957,0,0,0-.078.367.524.524,0,0,0,.028.172c.049.171.224.316.527.436a2.069,2.069,0,0,0,.763.162l.124-.009.08-.028a.114.114,0,0,0,.037-.106.287.287,0,0,0-.14-.135l-.275-.13a.3.3,0,0,1-.1-.2.527.527,0,0,1,.1-.307c.073-.091.131-.144.167-.153l.115-.008h.111c.121,0,.182-.045.182-.13l-.478-.34a1.456,1.456,0,0,1-.4-.417.251.251,0,0,1-.032-.125q0-.223.386-.595Z" transform="translate(-523.307 -262.626)" fill="#453d66"/>
    <path id="Path_459" data-name="Path 459" d="M655.8,338.233c-.274.052-.63.112-1.068.177-.234.055-.348.111-.348.17,0,.088.092.145.273.171a3.135,3.135,0,0,0,.7.054l.3-.006h.16a5.973,5.973,0,0,0,.88-.074,6.8,6.8,0,0,0,.888-.195,4.244,4.244,0,0,0,1.058-.5c.254-.176.37-.285.352-.33a1.319,1.319,0,0,0-.459-.212c-.042-.017-.1-.038-.177-.065l-.184-.057-.14-.037-.108,0-.559.329c-.118.065-.263.136-.433.214s-.36.152-.57.226a3.2,3.2,0,0,1-.559.14" transform="translate(-524.004 -239.715)" fill="#453d66"/>
    <path id="Path_460" data-name="Path 460" d="M658.365,443.012c-.049-.017-.111-.034-.185-.057l-.14-.037-.108,0-.559.329q-.178.1-.433.214c-.17.077-.36.152-.571.226a3.3,3.3,0,0,1-.559.14c-.274.052-.631.112-1.069.177-.233.057-.347.112-.347.172,0,.086.091.143.272.17a3.177,3.177,0,0,0,.7.052l.3,0h.161a5.891,5.891,0,0,0,.879-.075,6.962,6.962,0,0,0,.888-.194,4.381,4.381,0,0,0,1.059-.5c.252-.177.369-.285.352-.329a1.375,1.375,0,0,0-.459-.213c-.045-.015-.1-.037-.177-.064" transform="translate(-524.011 -334.393)" fill="#453d66"/>
    <path id="Path_461" data-name="Path 461" d="M106.484,346.027l.112-.649,0-.017-.458-.948-.012-.026-.715-.121.388.845-2.823-.48-.054-.01-.132.778,3.637.617Z" transform="translate(-29.42 -245.94)" fill="#453d66"/>
    <path id="Path_462" data-name="Path 462" d="M101.667,370.966a.681.681,0,0,1,.444-.145h.056a.607.607,0,0,1,.634.661.623.623,0,0,1-.212.459.732.732,0,0,1-.479.154c-.021,0-.043,0-.063,0a.614.614,0,0,1-.439-.2.664.664,0,0,1-.147-.477.607.607,0,0,1,.208-.447m-.267,1.918.187.011c.066,0,.128,0,.189,0,1.007,0,1.585-.484,1.634-1.378a1.268,1.268,0,0,0-1.218-1.472c-.029,0-.057,0-.084,0a1.19,1.19,0,0,0-1.22,1.191,1.062,1.062,0,0,0,.294.852c-.674-.081-1-.351-.979-.8a.509.509,0,0,1,.458-.549l.043-.007.041-.739-.061,0a1.19,1.19,0,0,0-1.11,1.264c-.053.965.611,1.556,1.827,1.624" transform="translate(-26.53 -269.007)" fill="#453d66"/>
    <path id="Path_463" data-name="Path 463" d="M103.356,407.066l.145-.009-.168-2.646-.656.041.1,1.667-3.082-.951-.074-.021.049.774,0,.037,3.67,1.106Z" transform="translate(-26.58 -299.869)" fill="#453d66"/>
    <path id="Path_464" data-name="Path 464" d="M107.4,438.356l0-.017-.75-.74-.02-.02-.715.126.649.666-2.873.5.136.778,3.688-.647Z" transform="translate(-30.225 -329.609)" fill="#453d66"/>
    <path id="Path_465" data-name="Path 465" d="M121.57,495.376l.2.449c.189.422.132.737-.282.923l-.023.01a.618.618,0,0,1-.892-.4l-.2-.449Zm.282,2.233.021-.01c.828-.37,1.007-1.1.582-2.053l-.6-1.353-3.918,1.749.394.883,1.425-.638.223.5c.4.894,1.051,1.293,1.878.922" transform="translate(-42.994 -380.372)" fill="#453d66"/>
    <path id="Path_466" data-name="Path 466" d="M141.2,532.588l-1.568.965a.625.625,0,0,1-.931-.2c-.2-.318-.112-.572.251-.795l1.62-1-.454-.735-1.721,1.06a1.026,1.026,0,0,0-.448,1.53,1.038,1.038,0,0,0,1,.554l-.419.259.452.735,2.672-1.644Z" transform="translate(-60.778 -413.222)" fill="#453d66"/>
    <path id="Path_467" data-name="Path 467" d="M158.866,556.118l-.037.029c-.475.388-.893.388-1.2.016s-.252-.794.236-1.192l.037-.03c.489-.4.933-.357,1.22,0s.232.778-.261,1.18m.562.68a1.407,1.407,0,0,0,.381-2.075,1.166,1.166,0,0,0-1.07-.422l1.484-1.208-.549-.674-3.534,2.88.55.675.384-.315a1.071,1.071,0,0,0,.2,1.133,1.414,1.414,0,0,0,2.12.037Z" transform="translate(-77.254 -432.58)" fill="#453d66"/>
    <rect id="Rectangle_23" data-name="Rectangle 23" width="4.56" height="0.864" transform="translate(81.606 125.883) rotate(-44.816)" fill="#453d66"/>
    <path id="Path_468" data-name="Path 468" d="M220.159,592.79a.495.495,0,1,0,.682-.027.472.472,0,0,0-.682.027" transform="translate(-134.547 -468.635)" fill="#453d66"/>
    <path id="Path_469" data-name="Path 469" d="M197.791,601.1l-2.086,2.345.645.575,2.087-2.345Z" transform="translate(-112.729 -476.226)" fill="#453d66"/>
    <path id="Path_470" data-name="Path 470" d="M216.57,616.628a1.558,1.558,0,0,0-2.271.357l-.029.039a1.506,1.506,0,0,0,.356,2.241,1.345,1.345,0,0,0,1.955-.127l-.634-.466a.638.638,0,0,1-.9.091c-.391-.289-.427-.716-.053-1.224l.028-.039c.355-.483.8-.577,1.159-.309a.576.576,0,0,1,.2.805l.662.486a1.308,1.308,0,0,0-.468-1.855" transform="translate(-129.061 -489.849)" fill="#453d66"/>
    <rect id="Rectangle_24" data-name="Rectangle 24" width="4.29" height="0.978" transform="translate(88.979 131.519) rotate(-62.109)" fill="#453d66"/>
    <path id="Path_471" data-name="Path 471" d="M275.473,647.753a1.09,1.09,0,0,0-1.16.142l.189-.459-.805-.329-1.184,2.9.806.328.682-1.677a.623.623,0,0,1,.868-.392c.355.145.434.4.272.793l-.707,1.733.806.328.754-1.85a1.031,1.031,0,0,0-.52-1.521" transform="translate(-181.597 -517.482)" fill="#453d66"/>
    <path id="Path_472" data-name="Path 472" d="M316.24,659.746l-1.3,1.973-.138-2.363-.9-.244.288,3.33.942.255,1.922-2.732Z" transform="translate(-218.707 -528.246)" fill="#453d66"/>
    <path id="Path_473" data-name="Path 473" d="M344.194,670.213a.721.721,0,0,1,.815-.59.641.641,0,0,1,.574.8Zm.9-1.183a1.558,1.558,0,0,0-1.835,1.379l-.006.048a1.521,1.521,0,0,0,1.388,1.817c.848.125,1.437-.17,1.638-.826l-.814-.119c-.091.253-.313.4-.71.338a.752.752,0,0,1-.653-.927l2.237.33.036-.237a1.447,1.447,0,0,0-1.281-1.8" transform="translate(-245.009 -537.121)" fill="#453d66"/>
    <path id="Path_474" data-name="Path 474" d="M380.425,673.161c-.454-.079-.6-.161-.6-.36s.17-.318.452-.311c.3.01.442.133.482.392l.8.025c-.057-.723-.572-.989-1.268-1.009-.642-.018-1.25.289-1.27.942-.016.612.3.862,1.13,1.011.449.08.633.173.626.389s-.166.338-.5.329c-.379-.011-.511-.177-.54-.46l-.809-.023c.01.68.491,1.065,1.338,1.089.828.024,1.33-.317,1.349-.995s-.407-.881-1.19-1.018" transform="translate(-277.015 -539.709)" fill="#453d66"/>
    <path id="Path_475" data-name="Path 475" d="M410.242,668.542c-.221.015-.355-.1-.372-.348l-.1-1.51.657-.044-.041-.616-.659.044-.045-.677-.863.058.046.675-.4.028.041.616.4-.026.107,1.588a.9.9,0,0,0,1.079.919,1.573,1.573,0,0,0,.521-.119l-.045-.67a.81.81,0,0,1-.326.082" transform="translate(-303.497 -533.877)" fill="#453d66"/>
    <path id="Path_476" data-name="Path 476" d="M436.706,663.3a1.249,1.249,0,0,0-.922.751.862.862,0,0,0-.969-.355,1.06,1.06,0,0,0-.826.737l-.1-.47-.851.177.642,3.073.853-.179-.381-1.815a.585.585,0,0,1,.462-.754c.3-.061.518.076.6.469l.392,1.874.847-.177-.381-1.816a.584.584,0,0,1,.462-.752c.306-.065.519.076.6.47l.391,1.873.848-.176-.414-1.968c-.17-.817-.685-1.082-1.256-.964" transform="translate(-325.532 -531.979)" fill="#453d66"/>
    <path id="Path_477" data-name="Path 477" d="M488.79,653.294a.642.642,0,0,1,.891.41l-1.312.5a.719.719,0,0,1,.42-.913m1.237,1.261c.044.266-.08.5-.454.643a.751.751,0,0,1-1.022-.49l2.112-.809-.087-.224a1.448,1.448,0,0,0-2-.944,1.56,1.56,0,0,0-.922,2.1l.017.044a1.524,1.524,0,0,0,2.1.9c.8-.308,1.17-.853,1.022-1.523Z" transform="translate(-374.39 -522.415)" fill="#453d66"/>
    <path id="Path_478" data-name="Path 478" d="M518.363,636.243a1.086,1.086,0,0,0-.629.984l-.236-.438-.767.413,1.487,2.765.766-.414-.858-1.595a.621.621,0,0,1,.251-.918c.337-.183.582-.082.784.293l.887,1.649.766-.411-.946-1.761c-.4-.74-.961-.86-1.5-.567" transform="translate(-400.575 -507.608)" fill="#453d66"/>
    <path id="Path_479" data-name="Path 479" d="M548.1,620.731a.322.322,0,0,1-.5-.111l-.852-1.249L547.3,619l-.348-.509-.546.371-.381-.56-.714.488.382.559-.332.226.349.511.332-.227.9,1.313a.9.9,0,0,0,1.4.247,1.6,1.6,0,0,0,.388-.368l-.378-.556a.817.817,0,0,1-.24.236" transform="translate(-426.198 -491.652)" fill="#453d66"/>
    <path id="Path_480" data-name="Path 480" d="M573.028,583.634l-.5-.536-1.032.959-.773-.83,1.305-1.212-.519-.558-2.015,1.874,2.919,3.141.711-.663L572,584.593Z" transform="translate(-447.887 -458.616)" fill="#453d66"/>
    <path id="Path_481" data-name="Path 481" d="M600.812,565.5l1.41,1.187a.624.624,0,0,1,.107.945c-.24.286-.508.286-.834.012l-1.456-1.224-.556.66,1.547,1.3a1.026,1.026,0,0,0,1.593-.056,1.041,1.041,0,0,0,.216-1.122l.376.317.557-.661-2.4-2.021Z" transform="translate(-474.773 -443.72)" fill="#453d66"/>
    <path id="Path_482" data-name="Path 482" d="M623.113,538.724a1.086,1.086,0,0,0-.068,1.168l-.42-.269-.468.733,2.645,1.689.469-.734-1.527-.975a.621.621,0,0,1-.23-.922c.207-.323.47-.355.829-.127l1.578,1.008.468-.733-1.683-1.077a1.032,1.032,0,0,0-1.59.239" transform="translate(-495.104 -419.853)" fill="#453d66"/>
    <path id="Path_483" data-name="Path 483" d="M640.091,497.944l.045.021c.576.268.72.684.528,1.1-.182.391-.585.535-1.151.274l-.043-.021c-.565-.263-.752-.645-.548-1.086s.6-.546,1.169-.285m-2.693-1.22,1.714.793a1.043,1.043,0,0,0-.9.671,1.438,1.438,0,0,0,.906,1.94l.044.021a1.39,1.39,0,0,0,2.014-.568,1.145,1.145,0,0,0-.111-1.163l.473.22.364-.784-4.137-1.916Z" transform="translate(-508.771 -381.938)" fill="#453d66"/>
  </g>
</svg>
