<svg xmlns="http://www.w3.org/2000/svg" width="274" height="351" viewBox="0 0 274 351">
  <g id="Fill_8_Copy" data-name="Fill 8 Copy" fill="none" stroke-miterlimit="10">
    <path d="M1.782,172.592a8.694,8.694,0,0,0,.071,10.64L130.843,347.69a8.636,8.636,0,0,0,13.622-.033L272.173,183.2a8.7,8.7,0,0,0,.071-10.575L144.537,3.44A8.633,8.633,0,0,0,130.772,3.4Z" stroke="none"/>
    <path d="M 137.6196899414063 17.51333618164063 L 15.40118408203125 177.8197631835938 L 137.6207733154297 333.6455688476563 L 258.6253662109375 177.8196258544922 L 137.6196899414063 17.51333618164063 M 137.6411743164063 -3.0517578125e-05 C 140.223876953125 0.000244140625 142.8072204589844 1.14697265625 144.5371398925781 3.43975830078125 L 272.2446899414063 172.6246185302734 C 274.6113891601563 175.7586212158203 274.5821533203125 180.0979309082031 272.1732177734375 183.1993103027344 L 144.4657592773438 347.6570739746094 C 142.7337493896484 349.8851318359375 140.1884155273438 351 137.6421051025391 351 C 135.1100616455078 351 132.5770721435547 349.8971252441406 130.8434448242188 347.689697265625 L 1.853515625 183.2318420410156 C -0.591094970703125 180.1174621582031 -0.620330810546875 175.7357635498047 1.782073974609375 172.5920715332031 L 130.7719879150391 3.4039306640625 C 132.5028076171875 1.13421630859375 135.0716705322266 -0.000274658203125 137.6411743164063 -3.0517578125e-05 Z" stroke="none" fill="#f6403d"/>
  </g>
</svg>
