<svg id="service_1_fill" data-name="service 1 / fill" xmlns="http://www.w3.org/2000/svg" xmlns:xlink="http://www.w3.org/1999/xlink" width="381" height="279" viewBox="0 0 381 279">
  <defs>
    <clipPath id="clip-path">
      <rect id="Mask" width="380" height="279" rx="24" transform="translate(0.2)" fill="none"/>
    </clipPath>
  </defs>
  <g id="Group_26" data-name="Group 26">
    <rect id="Mask-2" data-name="Mask" width="380" height="279" rx="24" transform="translate(0.2)" fill="none"/>
    <g id="Group_26-2" data-name="Group 26" clip-path="url(#clip-path)">
      <g id="Group_6" data-name="Group 6" transform="translate(-76 57)">
        <path id="Path" d="M2.849,19.074A11.517,11.517,0,0,1,3.913,2.842v.015A11.5,11.5,0,1,1,2.849,19.074Z" transform="translate(161.771 83)" fill="#fff"/>
        <path id="Path-2" data-name="Path" d="M.014,11.957c0-.159,0-.3-.014-.445a11.5,11.5,0,0,1,22.986-.461c0,.143.014.288.014.445a11.508,11.508,0,0,1-11.048,11.49c-.158.014-.316.014-.46.014A11.5,11.5,0,0,1,.014,11.957Z" transform="translate(124.657 101)" fill="#fff"/>
        <path id="Clip_4" data-name="Clip 4" d="M0,0H226.914V54H0Z" transform="translate(195.429 70)" fill="none"/>
        <path id="Fill_3" data-name="Fill 3" d="M94.914,54q-1.77,0-3.546-.084a73.7,73.7,0,0,1-17.174-2.861A70,70,0,0,1,46.149,35.2a45.484,45.484,0,0,0-32.99-11.875C6.24,23.655.344,18.675.014,12.252S5.037.378,11.967.073C31.356-.77,50.312,6.046,63.979,18.8A43.721,43.721,0,0,0,81.745,28.851a46.824,46.824,0,0,0,10.9,1.817,46.935,46.935,0,0,0,14.8-1.651,45.2,45.2,0,0,0,8.719-3.424,43.5,43.5,0,0,0,9.628-6.793,72.572,72.572,0,0,1,97.473,0A11.045,11.045,0,0,1,223.2,35.26a13.275,13.275,0,0,1-17.765-.058,46.024,46.024,0,0,0-61.816,0,68.5,68.5,0,0,1-15.175,10.7,71.355,71.355,0,0,1-13.785,5.413A73.587,73.587,0,0,1,94.914,54" transform="translate(195.429 70)" fill="#5932ff"/>
        <path id="Fill_6" data-name="Fill 6" d="M99.235,43a13.469,13.469,0,0,1-7.389-2.172,68.133,68.133,0,0,1-8.422-6.52A44.8,44.8,0,0,0,64.95,24.315a48.339,48.339,0,0,0-32.732,2.847,43.579,43.579,0,0,0-10.706,7.146,13.567,13.567,0,0,1-17.794.059,10.588,10.588,0,0,1-.065-16.056A68.8,68.8,0,0,1,20.535,7.049a76.221,76.221,0,0,1,51.589-4.5,70.7,70.7,0,0,1,29.157,15.759,43.235,43.235,0,0,0,5.363,4.152c5.621,3.688,6.864,10.788,2.777,15.861A13.059,13.059,0,0,1,99.235,43" transform="translate(0 71)" fill="#5932ff"/>
        <path id="Path-3" data-name="Path" d="M3.048,19.293A11.488,11.488,0,1,1,11.5,23a11.444,11.444,0,0,1-8.452-3.707" transform="translate(160.686 14)" fill="#fff"/>
        <path id="Clip_11" data-name="Clip 11" d="M0,0H72.743V38H0Z" transform="translate(190)" fill="none"/>
        <path id="Fill_10" data-name="Fill 10" d="M60.244,38a13.06,13.06,0,0,1-8.869-3.382A45.42,45.42,0,0,0,14.31,23.312C7.484,24.241,1.133,19.9.133,13.64S3.861,1.568,10.692.652c21.376-2.861,43.215,3.8,58.421,17.83a10.783,10.783,0,0,1-.062,16.192A13.074,13.074,0,0,1,60.244,38" transform="translate(190)" fill="#5932ff"/>
        <path id="Fill_13" data-name="Fill 13" d="M52.31,38A71.892,71.892,0,0,1,3.644,19.511,10.749,10.749,0,0,1,3.708,3.324a13.424,13.424,0,0,1,17.75.057A45.906,45.906,0,0,0,56.218,14.949c.73-.06,1.472-.137,2.21-.232,6.862-.882,13.216,3.47,14.189,9.728S68.814,36.5,61.951,37.384q-1.747.226-3.5.367Q55.371,38,52.31,38" transform="translate(79.257 15)" fill="#5932ff"/>
        <path id="Path-4" data-name="Path" d="M9.468,22.655C3.76,21.333-.031,16.618,0,11.445A11.19,11.19,0,0,1,.39,8.7C2.059,2.548,8.829-1.2,15.52.351,21.213,1.659,25,6.387,24.971,11.56a11.047,11.047,0,0,1-.374,2.731C23.178,19.508,18.093,23,12.494,23a13.672,13.672,0,0,1-3.026-.345" transform="translate(210.629 143)" fill="#5932ff"/>
        <path id="Path-5" data-name="Path" d="M3.652,19.635A11.125,11.125,0,0,1,0,11.5,11.1,11.1,0,0,1,3.652,3.378a13.241,13.241,0,0,1,17.668,0A11.155,11.155,0,0,1,24.971,11.5a11.184,11.184,0,0,1-3.652,8.135,13.279,13.279,0,0,1-17.668,0" transform="translate(157.429 157)" fill="#5932ff"/>
        <path id="Path-6" data-name="Path" d="M3,19.248a11.5,11.5,0,0,1,17-15.494,11.525,11.525,0,0,1-.747,16.241h-.015A11.492,11.492,0,0,1,3,19.248" transform="translate(313.771 158)" fill="#fff"/>
        <path id="Path-7" data-name="Path" d="M8.859,22.5A11.672,11.672,0,0,1,0,11.579,10.865,10.865,0,0,1,.546,8.16C2.558,2.082,9.53-1.351,16.128.5a11.68,11.68,0,0,1,8.844,10.933,10.954,10.954,0,0,1-.546,3.419A12.422,12.422,0,0,1,12.493,23a13.19,13.19,0,0,1-3.634-.5" transform="translate(260.571 169)" fill="#5932ff"/>
        <path id="Clip_18" data-name="Clip 18" d="M0,0H145.486V54H0Z" transform="translate(157.429 141)" fill="none"/>
        <path id="Fill_17" data-name="Fill 17" d="M132.411,54A71.281,71.281,0,0,1,83.544,35.2a45.24,45.24,0,0,0-31-11.921,45.246,45.246,0,0,0-31,11.921,13.347,13.347,0,0,1-17.82.058A11.022,11.022,0,0,1,3.659,18.8,71.35,71.35,0,0,1,52.543,0a71.348,71.348,0,0,1,48.885,18.8,45.208,45.208,0,0,0,30.99,11.921c.157,0,.315,0,.47,0,6.912,0,12.542,5.149,12.6,11.547.057,6.428-5.539,11.681-12.5,11.734-.192,0-.385,0-.577,0" transform="translate(157.429 141)" fill="#5932ff"/>
      </g>
    </g>
  </g>
</svg>
