<svg id="service_2_fill" data-name="service 2 / fill" xmlns="http://www.w3.org/2000/svg" xmlns:xlink="http://www.w3.org/1999/xlink" width="380" height="281" viewBox="0 0 380 281">
  <defs>
    <clipPath id="clip-path">
      <rect id="Mask_Copy_7" data-name="Mask Copy 7" width="380" height="281" rx="24" fill="#f6ab3d"/>
    </clipPath>
    <clipPath id="clip-path-2">
      <path id="Clip_6" data-name="Clip 6" d="M0,0H112.767V112.525H0Z" transform="translate(-0.001 0.232)" fill="none"/>
    </clipPath>
  </defs>
  <g id="Group_15" data-name="Group 15">
    <rect id="Mask_Copy_7-2" data-name="Mask Copy 7" width="380" height="281" rx="24" fill="#f6ab3d"/>
    <g id="Group_15-2" data-name="Group 15" clip-path="url(#clip-path)">
      <g id="Group_14" data-name="Group 14" transform="translate(-79 37)">
        <path id="Fill_1" data-name="Fill 1" d="M39.462,565c-.115,0-.223,0-.337-.005h0v-.005a8.418,8.418,0,0,1-8.089-8.415c0-.107,0-.218.005-.327a8.42,8.42,0,0,1,8.4-8.09c.111,0,.225,0,.338.007a8.427,8.427,0,0,1,8.094,8.42c0,.091,0,.185-.008.276l0,.051A8.417,8.417,0,0,1,39.462,565Zm26.668-1.2a8.435,8.435,0,0,1-8.341-7.335,8.793,8.793,0,0,1-.069-1.075,8.431,8.431,0,0,1,7.34-8.361,8.415,8.415,0,0,1,9.5,8.341,8.426,8.426,0,0,1-7.336,8.356A8.213,8.213,0,0,1,66.13,563.8Zm-53.183-2.066a8.608,8.608,0,0,1-1.724-.177,8.428,8.428,0,0,1-2.313-.852c-.171.01-.331.015-.491.015a8.42,8.42,0,1,1,4.022-15.816c.164-.01.329-.015.492-.015a8.6,8.6,0,0,1,1.727.179h-.006a8.422,8.422,0,0,1,6.707,8.262,8.326,8.326,0,0,1-.178,1.7,8.429,8.429,0,0,1-8.238,6.706Zm79.3-3.58a8.494,8.494,0,0,1-4.962-1.62,8.45,8.45,0,0,1-3.458-6.845,8.483,8.483,0,0,1,1.631-4.935,8.35,8.35,0,0,1,4.328-3.074,8.432,8.432,0,0,1,7.428,1.254,8.339,8.339,0,0,1,3.087,4.338,8.661,8.661,0,0,1,.372,2.507,8.5,8.5,0,0,1-1.633,4.937,8.352,8.352,0,0,1-4.33,3.072A8.544,8.544,0,0,1,92.248,558.155Zm24.816-9.9a8.416,8.416,0,0,1-7.538-4.661,8.343,8.343,0,0,1-.892-3.74A8.425,8.425,0,0,1,113.3,532.3a8.324,8.324,0,0,1,3.753-.889,8.42,8.42,0,0,1,7.54,4.664,8.318,8.318,0,0,1,.886,3.74,8.421,8.421,0,0,1-4.661,7.554A8.329,8.329,0,0,1,117.064,548.254Zm-102.5-13.562a8.419,8.419,0,1,1,8.416-8.39,8.8,8.8,0,0,1-.228,1.9,8.431,8.431,0,0,1-8.188,6.488Zm125.336-.3a8.407,8.407,0,0,1-6.82-3.472,8.381,8.381,0,0,1-1.61-4.957,8.414,8.414,0,0,1,3.478-6.806,8.342,8.342,0,0,1,4.937-1.608,8.412,8.412,0,0,1,6.822,3.476,8.383,8.383,0,0,1,1.61,4.958,8.428,8.428,0,0,1-3.478,6.8A8.342,8.342,0,0,1,139.9,534.395Zm20.239-17.429a8.413,8.413,0,1,1,6-2.511A8.362,8.362,0,0,1,160.142,516.965ZM20.7,508.659a8.779,8.779,0,0,1-1.941-.223,8.434,8.434,0,0,1-6.489-8.231,8.665,8.665,0,0,1,.228-1.9,8.321,8.321,0,0,1,3.006-4.7,8.421,8.421,0,0,1,13.612,6.661,8.466,8.466,0,0,1-3.232,6.6A8.461,8.461,0,0,1,20.7,508.659Zm156.526-12.214a8.427,8.427,0,1,1,6.9-3.591A8.38,8.38,0,0,1,177.231,496.445ZM26.842,482.626a8.42,8.42,0,1,1,8.416-8.39,8.083,8.083,0,0,1-.229,1.9,8.313,8.313,0,0,1-3,4.7A8.462,8.462,0,0,1,26.842,482.626Zm163.851-9.252a8.431,8.431,0,1,1,4.442-1.265A8.383,8.383,0,0,1,190.693,473.374ZM32.983,456.593a8.421,8.421,0,0,1-8.43-8.45,8.121,8.121,0,0,1,.228-1.9,8.327,8.327,0,0,1,3-4.7,8.4,8.4,0,0,1,7.121-1.566A8.344,8.344,0,0,1,39.618,443a8.461,8.461,0,0,1,1.781,5.2,8.669,8.669,0,0,1-.228,1.9,8.338,8.338,0,0,1-3.008,4.7A8.456,8.456,0,0,1,32.983,456.593ZM200.174,448.4a8.458,8.458,0,0,1-2.334-.332,8.34,8.34,0,0,1-4.439-3.084,8.472,8.472,0,0,1-1.653-5.034,8.25,8.25,0,0,1,.332-2.3,8.344,8.344,0,0,1,3.07-4.43,8.4,8.4,0,0,1,7.351-1.33,8.336,8.336,0,0,1,4.438,3.082,8.5,8.5,0,0,1,1.655,5.036,8.667,8.667,0,0,1-.332,2.3,8.351,8.351,0,0,1-3.071,4.43A8.481,8.481,0,0,1,200.174,448.4ZM39.12,430.565a8.433,8.433,0,0,1-8.43-8.455,8.7,8.7,0,0,1,.229-1.9,8.317,8.317,0,0,1,3-4.7,8.424,8.424,0,0,1,13.615,6.664,8.613,8.613,0,0,1-.229,1.9,8.321,8.321,0,0,1-3,4.7A8.457,8.457,0,0,1,39.12,430.565ZM206.5,422.417a8.423,8.423,0,0,1-8.425-8.455,8.131,8.131,0,0,1,.228-1.9,8.42,8.42,0,0,1,16.39,3.868,8.334,8.334,0,0,1-3.008,4.7A8.464,8.464,0,0,1,206.5,422.417ZM45.257,404.532a8.78,8.78,0,0,1-1.937-.228,8.428,8.428,0,0,1-6.493-8.228,8.688,8.688,0,0,1,.228-1.9,8.336,8.336,0,0,1,3.006-4.7,8.421,8.421,0,1,1,5.2,15.055Zm167.389-8.148a8.723,8.723,0,0,1-1.942-.223,8.429,8.429,0,0,1-6.488-8.231,8.455,8.455,0,0,1,3.233-6.6,8.4,8.4,0,0,1,7.119-1.566,8.324,8.324,0,0,1,4.712,3.019,8.468,8.468,0,0,1,1.781,5.208,8.676,8.676,0,0,1-.228,1.9,8.317,8.317,0,0,1-3,4.7A8.46,8.46,0,0,1,212.647,396.384ZM51.4,378.5a8.424,8.424,0,0,1-8.43-8.455,8.133,8.133,0,0,1,.228-1.9,8.32,8.32,0,0,1,3-4.7,8.389,8.389,0,0,1,7.121-1.563,8.327,8.327,0,0,1,4.712,3.02,8.469,8.469,0,0,1,1.781,5.208,8.608,8.608,0,0,1-.228,1.9,8.343,8.343,0,0,1-3.007,4.7A8.45,8.45,0,0,1,51.4,378.5Zm167.383-8.148a8.43,8.43,0,0,1-8.43-8.455,8.621,8.621,0,0,1,.229-1.9,8.335,8.335,0,0,1,3.007-4.7,8.422,8.422,0,0,1,13.61,6.665,8.454,8.454,0,0,1-3.231,6.6A8.463,8.463,0,0,1,218.783,370.351ZM57.536,352.465a8.424,8.424,0,0,1-8.429-8.455,8.7,8.7,0,0,1,.228-1.9,8.422,8.422,0,0,1,16.618,1.966,8.694,8.694,0,0,1-.228,1.9,8.422,8.422,0,0,1-8.188,6.488Zm167.4-8.148h-.012a8.416,8.416,0,0,1-8.425-8.449,8.4,8.4,0,0,1,3.231-6.6,8.422,8.422,0,0,1,13.61,6.662,8.407,8.407,0,0,1-3.226,6.6A8.443,8.443,0,0,1,224.932,344.317ZM63.673,326.433a8.465,8.465,0,0,1-1.937-.228,8.327,8.327,0,0,1-4.712-3.02,8.465,8.465,0,0,1-1.781-5.208,8.7,8.7,0,0,1,.227-1.9,8.333,8.333,0,0,1,3.008-4.7,8.425,8.425,0,0,1,13.388,8.564,8.335,8.335,0,0,1-3.008,4.7A8.466,8.466,0,0,1,63.673,326.433Zm167.389-8.143a8.409,8.409,0,0,1-8.2-10.356,8.319,8.319,0,0,1,3-4.7,8.424,8.424,0,0,1,13.614,6.664,8.612,8.612,0,0,1-.228,1.9,8.342,8.342,0,0,1-3.007,4.7A8.451,8.451,0,0,1,231.062,318.29ZM69.81,300.4a8.425,8.425,0,0,1-8.425-8.455,8.048,8.048,0,0,1,.228-1.9,8.323,8.323,0,0,1,3.006-4.7,8.42,8.42,0,0,1,13.607,6.662A8.4,8.4,0,0,1,75,298.61,8.466,8.466,0,0,1,69.81,300.4ZM237.2,292.257a8.545,8.545,0,0,1-1.942-.228,8.43,8.43,0,0,1-6.488-8.228,8.631,8.631,0,0,1,.228-1.9,8.42,8.42,0,1,1,8.2,10.357ZM75.953,274.367a8.542,8.542,0,0,1-1.942-.223,8.423,8.423,0,0,1-6.488-8.228,8.631,8.631,0,0,1,.228-1.9,8.321,8.321,0,0,1,3.005-4.7,8.423,8.423,0,0,1,13.612,6.662,8.619,8.619,0,0,1-.228,1.9,8.318,8.318,0,0,1-3,4.7A8.46,8.46,0,0,1,75.953,274.367Zm167.384-8.143a8.431,8.431,0,1,1,5.184-1.793A8.4,8.4,0,0,1,243.337,266.224ZM82.09,248.339a8.422,8.422,0,1,1,8.415-8.391,8.461,8.461,0,0,1-3.231,6.6A8.454,8.454,0,0,1,82.09,248.339Zm167.388-8.149a8.418,8.418,0,1,1,8.416-8.39,8.745,8.745,0,0,1-.229,1.9,8.337,8.337,0,0,1-3.007,4.7A8.454,8.454,0,0,1,249.478,240.19ZM88.232,222.305a8.428,8.428,0,0,1-8.43-8.455,8.406,8.406,0,0,1,3.228-6.6,8.427,8.427,0,0,1,13.618,6.664,8.812,8.812,0,0,1-.228,1.9,8.431,8.431,0,0,1-8.188,6.488Zm167.384-8.148a8.7,8.7,0,0,1-1.937-.223,8.344,8.344,0,0,1-4.713-3.024,8.468,8.468,0,0,1-1.781-5.208,8.762,8.762,0,0,1,.228-1.9,8.315,8.315,0,0,1,3.006-4.7,8.415,8.415,0,0,1,13.384,8.564,8.317,8.317,0,0,1-3,4.7A8.46,8.46,0,0,1,255.615,214.158ZM94.369,196.272a8.428,8.428,0,0,1-8.43-8.455,8.751,8.751,0,0,1,.228-1.9,8.319,8.319,0,0,1,3-4.7,8.423,8.423,0,0,1,13.615,6.663,8.658,8.658,0,0,1-.227,1.9,8.346,8.346,0,0,1-3.008,4.7A8.451,8.451,0,0,1,94.369,196.272Zm167.384-8.148a8.418,8.418,0,1,1,8.416-8.385,8.052,8.052,0,0,1-.229,1.9,8.312,8.312,0,0,1-3,4.7A8.462,8.462,0,0,1,261.752,188.124ZM100.506,170.239a8.429,8.429,0,0,1-8.43-8.455,8.693,8.693,0,0,1,.228-1.9,8.422,8.422,0,0,1,16.618,1.967,8.134,8.134,0,0,1-.229,1.9,8.42,8.42,0,0,1-8.187,6.488Zm167.388-8.147a8.421,8.421,0,0,1-8.43-8.45,8.126,8.126,0,0,1,.228-1.9,8.324,8.324,0,0,1,3.007-4.7,8.4,8.4,0,0,1,7.118-1.566,8.344,8.344,0,0,1,4.712,3.023,8.464,8.464,0,0,1,1.781,5.2,8.688,8.688,0,0,1-.228,1.9,8.334,8.334,0,0,1-3.007,4.7A8.456,8.456,0,0,1,267.894,162.092ZM106.647,144.206a8.426,8.426,0,0,1-8.43-8.456,8.179,8.179,0,0,1,.228-1.9,8.32,8.32,0,0,1,3-4.7,8.42,8.42,0,1,1,5.2,15.053Zm167.384-8.143a8.427,8.427,0,0,1-8.43-8.455,8.683,8.683,0,0,1,.229-1.9,8.316,8.316,0,0,1,3-4.7,8.425,8.425,0,0,1,13.615,6.664,8.669,8.669,0,0,1-.228,1.9,8.324,8.324,0,0,1-3,4.7A8.458,8.458,0,0,1,274.031,136.063Zm-159.607-17.41a8.419,8.419,0,1,1,4.683-1.421A8.386,8.386,0,0,1,114.424,118.653Zm165.744-8.623a8.432,8.432,0,0,1-8.43-8.455,8.684,8.684,0,0,1,.228-1.9,8.334,8.334,0,0,1,3.006-4.7,8.425,8.425,0,0,1,13.389,8.565,8.336,8.336,0,0,1-3.008,4.7A8.463,8.463,0,0,1,280.168,110.03ZM126.262,94.716a8.43,8.43,0,1,1,7.217-4.072v-.006a8.408,8.408,0,0,1-7.217,4.077ZM286.305,84a8.416,8.416,0,0,1-8.2-10.356,8.324,8.324,0,0,1,3-4.7,8.42,8.42,0,0,1,13.61,6.664,8.4,8.4,0,0,1-3.231,6.6A8.458,8.458,0,0,1,286.305,84Zm-144.4-10.936a8.424,8.424,0,1,1,6.395-2.938A8.425,8.425,0,0,1,141.909,73.061Zm150.538-15.1a8.425,8.425,0,0,1-8.43-8.455,8.7,8.7,0,0,1,.229-1.9,8.422,8.422,0,0,1,16.618,1.966,8.694,8.694,0,0,1-.228,1.9,8.422,8.422,0,0,1-8.188,6.488Zm-131.522-3.67a8.418,8.418,0,1,1,5.4-1.961A8.4,8.4,0,0,1,160.924,54.293ZM182.768,38.91a8.439,8.439,0,1,1,4.26-1.165A8.473,8.473,0,0,1,182.768,38.91Zm115.816-6.979a8.434,8.434,0,0,1-8.2-10.357,8.332,8.332,0,0,1,3.008-4.7A8.42,8.42,0,0,1,307,23.54a8.179,8.179,0,0,1-.228,1.9,8.423,8.423,0,0,1-8.188,6.489Zm-91.748-4.6a8.443,8.443,0,1,1,3.007-.56v.005A8.443,8.443,0,0,1,206.836,27.329Zm25.647-7.435a8.433,8.433,0,0,1-8.252-6.765,8.293,8.293,0,0,1-.163-1.694,8.421,8.421,0,0,1,16.677-1.625,8.647,8.647,0,0,1,.168,1.7,8.422,8.422,0,0,1-6.766,8.216A8.322,8.322,0,0,1,232.484,19.894Zm53.227-1.619a8.421,8.421,0,0,1-8.43-8.4,7.854,7.854,0,0,1,.08-1.179,8.414,8.414,0,0,1,8.323-7.267,8.52,8.52,0,0,1,1.167.081,8.423,8.423,0,0,1,7.272,8.311,8.5,8.5,0,0,1-.08,1.179,8.42,8.42,0,0,1-8.331,7.271Zm-26.692-1.431a8.421,8.421,0,0,1-8.41-8.167c0-.035,0-.07,0-.106s0-.076,0-.113A8.426,8.426,0,0,1,258.765,0c.085,0,.172,0,.256,0a8.423,8.423,0,0,1,8.417,8.167c0,.074,0,.144,0,.218a8.419,8.419,0,0,1-8.162,8.455C259.191,16.844,259.107,16.844,259.018,16.844Z" fill="#fff"/>
        <path id="Fill_3" data-name="Fill 3" d="M8.492,244a8.565,8.565,0,0,1-1.954-.227A8.407,8.407,0,0,1,.228,233.658L54.26,6.481a8.479,8.479,0,0,1,16.512,3.86L16.741,237.518A8.472,8.472,0,0,1,8.492,244" transform="translate(200 171)" fill="#5932ff"/>
        <g id="Group_7" data-name="Group 7" transform="translate(197)">
          <path id="Clip_6-2" data-name="Clip 6" d="M0,0H112.767V112.525H0Z" transform="translate(-0.001 0.232)" fill="none"/>
          <g id="Group_7-2" data-name="Group 7" clip-path="url(#clip-path-2)">
            <path id="Fill_5" data-name="Fill 5" d="M80.627,112.3h0a8.388,8.388,0,0,1-6.284-10.1L94.1,19.211c-27.523-4.967-55.288-2.277-82.658,8.023a8.467,8.467,0,0,1-10.9-4.872A8.373,8.373,0,0,1,5.458,11.542C38.786-1,72.706-3.334,106.274,4.607a8.388,8.388,0,0,1,6.266,10.088l-21.751,91.37A8.452,8.452,0,0,1,80.627,112.3" transform="translate(-0.001 0.232)" fill="#5932ff"/>
          </g>
        </g>
        <path id="Fill_8" data-name="Fill 8" d="M45.694,489a169.116,169.116,0,0,1-39.219-4.643A8.416,8.416,0,0,1,.227,474.239l98.964-419.2A170.552,170.552,0,0,1,118.063,7.853c.762-1.3,1.552-2.6,2.35-3.884a8.423,8.423,0,0,1,14.305,8.9c-.718,1.152-1.43,2.328-2.116,3.5A153.761,153.761,0,0,0,115.592,58.9L18.61,469.71A151.728,151.728,0,0,0,131.8,445.331a8.419,8.419,0,1,1,9.547,13.87A169.025,169.025,0,0,1,45.694,489" transform="translate(0 76)" fill="#5932ff"/>
        <path id="Fill_10" data-name="Fill 10" d="M30.17,261a8.435,8.435,0,0,1-8.407-7.818c-.014-.192-.02-.4-.02-.649a8.429,8.429,0,0,1,7.831-8.354v0c.208-.015.413-.022.611-.022a8.441,8.441,0,0,1,8.412,7.82c.014.2.021.41.021.649a8.434,8.434,0,0,1-7.832,8.358C30.6,260.994,30.406,261,30.17,261ZM8.437,259.222a8.423,8.423,0,1,1,8.438-8.423A8.439,8.439,0,0,1,8.437,259.222Zm47.49-5.044a8.446,8.446,0,0,1-7.618-4.792,8.287,8.287,0,0,1-.829-3.651,8.435,8.435,0,1,1,8.446,8.443Zm21.485-15.717a8.429,8.429,0,1,1,6.159-2.66A8.4,8.4,0,0,1,77.412,238.461ZM14.6,233.185a8.793,8.793,0,0,1-1.946-.228,8.43,8.43,0,0,1-6.5-8.23,8.688,8.688,0,0,1,.229-1.9,8.321,8.321,0,0,1,3.012-4.7,8.441,8.441,0,0,1,13.639,6.669,8.668,8.668,0,0,1-.229,1.9,8.344,8.344,0,0,1-3.011,4.7A8.476,8.476,0,0,1,14.6,233.185Zm77.129-17.152a8.444,8.444,0,1,1,4.679-1.415A8.4,8.4,0,0,1,91.725,216.032Zm-70.98-8.889a8.439,8.439,0,0,1-8.447-8.457,8.753,8.753,0,0,1,.229-1.9,8.34,8.34,0,0,1,3.012-4.7,8.438,8.438,0,0,1,13.639,6.667,8.179,8.179,0,0,1-.228,1.9,8.321,8.321,0,0,1-3.01,4.7A8.485,8.485,0,0,1,20.745,207.143Zm77.918-16.925a8.434,8.434,0,0,1-8.442-8.458,8.148,8.148,0,0,1,.229-1.9,8.439,8.439,0,0,1,16.65,1.967,8.71,8.71,0,0,1-.228,1.9,8.446,8.446,0,0,1-8.209,6.491ZM26.894,181.1a8.432,8.432,0,0,1-8.441-8.457,8.136,8.136,0,0,1,.228-1.9,8.44,8.44,0,0,1,16.651,1.967,8.646,8.646,0,0,1-.229,1.9,8.337,8.337,0,0,1-3.014,4.7A8.488,8.488,0,0,1,26.894,181.1Zm77.924-16.925a8.433,8.433,0,0,1-8.447-8.457,8.752,8.752,0,0,1,.229-1.9,8.313,8.313,0,0,1,3.011-4.7,8.44,8.44,0,0,1,13.64,6.666,8.735,8.735,0,0,1-.229,1.9,8.338,8.338,0,0,1-3.013,4.7A8.479,8.479,0,0,1,104.818,164.176Zm-71.77-9.116A8.434,8.434,0,0,1,24.6,146.6a8.689,8.689,0,0,1,.228-1.9,8.319,8.319,0,0,1,3.012-4.7,8.437,8.437,0,0,1,13.639,6.664,8.7,8.7,0,0,1-.228,1.9,8.343,8.343,0,0,1-3.012,4.7A8.479,8.479,0,0,1,33.048,155.06Zm77.918-16.924a8.441,8.441,0,0,1-8.447-8.458,8.753,8.753,0,0,1,.229-1.9,8.336,8.336,0,0,1,3.015-4.7,8.436,8.436,0,0,1,13.636,6.664,8.183,8.183,0,0,1-.228,1.9,8.319,8.319,0,0,1-3.01,4.7A8.487,8.487,0,0,1,110.966,138.136ZM39.2,129.019a8.439,8.439,0,0,1-8.447-8.458,8.6,8.6,0,0,1,.229-1.9,8.339,8.339,0,0,1,3.014-4.7,8.435,8.435,0,0,1,13.637,6.664,8.137,8.137,0,0,1-.229,1.9,8.318,8.318,0,0,1-3.01,4.7A8.486,8.486,0,0,1,39.2,129.019Zm77.917-16.925a8.688,8.688,0,0,1-1.94-.223,8.433,8.433,0,0,1-6.5-8.234,8.05,8.05,0,0,1,.228-1.9,8.327,8.327,0,0,1,3.01-4.7,8.435,8.435,0,0,1,13.636,6.664,8.395,8.395,0,0,1-3.237,6.6A8.491,8.491,0,0,1,117.115,112.093Zm-71.769-9.116A8.434,8.434,0,0,1,36.9,94.519a8.1,8.1,0,0,1,.228-1.9,8.327,8.327,0,0,1,3.011-4.7,8.434,8.434,0,0,1,13.413,8.567,8.336,8.336,0,0,1-3.014,4.7A8.489,8.489,0,0,1,45.347,102.977Zm77.923-16.925a8.433,8.433,0,0,1-8.447-8.453,8.688,8.688,0,0,1,.229-1.9,8.325,8.325,0,0,1,3.012-4.7,8.424,8.424,0,0,1,13.41,8.566,8.334,8.334,0,0,1-3.013,4.7A8.481,8.481,0,0,1,123.269,86.052ZM51.5,76.94a8.44,8.44,0,0,1-8.447-8.462,8.625,8.625,0,0,1,.229-1.9,8.321,8.321,0,0,1,3.01-4.7,8.44,8.44,0,0,1,13.641,6.666,8.673,8.673,0,0,1-.229,1.9,8.344,8.344,0,0,1-3.013,4.7A8.475,8.475,0,0,1,51.5,76.94Zm77.918-16.924a8.443,8.443,0,0,1-8.447-8.458,8.623,8.623,0,0,1,.229-1.9,8.338,8.338,0,0,1,3.014-4.7,8.437,8.437,0,0,1,13.637,6.668,8.062,8.062,0,0,1-.229,1.9,8.328,8.328,0,0,1-3.01,4.7A8.48,8.48,0,0,1,129.419,60.016ZM60.727,51.964a8.435,8.435,0,1,1,4.131-1.074A8.435,8.435,0,0,1,60.727,51.964Zm74.841-17.991a8.436,8.436,0,0,1-8.442-8.458,8.179,8.179,0,0,1,.228-1.9,8.325,8.325,0,0,1,3.008-4.7A8.437,8.437,0,0,1,144,25.581a8.4,8.4,0,0,1-3.238,6.6A8.484,8.484,0,0,1,135.568,33.973ZM78.29,31.952a8.391,8.391,0,0,1-6.64-3.221,8.424,8.424,0,0,1,6.627-13.625,8.423,8.423,0,1,1,.013,16.846Zm23.619-12.288a8.521,8.521,0,0,1-4.981-1.626,8.356,8.356,0,0,1-3.094-4.354,8.417,8.417,0,0,1,1.254-7.4,8.354,8.354,0,0,1,4.374-3.1,8.422,8.422,0,0,1,7.431,1.262,8.462,8.462,0,0,1,3.457,6.76,8.466,8.466,0,0,1-1.618,4.994,8.381,8.381,0,0,1-4.376,3.106A8.548,8.548,0,0,1,101.909,19.664Zm26.5-2.819c-.232,0-.467-.01-.7-.03v0a8.436,8.436,0,0,1-7.747-8.443c0-.215.015-.434.03-.649A8.432,8.432,0,0,1,128.389,0c.233,0,.469.01.7.029a8.424,8.424,0,0,1,7.743,8.438c0,.19-.008.4-.024.65a8.433,8.433,0,0,1-8.4,7.729Z" transform="translate(100 74)" fill="#fff"/>
        <path id="Fill_12" data-name="Fill 12" d="M24.9,261a79.46,79.46,0,0,1-18.441-2.165,8.41,8.41,0,0,1-6.229-10.11L44.218,61.954a79.907,79.907,0,0,1,36-50.031A79.125,79.125,0,0,1,140.544,2.2a8.409,8.409,0,0,1,6.229,10.111L111.916,160.354a8.4,8.4,0,1,1-16.352-3.86l32.808-139.34a62.4,62.4,0,0,0-39.337,9.084A63.2,63.2,0,0,0,60.571,65.814L18.631,243.869a62.917,62.917,0,0,0,34.138-6.189,8.408,8.408,0,0,1,7.445,15.077A79.687,79.687,0,0,1,24.9,261" transform="translate(101 74)" fill="#5932ff"/>
      </g>
    </g>
  </g>
</svg>
