<svg id="service_2_fill" data-name="service 2 / fill" xmlns="http://www.w3.org/2000/svg" xmlns:xlink="http://www.w3.org/1999/xlink" width="380" height="281" viewBox="0 0 380 281">
  <defs>
    <clipPath id="clip-path">
      <rect id="Mask_Copy_7" data-name="Mask Copy 7" width="380" height="281" rx="24" fill="none"/>
    </clipPath>
    <clipPath id="clip-path-2">
      <path id="Clip_6" data-name="Clip 6" d="M0,0H112.767V112.525H0Z" transform="translate(-0.001 0.232)" fill="none"/>
    </clipPath>
  </defs>
  <g id="Group_15" data-name="Group 15">
    <rect id="Mask_Copy_7-2" data-name="Mask Copy 7" width="380" height="281" rx="24" fill="none"/>
    <g id="Group_15-2" data-name="Group 15" clip-path="url(#clip-path)">
      <g id="Group_14" data-name="Group 14" transform="translate(-79 37)">
        <path id="Fill_1" data-name="Fill 1" d="M39.462,542.934c-.115,0-.223,0-.337-.005a8.427,8.427,0,0,1-8.089-8.42c0-.107,0-.218.005-.328a8.42,8.42,0,0,1,8.4-8.09c.113,0,.227,0,.338.007a8.427,8.427,0,0,1,8.094,8.42c0,.094,0,.189-.008.281l0,.046a8.417,8.417,0,0,1-8.406,8.088Zm26.668-1.2a8.435,8.435,0,0,1-8.341-7.335,8.813,8.813,0,0,1-.069-1.076,8.421,8.421,0,0,1,16.772-1.094,8.633,8.633,0,0,1,.069,1.075,8.425,8.425,0,0,1-7.336,8.356A8.221,8.221,0,0,1,66.13,541.735ZM12.947,539.67a8.606,8.606,0,0,1-1.724-.178,8.4,8.4,0,0,1-2.313-.852c-.157.01-.318.015-.49.015a8.42,8.42,0,1,1,4.022-15.815c.165-.01.332-.015.5-.015a8.52,8.52,0,0,1,1.724.179h-.006a8.421,8.421,0,0,1,6.707,8.261,8.323,8.323,0,0,1-.178,1.7,8.429,8.429,0,0,1-8.238,6.707Zm79.3-3.581a8.5,8.5,0,0,1-4.962-1.62,8.448,8.448,0,0,1-3.458-6.845,8.483,8.483,0,0,1,1.631-4.935,8.35,8.35,0,0,1,4.328-3.074,8.431,8.431,0,0,1,7.428,1.254,8.34,8.34,0,0,1,3.088,4.338,8.646,8.646,0,0,1,.372,2.505,8.5,8.5,0,0,1-1.633,4.937,8.348,8.348,0,0,1-4.33,3.072A8.541,8.541,0,0,1,92.248,536.089Zm24.816-9.9a8.416,8.416,0,0,1-7.538-4.661,8.345,8.345,0,0,1-.892-3.739,8.424,8.424,0,0,1,4.666-7.553,8.322,8.322,0,0,1,3.754-.89,8.419,8.419,0,0,1,7.539,4.664,8.319,8.319,0,0,1,.887,3.739,8.42,8.42,0,0,1-4.661,7.554A8.329,8.329,0,0,1,117.064,526.188Zm-102.5-13.561a8.425,8.425,0,0,1-8.43-8.455,8.331,8.331,0,0,1,.228-1.9,8.422,8.422,0,0,1,16.618,1.966,8.8,8.8,0,0,1-.228,1.9,8.431,8.431,0,0,1-8.188,6.488Zm125.336-.3a8.41,8.41,0,0,1-6.82-3.472,8.383,8.383,0,0,1-1.61-4.958,8.415,8.415,0,0,1,3.478-6.806,8.345,8.345,0,0,1,4.937-1.608,8.411,8.411,0,0,1,6.821,3.475,8.387,8.387,0,0,1,1.61,4.958,8.427,8.427,0,0,1-3.478,6.8A8.343,8.343,0,0,1,139.9,512.33Zm20.239-17.43a8.413,8.413,0,1,1,6-2.511A8.365,8.365,0,0,1,160.142,494.9ZM20.7,486.593a8.833,8.833,0,0,1-1.941-.222,8.435,8.435,0,0,1-6.489-8.232,8.674,8.674,0,0,1,.228-1.9,8.32,8.32,0,0,1,3.006-4.7,8.414,8.414,0,0,1,13.384,8.564,8.313,8.313,0,0,1-3,4.7A8.461,8.461,0,0,1,20.7,486.593Zm156.526-12.214a8.427,8.427,0,1,1,6.9-3.591A8.38,8.38,0,0,1,177.231,474.379ZM26.842,460.561a8.425,8.425,0,0,1-8.425-8.456,8.4,8.4,0,0,1,3.23-6.6,8.421,8.421,0,0,1,13.611,6.661,8.067,8.067,0,0,1-.229,1.9,8.314,8.314,0,0,1-3,4.7A8.461,8.461,0,0,1,26.842,460.561Zm163.851-9.253a8.429,8.429,0,1,1,4.442-1.265A8.383,8.383,0,0,1,190.693,451.308ZM32.983,434.527a8.421,8.421,0,0,1-8.43-8.45,8.12,8.12,0,0,1,.228-1.9,8.327,8.327,0,0,1,3-4.7,8.4,8.4,0,0,1,7.121-1.566,8.344,8.344,0,0,1,4.712,3.023,8.462,8.462,0,0,1,1.781,5.2,8.679,8.679,0,0,1-.228,1.9,8.335,8.335,0,0,1-3.008,4.7A8.456,8.456,0,0,1,32.983,434.527Zm167.191-8.192a8.492,8.492,0,0,1-2.334-.332,8.343,8.343,0,0,1-4.439-3.084,8.47,8.47,0,0,1-1.653-5.034,8.251,8.251,0,0,1,.332-2.3,8.344,8.344,0,0,1,3.07-4.431,8.4,8.4,0,0,1,7.351-1.33,8.34,8.34,0,0,1,4.438,3.082,8.5,8.5,0,0,1,1.655,5.036,8.682,8.682,0,0,1-.332,2.3,8.352,8.352,0,0,1-3.071,4.429A8.48,8.48,0,0,1,200.174,426.335ZM39.12,408.5a8.456,8.456,0,0,1-1.937-.227,8.346,8.346,0,0,1-4.712-3.022,8.461,8.461,0,0,1-1.782-5.205,8.7,8.7,0,0,1,.229-1.9,8.316,8.316,0,0,1,3-4.7,8.424,8.424,0,0,1,13.615,6.664,8.617,8.617,0,0,1-.229,1.9,8.321,8.321,0,0,1-3,4.7A8.456,8.456,0,0,1,39.12,408.5ZM206.5,400.352a8.425,8.425,0,0,1-8.425-8.455,8.137,8.137,0,0,1,.228-1.9,8.42,8.42,0,0,1,16.39,3.868,8.336,8.336,0,0,1-3.008,4.7A8.462,8.462,0,0,1,206.5,400.352ZM45.257,382.466a8.716,8.716,0,0,1-1.937-.228,8.428,8.428,0,0,1-6.494-8.227,8.669,8.669,0,0,1,.228-1.9,8.336,8.336,0,0,1,3.006-4.7,8.421,8.421,0,1,1,5.2,15.054Zm167.389-8.148a8.669,8.669,0,0,1-1.942-.223,8.427,8.427,0,0,1-6.488-8.231,8.455,8.455,0,0,1,3.233-6.6,8.423,8.423,0,0,1,13.612,6.661,8.69,8.69,0,0,1-.228,1.9,8.315,8.315,0,0,1-3,4.7A8.46,8.46,0,0,1,212.647,374.318ZM51.4,356.433a8.425,8.425,0,0,1-8.43-8.456,8.135,8.135,0,0,1,.228-1.9,8.321,8.321,0,0,1,3-4.7,8.39,8.39,0,0,1,7.121-1.563,8.327,8.327,0,0,1,4.712,3.02,8.468,8.468,0,0,1,1.781,5.208,8.614,8.614,0,0,1-.228,1.9,8.343,8.343,0,0,1-3.007,4.7A8.45,8.45,0,0,1,51.4,356.433Zm167.383-8.148a8.432,8.432,0,0,1-8.43-8.456,8.614,8.614,0,0,1,.229-1.9,8.336,8.336,0,0,1,3.007-4.7A8.422,8.422,0,0,1,227.2,339.9a8.455,8.455,0,0,1-3.231,6.6A8.461,8.461,0,0,1,218.783,348.286ZM57.536,330.4a8.424,8.424,0,0,1-8.429-8.455,8.694,8.694,0,0,1,.228-1.9,8.422,8.422,0,0,1,16.618,1.967,8.691,8.691,0,0,1-.228,1.9,8.422,8.422,0,0,1-8.188,6.488Zm167.4-8.148h-.012a8.418,8.418,0,1,1,8.416-8.391,8.408,8.408,0,0,1-3.226,6.6A8.443,8.443,0,0,1,224.932,322.252ZM63.673,304.367a8.428,8.428,0,0,1-8.429-8.455,8.687,8.687,0,0,1,.227-1.9,8.333,8.333,0,0,1,3.008-4.7,8.426,8.426,0,0,1,13.388,8.564,8.333,8.333,0,0,1-3.008,4.7A8.466,8.466,0,0,1,63.673,304.367Zm167.389-8.142a8.426,8.426,0,0,1-8.431-8.455,8.461,8.461,0,0,1,3.232-6.6,8.424,8.424,0,0,1,13.615,6.664,8.6,8.6,0,0,1-.228,1.9,8.342,8.342,0,0,1-3.007,4.7A8.45,8.45,0,0,1,231.062,296.224ZM69.81,278.334a8.426,8.426,0,0,1-8.425-8.456,8.046,8.046,0,0,1,.228-1.9,8.322,8.322,0,0,1,3.005-4.7,8.42,8.42,0,0,1,13.608,6.661,8.4,8.4,0,0,1-3.231,6.6A8.465,8.465,0,0,1,69.81,278.334ZM237.2,270.191a8.54,8.54,0,0,1-1.942-.228,8.428,8.428,0,0,1-6.488-8.227,8.62,8.62,0,0,1,.228-1.9,8.42,8.42,0,1,1,8.2,10.356ZM75.953,252.3a8.42,8.42,0,0,1-8.43-8.45,8.616,8.616,0,0,1,.228-1.9,8.321,8.321,0,0,1,3.005-4.7,8.423,8.423,0,0,1,13.612,6.661,8.632,8.632,0,0,1-.228,1.9,8.317,8.317,0,0,1-3,4.7A8.46,8.46,0,0,1,75.953,252.3Zm167.384-8.143a8.431,8.431,0,1,1,5.184-1.792A8.4,8.4,0,0,1,243.337,244.157ZM82.09,226.273a8.43,8.43,0,0,1-8.2-10.357,8.332,8.332,0,0,1,3.005-4.7A8.422,8.422,0,0,1,90.5,217.882a8.461,8.461,0,0,1-3.231,6.6A8.455,8.455,0,0,1,82.09,226.273Zm6.142-26.033a8.429,8.429,0,0,1-8.207-10.356,8.333,8.333,0,0,1,3.005-4.7,8.427,8.427,0,0,1,13.618,6.664,8.807,8.807,0,0,1-.228,1.9,8.431,8.431,0,0,1-8.188,6.488Zm6.137-26.033a8.429,8.429,0,0,1-8.43-8.455,8.744,8.744,0,0,1,.228-1.9,8.318,8.318,0,0,1,3-4.7,8.423,8.423,0,0,1,13.615,6.664,8.667,8.667,0,0,1-.227,1.9,8.346,8.346,0,0,1-3.008,4.7A8.45,8.45,0,0,1,94.369,174.207Zm6.137-26.033a8.467,8.467,0,0,1-6.649-3.247,8.463,8.463,0,0,1-1.781-5.207,8.7,8.7,0,0,1,.228-1.9,8.422,8.422,0,0,1,16.619,1.967,8.126,8.126,0,0,1-.229,1.9,8.421,8.421,0,0,1-8.187,6.489Zm167.388-8.148a8.421,8.421,0,0,1-8.43-8.45,8.106,8.106,0,0,1,.228-1.9,8.325,8.325,0,0,1,3.006-4.7,8.4,8.4,0,0,1,7.119-1.566,8.344,8.344,0,0,1,4.712,3.023,8.462,8.462,0,0,1,1.781,5.2,8.671,8.671,0,0,1-.228,1.9,8.334,8.334,0,0,1-3.007,4.7A8.457,8.457,0,0,1,267.894,140.026ZM106.647,122.14a8.425,8.425,0,0,1-8.43-8.455,8.179,8.179,0,0,1,.228-1.9,8.321,8.321,0,0,1,3-4.7,8.42,8.42,0,1,1,5.2,15.052ZM274.031,114a8.428,8.428,0,0,1-8.43-8.455,8.693,8.693,0,0,1,.229-1.9,8.316,8.316,0,0,1,3-4.7,8.425,8.425,0,0,1,13.615,6.664,8.651,8.651,0,0,1-.228,1.9,8.326,8.326,0,0,1-3,4.7A8.456,8.456,0,0,1,274.031,114Zm-132.122-63a8.424,8.424,0,1,1,6.395-2.938A8.425,8.425,0,0,1,141.909,50.995Zm19.015-18.768a8.418,8.418,0,1,1,5.4-1.961A8.4,8.4,0,0,1,160.924,32.227Zm21.844-15.384A8.422,8.422,0,0,1,182.754,0a8.422,8.422,0,0,1,.015,16.843Z" transform="translate(0 22.066)" fill="#fff"/>
        <path id="Fill_3" data-name="Fill 3" d="M8.492,244a8.565,8.565,0,0,1-1.954-.227A8.407,8.407,0,0,1,.228,233.658L54.26,6.481a8.479,8.479,0,0,1,16.512,3.86L16.741,237.518A8.472,8.472,0,0,1,8.492,244" transform="translate(200 171)" fill="#f6ab3d"/>
        <g id="Group_7" data-name="Group 7" transform="translate(197)">
          <path id="Clip_6-2" data-name="Clip 6" d="M0,0H112.767V112.525H0Z" transform="translate(-0.001 0.232)" fill="none"/>
          <g id="Group_7-2" data-name="Group 7" clip-path="url(#clip-path-2)">
            <path id="Fill_5" data-name="Fill 5" d="M80.627,112.3h0a8.388,8.388,0,0,1-6.284-10.1L94.1,19.211c-27.523-4.967-55.288-2.277-82.658,8.023a8.467,8.467,0,0,1-10.9-4.872A8.373,8.373,0,0,1,5.458,11.542C38.786-1,72.706-3.334,106.274,4.607a8.388,8.388,0,0,1,6.266,10.088l-21.751,91.37A8.452,8.452,0,0,1,80.627,112.3" transform="translate(-0.001 0.232)" fill="#f6ab3d"/>
          </g>
        </g>
        <path id="Fill_8" data-name="Fill 8" d="M45.694,489a169.116,169.116,0,0,1-39.219-4.643A8.416,8.416,0,0,1,.227,474.239l98.964-419.2A170.552,170.552,0,0,1,118.063,7.853c.762-1.3,1.552-2.6,2.35-3.884a8.423,8.423,0,0,1,14.305,8.9c-.718,1.152-1.43,2.328-2.116,3.5A153.761,153.761,0,0,0,115.592,58.9L18.61,469.71A151.728,151.728,0,0,0,131.8,445.331a8.419,8.419,0,1,1,9.547,13.87A169.025,169.025,0,0,1,45.694,489" transform="translate(0 76)" fill="#f6ab3d"/>
        <path id="Fill_12" data-name="Fill 12" d="M24.9,261a79.46,79.46,0,0,1-18.441-2.165,8.41,8.41,0,0,1-6.229-10.11L44.218,61.954a79.907,79.907,0,0,1,36-50.031A79.125,79.125,0,0,1,140.544,2.2a8.409,8.409,0,0,1,6.229,10.111L111.916,160.354a8.4,8.4,0,1,1-16.352-3.86l32.808-139.34a62.4,62.4,0,0,0-39.337,9.084A63.2,63.2,0,0,0,60.571,65.814L18.631,243.869a62.917,62.917,0,0,0,34.138-6.189,8.408,8.408,0,0,1,7.445,15.077A79.687,79.687,0,0,1,24.9,261" transform="translate(101 74)" fill="#f6ab3d"/>
      </g>
    </g>
  </g>
</svg>
