<svg id="service_7_fill" data-name="service 7 / fill" xmlns="http://www.w3.org/2000/svg" xmlns:xlink="http://www.w3.org/1999/xlink" width="380" height="289" viewBox="0 0 380 289">
  <defs>
    <clipPath id="clip-path">
      <rect id="Mask_Copy_4" data-name="Mask Copy 4" width="380" height="289" rx="24" fill="none"/>
    </clipPath>
    <clipPath id="clip-path-2">
      <path id="Clip_8" data-name="Clip 8" d="M0,0H143.177V172.145H0Z" transform="translate(0 84.792)" fill="none"/>
    </clipPath>
  </defs>
  <g id="Group">
    <rect id="Mask_Copy_4-2" data-name="Mask Copy 4" width="380" height="289" rx="24" fill="none"/>
    <g id="Group-2" data-name="Group" clip-path="url(#clip-path)">
      <g id="creative" transform="translate(-40 21)">
        <path id="Clip_2" data-name="Clip 2" d="M0,0H272.058V253.845H0Z" transform="translate(0.079 3.09)" fill="none"/>
        <path id="Path" d="M2.51,13.784a7.985,7.985,0,1,1,5.465,2.163A7.986,7.986,0,0,1,2.51,13.784" transform="translate(252.684 3.09)" fill="#fff"/>
        <path id="Path-2" data-name="Path" d="M2.369,13.641a7.974,7.974,0,1,1,5.606,2.308,7.955,7.955,0,0,1-5.606-2.308" transform="translate(104.231 6.23)" fill="#fff"/>
        <path id="Path-3" data-name="Path" d="M.178,9.649A7.882,7.882,0,0,1,0,7.942,7.974,7.974,0,0,1,15.771,6.31a7.819,7.819,0,0,1,.178,1.7A7.974,7.974,0,0,1,.178,9.649" transform="translate(125.992 8.833)" fill="#fff"/>
        <path id="Path-4" data-name="Path" d="M2.364,13.643a7.979,7.979,0,1,1,5.61,2.308,7.96,7.96,0,0,1-5.61-2.308" transform="translate(229.45 10.994)" fill="#fff"/>
        <path id="Path-5" data-name="Path" d="M2.364,13.643a7.967,7.967,0,1,1,5.61,2.308,7.94,7.94,0,0,1-5.61-2.308" transform="translate(84.436 26.235)" fill="#fff"/>
        <path id="Path-6" data-name="Path" d="M0,7.979a7.977,7.977,0,1,1,7.974,7.97A7.975,7.975,0,0,1,0,7.979" transform="translate(256.184 30.257)" fill="#fff"/>
        <path id="Path-7" data-name="Path" d="M2.364,13.642A7.973,7.973,0,1,1,13.58,2.308,7.973,7.973,0,1,1,2.364,13.642" transform="translate(209.654 30.998)" fill="#fff"/>
        <path id="Path-8" data-name="Path" d="M0,7.979a7.977,7.977,0,1,1,7.974,7.97A7.978,7.978,0,0,1,0,7.979" transform="translate(126.251 36.961)" fill="#fff"/>
        <path id="Path-9" data-name="Path" d="M2.364,13.641a7.979,7.979,0,1,1,5.61,2.308,7.969,7.969,0,0,1-5.61-2.308" transform="translate(64.635 46.239)" fill="#fff"/>
        <path id="Path-10" data-name="Path" d="M2.364,13.641a7.973,7.973,0,1,1,5.61,2.308,7.934,7.934,0,0,1-5.61-2.308" transform="translate(189.854 51.005)" fill="#fff"/>
        <path id="Path-11" data-name="Path" d="M0,7.974a7.977,7.977,0,1,1,7.974,7.97A7.974,7.974,0,0,1,0,7.974" transform="translate(256.184 58.407)" fill="#fff"/>
        <path id="Path-12" data-name="Path" d="M0,7.979a7.977,7.977,0,1,1,7.974,7.97A7.977,7.977,0,0,1,0,7.979" transform="translate(126.251 65.106)" fill="#fff"/>
        <path id="Path-13" data-name="Path" d="M2.364,13.642a7.973,7.973,0,1,1,5.61,2.308,7.941,7.941,0,0,1-5.61-2.308" transform="translate(44.84 66.245)" fill="#fff"/>
        <path id="Path-14" data-name="Path" d="M2.364,13.644a7.984,7.984,0,1,1,5.61,2.3,7.989,7.989,0,0,1-5.61-2.3" transform="translate(170.054 71.009)" fill="#fff"/>
        <path id="Path-15" data-name="Path" d="M2.364,13.639a7.973,7.973,0,1,1,5.61,2.308,7.929,7.929,0,0,1-5.61-2.308" transform="translate(25.04 86.25)" fill="#fff"/>
        <path id="Path-16" data-name="Path" d="M0,7.97a7.977,7.977,0,1,1,7.974,7.974A7.973,7.973,0,0,1,0,7.97" transform="translate(256.184 86.552)" fill="#fff"/>
        <path id="Path-17" data-name="Path" d="M2.364,13.642a7.972,7.972,0,1,1,5.61,2.308,7.93,7.93,0,0,1-5.61-2.308" transform="translate(150.258 91.013)" fill="#fff"/>
        <path id="Path-18" data-name="Path" d="M.849,11.552A7.974,7.974,0,1,1,15.1,4.4,7.974,7.974,0,1,1,.849,11.552" transform="translate(127.442 93.065)" fill="#fff"/>
        <path id="Path-19" data-name="Path" d="M2.364,13.641A7.972,7.972,0,1,1,13.58,2.308,7.972,7.972,0,1,1,2.364,13.641" transform="translate(5.244 106.254)" fill="#fff"/>
        <path id="Path-20" data-name="Path" d="M0,7.97a7.977,7.977,0,1,1,7.974,7.975A7.973,7.973,0,0,1,0,7.97" transform="translate(256.184 114.698)" fill="#fff"/>
        <path id="Path-21" data-name="Path" d="M0,8.007a7.975,7.975,0,1,1,8.012,7.937H7.97A7.971,7.971,0,0,1,0,8.007" transform="translate(0.079 132.725)" fill="#fff"/>
        <path id="Path-22" data-name="Path" d="M0,7.97a7.977,7.977,0,1,1,7.974,7.979A7.973,7.973,0,0,1,0,7.97" transform="translate(256.184 142.843)" fill="#fff"/>
        <path id="Path-23" data-name="Path" d="M0,8.008a7.975,7.975,0,1,1,8.012,7.937H7.975A7.978,7.978,0,0,1,0,8.008" transform="translate(0.211 160.87)" fill="#fff"/>
        <path id="Path-24" data-name="Path" d="M0,7.974a7.977,7.977,0,1,1,7.974,7.979A7.977,7.977,0,0,1,0,7.974" transform="translate(256.184 170.984)" fill="#fff"/>
        <path id="Path-25" data-name="Path" d="M0,8.008a7.975,7.975,0,1,1,8.012,7.937H7.97A7.974,7.974,0,0,1,0,8.008" transform="translate(0.346 189.015)" fill="#fff"/>
        <path id="Path-26" data-name="Path" d="M0,7.975a7.977,7.977,0,1,1,7.974,7.979A7.977,7.977,0,0,1,0,7.975" transform="translate(256.184 199.129)" fill="#fff"/>
        <path id="Path-27" data-name="Path" d="M0,8.012a7.975,7.975,0,1,1,8.012,7.937H7.975A7.978,7.978,0,0,1,0,8.012" transform="translate(0.478 217.156)" fill="#fff"/>
        <path id="Path-28" data-name="Path" d="M0,7.979a7.977,7.977,0,1,1,7.974,7.974A7.978,7.978,0,0,1,0,7.979" transform="translate(256.184 227.275)" fill="#fff"/>
        <path id="Path-29" data-name="Path" d="M8.275,15.946a7.8,7.8,0,0,1-1.768-.131A7.975,7.975,0,1,1,9.443.138l.281.057c.1,0,.207-.005.3-.005A7.974,7.974,0,1,1,8.275,15.946" transform="translate(9.7 240.797)" fill="#fff"/>
        <path id="Path-30" data-name="Path" d="M0,7.974a7.974,7.974,0,1,1,7.974,7.974A7.974,7.974,0,0,1,0,7.974" transform="translate(39.901 240.986)" fill="#fff"/>
        <path id="Path-31" data-name="Path" d="M0,7.974a7.975,7.975,0,1,1,7.975,7.974A7.974,7.974,0,0,1,0,7.974" transform="translate(68.046 240.986)" fill="#fff"/>
        <path id="Path-32" data-name="Path" d="M0,7.974a7.974,7.974,0,1,1,7.974,7.974A7.974,7.974,0,0,1,0,7.974" transform="translate(96.191 240.986)" fill="#fff"/>
        <path id="Path-33" data-name="Path" d="M0,7.974a7.974,7.974,0,1,1,7.974,7.974A7.974,7.974,0,0,1,0,7.974" transform="translate(124.337 240.986)" fill="#fff"/>
        <path id="Path-34" data-name="Path" d="M0,7.974a7.975,7.975,0,1,1,7.975,7.974A7.974,7.974,0,0,1,0,7.974" transform="translate(152.482 240.986)" fill="#fff"/>
        <path id="Path-35" data-name="Path" d="M0,7.974a7.975,7.975,0,1,1,7.975,7.974A7.974,7.974,0,0,1,0,7.974" transform="translate(180.627 240.986)" fill="#fff"/>
        <path id="Path-36" data-name="Path" d="M0,7.974a7.975,7.975,0,1,1,7.974,7.974A7.974,7.974,0,0,1,0,7.974" transform="translate(208.773 240.986)" fill="#fff"/>
        <path id="Path-37" data-name="Path" d="M0,7.974a7.975,7.975,0,1,1,7.974,7.974A7.974,7.974,0,0,1,0,7.974" transform="translate(236.918 240.986)" fill="#fff"/>
        <path id="Clip_5" data-name="Clip 5" d="M0,0H188.857V256.937H0Z" transform="translate(83.278 0)" fill="none"/>
        <path id="Fill_4" data-name="Fill 4" d="M169.667,256.937H158.148a7.975,7.975,0,0,1,0-15.949h11.519a3.3,3.3,0,0,0,3.241-3.358V19.315a3.185,3.185,0,0,0-2.048-3.121,3.015,3.015,0,0,0-3.455.718l-91.64,92.594A19.176,19.176,0,0,1,42.975,95.884V19.315a3.186,3.186,0,0,0-2.048-3.121,3.015,3.015,0,0,0-3.455.718L13.64,40.971A7.975,7.975,0,0,1,2.309,29.747L26.139,5.69A19.176,19.176,0,0,1,58.924,19.315V95.884a3.186,3.186,0,0,0,2.048,3.122,3.018,3.018,0,0,0,3.455-.718L156.068,5.693a19.176,19.176,0,0,1,32.788,13.622V237.63a19.27,19.27,0,0,1-19.19,19.307" transform="translate(83.278 0)" fill="#f6ab3d"/>
        <path id="Clip_8-2" data-name="Clip 8" d="M0,0H143.177V172.145H0Z" transform="translate(0 84.792)" fill="none"/>
        <g id="creative-2" data-name="creative" clip-path="url(#clip-path-2)">
          <path id="Fill_7" data-name="Fill 7" d="M135.2,172.145H19.73A19.289,19.289,0,0,1,.54,152.932L0,39.52A19.5,19.5,0,0,1,5.592,25.8L28.817,2.362a7.975,7.975,0,1,1,11.33,11.225L16.924,37.027a3.432,3.432,0,0,0-.975,2.417l.54,113.412a3.307,3.307,0,0,0,3.241,3.34H135.2a7.975,7.975,0,0,1,0,15.949" transform="translate(0 84.792)" fill="#f6ab3d"/>
        </g>
      </g>
    </g>
  </g>
</svg>
