<svg id="service_3_fill" data-name="service 3 / fill" xmlns="http://www.w3.org/2000/svg" xmlns:xlink="http://www.w3.org/1999/xlink" width="380" height="277" viewBox="0 0 380 277">
  <defs>
    <clipPath id="clip-path">
      <rect id="Mask_Copy_6" data-name="Mask Copy 6" width="380" height="277" rx="24" fill="none"/>
    </clipPath>
  </defs>
  <g id="Group_3" data-name="Group 3">
    <rect id="Mask_Copy_6-2" data-name="Mask Copy 6" width="380" height="277" rx="24" fill="none"/>
    <g id="Group_3-2" data-name="Group 3" clip-path="url(#clip-path)">
      <g id="Group_16" data-name="Group 16" transform="translate(-26 16)">
        <path id="Path" d="M3.317,15.158A8.446,8.446,0,1,1,8.441,16.9a8.449,8.449,0,0,1-5.124-1.739" transform="translate(143.133 0)" fill="#fff"/>
        <path id="Path-2" data-name="Path" d="M1.71,13.552A8.453,8.453,0,1,1,8.453,16.9,8.41,8.41,0,0,1,1.71,13.552" transform="translate(155.121 15.824)" fill="#fff"/>
        <path id="Path-3" data-name="Path" d="M3.314,15.159A8.447,8.447,0,1,1,8.443,16.9a8.461,8.461,0,0,1-5.129-1.739" transform="translate(126.825 21.313)" fill="#fff"/>
        <path id="Path-4" data-name="Path" d="M1.715,13.548A8.448,8.448,0,1,1,8.453,16.9a8.407,8.407,0,0,1-6.739-3.349" transform="translate(171.321 37.215)" fill="#fff"/>
        <path id="Path-5" data-name="Path" d="M3.314,15.154A8.447,8.447,0,1,1,16.9,8.446a8.449,8.449,0,0,1-8.453,8.448,8.412,8.412,0,0,1-5.128-1.739" transform="translate(110.521 42.626)" fill="#fff"/>
        <path id="Path-6" data-name="Path" d="M1.715,13.552A8.448,8.448,0,1,1,16.9,8.493,8.448,8.448,0,0,1,1.715,13.552" transform="translate(187.526 58.605)" fill="#fff"/>
        <path id="Path-7" data-name="Path" d="M3.315,15.156A8.445,8.445,0,1,1,8.443,16.9a8.422,8.422,0,0,1-5.129-1.739" transform="translate(94.216 63.938)" fill="#fff"/>
        <path id="Path-8" data-name="Path" d="M1.715,13.547A8.442,8.442,0,1,1,8.453,16.9a8.4,8.4,0,0,1-6.738-3.349" transform="translate(203.726 79.998)" fill="#fff"/>
        <path id="Path-9" data-name="Path" d="M3.314,15.158A8.447,8.447,0,1,1,8.438,16.9a8.424,8.424,0,0,1-5.123-1.739" transform="translate(77.912 85.25)" fill="#fff"/>
        <path id="Path-10" data-name="Path" d="M1.715,13.551A8.458,8.458,0,1,1,8.458,16.9a8.447,8.447,0,0,1-6.743-3.345" transform="translate(219.926 101.388)" fill="#fff"/>
        <path id="Path-11" data-name="Path" d="M3.32,15.158A8.446,8.446,0,1,1,8.443,16.9,8.444,8.444,0,0,1,3.32,15.158" transform="translate(61.602 106.563)" fill="#fff"/>
        <path id="Path-12" data-name="Path" d="M1.714,13.547A8.447,8.447,0,1,1,8.453,16.9a8.4,8.4,0,0,1-6.739-3.35" transform="translate(236.132 122.779)" fill="#fff"/>
        <path id="Path-13" data-name="Path" d="M3.315,15.159A8.448,8.448,0,1,1,8.443,16.9a8.46,8.46,0,0,1-5.129-1.739" transform="translate(45.298 127.876)" fill="#fff"/>
        <path id="Path-14" data-name="Path" d="M1.715,13.55A8.447,8.447,0,1,1,8.458,16.9a8.432,8.432,0,0,1-6.743-3.35" transform="translate(252.332 144.17)" fill="#fff"/>
        <path id="Path-15" data-name="Path" d="M3.315,15.158A8.447,8.447,0,1,1,16.9,8.449,8.45,8.45,0,0,1,8.443,16.9a8.408,8.408,0,0,1-5.128-1.739" transform="translate(28.993 149.186)" fill="#fff"/>
        <path id="Path-16" data-name="Path" d="M1.715,13.547A8.446,8.446,0,1,1,15.182,3.35a8.446,8.446,0,1,1-13.467,10.2" transform="translate(268.537 165.561)" fill="#fff"/>
        <path id="Path-17" data-name="Path" d="M3.314,15.156A8.446,8.446,0,1,1,8.443,16.9a8.421,8.421,0,0,1-5.128-1.739" transform="translate(12.689 170.502)" fill="#fff"/>
        <path id="Path-18" data-name="Path" d="M1.714,13.548A8.449,8.449,0,1,1,8.458,16.9a8.437,8.437,0,0,1-6.743-3.349" transform="translate(284.737 186.954)" fill="#fff"/>
        <path id="Path-19" data-name="Path" d="M1.814,13.672A8.444,8.444,0,1,1,8.453,16.9a8.43,8.43,0,0,1-6.639-3.225" transform="translate(3.68 191.764)" fill="#fff"/>
        <path id="Path-20" data-name="Path" d="M3.26,15.111a8.444,8.444,0,1,1,5.183,1.784A8.431,8.431,0,0,1,3.26,15.111" transform="translate(268.448 208.12)" fill="#fff"/>
        <path id="Path-21" data-name="Path" d="M1.809,13.67A8.447,8.447,0,1,1,15.087,3.224,8.447,8.447,0,1,1,1.809,13.67" transform="translate(20.277 212.851)" fill="#fff"/>
        <path id="Path-22" data-name="Path" d="M3.255,15.113A8.45,8.45,0,1,1,8.443,16.9a8.442,8.442,0,0,1-5.188-1.784" transform="translate(251.954 229.287)" fill="#fff"/>
        <path id="Path-23" data-name="Path" d="M1.809,13.675A8.449,8.449,0,1,1,15.087,3.224,8.449,8.449,0,0,1,1.809,13.675" transform="translate(36.875 233.936)" fill="#fff"/>
        <path id="Path-24" data-name="Path" d="M3.255,15.112A8.448,8.448,0,1,1,16.9,8.423,8.446,8.446,0,0,1,8.443,16.9a8.422,8.422,0,0,1-5.188-1.784" transform="translate(235.461 250.453)" fill="#fff"/>
        <path id="Path-25" data-name="Path" d="M1.809,13.674A8.449,8.449,0,0,1,15.087,3.223,8.449,8.449,0,1,1,1.809,13.674" transform="translate(53.473 255.022)" fill="#fff"/>
        <path id="Path-26" data-name="Path" d="M3.255,15.113A8.45,8.45,0,1,1,8.443,16.9a8.439,8.439,0,0,1-5.188-1.784" transform="translate(218.967 271.621)" fill="#fff"/>
        <path id="Path-27" data-name="Path" d="M1.809,13.671A8.446,8.446,0,1,1,8.453,16.9a8.392,8.392,0,0,1-6.644-3.225" transform="translate(70.07 276.109)" fill="#fff"/>
        <path id="Path-28" data-name="Path" d="M3.255,15.111A8.448,8.448,0,1,1,8.443,16.9a8.43,8.43,0,0,1-5.188-1.785" transform="translate(202.474 292.788)" fill="#fff"/>
        <path id="Path-29" data-name="Path" d="M1.814,13.675a8.45,8.45,0,1,1,6.644,3.22,8.443,8.443,0,0,1-6.644-3.22" transform="translate(86.663 297.196)" fill="#fff"/>
        <path id="Path-30" data-name="Path" d="M3.255,15.113A8.45,8.45,0,1,1,8.438,16.9a8.444,8.444,0,0,1-5.183-1.784" transform="translate(185.981 313.956)" fill="#fff"/>
        <path id="Path-31" data-name="Path" d="M1.809,13.674A8.449,8.449,0,0,1,15.087,3.224,8.449,8.449,0,1,1,1.809,13.674" transform="translate(103.261 318.282)" fill="#fff"/>
        <path id="Path-32" data-name="Path" d="M3.26,15.111A8.444,8.444,0,1,1,8.443,16.9,8.415,8.415,0,0,1,3.26,15.111" transform="translate(169.483 335.122)" fill="#fff"/>
        <path id="Path-33" data-name="Path" d="M1.809,13.672A8.447,8.447,0,1,1,15.087,3.226,8.447,8.447,0,1,1,1.809,13.672" transform="translate(119.858 339.369)" fill="#fff"/>
        <path id="Path-34" data-name="Path" d="M3.26,15.113A8.442,8.442,0,1,1,8.443,16.9,8.429,8.429,0,0,1,3.26,15.113" transform="translate(152.989 356.29)" fill="#fff"/>
        <path id="Path-35" data-name="Path" d="M1.809,13.676A8.45,8.45,0,1,1,8.453,16.9a8.415,8.415,0,0,1-6.644-3.22" transform="translate(136.456 360.454)" fill="#fff"/>
        <path id="Clip_4" data-name="Clip 4" d="M0,0H236.8V237.855H0Z" transform="translate(0 147.982)" fill="none"/>
        <path id="Fill_3" data-name="Fill 3" d="M151.581,237.855a8.448,8.448,0,0,1-6.638-3.223L1.81,52.778A8.448,8.448,0,0,1,1.738,42.42l29.918-39.1A8.448,8.448,0,0,1,45.075,13.582L19.141,47.48,151.548,215.706l70.141-90.012a8.448,8.448,0,0,1,13.328,10.385L158.245,234.6a8.448,8.448,0,0,1-6.643,3.255Z" transform="translate(0 147.982)" fill="#f6403d"/>
        <path id="Clip_7" data-name="Clip 7" d="M0,0H207.978V226.587H0Z" transform="translate(93.759 0.001)" fill="none"/>
        <path id="Fill_6" data-name="Fill 6" d="M181.91,226.587a8.449,8.449,0,0,1-6.658-13.641l13.625-17.484L57.788,22.395,15.158,78.116A8.448,8.448,0,0,1,1.739,67.85L51.112,3.314A8.45,8.45,0,0,1,57.822,0h.02a8.447,8.447,0,0,1,6.714,3.347L206.264,190.433a8.448,8.448,0,0,1-.071,10.293l-17.614,22.6a8.434,8.434,0,0,1-6.669,3.256" transform="translate(93.759 0.001)" fill="#f6403d"/>
        <path id="Path-36" data-name="Path" d="M3.316,15.158A8.446,8.446,0,1,1,8.445,16.9a8.443,8.443,0,0,1-5.129-1.739" transform="translate(142.85 72.985)" fill="#fff"/>
        <path id="Path-37" data-name="Path" d="M1.715,13.55A8.441,8.441,0,1,1,8.453,16.9a8.4,8.4,0,0,1-6.738-3.35" transform="translate(158.972 94.267)" fill="#fff"/>
        <path id="Path-38" data-name="Path" d="M3.315,15.16A8.446,8.446,0,1,1,8.438,16.9,8.426,8.426,0,0,1,3.315,15.16" transform="translate(126.547 94.298)" fill="#fff"/>
        <path id="Path-39" data-name="Path" d="M3.319,15.159A8.441,8.441,0,1,1,8.443,16.9a8.449,8.449,0,0,1-5.123-1.739" transform="translate(110.238 115.612)" fill="#fff"/>
        <path id="Path-40" data-name="Path" d="M1.714,13.547A8.446,8.446,0,0,1,15.181,3.35a8.446,8.446,0,1,1-13.467,10.2" transform="translate(175.173 115.659)" fill="#fff"/>
        <path id="Path-41" data-name="Path" d="M3.314,15.159a8.459,8.459,0,1,1,5.129,1.735,8.445,8.445,0,0,1-5.129-1.735" transform="translate(93.933 136.925)" fill="#fff"/>
        <path id="Path-42" data-name="Path" d="M1.719,13.548A8.441,8.441,0,1,1,8.458,16.9a8.425,8.425,0,0,1-6.738-3.35" transform="translate(191.373 137.05)" fill="#fff"/>
        <path id="Path-43" data-name="Path" d="M3.314,15.158A8.446,8.446,0,1,1,8.443,16.9a8.42,8.42,0,0,1-5.129-1.739" transform="translate(77.629 158.235)" fill="#fff"/>
        <path id="Path-44" data-name="Path" d="M1.715,13.547A8.446,8.446,0,0,1,15.182,3.35a8.446,8.446,0,1,1-13.467,10.2" transform="translate(207.578 158.44)" fill="#fff"/>
        <path id="Path-45" data-name="Path" d="M3.314,15.158A8.446,8.446,0,1,1,8.443,16.9a8.425,8.425,0,0,1-5.129-1.739" transform="translate(61.324 179.549)" fill="#fff"/>
        <path id="Path-46" data-name="Path" d="M1.714,13.547A8.442,8.442,0,1,1,8.453,16.9a8.39,8.39,0,0,1-6.739-3.349" transform="translate(223.783 179.833)" fill="#fff"/>
        <path id="Path-47" data-name="Path" d="M1.809,13.677A8.449,8.449,0,1,1,15.087,3.226,8.449,8.449,0,0,1,1.809,13.677" transform="translate(67.884 200.704)" fill="#fff"/>
        <path id="Path-48" data-name="Path" d="M3.26,15.112A8.447,8.447,0,1,1,16.9,8.473,8.449,8.449,0,0,1,3.26,15.112" transform="translate(216.791 201.063)" fill="#fff"/>
        <path id="Path-49" data-name="Path" d="M1.809,13.675a8.449,8.449,0,1,1,6.644,3.22,8.415,8.415,0,0,1-6.644-3.22" transform="translate(84.481 221.791)" fill="#fff"/>
        <path id="Path-50" data-name="Path" d="M3.255,15.113A8.45,8.45,0,1,1,8.443,16.9a8.443,8.443,0,0,1-5.189-1.784" transform="translate(200.298 222.231)" fill="#fff"/>
        <path id="Path-51" data-name="Path" d="M1.814,13.672A8.446,8.446,0,1,1,8.458,16.9a8.429,8.429,0,0,1-6.644-3.225" transform="translate(101.074 242.878)" fill="#fff"/>
        <path id="Path-52" data-name="Path" d="M3.255,15.111A8.449,8.449,0,1,1,8.443,16.9a8.431,8.431,0,0,1-5.188-1.784" transform="translate(183.804 243.397)" fill="#fff"/>
        <path id="Path-53" data-name="Path" d="M1.809,13.676A8.456,8.456,0,1,1,8.453,16.9a8.415,8.415,0,0,1-6.644-3.22" transform="translate(117.672 263.964)" fill="#fff"/>
        <path id="Path-54" data-name="Path" d="M3.255,15.113A8.448,8.448,0,1,1,8.442,16.9a8.431,8.431,0,0,1-5.188-1.785" transform="translate(167.311 264.565)" fill="#fff"/>
        <path id="Path-55" data-name="Path" d="M19.8,15.792a8.429,8.429,0,0,1-3.151-5.327,8.428,8.428,0,1,1,.139-3.354A8.448,8.448,0,1,1,19.8,15.792" transform="translate(134.269 285.051)" fill="#fff"/>
        <path id="Fill_11" data-name="Fill 11" d="M18.432,76.437a8.447,8.447,0,0,1-6.638-3.223L1.81,60.53A8.448,8.448,0,0,1,15.087,50.08L18.4,54.288,58.165,3.256A8.448,8.448,0,0,1,71.492,13.641L25.1,73.182a8.448,8.448,0,0,1-6.644,3.255Z" transform="translate(132.867 236.413)" fill="#f6403d"/>
        <path id="Fill_13" data-name="Fill 13" d="M38.841,79.138A8.433,8.433,0,0,1,32.2,75.915L1.81,37.306a8.448,8.448,0,0,1-.071-10.358L19.819,3.315A8.448,8.448,0,1,1,33.238,13.582l-14.1,18.426L45.474,65.465a8.449,8.449,0,0,1-6.633,13.673" transform="translate(56.349 162.418)" fill="#f6403d"/>
        <path id="Fill_15" data-name="Fill 15" d="M8.442,106.328a8.448,8.448,0,0,1-6.7-13.582L70.16,3.314A8.45,8.45,0,0,1,76.87,0h.02A8.448,8.448,0,0,1,83.6,3.347l17.377,22.942a8.448,8.448,0,1,1-13.468,10.2L76.836,22.4,15.158,103.013a8.437,8.437,0,0,1-6.716,3.315" transform="translate(74.43 72.987)" fill="#f6403d"/>
        <path id="Fill_17" data-name="Fill 17" d="M8.442,117.861A8.449,8.449,0,0,1,1.785,104.22L37.039,58.978,2.629,13.549A8.448,8.448,0,1,1,16.1,3.347l38.329,50.6a8.448,8.448,0,0,1-.07,10.293L15.112,114.606a8.434,8.434,0,0,1-6.67,3.256" transform="translate(189.248 135.449)" fill="#f6403d"/>
        <path id="Path-56" data-name="Path" d="M3.312,15.158A8.452,8.452,0,1,1,8.441,16.9a8.453,8.453,0,0,1-5.129-1.739" transform="translate(142.561 148.202)" fill="#fff"/>
        <path id="Path-57" data-name="Path" d="M1.709,13.547A8.447,8.447,0,1,1,8.453,16.9a8.417,8.417,0,0,1-6.744-3.35" transform="translate(156.016 165.963)" fill="#fff"/>
        <path id="Path-58" data-name="Path" d="M3.315,15.16A8.449,8.449,0,1,1,16.9,8.446a8.351,8.351,0,0,1-1.739,5.133A8.442,8.442,0,0,1,3.315,15.16" transform="translate(126.254 169.514)" fill="#fff"/>
        <path id="Path-59" data-name="Path" d="M3.26,15.111A8.444,8.444,0,1,1,8.448,16.9,8.452,8.452,0,0,1,3.26,15.111" transform="translate(168.593 187.327)" fill="#fff"/>
        <path id="Path-60" data-name="Path" d="M1.809,13.674A8.447,8.447,0,1,1,8.453,16.9a8.394,8.394,0,0,1-6.644-3.225" transform="translate(118.969 190.763)" fill="#fff"/>
        <path id="Path-61" data-name="Path" d="M1.809,17.026A8.445,8.445,0,1,1,15.082,6.58a8.371,8.371,0,0,1,1.545,3.106,8.242,8.242,0,0,1-.095-1.262,8.442,8.442,0,1,1,.268,2.137A8.446,8.446,0,0,1,1.809,17.026" transform="translate(135.567 208.495)" fill="#fff"/>
        <path id="Fill_21" data-name="Fill 21" d="M36.59,60.339a8.448,8.448,0,0,1-6.638-3.223L1.81,21.362A8.448,8.448,0,0,1,1.738,11L7.621,3.315A8.448,8.448,0,1,1,21.04,13.582l-1.9,2.482L36.557,38.19l8.464-10.862A8.448,8.448,0,0,1,58.348,37.714L43.254,57.084a8.448,8.448,0,0,1-6.643,3.255Z" transform="translate(114.419 177.297)" fill="#f6403d"/>
        <path id="Fill_23" data-name="Fill 23" d="M45.8,70.064a8.449,8.449,0,0,1-6.658-13.641l8.778-11.264L30.674,22.4,15.158,42.677A8.448,8.448,0,0,1,1.739,32.41L24,3.314A8.45,8.45,0,0,1,30.708,0h.02a8.447,8.447,0,0,1,6.714,3.347L65.3,40.131a8.449,8.449,0,0,1-.071,10.293L52.466,66.809a8.434,8.434,0,0,1-6.67,3.256" transform="translate(120.301 148.202)" fill="#f6403d"/>
      </g>
    </g>
  </g>
</svg>
