<svg id="service_4_fill" data-name="service 4 / fill" xmlns="http://www.w3.org/2000/svg" xmlns:xlink="http://www.w3.org/1999/xlink" width="380" height="246" viewBox="0 0 380 246">
  <defs>
    <clipPath id="clip-path">
      <rect id="Mask_Copy_4" data-name="Mask Copy 4" width="380" height="246" rx="24" fill="none"/>
    </clipPath>
  </defs>
  <g id="Group_12" data-name="Group 12">
    <rect id="Mask_Copy_4-2" data-name="Mask Copy 4" width="380" height="246" rx="24" fill="none"/>
    <g id="Group_12-2" data-name="Group 12" clip-path="url(#clip-path)">
      <g id="Group_11" data-name="Group 11" transform="translate(-88 25)">
        <path id="Clip_2" data-name="Clip 2" d="M0,0H406.78V195.22H0Z" transform="translate(0 1.72)" fill="none"/>
        <path id="Path" d="M1.165,20.3a9.2,9.2,0,0,1,.688-10.018A9.072,9.072,0,0,1,2.939,4.639,8.942,8.942,0,0,1,15.2,1.176a9.174,9.174,0,0,1,3.415,12.415,8.547,8.547,0,0,1-.683,1.056,10.23,10.23,0,0,1,.074,1.131,9.134,9.134,0,0,1-4.585,7.982,8.854,8.854,0,0,1-4.41,1.179A8.979,8.979,0,0,1,1.165,20.3" transform="translate(187.48 86)" fill="#fff"/>
        <path id="Path-2" data-name="Path" d="M4.595,16.9A9.035,9.035,0,1,1,9.019,18.06,9.021,9.021,0,0,1,4.595,16.9" transform="translate(214.14 100.62)" fill="#fff"/>
        <path id="Path-3" data-name="Path" d="M.048,9.965A8.918,8.918,0,0,1,0,9.046,9.03,9.03,0,0,1,18.012,8.1a8.921,8.921,0,0,1,.048.919,9.031,9.031,0,0,1-8.1,9,9.269,9.269,0,0,1-.946.048A9.026,9.026,0,0,1,.048,9.965" transform="translate(0 101.48)" fill="#fff"/>
        <path id="Path-4" data-name="Path" d="M1.168,13.462a9.017,9.017,0,1,1,7.87,4.6,9.021,9.021,0,0,1-7.87-4.6" transform="translate(162.54 107.5)" fill="#fff"/>
        <path id="Path-5" data-name="Path" d="M4.593,16.892A9.019,9.019,0,1,1,9.022,18.06a9.016,9.016,0,0,1-4.429-1.168" transform="translate(239.08 114.38)" fill="#fff"/>
        <path id="Path-6" data-name="Path" d="M6.988,17.821a9,9,0,1,1,2.05.239,9.028,9.028,0,0,1-2.05-.239" transform="translate(385.28 116.1)" fill="#fff"/>
        <path id="Path-7" data-name="Path" d="M1.168,13.465a9.024,9.024,0,1,1,7.87,4.595,8.968,8.968,0,0,1-7.87-4.595" transform="translate(136.74 121.26)" fill="#fff"/>
        <path id="Path-8" data-name="Path" d="M4.595,16.892A9.024,9.024,0,1,1,9.019,18.06a9.02,9.02,0,0,1-4.425-1.168" transform="translate(264.02 129)" fill="#fff"/>
        <path id="Path-9" data-name="Path" d="M.51,12.007A9.142,9.142,0,0,1,0,9a9.047,9.047,0,1,1,.51,3.005" transform="translate(6.02 129.86)" fill="#fff"/>
        <path id="Path-10" data-name="Path" d="M1.163,13.466A9.022,9.022,0,1,1,9.035,18.06a8.973,8.973,0,0,1-7.872-4.594" transform="translate(112.66 135.02)" fill="#fff"/>
        <path id="Path-11" data-name="Path" d="M4.593,16.892A9.016,9.016,0,1,1,9.022,18.06a9.03,9.03,0,0,1-4.429-1.168" transform="translate(288.96 142.76)" fill="#fff"/>
        <path id="Path-12" data-name="Path" d="M5.1,17.158a9.019,9.019,0,1,1,3.924.9,9.029,9.029,0,0,1-3.924-.9" transform="translate(375.82 143.62)" fill="#fff"/>
        <path id="Path-13" data-name="Path" d="M1.168,13.466A9.026,9.026,0,1,1,16.892,4.6,9.026,9.026,0,1,1,1.168,13.466" transform="translate(87.72 148.78)" fill="#fff"/>
        <path id="Path-14" data-name="Path" d="M1.322,13.731A9.029,9.029,0,0,1,16.737,4.324,9.029,9.029,0,1,1,1.322,13.731" transform="translate(18.92 155.66)" fill="#fff"/>
        <path id="Path-15" data-name="Path" d="M4.594,16.9A9.033,9.033,0,1,1,9.019,18.06,9.02,9.02,0,0,1,4.594,16.9" transform="translate(313.9 156.52)" fill="#fff"/>
        <path id="Path-16" data-name="Path" d="M1.163,13.46a9.019,9.019,0,1,1,7.872,4.6,9.006,9.006,0,0,1-7.872-4.6" transform="translate(61.92 164.26)" fill="#fff"/>
        <path id="Path-17" data-name="Path" d="M3.569,16.222A9.034,9.034,0,1,1,9.024,18.06a9.021,9.021,0,0,1-5.455-1.838" transform="translate(361.2 167.7)" fill="#fff"/>
        <path id="Path-18" data-name="Path" d="M4.593,16.9A9.031,9.031,0,1,1,9.022,18.06,9.031,9.031,0,0,1,4.593,16.9" transform="translate(339.7 172)" fill="#fff"/>
        <path id="Path-19" data-name="Path" d="M0,9.857A9.043,9.043,0,0,1,5.41,1.6c.221-.155.453-.293.69-.426A9.225,9.225,0,0,1,18.593,4.609,8.913,8.913,0,0,1,19.78,9.015a9.051,9.051,0,0,1-4.666,7.933c-.243.133-.485.256-.734.368a9.231,9.231,0,0,1-5.211,1.6A9.115,9.115,0,0,1,0,9.857" transform="translate(35.26 178.02)" fill="#fff"/>
        <path id="Fill_4" data-name="Fill 4" d="M115.516,77.4a9.218,9.218,0,0,1-4.5-1.171L4.668,16.961A9.008,9.008,0,0,1,1.185,4.612a9.234,9.234,0,0,1,12.5-3.442l106.35,59.268a9.008,9.008,0,0,1,3.483,12.349,9.191,9.191,0,0,1-8,4.613" transform="translate(135.88 56.76)" fill="#5932ff"/>
        <path id="Clip_7" data-name="Clip 7" d="M0,0H114.38V73.96H0Z" transform="translate(35.26)" fill="none"/>
        <path id="Fill_6" data-name="Fill 6" d="M105.519,73.96,4.59,16.912A9.034,9.034,0,0,1,13.451,1.167L114.38,58.215Z" transform="translate(35.26)" fill="#5932ff"/>
        <path id="Fill_9" data-name="Fill 9" d="M44.937,196.94a9.02,9.02,0,0,1-6.71-2.987C16.037,169.326,2.833,140.477.04,110.522a9.036,9.036,0,1,1,17.992-1.684c2.227,23.88,12.187,47.087,28.912,67.514L356.887,1.168a9.021,9.021,0,0,1,11.145,1.819c25.35,28.134,38.749,61.151,38.749,95.483s-13.4,67.349-38.748,95.483a9.023,9.023,0,0,1-11.145,1.818l-15.7-8.812a9.055,9.055,0,0,1,8.829-15.812l9.3,5.206c19.257-23.485,29.392-50.274,29.392-77.884s-10.135-54.4-29.392-77.884L49.372,195.771a9,9,0,0,1-4.435,1.169" fill="#5932ff"/>
      </g>
    </g>
  </g>
</svg>
