<svg id="General-Entertainment-Authority-01" xmlns="http://www.w3.org/2000/svg" width="71.13" height="83.775" viewBox="0 0 71.13 83.775">
  <g id="Group" transform="translate(0 70.429)">
    <path id="Path" d="M2.256,1.814H1.982a.066.066,0,0,0-.06.036.17.17,0,0,0-.024.072V3.354c-.06.012-.143.012-.251.024a3.6,3.6,0,0,1-.382.012.911.911,0,0,1-.322-.06.544.544,0,0,1-.263-.2A1.255,1.255,0,0,1,.5,2.769a1.719,1.719,0,0,1-.06-.525V1.576a1.886,1.886,0,0,1,.072-.561A1.024,1.024,0,0,1,.7.657.613.613,0,0,1,.991.477,1.03,1.03,0,0,1,1.325.43H1.85a1.3,1.3,0,0,1,.215.012c.072,0,.143.012.215.012H2.3c.048,0,.06-.012.06-.048V.155A.091.091,0,0,0,2.34.1C2.328.084,2.3.084,2.28.072,2.184.06,2.065.036,1.91.024S1.564,0,1.337,0A1.654,1.654,0,0,0,.859.072,1.13,1.13,0,0,0,.43.322,1.275,1.275,0,0,0,.119.8,1.988,1.988,0,0,0,0,1.552V2.22a1.9,1.9,0,0,0,.119.728,1.258,1.258,0,0,0,.3.477,1.033,1.033,0,0,0,.418.263,1.28,1.28,0,0,0,.466.084c.239,0,.43-.012.585-.024s.286-.036.418-.048a.1.1,0,0,0,.1-.107V1.91a.17.17,0,0,0-.024-.072C2.3,1.826,2.28,1.814,2.256,1.814Z" transform="translate(0 8.631)" fill="#453d66"/>
    <path id="Shape" d="M1.122,2.829A1.585,1.585,0,0,1,.7,2.769a.866.866,0,0,1-.358-.191A1.053,1.053,0,0,1,.1,2.208,1.636,1.636,0,0,1,0,1.623V1.17A1.221,1.221,0,0,1,.287.31,1.081,1.081,0,0,1,1.11,0a1.171,1.171,0,0,1,.477.083.9.9,0,0,1,.346.239,1.156,1.156,0,0,1,.2.358,1.49,1.49,0,0,1,.072.477v.275c0,.069-.034.108-.1.108H.441v.072a.888.888,0,0,0,.179.633.715.715,0,0,0,.525.179c.147,0,.3,0,.466-.012a2.658,2.658,0,0,0,.319-.024l.1-.011h.012a.089.089,0,0,1,.06.012.092.092,0,0,1,.024.06v.191a.163.163,0,0,1-.023.069v0a.266.266,0,0,1-.081.035l-.02,0c-.135.022-.274.045-.411.057S1.287,2.829,1.122,2.829ZM1.11.382a.637.637,0,0,0-.5.191.914.914,0,0,0-.167.6v.047H1.767V1.17A.9.9,0,0,0,1.6.561.628.628,0,0,0,1.11.382Z" transform="translate(2.984 9.597)" fill="#453d66"/>
    <path id="Path-2" data-name="Path" d="M1.241,0A1.384,1.384,0,0,0,.836.06,1.855,1.855,0,0,0,.442.239v-.1A.17.17,0,0,0,.418.072.085.085,0,0,0,.346.036H.1A.1.1,0,0,0,.024.072.088.088,0,0,0,0,.143V2.686a.17.17,0,0,0,.024.072A.085.085,0,0,0,.1,2.793H.346a.1.1,0,0,0,.072-.036.1.1,0,0,0,.036-.072V.585A2.124,2.124,0,0,1,.8.442a1.1,1.1,0,0,1,.334-.06.794.794,0,0,1,.251.036.34.34,0,0,1,.167.107.36.36,0,0,1,.1.2,1.2,1.2,0,0,1,.036.322V2.686a.127.127,0,0,0,.107.107h.239a.127.127,0,0,0,.107-.107V1.039a1.266,1.266,0,0,0-.2-.764A.9.9,0,0,0,1.241,0Z" transform="translate(5.789 9.597)" fill="#453d66"/>
    <path id="Shape-2" data-name="Shape" d="M1.122,2.829A1.585,1.585,0,0,1,.7,2.769a.866.866,0,0,1-.358-.191A1.053,1.053,0,0,1,.1,2.208,1.636,1.636,0,0,1,0,1.623V1.17A1.221,1.221,0,0,1,.287.31,1.081,1.081,0,0,1,1.11,0a1.171,1.171,0,0,1,.477.083.9.9,0,0,1,.346.239A.938.938,0,0,1,2.125.68a1.5,1.5,0,0,1,.072.477v.275c0,.069-.034.108-.1.108H.43v.072a.888.888,0,0,0,.179.633.715.715,0,0,0,.525.179c.14,0,.3,0,.466-.012a2.665,2.665,0,0,0,.319-.024l.1-.011h.024a.089.089,0,0,1,.06.012.092.092,0,0,1,.024.06v.191a.163.163,0,0,1-.023.069v0a.266.266,0,0,1-.081.035l-.02,0c-.135.022-.274.045-.411.057S1.287,2.829,1.122,2.829ZM1.11.382a.621.621,0,0,0-.5.191.914.914,0,0,0-.167.6v.047H1.767V1.17A.9.9,0,0,0,1.6.561.628.628,0,0,0,1.11.382Z" transform="translate(8.487 9.597)" fill="#453d66"/>
    <path id="Path-3" data-name="Path" d="M1.134,0A1.241,1.241,0,0,0,.788.06,1.05,1.05,0,0,0,.43.251V.143A.17.17,0,0,0,.406.072.085.085,0,0,0,.334.036H.1A.1.1,0,0,0,.024.072.088.088,0,0,0,0,.143V2.686a.17.17,0,0,0,.024.072A.085.085,0,0,0,.1,2.793H.346a.1.1,0,0,0,.072-.036.1.1,0,0,0,.036-.072V.6A1.9,1.9,0,0,1,.812.43,1.03,1.03,0,0,1,1.146.382c.072,0,.107-.024.107-.084V.1A.108.108,0,0,0,1.134,0Z" transform="translate(11.293 9.597)" fill="#453d66"/>
    <path id="Shape-3" data-name="Shape" d="M.824,2.829a1.308,1.308,0,0,1-.31-.036.685.685,0,0,1-.263-.131.683.683,0,0,1-.179-.251A.968.968,0,0,1,0,2.017v-.06A1.069,1.069,0,0,1,.06,1.6a.575.575,0,0,1,.2-.251.963.963,0,0,1,.37-.155,2.46,2.46,0,0,1,.561-.048h.37v-.2A.611.611,0,0,0,1.444.5.577.577,0,0,0,1.026.382C.86.382.716.382.6.394A2.742,2.742,0,0,0,.262.418H.239A.108.108,0,0,1,.179.406C.168.406.155.383.155.346V.167c0-.056.03-.083.107-.1A2.516,2.516,0,0,1,.585.025H.6C.73.012.873,0,1.038,0a1.086,1.086,0,0,1,.776.251.971.971,0,0,1,.227.693V2.686a.126.126,0,0,1-.108.108H1.707A.126.126,0,0,1,1.6,2.686V2.578a2.119,2.119,0,0,1-.37.179A1.169,1.169,0,0,1,.824,2.829Zm.394-1.36a1.718,1.718,0,0,0-.37.024.559.559,0,0,0-.239.083.37.37,0,0,0-.119.155.607.607,0,0,0-.036.227v.06c0,.186.038.3.119.358a.534.534,0,0,0,.334.1,1.029,1.029,0,0,0,.334-.047,2.054,2.054,0,0,0,.334-.155h.012v-.8Z" transform="translate(12.773 9.597)" fill="#453d66"/>
    <path id="Path-4" data-name="Path" d="M.346,0H.084a.091.091,0,0,0-.06.024A.128.128,0,0,0,0,.1V3.653a.17.17,0,0,0,.024.072.066.066,0,0,0,.06.036H.346a.066.066,0,0,0,.06-.036A.17.17,0,0,0,.43,3.653V.084A.17.17,0,0,0,.406.012C.394,0,.382,0,.346,0Z" transform="translate(15.518 8.631)" fill="#453d66"/>
    <path id="Path-5" data-name="Path" d="M2.041.024c-.048,0-.119-.012-.2-.012S1.671,0,1.588,0H1.062a1.254,1.254,0,0,0-.8.215A.863.863,0,0,0,0,.931V2.853a.863.863,0,0,0,.263.716,1.254,1.254,0,0,0,.8.215h.525a1.934,1.934,0,0,0,.263-.012.849.849,0,0,0,.191-.012c.012,0,.024-.012.036-.024s.012-.024.012-.048V3.438a.056.056,0,0,0-.06-.06H1.062A2.233,2.233,0,0,1,.74,3.354a.32.32,0,0,1-.179-.1A.285.285,0,0,1,.477,3.1a1.231,1.231,0,0,1-.024-.239V2.017h1.54a.17.17,0,0,0,.072-.024A.1.1,0,0,0,2.1,1.922V1.731a.1.1,0,0,0-.036-.072.088.088,0,0,0-.072-.024H.454V.943A1.231,1.231,0,0,1,.477.7.369.369,0,0,1,.561.537.633.633,0,0,1,.74.442,1.264,1.264,0,0,1,1.062.418h.967a.056.056,0,0,0,.06-.06V.107A.072.072,0,0,0,2.077.06Q2.059.024,2.041.024Z" transform="translate(17.977 8.642)" fill="#453d66"/>
    <path id="Path-6" data-name="Path" d="M1.241,0A1.384,1.384,0,0,0,.836.06,1.855,1.855,0,0,0,.442.239v-.1A.17.17,0,0,0,.418.072.085.085,0,0,0,.346.036H.1A.1.1,0,0,0,.024.072.088.088,0,0,0,0,.143V2.686a.17.17,0,0,0,.024.072A.085.085,0,0,0,.1,2.793H.346a.1.1,0,0,0,.072-.036.1.1,0,0,0,.036-.072V.585A2.124,2.124,0,0,1,.8.442a1.1,1.1,0,0,1,.334-.06.794.794,0,0,1,.251.036.34.34,0,0,1,.167.107.36.36,0,0,1,.1.2,1.2,1.2,0,0,1,.036.322V2.686a.127.127,0,0,0,.107.107h.239a.127.127,0,0,0,.107-.107V1.039a1.266,1.266,0,0,0-.2-.764A.9.9,0,0,0,1.241,0Z" transform="translate(20.675 9.597)" fill="#453d66"/>
    <path id="Path-7" data-name="Path" d="M1.576,3.08H1.3a.354.354,0,0,1-.215-.06.394.394,0,0,1-.06-.263V1.015h.537A.1.1,0,0,0,1.635.979.1.1,0,0,0,1.671.907V.74A.1.1,0,0,0,1.635.668.1.1,0,0,0,1.564.633H1.027V.084A.091.091,0,0,0,1,.024.09.09,0,0,0,.955,0H.943L.68.036c-.06.012-.1.048-.1.1V.621H.1a.088.088,0,0,0-.1.1V.848C0,.9.036.931.1.943L.585,1V2.746a.9.9,0,0,0,.048.334.483.483,0,0,0,.119.2.52.52,0,0,0,.215.107,1.164,1.164,0,0,0,.3.024A.734.734,0,0,0,1.421,3.4c.06,0,.119-.012.167-.012s.1-.036.1-.084V3.128C1.671,3.1,1.647,3.08,1.576,3.08Z" transform="translate(23.146 8.977)" fill="#453d66"/>
    <path id="Shape-4" data-name="Shape" d="M1.122,2.829A1.585,1.585,0,0,1,.7,2.769a.866.866,0,0,1-.358-.191A1.053,1.053,0,0,1,.1,2.208,1.636,1.636,0,0,1,0,1.623V1.17A1.213,1.213,0,0,1,.287.31,1.081,1.081,0,0,1,1.11,0a1.171,1.171,0,0,1,.477.083.9.9,0,0,1,.346.239.83.83,0,0,1,.2.358,1.49,1.49,0,0,1,.072.477v.275c0,.069-.034.108-.1.108H.441v.072a.888.888,0,0,0,.179.633.715.715,0,0,0,.525.179c.147,0,.3,0,.466-.012a2.658,2.658,0,0,0,.319-.024l.1-.011h.012a.089.089,0,0,1,.06.012.092.092,0,0,1,.024.06v.191a.163.163,0,0,1-.023.069v0a.266.266,0,0,1-.081.035l-.02,0c-.135.022-.274.045-.411.057S1.287,2.829,1.122,2.829Zm0-2.447a.621.621,0,0,0-.5.191.917.917,0,0,0-.167.6v.047H1.779V1.17A.9.9,0,0,0,1.612.561.628.628,0,0,0,1.122.382Z" transform="translate(25.187 9.597)" fill="#453d66"/>
    <path id="Path-8" data-name="Path" d="M1.134,0A1.241,1.241,0,0,0,.788.06,1.05,1.05,0,0,0,.43.251V.143A.17.17,0,0,0,.406.072.085.085,0,0,0,.334.036H.1A.1.1,0,0,0,.024.072.088.088,0,0,0,0,.143V2.686a.17.17,0,0,0,.024.072A.085.085,0,0,0,.1,2.793H.346a.1.1,0,0,0,.072-.036.1.1,0,0,0,.036-.072V.6A1.9,1.9,0,0,1,.812.43,1.03,1.03,0,0,1,1.146.382c.072,0,.107-.024.107-.084V.1A.108.108,0,0,0,1.134,0Z" transform="translate(28.004 9.597)" fill="#453d66"/>
    <path id="Path-9" data-name="Path" d="M1.576,3.08H1.3a.354.354,0,0,1-.215-.06.394.394,0,0,1-.06-.263V1.015h.537A.1.1,0,0,0,1.635.979.1.1,0,0,0,1.671.907V.74A.1.1,0,0,0,1.635.668.1.1,0,0,0,1.564.633H1.027V.084A.091.091,0,0,0,1,.024.09.09,0,0,0,.955,0H.943L.68.036c-.06.012-.1.048-.1.1V.621H.1a.088.088,0,0,0-.1.1V.848C0,.9.036.931.1.943L.585,1V2.746a.9.9,0,0,0,.048.334.483.483,0,0,0,.119.2.52.52,0,0,0,.215.107,1.164,1.164,0,0,0,.3.024A.734.734,0,0,0,1.421,3.4c.06,0,.119-.012.167-.012s.1-.036.1-.084V3.128C1.683,3.1,1.647,3.08,1.576,3.08Z" transform="translate(29.497 8.977)" fill="#453d66"/>
    <path id="Shape-5" data-name="Shape" d="M.824,2.829a1.308,1.308,0,0,1-.31-.036.685.685,0,0,1-.263-.131.683.683,0,0,1-.179-.251A.968.968,0,0,1,0,2.017v-.06A1.069,1.069,0,0,1,.06,1.6a.575.575,0,0,1,.2-.251.963.963,0,0,1,.37-.155,2.46,2.46,0,0,1,.561-.048h.37v-.2A.611.611,0,0,0,1.444.5.577.577,0,0,0,1.026.382C.86.382.716.382.6.394A2.742,2.742,0,0,0,.262.418H.239A.108.108,0,0,1,.179.406C.168.406.155.383.155.346V.167c0-.056.03-.083.107-.1A2.516,2.516,0,0,1,.585.025H.6C.73.012.873,0,1.038,0A1.031,1.031,0,0,1,1.8.251a.971.971,0,0,1,.227.693V2.686a.1.1,0,0,1-.036.072.1.1,0,0,1-.072.036H1.695a.126.126,0,0,1-.107-.108V2.578a2.108,2.108,0,0,1-.37.179A1.054,1.054,0,0,1,.824,2.829Zm.394-1.36a1.718,1.718,0,0,0-.37.024.559.559,0,0,0-.239.083.37.37,0,0,0-.119.155.607.607,0,0,0-.036.227v.06a.46.46,0,0,0,.119.358.534.534,0,0,0,.334.1,1.029,1.029,0,0,0,.334-.047,2.054,2.054,0,0,0,.334-.155h.012v-.8Z" transform="translate(31.538 9.597)" fill="#453d66"/>
    <path id="Path-10" data-name="Path" d="M.346,0H.107A.1.1,0,0,0,.036.036.1.1,0,0,0,0,.107V2.65a.1.1,0,0,0,.036.072.1.1,0,0,0,.072.036H.346a.1.1,0,0,0,.072-.036A.1.1,0,0,0,.454,2.65V.1A.1.1,0,0,0,.418.024.17.17,0,0,0,.346,0Z" transform="translate(34.283 9.633)" fill="#453d66"/>
    <path id="Path-11" data-name="Path" d="M.358,0H.107A.1.1,0,0,0,.036.036.1.1,0,0,0,0,.107V.5A.1.1,0,0,0,.036.573.1.1,0,0,0,.107.609H.358A.1.1,0,0,0,.43.573.1.1,0,0,0,.466.5V.107A.1.1,0,0,0,.43.036.1.1,0,0,0,.358,0Z" transform="translate(34.283 8.595)" fill="#453d66"/>
    <path id="Path-12" data-name="Path" d="M1.241,0A1.384,1.384,0,0,0,.836.06,1.855,1.855,0,0,0,.442.239v-.1A.17.17,0,0,0,.418.072.085.085,0,0,0,.346.036H.1A.1.1,0,0,0,.024.072.088.088,0,0,0,0,.143V2.686a.17.17,0,0,0,.024.072A.085.085,0,0,0,.1,2.793H.346a.1.1,0,0,0,.072-.036.1.1,0,0,0,.036-.072V.585A2.124,2.124,0,0,1,.8.442a1.1,1.1,0,0,1,.334-.06.794.794,0,0,1,.251.036.34.34,0,0,1,.167.107.36.36,0,0,1,.1.2,1.2,1.2,0,0,1,.036.322V2.686a.127.127,0,0,0,.107.107h.239a.127.127,0,0,0,.107-.107V1.039a1.266,1.266,0,0,0-.2-.764A.9.9,0,0,0,1.241,0Z" transform="translate(35.465 9.597)" fill="#453d66"/>
    <path id="Path-13" data-name="Path" d="M3.08.2A.641.641,0,0,0,2.817.048.915.915,0,0,0,2.495,0a1.634,1.634,0,0,0-.406.048A1.762,1.762,0,0,0,1.671.2.454.454,0,0,0,1.456.048.722.722,0,0,0,1.17,0,1.051,1.051,0,0,0,.776.072,2.182,2.182,0,0,0,.442.239v-.1A.17.17,0,0,0,.418.072.085.085,0,0,0,.346.036H.1A.1.1,0,0,0,.024.072.088.088,0,0,0,0,.143V2.7a.17.17,0,0,0,.024.072.066.066,0,0,0,.06.036H.346a.066.066,0,0,0,.06-.036A.17.17,0,0,0,.43,2.7V.585L.752.442a.946.946,0,0,1,.3-.06.7.7,0,0,1,.167.024.248.248,0,0,1,.119.072.313.313,0,0,1,.072.155A1.52,1.52,0,0,1,1.432.9V2.7a.17.17,0,0,0,.024.072.066.066,0,0,0,.06.036h.263a.066.066,0,0,0,.06-.036A.17.17,0,0,0,1.862,2.7V.919A1.32,1.32,0,0,0,1.814.525a2.183,2.183,0,0,1,.3-.1A1.338,1.338,0,0,1,2.4.394a.921.921,0,0,1,.179.024A.286.286,0,0,1,2.722.5a.44.44,0,0,1,.1.167.82.82,0,0,1,.036.263V2.7a.127.127,0,0,0,.107.107H3.2A.127.127,0,0,0,3.307,2.7V.931a1.518,1.518,0,0,0-.06-.442A.675.675,0,0,0,3.08.2Z" transform="translate(38.247 9.586)" fill="#453d66"/>
    <path id="Shape-6" data-name="Shape" d="M1.122,2.829A1.585,1.585,0,0,1,.7,2.769a.866.866,0,0,1-.358-.191A1.053,1.053,0,0,1,.1,2.208,1.636,1.636,0,0,1,0,1.623V1.17A1.221,1.221,0,0,1,.287.31,1.081,1.081,0,0,1,1.11,0a1.171,1.171,0,0,1,.477.083.9.9,0,0,1,.346.239A.8.8,0,0,1,2.125.68a1.5,1.5,0,0,1,.072.477v.275c0,.069-.034.108-.1.108H.43v.072a.888.888,0,0,0,.179.633.715.715,0,0,0,.525.179c.14,0,.3,0,.466-.012a2.665,2.665,0,0,0,.319-.024l.1-.011h.024a.089.089,0,0,1,.06.012.092.092,0,0,1,.024.06v.191a.163.163,0,0,1-.023.069v0a.266.266,0,0,1-.081.035l-.02,0c-.135.022-.274.045-.411.057S1.287,2.829,1.122,2.829ZM1.11.382a.637.637,0,0,0-.5.191.914.914,0,0,0-.167.6v.047H1.767V1.17A.9.9,0,0,0,1.6.561.628.628,0,0,0,1.11.382Z" transform="translate(42.15 9.597)" fill="#453d66"/>
    <path id="Path-14" data-name="Path" d="M1.241,0A1.384,1.384,0,0,0,.836.06,1.855,1.855,0,0,0,.442.239v-.1A.17.17,0,0,0,.418.072.085.085,0,0,0,.346.036H.1A.1.1,0,0,0,.024.072.088.088,0,0,0,0,.143V2.686a.17.17,0,0,0,.024.072A.085.085,0,0,0,.1,2.793H.346a.1.1,0,0,0,.072-.036.1.1,0,0,0,.036-.072V.585A2.124,2.124,0,0,1,.8.442a1.1,1.1,0,0,1,.334-.06.794.794,0,0,1,.251.036.34.34,0,0,1,.167.107.36.36,0,0,1,.1.2,1.2,1.2,0,0,1,.036.322V2.686a.127.127,0,0,0,.107.107h.239a.127.127,0,0,0,.107-.107V1.039a1.266,1.266,0,0,0-.2-.764A.881.881,0,0,0,1.241,0Z" transform="translate(44.955 9.597)" fill="#453d66"/>
    <path id="Path-15" data-name="Path" d="M1.576,3.08H1.3a.354.354,0,0,1-.215-.06.394.394,0,0,1-.06-.263V1.015h.537A.1.1,0,0,0,1.635.979.1.1,0,0,0,1.671.907V.74A.1.1,0,0,0,1.635.668.1.1,0,0,0,1.564.633H1.027V.084A.091.091,0,0,0,1,.024.09.09,0,0,0,.955,0H.943L.68.036c-.06.012-.1.048-.1.1V.621H.1a.088.088,0,0,0-.1.1V.848C0,.9.036.931.1.943L.585,1V2.746a.9.9,0,0,0,.048.334.483.483,0,0,0,.119.2.52.52,0,0,0,.215.107,1.164,1.164,0,0,0,.3.024A.734.734,0,0,0,1.421,3.4c.06,0,.119-.012.167-.012s.1-.036.1-.084V3.128C1.683,3.1,1.647,3.08,1.576,3.08Z" transform="translate(47.426 8.977)" fill="#453d66"/>
    <path id="Shape-7" data-name="Shape" d="M2.805,3.76h-.3a.092.092,0,0,1-.06-.024A.055.055,0,0,1,2.418,3.7l-.007-.015L2.089,2.543H.8L.477,3.689a.165.165,0,0,0-.018.023.17.17,0,0,1-.018.024l-.017.009a.079.079,0,0,1-.043.014h-.3A.075.075,0,0,1,0,3.677V3.641L.919.382A.407.407,0,0,1,1,.191L1.038.154a.367.367,0,0,1,.1-.083l.005,0A.719.719,0,0,1,1.277.012.591.591,0,0,1,1.421,0a.588.588,0,0,1,.143.012A.712.712,0,0,1,1.7.069l.005,0,.005,0a.62.62,0,0,1,.126.115.72.72,0,0,1,.083.191l.967,3.259v.036C2.889,3.737,2.865,3.76,2.805,3.76ZM1.409.394c-.048,0-.084.036-.1.1L.859,2.137h1.1L1.5.489C1.492.43,1.457.394,1.409.394Z" transform="translate(50.637 8.631)" fill="#453d66"/>
    <path id="Path-16" data-name="Path" d="M2.041.012H1.791a.1.1,0,0,0-.072.036.1.1,0,0,0-.036.072v2.1a2.124,2.124,0,0,1-.346.143A1.1,1.1,0,0,1,1,2.423a.794.794,0,0,1-.251-.036A.4.4,0,0,1,.585,2.28a.36.36,0,0,1-.1-.2,2.025,2.025,0,0,1-.036-.322V.107A.1.1,0,0,0,.418.036.1.1,0,0,0,.346,0H.107A.1.1,0,0,0,.036.036.1.1,0,0,0,0,.107V1.755a1.266,1.266,0,0,0,.2.764.788.788,0,0,0,.657.275,1.384,1.384,0,0,0,.406-.06,1.855,1.855,0,0,0,.394-.179v.1a.17.17,0,0,0,.024.072.085.085,0,0,0,.072.036h.251a.1.1,0,0,0,.072-.036A.088.088,0,0,0,2.1,2.65V.1A.17.17,0,0,0,2.077.024C2.089.024,2.065.012,2.041.012Z" transform="translate(53.896 9.621)" fill="#453d66"/>
    <path id="Path-17" data-name="Path" d="M1.576,3.08H1.3a.354.354,0,0,1-.215-.06.394.394,0,0,1-.06-.263V1.015h.537A.1.1,0,0,0,1.635.979.1.1,0,0,0,1.671.907V.74A.1.1,0,0,0,1.635.668.1.1,0,0,0,1.564.633H1.027V.084A.091.091,0,0,0,1,.024.09.09,0,0,0,.955,0H.931L.668.036c-.06.012-.1.048-.1.1V.621H.1a.088.088,0,0,0-.1.1V.848C0,.9.036.931.1.943L.585,1V2.746a.9.9,0,0,0,.048.334.483.483,0,0,0,.119.2.52.52,0,0,0,.215.107,1.164,1.164,0,0,0,.3.024A.734.734,0,0,0,1.421,3.4c.06,0,.119-.012.167-.012s.1-.036.1-.084V3.128C1.683,3.1,1.647,3.08,1.576,3.08Z" transform="translate(56.486 8.977)" fill="#453d66"/>
    <path id="Path-18" data-name="Path" d="M1.85,1.23a.926.926,0,0,0-.286-.191,1.144,1.144,0,0,0-.37-.06,2.259,2.259,0,0,0-.37.036,1.378,1.378,0,0,0-.394.119V.107A.17.17,0,0,0,.406.036.085.085,0,0,0,.334,0H.1A.1.1,0,0,0,.024.036.088.088,0,0,0,0,.107V3.665a.17.17,0,0,0,.024.072A.085.085,0,0,0,.1,3.772H.346a.1.1,0,0,0,.072-.036.1.1,0,0,0,.036-.072V1.5a.629.629,0,0,1,.179-.06A1.118,1.118,0,0,1,.824,1.4.921.921,0,0,1,1,1.373c.06,0,.107-.012.143-.012A.532.532,0,0,1,1.54,1.5a.713.713,0,0,1,.143.513V3.665a.127.127,0,0,0,.107.107h.239a.127.127,0,0,0,.107-.107V2.017a1.861,1.861,0,0,0-.06-.477A2.328,2.328,0,0,0,1.85,1.23Z" transform="translate(58.635 8.619)" fill="#453d66"/>
    <path id="Shape-8" data-name="Shape" d="M1.11,2.817a1.209,1.209,0,0,1-.477-.083,1.024,1.024,0,0,1-.346-.251A1,1,0,0,1,.072,2.1,1.7,1.7,0,0,1,0,1.6V1.217a1.7,1.7,0,0,1,.072-.5A1.082,1.082,0,0,1,.287.334.922.922,0,0,1,.633.083,1.168,1.168,0,0,1,1.11,0,1.23,1.23,0,0,1,1.6.083a1.028,1.028,0,0,1,.346.251,1.088,1.088,0,0,1,.215.382,1.7,1.7,0,0,1,.072.5V1.6a1.7,1.7,0,0,1-.072.5,1.092,1.092,0,0,1-.215.382.934.934,0,0,1-.346.251A1.263,1.263,0,0,1,1.11,2.817Zm0-2.435A.6.6,0,0,0,.6.609a1,1,0,0,0-.155.609V1.6A1.044,1.044,0,0,0,.6,2.208a.575.575,0,0,0,.513.227.6.6,0,0,0,.513-.227A1,1,0,0,0,1.791,1.6H1.779V1.217A1.044,1.044,0,0,0,1.623.609.575.575,0,0,0,1.11.382Z" transform="translate(61.321 9.597)" fill="#453d66"/>
    <path id="Path-19" data-name="Path" d="M1.134,0A1.241,1.241,0,0,0,.788.06,1.05,1.05,0,0,0,.43.251V.143A.17.17,0,0,0,.406.072.085.085,0,0,0,.334.036H.1A.1.1,0,0,0,.024.072.088.088,0,0,0,0,.143V2.686a.17.17,0,0,0,.024.072A.085.085,0,0,0,.1,2.793H.346a.1.1,0,0,0,.072-.036.1.1,0,0,0,.036-.072V.6A1.9,1.9,0,0,1,.812.43,1.03,1.03,0,0,1,1.146.382c.072,0,.107-.024.107-.084V.1A.108.108,0,0,0,1.134,0Z" transform="translate(64.138 9.597)" fill="#453d66"/>
    <path id="Path-20" data-name="Path" d="M.346,0H.107A.1.1,0,0,0,.036.036.1.1,0,0,0,0,.107V2.65a.1.1,0,0,0,.036.072.1.1,0,0,0,.072.036H.346a.1.1,0,0,0,.072-.036A.1.1,0,0,0,.454,2.65V.1A.1.1,0,0,0,.418.024.17.17,0,0,0,.346,0Z" transform="translate(65.905 9.633)" fill="#453d66"/>
    <path id="Path-21" data-name="Path" d="M.358,0H.107A.1.1,0,0,0,.036.036.1.1,0,0,0,0,.107V.5A.1.1,0,0,0,.036.573.1.1,0,0,0,.107.609H.358A.1.1,0,0,0,.43.573.1.1,0,0,0,.466.5V.107A.1.1,0,0,0,.43.036.072.072,0,0,0,.358,0Z" transform="translate(65.893 8.595)" fill="#453d66"/>
    <path id="Path-22" data-name="Path" d="M1.564,3.08H1.289a.354.354,0,0,1-.215-.06.394.394,0,0,1-.06-.263V1.015h.537A.1.1,0,0,0,1.623.979.1.1,0,0,0,1.659.907V.74A.1.1,0,0,0,1.623.668.1.1,0,0,0,1.552.633H1.015V.084A.091.091,0,0,0,.991.024.09.09,0,0,0,.943,0H.931L.668.036c-.06.012-.1.048-.1.1V.621H.1a.088.088,0,0,0-.1.1V.848C0,.9.036.931.1.943L.585,1V2.746a.9.9,0,0,0,.048.334.483.483,0,0,0,.119.2.52.52,0,0,0,.215.107,1.164,1.164,0,0,0,.3.024A.734.734,0,0,0,1.421,3.4c.06,0,.119-.012.167-.012s.1-.036.1-.084V3.128C1.671,3.1,1.635,3.08,1.564,3.08Z" transform="translate(66.872 8.977)" fill="#453d66"/>
    <path id="Path-23" data-name="Path" d="M2.208.012H1.934a.091.091,0,0,0-.06.024c-.012.012-.024.036-.036.048L1.23,2.364H1.146A.072.072,0,0,1,1.1,2.352a.229.229,0,0,1-.048-.1L.466.084A.159.159,0,0,0,.43.024.09.09,0,0,0,.382,0H.107c-.06,0-.1.024-.1.084V.119L.68,2.4a.919.919,0,0,0,.072.179.42.42,0,0,0,.084.107.357.357,0,0,0,.1.048.33.33,0,0,0,.107.012H1.11l-.048.2a2.254,2.254,0,0,1-.072.215.374.374,0,0,1-.1.131.262.262,0,0,1-.143.06.906.906,0,0,1-.191.012,1.69,1.69,0,0,1-.227-.012c-.1-.012-.167-.012-.227-.024H.1c-.06,0-.1.024-.1.084v.179a.066.066,0,0,0,.036.06.17.17,0,0,0,.072.024c.048.012.119.024.2.036a1.522,1.522,0,0,0,.227.012A1.507,1.507,0,0,0,.9,3.689a.632.632,0,0,0,.251-.131.538.538,0,0,0,.167-.227,2.679,2.679,0,0,0,.131-.346L2.268.107V.072C2.292.048,2.268.012,2.208.012Z" transform="translate(68.853 9.621)" fill="#453d66"/>
    <path id="Path-24" data-name="Path" d="M.442,0H.167A.153.153,0,0,0,.048.048.13.13,0,0,0,0,.155V.537A.146.146,0,0,0,.048.645.153.153,0,0,0,.167.692H.442A.116.116,0,0,0,.549.645.13.13,0,0,0,.6.537V.155A.116.116,0,0,0,.549.048.146.146,0,0,0,.442,0Z" transform="translate(7.819 5.98)" fill="#453d66"/>
    <path id="Path-25" data-name="Path" d="M.454.692A.116.116,0,0,0,.561.645.13.13,0,0,0,.609.537V.155A.116.116,0,0,0,.561.048.212.212,0,0,0,.442,0H.167A.153.153,0,0,0,.048.048.13.13,0,0,0,0,.155V.537A.146.146,0,0,0,.048.645.153.153,0,0,0,.167.692Z" transform="translate(6.649 5.969)" fill="#453d66"/>
    <path id="Path-26" data-name="Path" d="M.155.692h.3A.153.153,0,0,0,.573.645.116.116,0,0,0,.621.537V.155A.116.116,0,0,0,.573.048.214.214,0,0,0,.466,0H.155A.116.116,0,0,0,.048.048.13.13,0,0,0,0,.155V.537A.13.13,0,0,0,.048.645.116.116,0,0,0,.155.692Z" transform="translate(10.302 0.573)" fill="#453d66"/>
    <path id="Shape-9" data-name="Shape" d="M11.042,3.283H8.4a2.187,2.187,0,0,1-.466-.048.89.89,0,0,1-.418-.191.962.962,0,0,1-.418.191,2.045,2.045,0,0,1-.441.048H3.2a1.4,1.4,0,0,1-.537-.1.646.646,0,0,1-.323-.322.676.676,0,0,1-.37.227,1.972,1.972,0,0,1-.549.072h-.06a1.362,1.362,0,0,1-1-.358A1.412,1.412,0,0,1,0,1.767V1.588A1.826,1.826,0,0,1,.131.872,1.254,1.254,0,0,1,.513.394,1.6,1.6,0,0,1,1.086.119a2.9,2.9,0,0,1,.74-.083c.027,0,.058,0,.09.005s.08.007.125.007.081.009.119.012.078.006.12.012c.071.01.133.02.193.03l.034.006c.071.012.131.024.179.036s.072.025.083.048.012.048.012.084V2.256a.421.421,0,0,0,.131.358.6.6,0,0,0,.358.083H6.744a.6.6,0,0,0,.069-.005A.718.718,0,0,1,6.9,2.686c.059-.012.119-.024.167-.036A.49.49,0,0,0,7.2,2.566a.189.189,0,0,0,.047-.143V.573a.137.137,0,0,1,.036-.1.137.137,0,0,1,.1-.036H7.7a.137.137,0,0,1,.1.036.135.135,0,0,1,.036.1V2.507a.142.142,0,0,0,.084.083.387.387,0,0,0,.143.048l.029.006a.65.65,0,0,0,.139.018.588.588,0,0,0,.143.012H9.3a1.247,1.247,0,0,1-.227-.394,1.7,1.7,0,0,1-.083-.6V1.516a1.454,1.454,0,0,1,.43-1.11A1.641,1.641,0,0,1,10.612,0c.191,0,.385.012.573.024a3.516,3.516,0,0,1,.478.084c.052.013.084.025.1.048a.139.139,0,0,1,.024.083V2.626c0,.05,0,.1-.006.14s-.006.082-.006.122,0,.084-.006.123-.006.07-.006.1a.142.142,0,0,1-.143.131A4.888,4.888,0,0,1,11.042,3.283ZM10.564.549A1.008,1.008,0,0,0,9.824.8a.978.978,0,0,0-.251.729v.155a1.124,1.124,0,0,0,.227.74.84.84,0,0,0,.693.262h.358a2.945,2.945,0,0,0,.334-.012V.585h-.009A2.26,2.26,0,0,0,10.9.561,3.025,3.025,0,0,0,10.564.549ZM1.743.585a2.759,2.759,0,0,0-.466.048A1.066,1.066,0,0,0,.919.788a.854.854,0,0,0-.239.3A1.035,1.035,0,0,0,.6,1.552v.143a1,1,0,0,0,.191.657.77.77,0,0,0,.645.239h.131a1.316,1.316,0,0,0,.215-.012.97.97,0,0,0,.2-.06A.468.468,0,0,0,2.125,2.4a.33.33,0,0,0,.06-.191H2.2V.621l-.037,0A1.8,1.8,0,0,0,1.946.6,1.25,1.25,0,0,0,1.743.585Z" transform="translate(0.107 2.041)" fill="#453d66"/>
    <path id="Path-27" data-name="Path" d="M.179.692H.454A.116.116,0,0,0,.561.645.116.116,0,0,0,.609.537V.155A.116.116,0,0,0,.561.048.212.212,0,0,0,.442,0H.167A.153.153,0,0,0,.048.048.13.13,0,0,0,0,.155V.537A.13.13,0,0,0,.048.645.294.294,0,0,0,.179.692Z" transform="translate(16.163 0.871)" fill="#453d66"/>
    <path id="Path-28" data-name="Path" d="M.167.692H.442A.116.116,0,0,0,.549.645.116.116,0,0,0,.6.537V.155A.116.116,0,0,0,.549.048.214.214,0,0,0,.442,0H.167A.153.153,0,0,0,.048.048.13.13,0,0,0,0,.155V.537A.13.13,0,0,0,.048.645.252.252,0,0,0,.167.692Z" transform="translate(17.333 0.871)" fill="#453d66"/>
    <path id="Path-29" data-name="Path" d="M8.762,5.276c.084-.012.167-.012.227-.024a.582.582,0,0,0,.167-.036c.06-.024.1-.048.107-.084a.357.357,0,0,0,.048-.119c.012-.06.012-.119.024-.191s.012-.143.012-.215V.131a.136.136,0,0,0-.036-.1A.136.136,0,0,0,9.215,0H8.869a.136.136,0,0,0-.1.036.136.136,0,0,0-.036.1v4.3c0,.119-.012.191-.048.215a.57.57,0,0,1-.263.036H7.795a.581.581,0,0,1-.143-.012.806.806,0,0,1-.167-.024A.4.4,0,0,1,7.341,4.6a.143.143,0,0,1-.084-.084V.131a.136.136,0,0,0-.036-.1A.136.136,0,0,0,7.126,0H6.78a.136.136,0,0,0-.1.036.136.136,0,0,0-.036.1v4.3a.19.19,0,0,1-.048.143.493.493,0,0,1-.131.084c-.048.012-.107.024-.167.036S6.2,4.7,6.148,4.7h-.43a.581.581,0,0,1-.143-.012.806.806,0,0,1-.167-.024.4.4,0,0,1-.143-.048.143.143,0,0,1-.084-.084V2.578a.123.123,0,0,0-.131-.131H4.727a.123.123,0,0,0-.131.131v1.85a.19.19,0,0,1-.048.143.493.493,0,0,1-.131.084c-.048.012-.107.024-.167.036s-.107.012-.155.012H1.647V2.578a.136.136,0,0,0-.036-.1.108.108,0,0,0-.084-.036H1.182a.123.123,0,0,0-.131.131V5.706a1.546,1.546,0,0,1-.036.37.357.357,0,0,1-.131.2.481.481,0,0,1-.239.1A3.084,3.084,0,0,1,.263,6.4H.119c-.084,0-.119.036-.119.1v.3a.1.1,0,0,0,.024.072.262.262,0,0,0,.1.036c.048.012.107.012.191.024s.131.012.155.012a1.959,1.959,0,0,0,.657-.1.792.792,0,0,0,.394-.346,1.222,1.222,0,0,0,.107-.334,2.318,2.318,0,0,0,.024-.418V5.288H4.011a2.068,2.068,0,0,0,.442-.048.962.962,0,0,0,.418-.191.9.9,0,0,0,.418.191,2.2,2.2,0,0,0,.466.048h.358a2.068,2.068,0,0,0,.442-.048.962.962,0,0,0,.418-.191.745.745,0,0,0,.191.119.72.72,0,0,0,.227.072l.239.036a1.522,1.522,0,0,0,.227.012h.692C8.595,5.288,8.678,5.276,8.762,5.276Z" transform="translate(12.2 0.036)" fill="#453d66"/>
    <path id="Path-30" data-name="Path" d="M.167.692H.442A.116.116,0,0,0,.549.645.116.116,0,0,0,.6.537V.155A.116.116,0,0,0,.549.048.214.214,0,0,0,.442,0H.167A.153.153,0,0,0,.048.048.13.13,0,0,0,0,.155V.537A.13.13,0,0,0,.048.645.212.212,0,0,0,.167.692Z" transform="translate(26.059 0.597)" fill="#453d66"/>
    <path id="Path-31" data-name="Path" d="M.167.692H.442A.116.116,0,0,0,.549.645.116.116,0,0,0,.6.537V.155A.116.116,0,0,0,.549.048.212.212,0,0,0,.43,0H.167A.153.153,0,0,0,.048.048.13.13,0,0,0,0,.155V.537A.13.13,0,0,0,.048.645.212.212,0,0,0,.167.692Z" transform="translate(24.901 0.597)" fill="#453d66"/>
    <path id="Shape-10" data-name="Shape" d="M10.211,3.355h-.065a2.048,2.048,0,0,1-.693-.108,1,1,0,0,1-.477-.334.662.662,0,0,1-.37.262,1.832,1.832,0,0,1-.537.072H3.2a1.4,1.4,0,0,1-.537-.1.646.646,0,0,1-.323-.323.676.676,0,0,1-.37.227,1.972,1.972,0,0,1-.549.072h-.06a1.362,1.362,0,0,1-1-.358A1.412,1.412,0,0,1,0,1.731V1.552A1.826,1.826,0,0,1,.131.836,1.257,1.257,0,0,1,.513.358,1.6,1.6,0,0,1,1.086.083,2.9,2.9,0,0,1,1.827,0c.027,0,.058,0,.09.005s.08.007.125.007.079.009.117.011.084.006.122.013c.084.012.157.024.227.036s.128.023.179.036.072.025.083.048.012.048.012.083V2.22a.421.421,0,0,0,.131.358.6.6,0,0,0,.358.084H8.165a.435.435,0,0,0,.056-.005A.548.548,0,0,1,8.3,2.65a.373.373,0,0,0,.155-.036.275.275,0,0,0,.143-.072.2.2,0,0,0,.083-.132.926.926,0,0,0,.024-.2v-.68A1.549,1.549,0,0,1,9.084.418,1.438,1.438,0,0,1,10.17.024a1.405,1.405,0,0,1,1.062.382,1.558,1.558,0,0,1,.358,1.11v.358a1.6,1.6,0,0,1-.334,1.11A1.316,1.316,0,0,1,10.211,3.355ZM10.183.573a.814.814,0,0,0-.669.262,1.2,1.2,0,0,0-.2.74v.311a1.954,1.954,0,0,0,.024.394.561.561,0,0,0,.3.418,1.136,1.136,0,0,0,.537.108.853.853,0,0,0,.657-.227,1.088,1.088,0,0,0,.191-.74V1.576a1.3,1.3,0,0,0-.191-.74A.712.712,0,0,0,10.183.573ZM1.767.561A2.793,2.793,0,0,0,1.3.609,1.059,1.059,0,0,0,.943.764a.85.85,0,0,0-.239.3,1.048,1.048,0,0,0-.084.466v.143a1,1,0,0,0,.191.657.769.769,0,0,0,.644.239h.132A1.311,1.311,0,0,0,1.8,2.555a1.009,1.009,0,0,0,.2-.06.476.476,0,0,0,.143-.119.327.327,0,0,0,.06-.191H2.22V.6l-.034,0A1.817,1.817,0,0,0,1.97.573,1.2,1.2,0,0,0,1.767.561Z" transform="translate(24.28 2.065)" fill="#453d66"/>
    <path id="Shape-11" data-name="Shape" d="M7.389,5.312H.919a1.837,1.837,0,0,1-.394-.036.651.651,0,0,1-.287-.143A.618.618,0,0,1,.06,4.858,1.512,1.512,0,0,1,0,4.417V.143a.133.133,0,0,1,.036-.1A.108.108,0,0,1,.131,0H.477a.15.15,0,0,1,.1.048.135.135,0,0,1,.036.1V4.286a.6.6,0,0,0,.036.227.329.329,0,0,0,.1.119.266.266,0,0,0,.144.06,1.106,1.106,0,0,0,.2.012H3.88l-.668-1.7a.084.084,0,0,0,0-.02.145.145,0,0,1-.007-.04v-.06l.012-.2c0-.053.039-.112.119-.179a1.667,1.667,0,0,1,.287-.191,1.6,1.6,0,0,1,.358-.144l.012,0a3.966,3.966,0,0,1,.394-.092A2.358,2.358,0,0,1,4.8,2.041a2.583,2.583,0,0,1,.633.084,1.385,1.385,0,0,1,.5.239,1.3,1.3,0,0,1,.323.43,1.449,1.449,0,0,1,.119.621v.131a1.681,1.681,0,0,1-.036.346,1.56,1.56,0,0,1-.1.334,1.656,1.656,0,0,1-.155.287.8.8,0,0,1-.191.2H7.318a.563.563,0,0,0,.262-.036c.034-.022.048-.086.048-.215V.167a.137.137,0,0,1,.036-.1.137.137,0,0,1,.1-.036h.346a.135.135,0,0,1,.1.036.135.135,0,0,1,.036.1V4.644c0,.036,0,.072-.006.107s-.006.072-.006.107-.008.064-.011.093a.91.91,0,0,1-.013.1.366.366,0,0,1-.047.119.176.176,0,0,1-.108.072.348.348,0,0,1-.114.028l-.053.008a.981.981,0,0,1-.115.013c-.036,0-.074.006-.112.011s-.08,0-.122.006S7.438,5.312,7.389,5.312ZM4.8,2.59a2.6,2.6,0,0,0-.477.048,1.462,1.462,0,0,0-.549.227l.716,1.85h.525a.892.892,0,0,0,.573-.406,1.418,1.418,0,0,0,.2-.752v-.1a.788.788,0,0,0-.262-.668A1.209,1.209,0,0,0,4.8,2.59Z" transform="translate(36.969 0)" fill="#453d66"/>
    <path id="Path-32" data-name="Path" d="M.131,5.312H.477a.109.109,0,0,0,.1-.048.136.136,0,0,0,.036-.1V.143a.136.136,0,0,0-.036-.1A.147.147,0,0,0,.477,0H.131a.109.109,0,0,0-.1.048A.136.136,0,0,0,0,.143V5.169a.136.136,0,0,0,.036.1A.109.109,0,0,0,.131,5.312Z" transform="translate(46.4 0.012)" fill="#453d66"/>
    <path id="Path-33" data-name="Path" d="M.167.692H.442A.116.116,0,0,0,.549.645.116.116,0,0,0,.6.537V.155A.116.116,0,0,0,.549.048.214.214,0,0,0,.442,0H.167A.153.153,0,0,0,.048.048.13.13,0,0,0,0,.155V.537A.13.13,0,0,0,.048.645.252.252,0,0,0,.167.692Z" transform="translate(51.58 0.597)" fill="#453d66"/>
    <path id="Path-34" data-name="Path" d="M.179.692H.454A.116.116,0,0,0,.561.645.116.116,0,0,0,.609.537V.155A.116.116,0,0,0,.561.048.212.212,0,0,0,.442,0H.167A.153.153,0,0,0,.048.048.13.13,0,0,0,0,.155V.537A.13.13,0,0,0,.048.645.294.294,0,0,0,.179.692Z" transform="translate(50.41 0.597)" fill="#453d66"/>
    <path id="Path-35" data-name="Path" d="M.143,1.253H1.1c.036,0,.072,0,.084-.012a.072.072,0,0,0,.036-.072V1.062C1.218,1,1.182.979,1.1.979H.621A.358.358,0,0,1,.513.859.473.473,0,0,1,.466.621C.466.406.585.3.836.3H1.05c.06,0,.1-.024.1-.072V.119c0-.036-.024-.072-.084-.084S.967.024.919.012.836,0,.788,0A.748.748,0,0,0,.3.143a.511.511,0,0,0-.167.43A1.315,1.315,0,0,0,.155.788a.574.574,0,0,0,.1.191H.131C.048.979,0,1,0,1.05V1.17C.024,1.23.06,1.253.143,1.253Z" transform="translate(56.677 0.346)" fill="#453d66"/>
    <path id="Path-36" data-name="Path" d="M.454.692A.116.116,0,0,0,.561.645.13.13,0,0,0,.609.537V.155A.116.116,0,0,0,.561.048.212.212,0,0,0,.442,0H.167A.153.153,0,0,0,.048.048.13.13,0,0,0,0,.155V.537A.146.146,0,0,0,.048.645.153.153,0,0,0,.167.692Z" transform="translate(59.9 5.969)" fill="#453d66"/>
    <path id="Path-37" data-name="Path" d="M.561.645A.13.13,0,0,0,.609.537V.155A.116.116,0,0,0,.561.048.214.214,0,0,0,.454,0H.167A.153.153,0,0,0,.048.048.13.13,0,0,0,0,.155V.537A.146.146,0,0,0,.048.645.153.153,0,0,0,.167.692H.442A.357.357,0,0,0,.561.645Z" transform="translate(61.07 5.98)" fill="#453d66"/>
    <path id="Shape-12" data-name="Shape" d="M15.745,7.067a1.861,1.861,0,0,1-.681-.107,1.053,1.053,0,0,1-.43-.311,1.226,1.226,0,0,1-.227-.489,2.693,2.693,0,0,1-.072-.645V5.288H11.961A2.206,2.206,0,0,1,11.5,5.24a.9.9,0,0,1-.418-.191.974.974,0,0,1-.418.191,2.1,2.1,0,0,1-.442.048h-1.8A2.214,2.214,0,0,1,7.95,5.24a.9.9,0,0,1-.418-.191.973.973,0,0,1-.418.191,2.1,2.1,0,0,1-.441.048H3.2a1.4,1.4,0,0,1-.537-.1.647.647,0,0,1-.323-.322.674.674,0,0,1-.37.226,1.972,1.972,0,0,1-.549.072h-.06a1.362,1.362,0,0,1-1-.358A1.413,1.413,0,0,1,0,3.772V3.593a1.829,1.829,0,0,1,.131-.716A1.257,1.257,0,0,1,.513,2.4a1.6,1.6,0,0,1,.573-.274,2.9,2.9,0,0,1,.74-.084c.027,0,.058,0,.09.005s.08.007.125.007.082.009.122.012.08.006.117.012c.084.012.157.024.227.036s.133.025.179.036.072.025.083.048a.132.132,0,0,0,0,.021.3.3,0,0,1,.009.062V4.261a.421.421,0,0,0,.131.358.6.6,0,0,0,.358.084H6.744A.6.6,0,0,0,6.813,4.7.718.718,0,0,1,6.9,4.691l.028-.006c.051-.01.1-.02.139-.03A.5.5,0,0,0,7.2,4.572a.19.19,0,0,0,.047-.144V2.578a.136.136,0,0,1,.036-.1.134.134,0,0,1,.1-.036H7.7a.123.123,0,0,1,.131.131V4.536a.142.142,0,0,0,.084.083.387.387,0,0,0,.143.048l.029.006a.65.65,0,0,0,.139.018.588.588,0,0,0,.143.012h1.9a.6.6,0,0,0,.069-.005.718.718,0,0,1,.086-.006l.028-.006c.051-.01.1-.02.139-.03a.5.5,0,0,0,.132-.083.19.19,0,0,0,.047-.144V2.578a.136.136,0,0,1,.036-.1.134.134,0,0,1,.1-.036h.322a.123.123,0,0,1,.131.131V4.5a.143.143,0,0,0,.084.084.412.412,0,0,0,.143.048l.025.005a.673.673,0,0,0,.142.019.588.588,0,0,0,.143.012h2.387V2.316c0-.093.058-.155.167-.179a2.789,2.789,0,0,1,.477-.084c.176-.012.349-.024.525-.024a1.93,1.93,0,0,1,1.182.334,1.292,1.292,0,0,1,.43,1.074v.107a2.092,2.092,0,0,1-.251,1.062,1.266,1.266,0,0,1-.776.585,1.374,1.374,0,0,1-.251.048c-.054.006-.105.009-.155.012s-.1.006-.155.012-.108,0-.161.006-.108.006-.161.006h-.3v.179a1.487,1.487,0,0,0,.167.788.712.712,0,0,0,.644.262.709.709,0,0,0,.621-.239,1.521,1.521,0,0,0,.179-.764V5.42a.412.412,0,0,0,.012-.119.433.433,0,0,1,.007-.069.338.338,0,0,0,.005-.051.2.2,0,0,1,.008-.054.08.08,0,0,0,0-.018.511.511,0,0,1,.275-.358A1.022,1.022,0,0,1,17,4.691a2.309,2.309,0,0,1,.3-.012h.824a.58.58,0,0,0,.262-.036c.034-.023.048-.087.048-.215V.131a.135.135,0,0,1,.036-.1.135.135,0,0,1,.1-.036h.346a.133.133,0,0,1,.1.036.133.133,0,0,1,.036.1V4.608a.205.205,0,0,0,.072.215c-.006.034-.009.065-.011.095a.945.945,0,0,1-.012.1.36.36,0,0,1-.048.119c-.011.033-.042.057-.108.083a.343.343,0,0,1-.115.028l-.052.008a1.012,1.012,0,0,1-.113.012c-.037,0-.075.006-.114.011s-.08,0-.123.006-.091.006-.14.006h-.99a1.1,1.1,0,0,0-.13.009l-.037,0-.012.262a1.855,1.855,0,0,1-.334,1.122A1.27,1.27,0,0,1,15.745,7.067Zm-.3-4.476c-.073,0-.139,0-.2.007s-.089.005-.126.005a1.84,1.84,0,0,0-.23.02l-.033,0V4.679h.561a.976.976,0,0,0,.8-.274,1.211,1.211,0,0,0,.239-.8V3.474a1.064,1.064,0,0,0-.072-.418.68.68,0,0,0-.2-.274.788.788,0,0,0-.322-.144A1.488,1.488,0,0,0,15.447,2.59Zm-13.728,0a2.793,2.793,0,0,0-.466.048A1.064,1.064,0,0,0,.9,2.793a.85.85,0,0,0-.239.3,1.035,1.035,0,0,0-.083.466V3.7a1,1,0,0,0,.191.657.77.77,0,0,0,.645.239H1.54a1.311,1.311,0,0,0,.215-.012.991.991,0,0,0,.2-.06A.485.485,0,0,0,2.1,4.4a.327.327,0,0,0,.06-.191h.012V2.626l-.034,0A1.817,1.817,0,0,0,1.922,2.6,1.2,1.2,0,0,0,1.719,2.59Z" transform="translate(49.861 0.036)" fill="#453d66"/>
    <path id="Path-38" data-name="Path" d="M.131,5.312H.477a.109.109,0,0,0,.1-.048.136.136,0,0,0,.036-.1V.143a.136.136,0,0,0-.036-.1A.147.147,0,0,0,.477,0H.131a.109.109,0,0,0-.1.048A.136.136,0,0,0,0,.143V5.169a.136.136,0,0,0,.036.1A.1.1,0,0,0,.131,5.312Z" transform="translate(70.107 0.012)" fill="#453d66"/>
  </g>
  <g id="Group-2" data-name="Group" transform="translate(1.791)">
    <g id="Group-3" data-name="Group" transform="translate(24.567 23.098)">
      <path id="Path-39" data-name="Path" d="M13.871,6.016h0l-2.113-.991.131-.263-.263-.131-.167.251-1.421-.657L9.311,3.88,9.1,3.772l-.227-.107H8.845l-.752-.358-.072-.036L7.867,3.2,7.64,3.092l-.191-.084-.263-.131L5.67,2.161l-.394-.179-.215-.107L3.223,1.015,2.71.776l-.8-.37-.7-.334L1.062,0,.275.072,0,.084,1.253.7l1,.489.692.334,1.385.68.454.227.883.43,1.194.585h.012l.215.107.215.107.788.382.215.107.215.107h0l1.647.8.024.024.31.06.43.084.191.191-.215.334.382.191.119-.239,2.113,1.039.346-.728Z" transform="translate(0 11.03)" fill="#453d66"/>
      <g id="Group-4" data-name="Group" transform="translate(0.191 0)">
        <path id="Path-40" data-name="Path" d="M.239,1.946l.871-.812.334-.8L1.552.1,1.444.072,1.253.048.871,0,0,1.946l.036.191Z" transform="translate(8.404 0.358)" fill="#453d66"/>
        <path id="Path-41" data-name="Path" d="M.883,7.855l.394-.179V.5L.7,0H.6L0,.561V7.676l.645.3Z" transform="translate(7.258 5.933)" fill="#453d66"/>
        <path id="Path-42" data-name="Path" d="M1.886,2.483l.1-.1.74-.692.6-.561L3.963.525,4.5.012V0L3.927.012l-1,.012H2.471L1.158,1.241l-.573.525-.143.621L.024,4.178,0,4.262.06,4.2Z" transform="translate(2.757 5.945)" fill="#453d66"/>
        <path id="Path-43" data-name="Path" d="M1.325,1.731l-.346.31-.346.322L0,2.948l.036.2L.358,3.02l.251-.107.251-.107.477-.191L3.068,1.9,4.679.37,3.187,0,1.337,1.707Z" transform="translate(8.511)" fill="#453d66"/>
        <path id="Path-44" data-name="Path" d="M2.781.9l-.5.2-.943.394-.692.286-.251.107-.251.107L0,2.053l.084.072L.167,2.2h.1l.215-.012h.657l.2-.012h.37L3.45,2.149H3.7l.824-.322L6.6,1.015,5.419.31,5.36.275,4.918,0,3.283.68Z" transform="translate(8.511 1.54)" fill="#453d66"/>
        <path id="Path-45" data-name="Path" d="M1.409,2.041l.048-.275L.668,0,0,.1.477,1.241Z" transform="translate(5.921 0.537)" fill="#453d66"/>
        <path id="Path-46" data-name="Path" d="M5.264,0,3.533.024l-.37.012H2.614L2.423.048h-.37L.728.072H.107L0,.084.06.119.2.251.346.382.621.609.728.7l.06.048L.955.9l.286.251.382.322,1.146-.024,2.041-.024,1.9-.036L5.789.5Z" transform="translate(9.12 4.035)" fill="#453d66"/>
        <path id="Path-47" data-name="Path" d="M4.846,1.4H5.4l.179-.012,1.218-.012L5.945,1.05l-.2-.072L5.539.9,5.4.848,3.175,0,2.113.024H1.635L0,1.48l2.937-.048Z" transform="translate(0.084 4.19)" fill="#453d66"/>
        <path id="Path-48" data-name="Path" d="M3.33,2.268l.489.191.489.179,1.17.442.466.179.191.072.2.072.728.275.143.06-.119-.1-.513-.454-.143-.131-.143-.131-.358-.31-.215-.191L5.5,2.232,5.479,2.22,4.094,1.015,1.671,0,.919.454,0,1.015l1.588.6Z" transform="translate(0 1.54)" fill="#453d66"/>
        <path id="Path-49" data-name="Path" d="M.179,1.074l.012.012.084.072.048.036.012.012H.477L.466,1.1.454,1.074.442.991.418.848.382.645.334.3.286,0H.143L.107.286.048.645,0,.919.036.955Z" transform="translate(7.676 1.958)" fill="#453d66"/>
        <path id="Path-50" data-name="Path" d="M2.328,2.447l.454.394.263.227.6.525.215.191.215.191.06.06.143.131.143.131.394.346.012.012h0l.251.215h.012v.012l.1.084.072.06.167.143.036.024.072.06.024.012.06.048.012.012.048.036.084.072.036.024.1.084L6.1,5.73h0l.537.466.788.692.812.7.167.143.227.2.227.2,1,.871.728.645.2.179-.06-.239-.048-.179-.346-1.277-.215-.776L9.8,7.079l-.131-.119-.752-.645-.74-.633L7.95,5.491,7.723,5.3,7.64,5.228l-.227-.191L7.222,4.87l-.155-.1L6.9,4.632l-.143-.119-.143-.131L6.47,4.25l-.143-.131-.155-.131-.06-.048-.1-.084L5.9,3.748l-.072-.072-.119-.107H5.694l-.012-.012h0l-.143-.119-.012-.012h0l-.072-.06h0l-.084-.072-.06-.06h0l-.072-.06-.072-.06L5.145,3.1l-.119-.1-.167-.143-.525-.454L4,2.125l-.334-.286-.143-.119-.454-.394L1.48,0,0,.418,1.862,2.053Z" transform="translate(2.435 0.167)" fill="#453d66"/>
        <path id="Path-51" data-name="Path" d="M4.548,0,4.262.131l-.907.43L2.4,1,2.244.752,1.982.883l.131.263L0,2.137l.334.728L2.447,1.826l.119.239.394-.191L2.746,1.54l.179-.191.43-.084.31-.06L3.7,1.182l1.635-.8Z" transform="translate(2.125 14.909)" fill="#453d66"/>
        <path id="Path-52" data-name="Path" d="M.764,3.45l.728-.358,1.253-.609,1.516-.752L7.628.084,7.365.072,6.565,0,6.434.072,3.975,1.218l-1.934.907-.549.263L.179,3.008,0,3.092l.179.084Z" transform="translate(8.356 11.03)" fill="#453d66"/>
      </g>
    </g>
    <g id="Group-5" data-name="Group">
      <path id="Path-53" data-name="Path" d="M4.19,0H.036Q0,.591,0,1.182A16.361,16.361,0,0,0,.227,3.951H4.453a12.464,12.464,0,0,1-.31-2.769A9.782,9.782,0,0,1,4.19,0Z" transform="translate(15.876 30.822)" fill="#453d66"/>
      <path id="Path-54" data-name="Path" d="M.215,1.194A17.806,17.806,0,0,1,0,3.963H5.563A23.1,23.1,0,0,0,5.754.931C5.754.621,5.742.31,5.73,0H.167C.2.406.215.8.215,1.194Z" transform="translate(49.981 30.81)" fill="#453d66"/>
      <path id="Path-55" data-name="Path" d="M.024,0C.012.31,0,.621,0,.931A25.685,25.685,0,0,0,.191,3.963H6.124a17.806,17.806,0,0,1-.215-2.769q0-.591.036-1.182H.024Z" transform="translate(9.096 30.822)" fill="#453d66"/>
      <path id="Path-56" data-name="Path" d="M0,3.951H4.082a16.361,16.361,0,0,0,.227-2.769Q4.309.591,4.273,0H.263C.3.394.322.788.322,1.182A13.122,13.122,0,0,1,0,3.951Z" transform="translate(45.039 30.822)" fill="#453d66"/>
      <path id="Path-57" data-name="Path" d="M6.637,3.951V0H.155C.167.31.179.621.179.931A25.677,25.677,0,0,1,0,3.963H6.637Z" transform="translate(57.907 30.822)" fill="#453d66"/>
      <path id="Path-58" data-name="Path" d="M6.768.931c0-.31.012-.621.024-.931H0V3.951H6.947A25.326,25.326,0,0,1,6.768.931Z" transform="translate(0 30.822)" fill="#453d66"/>
      <path id="Path-59" data-name="Path" d="M5.443,7.878a17.564,17.564,0,0,1,2.375-5.2L2.375,0A23.289,23.289,0,0,0,0,5.2Z" transform="translate(10.17 19.541)" fill="#453d66"/>
      <path id="Path-60" data-name="Path" d="M2.364,0A16.434,16.434,0,0,0,0,5.2L3.832,7.091A12.579,12.579,0,0,1,6.124,1.85Z" transform="translate(16.39 22.585)" fill="#453d66"/>
      <path id="Path-61" data-name="Path" d="M2.674,0A17.548,17.548,0,0,1,0,5.049L4.942,7.473A23.53,23.53,0,0,0,7.616,2.423Z" transform="translate(46.626 37.59)" fill="#453d66"/>
      <path id="Path-62" data-name="Path" d="M2.375.68A25.848,25.848,0,0,1,0,5.061l11.209,5.5,2.519-5.133L2.65,0C2.566.227,2.471.454,2.375.68Z" transform="translate(53.681 41.052)" fill="#453d66"/>
      <path id="Path-63" data-name="Path" d="M7.867,6.709A24.578,24.578,0,0,1,9.526,3.45L2.519,0,0,5.133l7.15,3.51Q7.455,7.676,7.867,6.709Z" transform="translate(0.919 15.053)" fill="#453d66"/>
      <path id="Path-64" data-name="Path" d="M3.7,6.84A16.607,16.607,0,0,0,6.386,1.791L2.746,0A12.642,12.642,0,0,1,0,5.014Z" transform="translate(42.138 35.417)" fill="#453d66"/>
      <path id="Path-65" data-name="Path" d="M0,2.578,2.638,6.864,6.912,4.238,4.309,0A17.415,17.415,0,0,1,0,2.578Z" transform="translate(39.369 45.671)" fill="#453d66"/>
      <path id="Path-66" data-name="Path" d="M2.161,6.04A16.811,16.811,0,0,0,6.47,3.474L4.333,0A12.826,12.826,0,0,1,0,2.531Z" transform="translate(36.766 41.47)" fill="#453d66"/>
      <path id="Path-67" data-name="Path" d="M7.186,4.727,4.273,0,0,2.626l2.948,4.8A17.234,17.234,0,0,1,7.186,4.727Z" transform="translate(18.228 11.209)" fill="#453d66"/>
      <path id="Path-68" data-name="Path" d="M4.226,0A16.571,16.571,0,0,0,0,2.686L2.208,6.267a12.622,12.622,0,0,1,4.2-2.722Z" transform="translate(21.63 16.664)" fill="#453d66"/>
      <path id="Path-69" data-name="Path" d="M0,0V6.279H4.99V.024C4.214.1,3.438.131,2.65.131A21.651,21.651,0,0,1,0,0Z" transform="translate(29.783 57.262)" fill="#453d66"/>
      <path id="Path-70" data-name="Path" d="M4.99,4.25V.143A16.285,16.285,0,0,0,2.829,0,17.183,17.183,0,0,0,0,.239V4.4a12.861,12.861,0,0,1,2.9-.334A13.328,13.328,0,0,1,4.99,4.25Z" transform="translate(29.771 15.256)" fill="#453d66"/>
      <path id="Path-71" data-name="Path" d="M0,0V5.551a24.254,24.254,0,0,0,2.638.143,21.779,21.779,0,0,0,2.34-.119V.1A18.58,18.58,0,0,1,2.817.227,16.928,16.928,0,0,1,0,0Z" transform="translate(29.783 49.372)" fill="#453d66"/>
      <path id="Path-72" data-name="Path" d="M0,0V4.178a17.073,17.073,0,0,0,2.829.239A16.285,16.285,0,0,0,4.99,4.273V.167A13.328,13.328,0,0,1,2.9.346,13.584,13.584,0,0,1,0,0Z" transform="translate(29.783 44.346)" fill="#453d66"/>
      <path id="Path-73" data-name="Path" d="M4.978,6.112V.119C4.2.048,3.426,0,2.638,0A24.091,24.091,0,0,0,0,.143V6.207A18.584,18.584,0,0,1,2.829,5.98,16.1,16.1,0,0,1,4.978,6.112Z" transform="translate(29.783 8.44)" fill="#453d66"/>
      <path id="Path-74" data-name="Path" d="M4.99,6.207V0H0V6.231C.871,6.148,1.755,6.1,2.638,6.1,3.438,6.1,4.214,6.136,4.99,6.207Z" transform="translate(29.771)" fill="#453d66"/>
      <path id="Path-75" data-name="Path" d="M6.482,2.387A16.81,16.81,0,0,0,2.1,0L0,3.545a12.757,12.757,0,0,1,4.429,2.3Z" transform="translate(36.205 16.282)" fill="#453d66"/>
      <path id="Path-76" data-name="Path" d="M2.173,0,0,3.665a16.464,16.464,0,0,0,4.19,2.71L6.315,2.793A12.811,12.811,0,0,1,2.173,0Z" transform="translate(21.511 40.92)" fill="#453d66"/>
      <path id="Path-77" data-name="Path" d="M0,4.906A23.234,23.234,0,0,0,4.25,7.52L7.1,2.71A17.363,17.363,0,0,1,2.913,0Z" transform="translate(18.156 45.313)" fill="#453d66"/>
      <path id="Path-78" data-name="Path" d="M4.321,7.723,7.389,2.543,3.1,0,0,5.24c.143.06.286.131.43.191A25.813,25.813,0,0,1,4.321,7.723Z" transform="translate(42.986 3.151)" fill="#453d66"/>
      <path id="Path-79" data-name="Path" d="M0,5.563,4.285,8.105,7.556,2.6A25.323,25.323,0,0,1,3.307,0Z" transform="translate(13.656 52.237)" fill="#453d66"/>
      <path id="Path-80" data-name="Path" d="M7.377,2.483A22.894,22.894,0,0,0,3.056,0L0,5.145A17.754,17.754,0,0,1,4.381,7.532Z" transform="translate(38.736 10.397)" fill="#453d66"/>
      <path id="Path-81" data-name="Path" d="M1.9,4.894l3.092-2.6A16.258,16.258,0,0,0,3.772.764C3.533.5,3.295.251,3.044,0L0,2.566A12.65,12.65,0,0,1,1.9,4.894Z" transform="translate(41.493 20.341)" fill="#453d66"/>
      <path id="Path-82" data-name="Path" d="M0,3.259c.239.239.477.489.7.74a18.929,18.929,0,0,1,1.241,1.54L5.813,2.292,3.88,0Z" transform="translate(45.182 16.545)" fill="#453d66"/>
      <path id="Path-83" data-name="Path" d="M1.277,5.587l5.217-2.28A28.4,28.4,0,0,0,5.193,0L0,2.268A21.929,21.929,0,0,1,1.277,5.587Z" transform="translate(48.345 21.785)" fill="#453d66"/>
      <path id="Path-84" data-name="Path" d="M0,1.659A26.224,26.224,0,0,0,1.612,4.846L5.384,3.187A12.348,12.348,0,0,1,3.76,0Z" transform="translate(16.915 36.134)" fill="#453d66"/>
      <path id="Path-85" data-name="Path" d="M5,3.319A20.593,20.593,0,0,0,3.736,0L0,1.635a12.392,12.392,0,0,1,1.23,3.33Z" transform="translate(43.833 24.399)" fill="#453d66"/>
      <path id="Path-86" data-name="Path" d="M0,3.581,1.385,6.876,9.753,3.211C9.239,2.22,8.762,1.325,8.189,0Z" transform="translate(0.525 41.398)" fill="#453d66"/>
      <path id="Path-87" data-name="Path" d="M1.3,7.747,11.6,3.259,10.1,0,0,4.429a2.77,2.77,0,0,1,.215.454C.525,5.622.859,6.506,1.3,7.747Z" transform="translate(55.675 16.414)" fill="#453d66"/>
      <path id="Path-88" data-name="Path" d="M5.3,0,0,2.328c.573,1.313,1.05,2.22,1.588,3.2L6.912,3.2A26.46,26.46,0,0,1,5.3,0Z" transform="translate(10.839 38.127)" fill="#453d66"/>
    </g>
  </g>
</svg>
