<svg id="Zain-01" xmlns="http://www.w3.org/2000/svg" width="57.518" height="68.646" viewBox="0 0 57.518 68.646">
  <path id="Path" d="M.413.791H.464C.542.705.739.473.808.4h0V.344C.722.267.49.069.4,0H.353C.284.086.077.318,0,.4V.456c.095.06.327.267.413.335" transform="translate(32.163 67.855)" fill="#453d66"/>
  <g id="UOPBxE.tif" transform="translate(0 0)">
    <g id="Group" transform="translate(0)">
      <path id="Path-2" data-name="Path" d="M19.029,10.914c-.1-.378-.189-.765-.3-1.135A7.757,7.757,0,0,0,17.18,6.821,5.444,5.444,0,0,0,13.767,4.99,6.91,6.91,0,0,0,9.5,5.635,6.769,6.769,0,0,0,5.986,10.1a10.051,10.051,0,0,0,.267,6.354,7.287,7.287,0,0,0,5.417,4.7,8.844,8.844,0,0,0,5.812-.516,7.813,7.813,0,0,0,3.912-3.929,12.391,12.391,0,0,0,1.032-4.041,29.664,29.664,0,0,0,.1-3.026c.017-1.711-.052-3.431.034-5.142A4.239,4.239,0,0,1,24.4.983,5.432,5.432,0,0,1,27.721.141c.112,0,.155.043.155.155s0,.206,0,.31q0,5.971-.017,11.951c0,.172.06.215.215.215,2.743-.009,5.485.017,8.228-.009A5.44,5.44,0,0,0,41.53,8c.12-1,.026-2,.052-3.009a6.351,6.351,0,0,1,.258-1.8A4.147,4.147,0,0,1,45.063.3,6.888,6.888,0,0,1,46.637.141c.224,0,.292.06.292.292-.009,2.192-.009,4.376-.009,6.569a12.867,12.867,0,0,1-.172,2.149,10.794,10.794,0,0,1-7.1,8.357,9.88,9.88,0,0,1-3.2.585c-3.1.009-6.2.009-9.294,0a.442.442,0,0,0-.481.327A12.6,12.6,0,0,1,18.3,25.874a15.608,15.608,0,0,1-5.528.593A13.488,13.488,0,0,1,4.825,23.45,13.112,13.112,0,0,1,.664,17.156a14.93,14.93,0,0,1-.653-5A13.288,13.288,0,0,1,2.031,5.334,11.24,11.24,0,0,1,9.425.27,12.156,12.156,0,0,1,12.907.038a8.8,8.8,0,0,1,5.167,1.926,6.089,6.089,0,0,1,2.261,5.5,7.575,7.575,0,0,1-1.187,3.293c-.026.043-.052.077-.077.12C19.072,10.888,19.055,10.9,19.029,10.914Z" transform="translate(0.237 8.156)" fill="#453d66"/>
      <path id="Path-3" data-name="Path" d="M12.444,5.993c0,1.711.017,3.431,0,5.142A15.864,15.864,0,0,1,8.756,21.28,15.907,15.907,0,0,1,.828,26.5c-.172.052-.249.009-.335-.146a4.978,4.978,0,0,1,1.513-6.148,13.444,13.444,0,0,0,2.253-1.874,10.624,10.624,0,0,0,2.8-6.259c.034-.4.043-.791.043-1.187V4.909a5.356,5.356,0,0,1,.576-2.631A4.343,4.343,0,0,1,10.828.112,8.146,8.146,0,0,1,12.195,0c.2,0,.249.06.249.258Z" transform="translate(45.066 8.28)" fill="#453d66"/>
      <path id="Path-4" data-name="Path" d="M3.09,9.863v5.382c0,.189-.052.275-.249.267a2.925,2.925,0,0,1-2.2-.937A2.962,2.962,0,0,1,0,12.588C0,10.035,0,7.481,0,4.927,0,4.188,0,3.44,0,2.7a3.442,3.442,0,0,1,.31-1.427A2.08,2.08,0,0,1,1.99.035a2.661,2.661,0,0,1,2.3.7,13.683,13.683,0,0,1,1.53,1.84C7.682,5,9.53,7.421,11.4,9.845l.9,1.187c.077.1.138.292.275.249.155-.043.077-.232.077-.361.009-3.508,0-7.016,0-10.524,0-.413,0-.4.4-.387a2.788,2.788,0,0,1,1.814.7,2.758,2.758,0,0,1,.851,2.132c.009,2.983.009,5.958,0,8.942a11.576,11.576,0,0,1-.034,1.444,2.335,2.335,0,0,1-1.367,2.064A2.545,2.545,0,0,1,11.7,14.97a6.652,6.652,0,0,1-1.315-1.419L3.348,4.377a.99.99,0,0,0-.12-.146c-.077-.069-.138-.034-.155.052a.7.7,0,0,0-.009.189C3.09,6.269,3.09,8.066,3.09,9.863Z" transform="translate(41.531 48.913)" fill="#453d66"/>
      <path id="Path-5" data-name="Path" d="M11.325,9.251a4.368,4.368,0,0,1,.774,2.072,3.885,3.885,0,0,1-3.173,4.17,6.865,6.865,0,0,1-6.947-1.935A7.1,7.1,0,0,1,.114,9.6,8.624,8.624,0,0,1,.561,5.1,7.534,7.534,0,0,1,6.338.215a8.834,8.834,0,0,1,5.89.705A7.485,7.485,0,0,1,16.278,6.1,10.76,10.76,0,0,1,16.57,8.77v6.638c0,.146.009.292-.206.284a3.381,3.381,0,0,1-1.9-.55,2.422,2.422,0,0,1-1.023-1.874c-.095-1.23-.034-2.468-.034-3.7a10.377,10.377,0,0,0-.3-2.674,4.734,4.734,0,0,0-2.579-3.336,5.024,5.024,0,0,0-5.357.464,4.378,4.378,0,0,0-1.7,2.915,5.676,5.676,0,0,0,.542,3.86,4.022,4.022,0,0,0,5.4,1.565,3.765,3.765,0,0,0,1.659-2.175C11.153,9.887,11.231,9.6,11.325,9.251Z" transform="translate(15.963 48.742)" fill="#453d66"/>
      <path id="Path-6" data-name="Path" d="M8.8,15.1c-1.831,0-3.663.009-5.5,0a5.328,5.328,0,0,1-1.84-.258A2.179,2.179,0,0,1,.351,11.573,6.4,6.4,0,0,1,1.8,10.051q3-2.438,6.027-4.866c.851-.688,1.711-1.376,2.562-2.064.086-.069.249-.129.2-.258s-.206-.077-.318-.077H3.274a4.054,4.054,0,0,1-1.462-.249A2.076,2.076,0,0,1,.428.619C.377,0,.377,0,1,0H11.425a5.871,5.871,0,0,1,1.548.189A2.212,2.212,0,0,1,14.09,3.8a12.768,12.768,0,0,1-2.038,1.874c-1.788,1.453-3.585,2.9-5.382,4.351-.782.628-1.565,1.255-2.339,1.883-.1.086-.292.155-.241.318s.249.095.378.095c2.4.009,4.806,0,7.205.009a5.185,5.185,0,0,1,1.264.146,2.307,2.307,0,0,1,1.8,2.476c0,.12-.052.155-.155.155h-.43C12.371,15.1,10.582,15.1,8.8,15.1Z" transform="translate(0 49.086)" fill="#453d66"/>
      <path id="Path-7" data-name="Path" d="M0,6.66V.306C0,0,0-.012.319.005A2.9,2.9,0,0,1,2.658,1.1,2.626,2.626,0,0,1,3.14,2.516c.026.3.017.6.017.9v11.8c0,.344,0,.344-.344.335A2.789,2.789,0,0,1,.6,14.6a2.5,2.5,0,0,1-.585-1.548C-.007,12.335,0,11.6,0,10.873Z" transform="translate(35.403 48.84)" fill="#453d66"/>
      <path id="Path-8" data-name="Path" d="M6.354,3.181A3.177,3.177,0,1,1,0,3.138a3.177,3.177,0,0,1,6.354.043Z" transform="translate(10.995 17.411)" fill="#453d66"/>
      <path id="Path-9" data-name="Path" d="M0,3.181A3.177,3.177,0,1,1,3.25,6.354,3.146,3.146,0,0,1,0,3.181Z" transform="translate(36.273 28.451)" fill="#453d66"/>
      <path id="Path-10" data-name="Path" d="M3.164,6.354A3.177,3.177,0,0,1,3.181,0a3.177,3.177,0,1,1-.017,6.354Z" transform="translate(51.156 0)" fill="#453d66"/>
      <path id="Path-11" data-name="Path" d="M3.164,6.345A3.141,3.141,0,0,1,0,3.173,3.177,3.177,0,1,1,3.164,6.345Z" transform="translate(28.827 28.459)" fill="#453d66"/>
      <path id="Path-12" data-name="Path" d="M1.791.006a1.873,1.873,0,0,1,1.96,1.771A1.894,1.894,0,0,1,2.006,3.746,1.874,1.874,0,0,1,0,1.941,1.845,1.845,0,0,1,1.791.006Z" transform="translate(35.109 43.929)" fill="#453d66"/>
    </g>
  </g>
</svg>
